M48
; DRILL file {KiCad (6.0.10)} date Tue Jan 31 22:11:16 2023
; FORMAT={-:-/ absolute / inch / decimal}
; #@! TF.CreationDate,2023-01-31T22:11:16-06:00
; #@! TF.GenerationSoftware,Kicad,Pcbnew,(6.0.10)
; #@! TF.FileFunction,Plated,1,2,PTH
FMAT,2
INCH
; #@! TA.AperFunction,Plated,PTH,ViaDrill
T1C0.0157
; #@! TA.AperFunction,Plated,PTH,ComponentDrill
T2C0.0217
; #@! TA.AperFunction,Plated,PTH,ComponentDrill
T3C0.0335
; #@! TA.AperFunction,Plated,PTH,ComponentDrill
T4C0.0394
; #@! TA.AperFunction,Plated,PTH,ComponentDrill
T5C0.0400
; #@! TA.AperFunction,Plated,PTH,ComponentDrill
T6C0.1772
%
G90
G05
T1
X4.4898Y-5.0063
X4.5205Y-4.4339
X4.5866Y-3.7409
X4.6209Y-3.8394
X4.6567Y-4.265
X4.6811Y-4.4341
X4.6837Y-3.1539
X4.7122Y-3.4323
X4.7244Y-3.5669
X4.7764Y-5.2098
X4.7799Y-4.287
X4.7835Y-3.5654
X4.7906Y-2.8839
X4.8111Y-4.2585
X4.839Y-5.3476
X4.8398Y-5.4831
X4.8421Y-3.5646
X4.8499Y-4.2408
X4.8776Y-2.8835
X4.8893Y-4.2231
X4.9016Y-3.5657
X4.9317Y-5.1053
X4.9606Y-3.5657
X4.9902Y-2.8012
X5.0197Y-3.5657
X5.0256Y-5.6506
X5.0283Y-2.8297
X5.0476Y-4.6429
X5.0626Y-2.8582
X5.0787Y-3.4315
X5.0787Y-3.5657
X5.1362Y-3.4323
X5.1378Y-3.5661
X5.1701Y-5.4965
X5.1732Y-5.3587
X5.1969Y-3.5665
X5.1972Y-4.4343
X5.1976Y-3.4323
X5.2551Y-3.4319
X5.2559Y-3.5665
X5.2559Y-4.4339
X5.2563Y-4.7043
X5.315Y-3.5665
X5.315Y-4.4339
X5.3197Y-4.7043
X5.3736Y-4.4343
X5.374Y-3.5665
X5.3772Y-4.7043
X5.415Y-1.7087
X5.4327Y-4.4346
X5.4335Y-3.5661
X5.4335Y-4.7043
X5.4645Y-3.7183
X5.4657Y-5.3047
X5.4921Y-3.5661
X5.5429Y-2.3969
X5.672Y-1.6307
X5.6791Y-3.7094
X5.6839Y-4.2559
X5.6875Y-2.3617
X5.6885Y-2.3178
X5.69Y-5.2569
X5.6902Y-2.2323
X5.6907Y-2.2732
X5.7201Y-4.4319
X5.776Y-3.3996
X5.9469Y-4.711
X6.0547Y-2.813
X6.0571Y-3.3984
X6.089Y-4.711
X6.0933Y-2.7807
X6.1283Y-2.7449
X6.1626Y-2.7173
X6.2803Y-2.7264
X6.2807Y-2.6161
X6.2807Y-2.6732
X6.3917Y-4.8913
X6.5051Y-4.8921
X6.8051Y-5.0165
X6.8295Y-5.3638
X6.8299Y-5.5933
X6.8709Y-4.6846
X7.0583Y-4.6094
X7.06Y-4.8417
X7.2173Y-5.3169
X7.2449Y-5.2547
T4
X4.3732Y-4.5508
X4.3732Y-4.6508
X4.3732Y-4.7508
X4.3732Y-4.8508
X4.6657Y-1.3449
X4.6657Y-1.4449
X4.6657Y-1.5449
X4.6657Y-1.6449
X4.6663Y-1.7465
X4.6663Y-1.8465
X4.9669Y-1.7476
X5.0669Y-1.7476
X5.1669Y-1.7476
X5.2669Y-1.7476
X7.1417Y-3.9715
X7.1417Y-4.0715
X7.1594Y-3.3547
X7.1594Y-3.4547
X7.1614Y-2.9524
X7.1614Y-3.0524
X7.1614Y-3.1524
X7.1614Y-3.2524
X7.361Y-4.6537
X7.361Y-4.7537
X7.361Y-4.8581
X7.361Y-4.9581
T5
X6.7694Y-1.6466
X6.7694Y-1.7466
X6.8694Y-1.6466
X6.8694Y-1.7466
X6.9694Y-1.6466
X6.9694Y-1.7466
T6
X5.8992Y-1.3437
T2
G00X6.7337Y-5.6801
M15
G01X6.7337Y-5.6545
M16
G05
G00X7.0388Y-5.6801
M15
G01X7.0388Y-5.6545
M16
G05
T3
G00X6.7396Y-5.5285
M15
G01X6.7396Y-5.5069
M16
G05
G00X7.0329Y-5.5285
M15
G01X7.0329Y-5.5069
M16
G05
T0
M30
