%TF.GenerationSoftware,KiCad,Pcbnew,(6.0.10)*%
%TF.CreationDate,2023-01-31T22:12:51-06:00*%
%TF.ProjectId,CC11_Main,43433131-5f4d-4616-996e-2e6b69636164,1d*%
%TF.SameCoordinates,Original*%
%TF.FileFunction,Soldermask,Bot*%
%TF.FilePolarity,Negative*%
%FSLAX46Y46*%
G04 Gerber Fmt 4.6, Leading zero omitted, Abs format (unit mm)*
G04 Created by KiCad (PCBNEW (6.0.10)) date 2023-01-31 22:12:51*
%MOMM*%
%LPD*%
G01*
G04 APERTURE LIST*
G04 Aperture macros list*
%AMRoundRect*
0 Rectangle with rounded corners*
0 $1 Rounding radius*
0 $2 $3 $4 $5 $6 $7 $8 $9 X,Y pos of 4 corners*
0 Add a 4 corners polygon primitive as box body*
4,1,4,$2,$3,$4,$5,$6,$7,$8,$9,$2,$3,0*
0 Add four circle primitives for the rounded corners*
1,1,$1+$1,$2,$3*
1,1,$1+$1,$4,$5*
1,1,$1+$1,$6,$7*
1,1,$1+$1,$8,$9*
0 Add four rect primitives between the rounded corners*
20,1,$1+$1,$2,$3,$4,$5,0*
20,1,$1+$1,$4,$5,$6,$7,0*
20,1,$1+$1,$6,$7,$8,$9,0*
20,1,$1+$1,$8,$9,$2,$3,0*%
G04 Aperture macros list end*
%ADD10C,1.152495*%
%ADD11C,0.100000*%
%ADD12C,0.953085*%
%ADD13R,1.955800X2.463800*%
%ADD14R,1.930400X2.438400*%
%ADD15C,5.400000*%
%ADD16RoundRect,0.200000X-0.750000X-0.500000X0.750000X-0.500000X0.750000X0.500000X-0.750000X0.500000X0*%
%ADD17O,2.127200X2.127200*%
%ADD18RoundRect,0.200000X-0.863600X0.863600X-0.863600X-0.863600X0.863600X-0.863600X0.863600X0.863600X0*%
%ADD19C,2.127200*%
%ADD20C,3.000000*%
%ADD21RoundRect,0.200000X0.750000X1.100000X-0.750000X1.100000X-0.750000X-1.100000X0.750000X-1.100000X0*%
%ADD22RoundRect,0.200000X1.900000X1.100000X-1.900000X1.100000X-1.900000X-1.100000X1.900000X-1.100000X0*%
%ADD23RoundRect,0.443750X-0.243750X-0.456250X0.243750X-0.456250X0.243750X0.456250X-0.243750X0.456250X0*%
%ADD24RoundRect,0.450000X-0.625000X0.375000X-0.625000X-0.375000X0.625000X-0.375000X0.625000X0.375000X0*%
%ADD25RoundRect,0.200000X0.400000X-0.500000X0.400000X0.500000X-0.400000X0.500000X-0.400000X-0.500000X0*%
%ADD26C,1.300000*%
%ADD27RoundRect,0.200000X0.750000X-0.350000X0.750000X0.350000X-0.750000X0.350000X-0.750000X-0.350000X0*%
%ADD28RoundRect,0.200000X0.850000X0.850000X-0.850000X0.850000X-0.850000X-0.850000X0.850000X-0.850000X0*%
%ADD29O,2.100000X2.100000*%
%ADD30RoundRect,0.450001X0.499999X0.924999X-0.499999X0.924999X-0.499999X-0.924999X0.499999X-0.924999X0*%
%ADD31RoundRect,0.200000X-0.850000X-0.850000X0.850000X-0.850000X0.850000X0.850000X-0.850000X0.850000X0*%
%ADD32RoundRect,0.200000X0.750000X0.500000X-0.750000X0.500000X-0.750000X-0.500000X0.750000X-0.500000X0*%
%ADD33RoundRect,0.443750X0.456250X-0.243750X0.456250X0.243750X-0.456250X0.243750X-0.456250X-0.243750X0*%
%ADD34RoundRect,0.200000X0.800000X0.700000X-0.800000X0.700000X-0.800000X-0.700000X0.800000X-0.700000X0*%
%ADD35RoundRect,0.450000X-0.375000X-0.625000X0.375000X-0.625000X0.375000X0.625000X-0.375000X0.625000X0*%
%ADD36RoundRect,0.450000X0.375000X0.625000X-0.375000X0.625000X-0.375000X-0.625000X0.375000X-0.625000X0*%
%ADD37RoundRect,0.200000X0.300000X0.600000X-0.300000X0.600000X-0.300000X-0.600000X0.300000X-0.600000X0*%
%ADD38RoundRect,0.200000X2.750000X-2.250000X2.750000X2.250000X-2.750000X2.250000X-2.750000X-2.250000X0*%
%ADD39RoundRect,0.200000X1.750000X-2.750000X1.750000X2.750000X-1.750000X2.750000X-1.750000X-2.750000X0*%
%ADD40RoundRect,0.443750X-0.456250X0.243750X-0.456250X-0.243750X0.456250X-0.243750X0.456250X0.243750X0*%
%ADD41RoundRect,0.200000X0.850000X-0.850000X0.850000X0.850000X-0.850000X0.850000X-0.850000X-0.850000X0*%
%ADD42RoundRect,0.070000X0.325000X0.875000X-0.325000X0.875000X-0.325000X-0.875000X0.325000X-0.875000X0*%
%ADD43RoundRect,0.200000X-0.850000X0.974000X-0.850000X-0.974000X0.850000X-0.974000X0.850000X0.974000X0*%
%ADD44O,1.400000X1.400000*%
%ADD45RoundRect,0.200000X0.200000X0.650000X-0.200000X0.650000X-0.200000X-0.650000X0.200000X-0.650000X0*%
%ADD46O,1.850000X2.400000*%
%ADD47O,1.550000X2.200000*%
%ADD48RoundRect,0.200000X-0.450000X0.750000X-0.450000X-0.750000X0.450000X-0.750000X0.450000X0.750000X0*%
%ADD49RoundRect,0.200000X0.750000X0.450000X-0.750000X0.450000X-0.750000X-0.450000X0.750000X-0.450000X0*%
%ADD50RoundRect,0.200000X0.450000X-0.750000X0.450000X0.750000X-0.450000X0.750000X-0.450000X-0.750000X0*%
%ADD51RoundRect,0.200000X0.550000X-0.550000X0.550000X0.550000X-0.550000X0.550000X-0.550000X-0.550000X0*%
%ADD52RoundRect,0.450000X0.625000X-0.375000X0.625000X0.375000X-0.625000X0.375000X-0.625000X-0.375000X0*%
G04 APERTURE END LIST*
%TO.C,D6*%
D10*
X162265047Y-39750000D02*
G75*
G03*
X162265047Y-39750000I-576247J0D01*
G01*
G36*
X160368000Y-40994600D02*
G01*
X158386800Y-40994600D01*
X158386800Y-38505400D01*
X160368000Y-38505400D01*
X160368000Y-40994600D01*
G37*
D11*
X160368000Y-40994600D02*
X158386800Y-40994600D01*
X158386800Y-38505400D01*
X160368000Y-38505400D01*
X160368000Y-40994600D01*
G36*
X164940000Y-40969200D02*
G01*
X163009600Y-40969200D01*
X163009600Y-38530800D01*
X164940000Y-38530800D01*
X164940000Y-40969200D01*
G37*
X164940000Y-40969200D02*
X163009600Y-40969200D01*
X163009600Y-38530800D01*
X164940000Y-38530800D01*
X164940000Y-40969200D01*
%TO.C,D7*%
D12*
X140979626Y-76570000D02*
G75*
G03*
X140979626Y-76570000I-476542J0D01*
G01*
%TO.C,D8*%
X162789626Y-75300000D02*
G75*
G03*
X162789626Y-75300000I-476542J0D01*
G01*
%TD*%
D13*
%TO.C,D6*%
X159402800Y-39750000D03*
D14*
X163974800Y-39750000D03*
%TD*%
D15*
%TO.C,REF\u002A\u002A*%
X149840000Y-34130000D03*
%TD*%
D16*
%TO.C,D7*%
X142260000Y-77350000D03*
X138730000Y-77350000D03*
X138700000Y-75900000D03*
X142250000Y-75910000D03*
%TD*%
%TO.C,D8*%
X164070000Y-76080000D03*
X160540000Y-76080000D03*
X160510000Y-74630000D03*
X164060000Y-74640000D03*
%TD*%
D17*
%TO.C,X1*%
X171942700Y-41823700D03*
D18*
X171942700Y-44363700D03*
D17*
X174482700Y-41823700D03*
X174482700Y-44363700D03*
D19*
X177022700Y-41823700D03*
X177022700Y-44363700D03*
%TD*%
D20*
%TO.C,REF\u002A\u002A*%
X119110000Y-143940000D03*
%TD*%
%TO.C,REF\u002A\u002A*%
X188260000Y-112370000D03*
%TD*%
D21*
%TO.C,U4*%
X180750000Y-114920000D03*
X178450000Y-114920000D03*
X176150000Y-114920000D03*
D22*
X178450000Y-108620000D03*
%TD*%
D23*
%TO.C,C4*%
X118812500Y-114430000D03*
X120687500Y-114430000D03*
%TD*%
D24*
%TO.C,R1*%
X115870000Y-140450000D03*
X115870000Y-143250000D03*
%TD*%
D25*
%TO.C,SW1*%
X108280000Y-138720000D03*
X110490000Y-131420000D03*
X108280000Y-131420000D03*
D26*
X109380000Y-136570000D03*
X109380000Y-133570000D03*
D25*
X110490000Y-138720000D03*
D27*
X111140000Y-137320000D03*
X111140000Y-134320000D03*
X111140000Y-132820000D03*
%TD*%
D28*
%TO.C,J4*%
X111080000Y-115590000D03*
D29*
X111080000Y-118130000D03*
X111080000Y-120670000D03*
X111080000Y-123210000D03*
%TD*%
D30*
%TO.C,C7*%
X179325000Y-122980000D03*
X176075000Y-122980000D03*
%TD*%
D31*
%TO.C,J1*%
X118525000Y-46900000D03*
D29*
X118525000Y-44360000D03*
%TD*%
D32*
%TO.C,D4*%
X152760000Y-43170000D03*
X152760000Y-46370000D03*
X147860000Y-46370000D03*
X147860000Y-43170000D03*
%TD*%
D33*
%TO.C,C5*%
X156750000Y-129167500D03*
X156750000Y-127292500D03*
%TD*%
D34*
%TO.C,SW7*%
X136580000Y-140820000D03*
X129380000Y-140820000D03*
X136580000Y-143820000D03*
X129380000Y-143820000D03*
%TD*%
D35*
%TO.C,D1*%
X110550000Y-143220000D03*
X113350000Y-143220000D03*
%TD*%
D24*
%TO.C,R8*%
X143510000Y-66310000D03*
X143510000Y-69110000D03*
%TD*%
D35*
%TO.C,R12*%
X142590000Y-100620000D03*
X145390000Y-100620000D03*
%TD*%
D28*
%TO.C,J6*%
X118510000Y-34160000D03*
D29*
X118510000Y-36700000D03*
X118510000Y-39240000D03*
X118510000Y-41780000D03*
%TD*%
D36*
%TO.C,D2*%
X187780000Y-142810000D03*
X184980000Y-142810000D03*
%TD*%
D34*
%TO.C,SW4*%
X136610000Y-125820000D03*
X129410000Y-125820000D03*
X129410000Y-128820000D03*
X136610000Y-128820000D03*
%TD*%
D28*
%TO.C,J8*%
X181400000Y-100875000D03*
D29*
X181400000Y-103415000D03*
%TD*%
D34*
%TO.C,SW6*%
X119200000Y-133325000D03*
X126400000Y-133325000D03*
X126400000Y-136325000D03*
X119200000Y-136325000D03*
%TD*%
D37*
%TO.C,U1*%
X171890000Y-131820000D03*
X170940000Y-131820000D03*
X169990000Y-131820000D03*
X169990000Y-129220000D03*
X171890000Y-129220000D03*
%TD*%
D38*
%TO.C,BT1*%
X149430000Y-110815000D03*
D39*
X149430000Y-123990000D03*
D38*
X149405000Y-80515000D03*
D39*
X149430000Y-67390000D03*
%TD*%
D33*
%TO.C,C2*%
X181460000Y-130090000D03*
X181460000Y-128215000D03*
%TD*%
D40*
%TO.C,C1*%
X121780000Y-81582500D03*
X121780000Y-83457500D03*
%TD*%
D41*
%TO.C,OLED1*%
X133780000Y-44390000D03*
D29*
X131240000Y-44390000D03*
X128700000Y-44390000D03*
X126160000Y-44390000D03*
%TD*%
D42*
%TO.C,U3*%
X164315000Y-136781100D03*
X163045000Y-136781100D03*
X161775000Y-136781100D03*
X160505000Y-136781100D03*
X160505000Y-131281100D03*
X161775000Y-131281100D03*
X163045000Y-131281100D03*
X164315000Y-131281100D03*
%TD*%
D34*
%TO.C,SW3*%
X139480000Y-133340000D03*
X146680000Y-133340000D03*
X139480000Y-136340000D03*
X146680000Y-136340000D03*
%TD*%
D24*
%TO.C,F1*%
X152910000Y-126700000D03*
X152910000Y-129500000D03*
%TD*%
D34*
%TO.C,SW5*%
X129380000Y-133340000D03*
X136580000Y-133340000D03*
X136580000Y-136340000D03*
X129380000Y-136340000D03*
%TD*%
D20*
%TO.C,REF\u002A\u002A*%
X177540000Y-32730000D03*
%TD*%
D32*
%TO.C,D5*%
X144278810Y-43170000D03*
X144278810Y-46370000D03*
X139378810Y-46370000D03*
X139378810Y-43170000D03*
%TD*%
D40*
%TO.C,C6*%
X176130000Y-118012500D03*
X176130000Y-119887500D03*
%TD*%
D43*
%TO.C,SW2*%
X186340000Y-90120000D03*
X186340000Y-93520000D03*
%TD*%
D35*
%TO.C,R2*%
X174650000Y-128360000D03*
X177450000Y-128360000D03*
%TD*%
D24*
%TO.C,R6*%
X138670000Y-66340000D03*
X138670000Y-69140000D03*
%TD*%
D28*
%TO.C,J2*%
X186970000Y-118205000D03*
D29*
X186970000Y-120745000D03*
%TD*%
D24*
%TO.C,R7*%
X141090000Y-66340000D03*
X141090000Y-69140000D03*
%TD*%
D44*
%TO.C,J9*%
X172410000Y-141200000D03*
X177410000Y-141200000D03*
D45*
X176210000Y-140100000D03*
X175560000Y-140100000D03*
X174910000Y-140100000D03*
X174260000Y-140100000D03*
X173610000Y-140100000D03*
D46*
X171185000Y-140150000D03*
D47*
X171035000Y-143950000D03*
D46*
X178635000Y-140150000D03*
D47*
X178785000Y-143950000D03*
%TD*%
D36*
%TO.C,R3*%
X187770000Y-137050000D03*
X184970000Y-137050000D03*
%TD*%
D24*
%TO.C,R11*%
X166550000Y-66510000D03*
X166550000Y-69310000D03*
%TD*%
D32*
%TO.C,D3*%
X161230000Y-43170000D03*
X161230000Y-46370000D03*
X156330000Y-46370000D03*
X156330000Y-43170000D03*
%TD*%
D48*
%TO.C,U2*%
X117000000Y-93150000D03*
X118500000Y-93150000D03*
X120000000Y-93150000D03*
X121500000Y-93150000D03*
X123000000Y-93150000D03*
X124500000Y-93150000D03*
X126000000Y-93150000D03*
X127500000Y-93150000D03*
X129000000Y-93150000D03*
X130500000Y-93150000D03*
X132000000Y-93150000D03*
X133500000Y-93150000D03*
X135000000Y-93150000D03*
X136500000Y-93150000D03*
X138000000Y-93150000D03*
X139500000Y-93150000D03*
D49*
X140250000Y-95150000D03*
X140250000Y-96650000D03*
X140250000Y-98150000D03*
X140250000Y-99650000D03*
X140250000Y-101150000D03*
X140250000Y-102650000D03*
X140250000Y-104150000D03*
X140250000Y-105650000D03*
X140250000Y-107150000D03*
X140250000Y-108650000D03*
D50*
X139500000Y-110650000D03*
X138000000Y-110650000D03*
X136500000Y-110650000D03*
X135000000Y-110650000D03*
X133500000Y-110650000D03*
X132000000Y-110650000D03*
X130500000Y-110650000D03*
X129000000Y-110650000D03*
X127500000Y-110650000D03*
X126000000Y-110650000D03*
X124500000Y-110650000D03*
X123000000Y-110650000D03*
X121500000Y-110650000D03*
X120000000Y-110650000D03*
X118500000Y-110650000D03*
X117000000Y-110650000D03*
D51*
X125050000Y-102210000D03*
X123500000Y-102210000D03*
X123500000Y-99210000D03*
X126550000Y-99210000D03*
X125050000Y-99210000D03*
X126550000Y-100710000D03*
X125050000Y-100710000D03*
X123500000Y-100710000D03*
X126550000Y-102210000D03*
%TD*%
D31*
%TO.C,J5*%
X181850000Y-87750000D03*
D29*
X181850000Y-85210000D03*
%TD*%
D23*
%TO.C,C3*%
X118922500Y-117870000D03*
X120797500Y-117870000D03*
%TD*%
D24*
%TO.C,R9*%
X161460000Y-66510000D03*
X161460000Y-69310000D03*
%TD*%
D52*
%TO.C,R5*%
X149990000Y-60750000D03*
X149990000Y-57950000D03*
%TD*%
D24*
%TO.C,R4*%
X121670000Y-75910000D03*
X121670000Y-78710000D03*
%TD*%
%TO.C,R10*%
X163990000Y-66510000D03*
X163990000Y-69310000D03*
%TD*%
D28*
%TO.C,J3*%
X181900000Y-74990000D03*
D29*
X181900000Y-77530000D03*
X181900000Y-80070000D03*
X181900000Y-82610000D03*
%TD*%
D28*
%TO.C,J7*%
X186970000Y-123395000D03*
D29*
X186970000Y-125935000D03*
%TD*%
D43*
%TO.C,SW_Reset1*%
X113270000Y-81060000D03*
X113270000Y-84460000D03*
%TD*%
M02*
