%TF.GenerationSoftware,KiCad,Pcbnew,(6.0.7)*%
%TF.CreationDate,2022-12-29T16:14:02-06:00*%
%TF.ProjectId,DevBoard_Addon,44657642-6f61-4726-945f-4164646f6e2e,0b*%
%TF.SameCoordinates,Original*%
%TF.FileFunction,Copper,L1,Top*%
%TF.FilePolarity,Positive*%
%FSLAX46Y46*%
G04 Gerber Fmt 4.6, Leading zero omitted, Abs format (unit mm)*
G04 Created by KiCad (PCBNEW (6.0.7)) date 2022-12-29 16:14:02*
%MOMM*%
%LPD*%
G01*
G04 APERTURE LIST*
%TA.AperFunction,ComponentPad*%
%ADD10C,2.000000*%
%TD*%
%TA.AperFunction,Conductor*%
%ADD11C,0.200000*%
%TD*%
G04 APERTURE END LIST*
D10*
%TO.P,REF\u002A\u002A826,*%
%TO.N,*%
X163090000Y-90820000D03*
%TD*%
%TO.P,REF\u002A\u002A406,*%
%TO.N,*%
X163090000Y-60340000D03*
%TD*%
%TO.P,REF\u002A\u002A332,*%
%TO.N,*%
X152930000Y-55260000D03*
%TD*%
%TO.P,REF\u002A\u002A1250,*%
%TO.N,*%
X173250000Y-121300000D03*
%TD*%
%TO.P,REF\u002A\u002A1059,*%
%TO.N,*%
X132610000Y-108600000D03*
%TD*%
%TO.P,REF\u002A\u002A640,*%
%TO.N,*%
X135150000Y-78120000D03*
%TD*%
%TO.P,REF\u002A\u002A1349,*%
%TO.N,*%
X155390000Y-128920000D03*
%TD*%
%TO.P,REF\u002A\u002A1180,*%
%TO.N,*%
X173250000Y-116220000D03*
%TD*%
%TO.P,REF\u002A\u002A1093,*%
%TO.N,*%
X130070000Y-111140000D03*
%TD*%
%TO.P,REF\u002A\u002A1155,*%
%TO.N,*%
X109750000Y-116220000D03*
%TD*%
%TO.P,REF\u002A\u002A1261,*%
%TO.N,*%
X112290000Y-123840000D03*
%TD*%
%TO.P,REF\u002A\u002A1143,*%
%TO.N,*%
X168170000Y-113680000D03*
%TD*%
%TO.P,REF\u002A\u002A342,*%
%TO.N,*%
X178330000Y-55260000D03*
%TD*%
%TO.P,REF\u002A\u002A935,*%
%TO.N,*%
X173250000Y-98440000D03*
%TD*%
%TO.P,REF\u002A\u002A564,*%
%TO.N,*%
X119910000Y-73040000D03*
%TD*%
%TO.P,REF\u002A\u002A459,*%
%TO.N,*%
X119910000Y-65420000D03*
%TD*%
%TO.P,REF\u002A\u002A901,*%
%TO.N,*%
X175790000Y-95900000D03*
%TD*%
%TO.P,REF\u002A\u002A618,*%
%TO.N,*%
X168170000Y-75580000D03*
%TD*%
%TO.P,REF\u002A\u002A494,*%
%TO.N,*%
X119910000Y-67960000D03*
%TD*%
%TO.P,REF\u002A\u002A793,*%
%TO.N,*%
X168170000Y-88280000D03*
%TD*%
%TO.P,REF\u002A\u002A85,*%
%TO.N,*%
X147850000Y-37480000D03*
%TD*%
%TO.P,REF\u002A\u002A223,*%
%TO.N,*%
X142770000Y-47640000D03*
%TD*%
%TO.P,REF\u002A\u002A389,*%
%TO.N,*%
X119910000Y-60340000D03*
%TD*%
%TO.P,REF\u002A\u002A461,*%
%TO.N,*%
X124990000Y-65420000D03*
%TD*%
%TO.P,REF\u002A\u002A1009,*%
%TO.N,*%
X183410000Y-103520000D03*
%TD*%
%TO.P,REF\u002A\u002A160,*%
%TO.N,*%
X160550000Y-42560000D03*
%TD*%
%TO.P,REF\u002A\u002A434,*%
%TO.N,*%
X145310000Y-62880000D03*
%TD*%
%TO.P,REF\u002A\u002A969,*%
%TO.N,*%
X170710000Y-100980000D03*
%TD*%
%TO.P,REF\u002A\u002A635,*%
%TO.N,*%
X122450000Y-78120000D03*
%TD*%
%TO.P,REF\u002A\u002A470,*%
%TO.N,*%
X147850000Y-65420000D03*
%TD*%
%TO.P,REF\u002A\u002A688,*%
%TO.N,*%
X168170000Y-80660000D03*
%TD*%
%TO.P,REF\u002A\u002A570,*%
%TO.N,*%
X135150000Y-73040000D03*
%TD*%
%TO.P,REF\u002A\u002A250,*%
%TO.N,*%
X122450000Y-50180000D03*
%TD*%
%TO.P,REF\u002A\u002A290,*%
%TO.N,*%
X135150000Y-52720000D03*
%TD*%
%TO.P,REF\u002A\u002A1198,*%
%TO.N,*%
X130070000Y-118760000D03*
%TD*%
%TO.P,REF\u002A\u002A130,*%
%TO.N,*%
X173250000Y-40020000D03*
%TD*%
%TO.P,REF\u002A\u002A73,*%
%TO.N,*%
X117370000Y-37480000D03*
%TD*%
%TO.P,REF\u002A\u002A1215,*%
%TO.N,*%
X173250000Y-118760000D03*
%TD*%
%TO.P,REF\u002A\u002A651,*%
%TO.N,*%
X163090000Y-78120000D03*
%TD*%
%TO.P,REF\u002A\u002A707,*%
%TO.N,*%
X127530000Y-83200000D03*
%TD*%
%TO.P,REF\u002A\u002A603,*%
%TO.N,*%
X130070000Y-75580000D03*
%TD*%
%TO.P,REF\u002A\u002A955,*%
%TO.N,*%
X135150000Y-100980000D03*
%TD*%
%TO.P,REF\u002A\u002A1299,*%
%TO.N,*%
X119910000Y-126380000D03*
%TD*%
%TO.P,REF\u002A\u002A619,*%
%TO.N,*%
X170710000Y-75580000D03*
%TD*%
%TO.P,REF\u002A\u002A1131,*%
%TO.N,*%
X137690000Y-113680000D03*
%TD*%
%TO.P,REF\u002A\u002A499,*%
%TO.N,*%
X132610000Y-67960000D03*
%TD*%
%TO.P,REF\u002A\u002A477,*%
%TO.N,*%
X165630000Y-65420000D03*
%TD*%
%TO.P,REF\u002A\u002A1021,*%
%TO.N,*%
X124990000Y-106060000D03*
%TD*%
%TO.P,REF\u002A\u002A1060,*%
%TO.N,*%
X135150000Y-108600000D03*
%TD*%
%TO.P,REF\u002A\u002A536,*%
%TO.N,*%
X137690000Y-70500000D03*
%TD*%
%TO.P,REF\u002A\u002A583,*%
%TO.N,*%
X168170000Y-73040000D03*
%TD*%
%TO.P,REF\u002A\u002A473,*%
%TO.N,*%
X155470000Y-65420000D03*
%TD*%
%TO.P,REF\u002A\u002A159,*%
%TO.N,*%
X158010000Y-42560000D03*
%TD*%
%TO.P,REF\u002A\u002A672,*%
%TO.N,*%
X127530000Y-80660000D03*
%TD*%
%TO.P,REF\u002A\u002A755,*%
%TO.N,*%
X160550000Y-85740000D03*
%TD*%
%TO.P,REF\u002A\u002A428,*%
%TO.N,*%
X130070000Y-62880000D03*
%TD*%
%TO.P,REF\u002A\u002A1022,*%
%TO.N,*%
X127530000Y-106060000D03*
%TD*%
%TO.P,REF\u002A\u002A1141,*%
%TO.N,*%
X163090000Y-113680000D03*
%TD*%
%TO.P,REF\u002A\u002A777,*%
%TO.N,*%
X127530000Y-88280000D03*
%TD*%
%TO.P,REF\u002A\u002A115,*%
%TO.N,*%
X135150000Y-40020000D03*
%TD*%
%TO.P,REF\u002A\u002A307,*%
%TO.N,*%
X178330000Y-52720000D03*
%TD*%
%TO.P,REF\u002A\u002A396,*%
%TO.N,*%
X137690000Y-60340000D03*
%TD*%
%TO.P,REF\u002A\u002A617,*%
%TO.N,*%
X165630000Y-75580000D03*
%TD*%
%TO.P,REF\u002A\u002A152,*%
%TO.N,*%
X140230000Y-42560000D03*
%TD*%
%TO.P,REF\u002A\u002A326,*%
%TO.N,*%
X137690000Y-55260000D03*
%TD*%
%TO.P,REF\u002A\u002A388,*%
%TO.N,*%
X117370000Y-60340000D03*
%TD*%
%TO.P,REF\u002A\u002A155,*%
%TO.N,*%
X147850000Y-42560000D03*
%TD*%
%TO.P,REF\u002A\u002A658,*%
%TO.N,*%
X180870000Y-78120000D03*
%TD*%
%TO.P,REF\u002A\u002A774,*%
%TO.N,*%
X119910000Y-88280000D03*
%TD*%
%TO.P,REF\u002A\u002A516,*%
%TO.N,*%
X175790000Y-67960000D03*
%TD*%
%TO.P,REF\u002A\u002A356,*%
%TO.N,*%
X124990000Y-57800000D03*
%TD*%
%TO.P,REF\u002A\u002A582,*%
%TO.N,*%
X165630000Y-73040000D03*
%TD*%
%TO.P,REF\u002A\u002A863,*%
%TO.N,*%
X168170000Y-93360000D03*
%TD*%
%TO.P,REF\u002A\u002A229,*%
%TO.N,*%
X158010000Y-47640000D03*
%TD*%
%TO.P,REF\u002A\u002A87,*%
%TO.N,*%
X152930000Y-37480000D03*
%TD*%
%TO.P,REF\u002A\u002A530,*%
%TO.N,*%
X122450000Y-70500000D03*
%TD*%
%TO.P,REF\u002A\u002A190,*%
%TO.N,*%
X147850000Y-45100000D03*
%TD*%
%TO.P,REF\u002A\u002A53,*%
%TO.N,*%
X155470000Y-34940000D03*
%TD*%
%TO.P,REF\u002A\u002A1321,*%
%TO.N,*%
X175790000Y-126380000D03*
%TD*%
%TO.P,REF\u002A\u002A261,*%
%TO.N,*%
X150390000Y-50180000D03*
%TD*%
%TO.P,REF\u002A\u002A1035,*%
%TO.N,*%
X160550000Y-106060000D03*
%TD*%
%TO.P,REF\u002A\u002A989,*%
%TO.N,*%
X132610000Y-103520000D03*
%TD*%
%TO.P,REF\u002A\u002A1159,*%
%TO.N,*%
X119910000Y-116220000D03*
%TD*%
%TO.P,REF\u002A\u002A1284,*%
%TO.N,*%
X170710000Y-123840000D03*
%TD*%
%TO.P,REF\u002A\u002A513,*%
%TO.N,*%
X168170000Y-67960000D03*
%TD*%
%TO.P,REF\u002A\u002A518,*%
%TO.N,*%
X180870000Y-67960000D03*
%TD*%
%TO.P,REF\u002A\u002A423,*%
%TO.N,*%
X117370000Y-62880000D03*
%TD*%
%TO.P,REF\u002A\u002A9,*%
%TO.N,*%
X132610000Y-32400000D03*
%TD*%
%TO.P,REF\u002A\u002A722,*%
%TO.N,*%
X165630000Y-83200000D03*
%TD*%
%TO.P,REF\u002A\u002A185,*%
%TO.N,*%
X135150000Y-45100000D03*
%TD*%
%TO.P,REF\u002A\u002A230,*%
%TO.N,*%
X160550000Y-47640000D03*
%TD*%
%TO.P,REF\u002A\u002A1106,*%
%TO.N,*%
X163090000Y-111140000D03*
%TD*%
%TO.P,REF\u002A\u002A1089,*%
%TO.N,*%
X119910000Y-111140000D03*
%TD*%
%TO.P,REF\u002A\u002A675,*%
%TO.N,*%
X135150000Y-80660000D03*
%TD*%
%TO.P,REF\u002A\u002A920,*%
%TO.N,*%
X135150000Y-98440000D03*
%TD*%
%TO.P,REF\u002A\u002A1225,*%
%TO.N,*%
X109750000Y-121300000D03*
%TD*%
%TO.P,REF\u002A\u002A1095,*%
%TO.N,*%
X135150000Y-111140000D03*
%TD*%
%TO.P,REF\u002A\u002A391,*%
%TO.N,*%
X124990000Y-60340000D03*
%TD*%
%TO.P,REF\u002A\u002A78,*%
%TO.N,*%
X130070000Y-37480000D03*
%TD*%
%TO.P,REF\u002A\u002A790,*%
%TO.N,*%
X160550000Y-88280000D03*
%TD*%
%TO.P,REF\u002A\u002A1295,*%
%TO.N,*%
X109750000Y-126380000D03*
%TD*%
%TO.P,REF\u002A\u002A634,*%
%TO.N,*%
X119910000Y-78120000D03*
%TD*%
%TO.P,REF\u002A\u002A373,*%
%TO.N,*%
X168170000Y-57800000D03*
%TD*%
%TO.P,REF\u002A\u002A124,*%
%TO.N,*%
X158010000Y-40020000D03*
%TD*%
%TO.P,REF\u002A\u002A598,*%
%TO.N,*%
X117370000Y-75580000D03*
%TD*%
%TO.P,REF\u002A\u002A885,*%
%TO.N,*%
X135150000Y-95900000D03*
%TD*%
%TO.P,REF\u002A\u002A1124,*%
%TO.N,*%
X119910000Y-113680000D03*
%TD*%
%TO.P,REF\u002A\u002A458,*%
%TO.N,*%
X117370000Y-65420000D03*
%TD*%
%TO.P,REF\u002A\u002A1228,*%
%TO.N,*%
X117370000Y-121300000D03*
%TD*%
%TO.P,REF\u002A\u002A1349,*%
%TO.N,*%
X158010000Y-128920000D03*
%TD*%
%TO.P,REF\u002A\u002A531,*%
%TO.N,*%
X124990000Y-70500000D03*
%TD*%
%TO.P,REF\u002A\u002A1037,*%
%TO.N,*%
X165630000Y-106060000D03*
%TD*%
%TO.P,REF\u002A\u002A397,*%
%TO.N,*%
X140230000Y-60340000D03*
%TD*%
%TO.P,REF\u002A\u002A1108,*%
%TO.N,*%
X168170000Y-111140000D03*
%TD*%
%TO.P,REF\u002A\u002A215,*%
%TO.N,*%
X122450000Y-47640000D03*
%TD*%
%TO.P,REF\u002A\u002A432,*%
%TO.N,*%
X140230000Y-62880000D03*
%TD*%
%TO.P,REF\u002A\u002A571,*%
%TO.N,*%
X137690000Y-73040000D03*
%TD*%
%TO.P,REF\u002A\u002A424,*%
%TO.N,*%
X119910000Y-62880000D03*
%TD*%
%TO.P,REF\u002A\u002A813,*%
%TO.N,*%
X130070000Y-90820000D03*
%TD*%
%TO.P,REF\u002A\u002A123,*%
%TO.N,*%
X155470000Y-40020000D03*
%TD*%
%TO.P,REF\u002A\u002A1212,*%
%TO.N,*%
X165630000Y-118760000D03*
%TD*%
%TO.P,REF\u002A\u002A548,*%
%TO.N,*%
X168170000Y-70500000D03*
%TD*%
%TO.P,REF\u002A\u002A639,*%
%TO.N,*%
X132610000Y-78120000D03*
%TD*%
%TO.P,REF\u002A\u002A568,*%
%TO.N,*%
X130070000Y-73040000D03*
%TD*%
%TO.P,REF\u002A\u002A916,*%
%TO.N,*%
X124990000Y-98440000D03*
%TD*%
%TO.P,REF\u002A\u002A1245,*%
%TO.N,*%
X160550000Y-121300000D03*
%TD*%
%TO.P,REF\u002A\u002A1252,*%
%TO.N,*%
X178330000Y-121300000D03*
%TD*%
%TO.P,REF\u002A\u002A932,*%
%TO.N,*%
X165630000Y-98440000D03*
%TD*%
%TO.P,REF\u002A\u002A283,*%
%TO.N,*%
X117370000Y-52720000D03*
%TD*%
%TO.P,REF\u002A\u002A126,*%
%TO.N,*%
X163090000Y-40020000D03*
%TD*%
%TO.P,REF\u002A\u002A812,*%
%TO.N,*%
X127530000Y-90820000D03*
%TD*%
%TO.P,REF\u002A\u002A493,*%
%TO.N,*%
X117370000Y-67960000D03*
%TD*%
%TO.P,REF\u002A\u002A158,*%
%TO.N,*%
X155470000Y-42560000D03*
%TD*%
%TO.P,REF\u002A\u002A180,*%
%TO.N,*%
X122450000Y-45100000D03*
%TD*%
%TO.P,REF\u002A\u002A256,*%
%TO.N,*%
X137690000Y-50180000D03*
%TD*%
%TO.P,REF\u002A\u002A302,*%
%TO.N,*%
X165630000Y-52720000D03*
%TD*%
%TO.P,REF\u002A\u002A303,*%
%TO.N,*%
X168170000Y-52720000D03*
%TD*%
%TO.P,REF\u002A\u002A258,*%
%TO.N,*%
X142770000Y-50180000D03*
%TD*%
%TO.P,REF\u002A\u002A284,*%
%TO.N,*%
X119910000Y-52720000D03*
%TD*%
%TO.P,REF\u002A\u002A914,*%
%TO.N,*%
X119910000Y-98440000D03*
%TD*%
%TO.P,REF\u002A\u002A149,*%
%TO.N,*%
X132610000Y-42560000D03*
%TD*%
%TO.P,REF\u002A\u002A1076,*%
%TO.N,*%
X175790000Y-108600000D03*
%TD*%
%TO.P,REF\u002A\u002A145,*%
%TO.N,*%
X122450000Y-42560000D03*
%TD*%
%TO.P,REF\u002A\u002A179,*%
%TO.N,*%
X119910000Y-45100000D03*
%TD*%
%TO.P,REF\u002A\u002A721,*%
%TO.N,*%
X163090000Y-83200000D03*
%TD*%
%TO.P,REF\u002A\u002A763,*%
%TO.N,*%
X180870000Y-85740000D03*
%TD*%
%TO.P,REF\u002A\u002A119,*%
%TO.N,*%
X145310000Y-40020000D03*
%TD*%
%TO.P,REF\u002A\u002A227,*%
%TO.N,*%
X152930000Y-47640000D03*
%TD*%
%TO.P,REF\u002A\u002A1325,*%
%TO.N,*%
X185950000Y-126380000D03*
%TD*%
%TO.P,REF\u002A\u002A616,*%
%TO.N,*%
X163090000Y-75580000D03*
%TD*%
%TO.P,REF\u002A\u002A1109,*%
%TO.N,*%
X170710000Y-111140000D03*
%TD*%
%TO.P,REF\u002A\u002A182,*%
%TO.N,*%
X127530000Y-45100000D03*
%TD*%
%TO.P,REF\u002A\u002A188,*%
%TO.N,*%
X142770000Y-45100000D03*
%TD*%
%TO.P,REF\u002A\u002A143,*%
%TO.N,*%
X117370000Y-42560000D03*
%TD*%
%TO.P,REF\u002A\u002A57,*%
%TO.N,*%
X165630000Y-34940000D03*
%TD*%
%TO.P,REF\u002A\u002A259,*%
%TO.N,*%
X145310000Y-50180000D03*
%TD*%
%TO.P,REF\u002A\u002A650,*%
%TO.N,*%
X160550000Y-78120000D03*
%TD*%
%TO.P,REF\u002A\u002A498,*%
%TO.N,*%
X130070000Y-67960000D03*
%TD*%
%TO.P,REF\u002A\u002A919,*%
%TO.N,*%
X132610000Y-98440000D03*
%TD*%
%TO.P,REF\u002A\u002A304,*%
%TO.N,*%
X170710000Y-52720000D03*
%TD*%
%TO.P,REF\u002A\u002A390,*%
%TO.N,*%
X122450000Y-60340000D03*
%TD*%
%TO.P,REF\u002A\u002A292,*%
%TO.N,*%
X140230000Y-52720000D03*
%TD*%
%TO.P,REF\u002A\u002A676,*%
%TO.N,*%
X137690000Y-80660000D03*
%TD*%
%TO.P,REF\u002A\u002A1071,*%
%TO.N,*%
X163090000Y-108600000D03*
%TD*%
%TO.P,REF\u002A\u002A938,*%
%TO.N,*%
X180870000Y-98440000D03*
%TD*%
%TO.P,REF\u002A\u002A264,*%
%TO.N,*%
X158010000Y-50180000D03*
%TD*%
%TO.P,REF\u002A\u002A1286,*%
%TO.N,*%
X175790000Y-123840000D03*
%TD*%
%TO.P,REF\u002A\u002A1183,*%
%TO.N,*%
X180870000Y-116220000D03*
%TD*%
%TO.P,REF\u002A\u002A983,*%
%TO.N,*%
X117370000Y-103520000D03*
%TD*%
%TO.P,REF\u002A\u002A1262,*%
%TO.N,*%
X114830000Y-123840000D03*
%TD*%
%TO.P,REF\u002A\u002A1041,*%
%TO.N,*%
X175790000Y-106060000D03*
%TD*%
%TO.P,REF\u002A\u002A295,*%
%TO.N,*%
X147850000Y-52720000D03*
%TD*%
%TO.P,REF\u002A\u002A1300,*%
%TO.N,*%
X122450000Y-126380000D03*
%TD*%
%TO.P,REF\u002A\u002A1263,*%
%TO.N,*%
X117370000Y-123840000D03*
%TD*%
%TO.P,REF\u002A\u002A741,*%
%TO.N,*%
X124990000Y-85740000D03*
%TD*%
%TO.P,REF\u002A\u002A1301,*%
%TO.N,*%
X124990000Y-126380000D03*
%TD*%
%TO.P,REF\u002A\u002A738,*%
%TO.N,*%
X117370000Y-85740000D03*
%TD*%
%TO.P,REF\u002A\u002A165,*%
%TO.N,*%
X173250000Y-42560000D03*
%TD*%
%TO.P,REF\u002A\u002A249,*%
%TO.N,*%
X119910000Y-50180000D03*
%TD*%
%TO.P,REF\u002A\u002A601,*%
%TO.N,*%
X124990000Y-75580000D03*
%TD*%
%TO.P,REF\u002A\u002A547,*%
%TO.N,*%
X165630000Y-70500000D03*
%TD*%
%TO.P,REF\u002A\u002A8,*%
%TO.N,*%
X130070000Y-32400000D03*
%TD*%
%TO.P,REF\u002A\u002A878,*%
%TO.N,*%
X117370000Y-95900000D03*
%TD*%
%TO.P,REF\u002A\u002A791,*%
%TO.N,*%
X163090000Y-88280000D03*
%TD*%
%TO.P,REF\u002A\u002A1247,*%
%TO.N,*%
X165630000Y-121300000D03*
%TD*%
%TO.P,REF\u002A\u002A1185,*%
%TO.N,*%
X185950000Y-116220000D03*
%TD*%
%TO.P,REF\u002A\u002A196,*%
%TO.N,*%
X163090000Y-45100000D03*
%TD*%
%TO.P,REF\u002A\u002A1179,*%
%TO.N,*%
X170710000Y-116220000D03*
%TD*%
%TO.P,REF\u002A\u002A407,*%
%TO.N,*%
X165630000Y-60340000D03*
%TD*%
%TO.P,REF\u002A\u002A778,*%
%TO.N,*%
X130070000Y-88280000D03*
%TD*%
%TO.P,REF\u002A\u002A655,*%
%TO.N,*%
X173250000Y-78120000D03*
%TD*%
%TO.P,REF\u002A\u002A939,*%
%TO.N,*%
X183410000Y-98440000D03*
%TD*%
%TO.P,REF\u002A\u002A1092,*%
%TO.N,*%
X127530000Y-111140000D03*
%TD*%
%TO.P,REF\u002A\u002A440,*%
%TO.N,*%
X160550000Y-62880000D03*
%TD*%
%TO.P,REF\u002A\u002A6,*%
%TO.N,*%
X124990000Y-32400000D03*
%TD*%
%TO.P,REF\u002A\u002A1023,*%
%TO.N,*%
X130070000Y-106060000D03*
%TD*%
%TO.P,REF\u002A\u002A291,*%
%TO.N,*%
X137690000Y-52720000D03*
%TD*%
%TO.P,REF\u002A\u002A84,*%
%TO.N,*%
X145310000Y-37480000D03*
%TD*%
%TO.P,REF\u002A\u002A495,*%
%TO.N,*%
X122450000Y-67960000D03*
%TD*%
%TO.P,REF\u002A\u002A195,*%
%TO.N,*%
X160550000Y-45100000D03*
%TD*%
%TO.P,REF\u002A\u002A1164,*%
%TO.N,*%
X132610000Y-116220000D03*
%TD*%
%TO.P,REF\u002A\u002A157,*%
%TO.N,*%
X152930000Y-42560000D03*
%TD*%
%TO.P,REF\u002A\u002A11,*%
%TO.N,*%
X137690000Y-32400000D03*
%TD*%
%TO.P,REF\u002A\u002A865,*%
%TO.N,GND*%
X173250000Y-93360000D03*
%TD*%
%TO.P,REF\u002A\u002A1216,*%
%TO.N,*%
X175790000Y-118760000D03*
%TD*%
%TO.P,REF\u002A\u002A1280,*%
%TO.N,*%
X160550000Y-123900000D03*
%TD*%
%TO.P,,*%
%TO.N,*%
X142700000Y-123900000D03*
%TD*%
%TO.P,REF\u002A\u002A128,*%
%TO.N,*%
X168170000Y-40020000D03*
%TD*%
%TO.P,REF\u002A\u002A950,*%
%TO.N,*%
X122450000Y-100980000D03*
%TD*%
%TO.P,REF\u002A\u002A966,*%
%TO.N,*%
X163090000Y-100980000D03*
%TD*%
%TO.P,REF\u002A\u002A260,*%
%TO.N,*%
X147850000Y-50180000D03*
%TD*%
%TO.P,REF\u002A\u002A114,*%
%TO.N,*%
X132610000Y-40020000D03*
%TD*%
%TO.P,REF\u002A\u002A248,*%
%TO.N,*%
X117370000Y-50180000D03*
%TD*%
%TO.P,REF\u002A\u002A81,*%
%TO.N,*%
X137690000Y-37480000D03*
%TD*%
%TO.P,REF\u002A\u002A464,*%
%TO.N,*%
X132610000Y-65420000D03*
%TD*%
%TO.P,REF\u002A\u002A1297,*%
%TO.N,*%
X114830000Y-126380000D03*
%TD*%
%TO.P,REF\u002A\u002A479,*%
%TO.N,*%
X170710000Y-65420000D03*
%TD*%
%TO.P,REF\u002A\u002A194,*%
%TO.N,*%
X158010000Y-45100000D03*
%TD*%
%TO.P,REF\u002A\u002A340,*%
%TO.N,*%
X173250000Y-55260000D03*
%TD*%
%TO.P,REF\u002A\u002A514,*%
%TO.N,*%
X170710000Y-67960000D03*
%TD*%
%TO.P,REF\u002A\u002A23,*%
%TO.N,*%
X168170000Y-32400000D03*
%TD*%
%TO.P,REF\u002A\u002A1281,*%
%TO.N,*%
X163090000Y-123840000D03*
%TD*%
%TO.P,REF\u002A\u002A895,*%
%TO.N,*%
X160550000Y-95900000D03*
%TD*%
%TO.P,REF\u002A\u002A228,*%
%TO.N,*%
X155470000Y-47640000D03*
%TD*%
%TO.P,REF\u002A\u002A600,*%
%TO.N,*%
X122450000Y-75580000D03*
%TD*%
%TO.P,REF\u002A\u002A869,*%
%TO.N,GND*%
X183410000Y-93360000D03*
%TD*%
%TO.P,REF\u002A\u002A1044,*%
%TO.N,*%
X183410000Y-106060000D03*
%TD*%
%TO.P,REF\u002A\u002A1039,*%
%TO.N,*%
X170710000Y-106060000D03*
%TD*%
%TO.P,REF\u002A\u002A1148,*%
%TO.N,*%
X180870000Y-113680000D03*
%TD*%
%TO.P,REF\u002A\u002A257,*%
%TO.N,*%
X140230000Y-50180000D03*
%TD*%
%TO.P,REF\u002A\u002A728,*%
%TO.N,*%
X180870000Y-83200000D03*
%TD*%
%TO.P,REF\u002A\u002A1359,*%
%TO.N,*%
X183410000Y-128920000D03*
%TD*%
%TO.P,REF\u002A\u002A1000,*%
%TO.N,*%
X160550000Y-103520000D03*
%TD*%
%TO.P,REF\u002A\u002A1265,*%
%TO.N,*%
X122450000Y-123840000D03*
%TD*%
%TO.P,REF\u002A\u002A623,*%
%TO.N,*%
X180870000Y-75580000D03*
%TD*%
%TO.P,REF\u002A\u002A1094,*%
%TO.N,*%
X132610000Y-111140000D03*
%TD*%
%TO.P,REF\u002A\u002A829,*%
%TO.N,*%
X170710000Y-90820000D03*
%TD*%
%TO.P,REF\u002A\u002A372,*%
%TO.N,*%
X165630000Y-57800000D03*
%TD*%
%TO.P,REF\u002A\u002A546,*%
%TO.N,*%
X163090000Y-70500000D03*
%TD*%
%TO.P,REF\u002A\u002A151,*%
%TO.N,*%
X137690000Y-42560000D03*
%TD*%
%TO.P,REF\u002A\u002A47,*%
%TO.N,*%
X140230000Y-34940000D03*
%TD*%
%TO.P,REF\u002A\u002A1008,*%
%TO.N,*%
X180870000Y-103520000D03*
%TD*%
%TO.P,REF\u002A\u002A233,*%
%TO.N,*%
X168170000Y-47640000D03*
%TD*%
%TO.P,REF\u002A\u002A810,*%
%TO.N,*%
X122450000Y-90820000D03*
%TD*%
%TO.P,REF\u002A\u002A899,*%
%TO.N,*%
X170710000Y-95900000D03*
%TD*%
%TO.P,REF\u002A\u002A851,*%
%TO.N,*%
X137690000Y-93360000D03*
%TD*%
%TO.P,REF\u002A\u002A467,*%
%TO.N,*%
X140230000Y-65420000D03*
%TD*%
%TO.P,REF\u002A\u002A265,*%
%TO.N,*%
X160550000Y-50180000D03*
%TD*%
%TO.P,REF\u002A\u002A1317,*%
%TO.N,*%
X165630000Y-126380000D03*
%TD*%
%TO.P,REF\u002A\u002A76,*%
%TO.N,*%
X124990000Y-37480000D03*
%TD*%
%TO.P,REF\u002A\u002A1266,*%
%TO.N,*%
X124990000Y-123840000D03*
%TD*%
%TO.P,REF\u002A\u002A285,*%
%TO.N,*%
X122450000Y-52720000D03*
%TD*%
%TO.P,REF\u002A\u002A331,*%
%TO.N,*%
X150390000Y-55260000D03*
%TD*%
%TO.P,REF\u002A\u002A113,*%
%TO.N,*%
X130070000Y-40020000D03*
%TD*%
%TO.P,REF\u002A\u002A336,*%
%TO.N,*%
X163090000Y-55260000D03*
%TD*%
%TO.P,REF\u002A\u002A20,*%
%TO.N,*%
X160550000Y-32400000D03*
%TD*%
%TO.P,REF\u002A\u002A1130,*%
%TO.N,*%
X135150000Y-113680000D03*
%TD*%
%TO.P,REF\u002A\u002A338,*%
%TO.N,*%
X168170000Y-55260000D03*
%TD*%
%TO.P,REF\u002A\u002A183,*%
%TO.N,*%
X130070000Y-45100000D03*
%TD*%
%TO.P,REF\u002A\u002A1260,*%
%TO.N,*%
X109750000Y-123840000D03*
%TD*%
%TO.P,REF\u002A\u002A1110,*%
%TO.N,*%
X173250000Y-111140000D03*
%TD*%
%TO.P,REF\u002A\u002A1331,*%
%TO.N,*%
X112290000Y-128920000D03*
%TD*%
%TO.P,REF\u002A\u002A669,*%
%TO.N,*%
X119910000Y-80660000D03*
%TD*%
%TO.P,REF\u002A\u002A1182,*%
%TO.N,*%
X178330000Y-116220000D03*
%TD*%
%TO.P,REF\u002A\u002A50,*%
%TO.N,*%
X147850000Y-34940000D03*
%TD*%
%TO.P,REF\u002A\u002A1285,*%
%TO.N,*%
X173250000Y-123840000D03*
%TD*%
%TO.P,REF\u002A\u002A1236,*%
%TO.N,*%
X137690000Y-121300000D03*
%TD*%
%TO.P,REF\u002A\u002A1358,*%
%TO.N,*%
X180870000Y-128920000D03*
%TD*%
%TO.P,REF\u002A\u002A148,*%
%TO.N,*%
X130070000Y-42560000D03*
%TD*%
%TO.P,REF\u002A\u002A357,*%
%TO.N,*%
X127530000Y-57800000D03*
%TD*%
%TO.P,REF\u002A\u002A1220,*%
%TO.N,*%
X185950000Y-118760000D03*
%TD*%
%TO.P,REF\u002A\u002A121,*%
%TO.N,*%
X150390000Y-40020000D03*
%TD*%
%TO.P,REF\u002A\u002A792,*%
%TO.N,*%
X165630000Y-88280000D03*
%TD*%
%TO.P,REF\u002A\u002A951,*%
%TO.N,*%
X124990000Y-100980000D03*
%TD*%
%TO.P,REF\u002A\u002A308,*%
%TO.N,*%
X180870000Y-52720000D03*
%TD*%
%TO.P,REF\u002A\u002A472,*%
%TO.N,*%
X152930000Y-65420000D03*
%TD*%
%TO.P,REF\u002A\u002A900,*%
%TO.N,*%
X173250000Y-95900000D03*
%TD*%
%TO.P,REF\u002A\u002A706,*%
%TO.N,*%
X124990000Y-83200000D03*
%TD*%
%TO.P,REF\u002A\u002A1040,*%
%TO.N,*%
X173250000Y-106060000D03*
%TD*%
%TO.P,REF\u002A\u002A448,*%
%TO.N,*%
X180870000Y-62880000D03*
%TD*%
%TO.P,REF\u002A\u002A426,*%
%TO.N,*%
X124990000Y-62880000D03*
%TD*%
%TO.P,REF\u002A\u002A918,*%
%TO.N,*%
X130070000Y-98440000D03*
%TD*%
%TO.P,REF\u002A\u002A49,*%
%TO.N,*%
X145310000Y-34940000D03*
%TD*%
%TO.P,REF\u002A\u002A184,*%
%TO.N,*%
X132610000Y-45100000D03*
%TD*%
%TO.P,REF\u002A\u002A971,*%
%TO.N,*%
X175790000Y-100980000D03*
%TD*%
%TO.P,REF\u002A\u002A478,*%
%TO.N,*%
X168170000Y-65420000D03*
%TD*%
%TO.P,REF\u002A\u002A1026,*%
%TO.N,*%
X137690000Y-106060000D03*
%TD*%
%TO.P,REF\u002A\u002A1160,*%
%TO.N,*%
X122450000Y-116220000D03*
%TD*%
%TO.P,REF\u002A\u002A881,*%
%TO.N,*%
X124990000Y-95900000D03*
%TD*%
%TO.P,REF\u002A\u002A46,*%
%TO.N,*%
X137690000Y-34940000D03*
%TD*%
%TO.P,REF\u002A\u002A404,*%
%TO.N,*%
X158010000Y-60340000D03*
%TD*%
%TO.P,REF\u002A\u002A795,*%
%TO.N,*%
X173250000Y-88280000D03*
%TD*%
%TO.P,REF\u002A\u002A429,*%
%TO.N,*%
X132610000Y-62880000D03*
%TD*%
%TO.P,REF\u002A\u002A156,*%
%TO.N,*%
X150390000Y-42560000D03*
%TD*%
%TO.P,REF\u002A\u002A15,*%
%TO.N,*%
X147850000Y-32400000D03*
%TD*%
%TO.P,REF\u002A\u002A1235,*%
%TO.N,*%
X135150000Y-121300000D03*
%TD*%
%TO.P,REF\u002A\u002A569,*%
%TO.N,*%
X132610000Y-73040000D03*
%TD*%
%TO.P,REF\u002A\u002A362,*%
%TO.N,*%
X140230000Y-57800000D03*
%TD*%
%TO.P,REF\u002A\u002A1091,*%
%TO.N,*%
X124990000Y-111140000D03*
%TD*%
%TO.P,REF\u002A\u002A131,*%
%TO.N,*%
X175790000Y-40020000D03*
%TD*%
%TO.P,REF\u002A\u002A550,*%
%TO.N,*%
X173250000Y-70500000D03*
%TD*%
%TO.P,REF\u002A\u002A374,*%
%TO.N,*%
X170710000Y-57800000D03*
%TD*%
%TO.P,REF\u002A\u002A435,*%
%TO.N,*%
X147850000Y-62880000D03*
%TD*%
%TO.P,REF\u002A\u002A584,*%
%TO.N,*%
X170710000Y-73040000D03*
%TD*%
%TO.P,REF\u002A\u002A80,*%
%TO.N,*%
X135150000Y-37480000D03*
%TD*%
%TO.P,REF\u002A\u002A224,*%
%TO.N,*%
X145310000Y-47640000D03*
%TD*%
%TO.P,REF\u002A\u002A368,*%
%TO.N,*%
X155470000Y-57800000D03*
%TD*%
%TO.P,REF\u002A\u002A1330,*%
%TO.N,*%
X109750000Y-128920000D03*
%TD*%
%TO.P,REF\u002A\u002A990,*%
%TO.N,*%
X135150000Y-103520000D03*
%TD*%
%TO.P,REF\u002A\u002A973,*%
%TO.N,*%
X180870000Y-100980000D03*
%TD*%
%TO.P,REF\u002A\u002A1181,*%
%TO.N,*%
X175790000Y-116220000D03*
%TD*%
%TO.P,REF\u002A\u002A1018,*%
%TO.N,*%
X117370000Y-106060000D03*
%TD*%
%TO.P,REF\u002A\u002A758,*%
%TO.N,*%
X168170000Y-85740000D03*
%TD*%
%TO.P,REF\u002A\u002A327,*%
%TO.N,*%
X140230000Y-55260000D03*
%TD*%
%TO.P,REF\u002A\u002A1088,*%
%TO.N,*%
X117370000Y-111140000D03*
%TD*%
%TO.P,REF\u002A\u002A438,*%
%TO.N,*%
X155470000Y-62880000D03*
%TD*%
%TO.P,REF\u002A\u002A430,*%
%TO.N,*%
X135150000Y-62880000D03*
%TD*%
%TO.P,REF\u002A\u002A703,*%
%TO.N,*%
X117370000Y-83200000D03*
%TD*%
%TO.P,REF\u002A\u002A411,*%
%TO.N,*%
X175790000Y-60340000D03*
%TD*%
%TO.P,REF\u002A\u002A263,*%
%TO.N,*%
X155470000Y-50180000D03*
%TD*%
%TO.P,REF\u002A\u002A38,*%
%TO.N,*%
X117370000Y-34940000D03*
%TD*%
%TO.P,REF\u002A\u002A988,*%
%TO.N,*%
X130070000Y-103520000D03*
%TD*%
%TO.P,REF\u002A\u002A1166,*%
%TO.N,*%
X137690000Y-116220000D03*
%TD*%
%TO.P,REF\u002A\u002A1123,*%
%TO.N,*%
X117370000Y-113680000D03*
%TD*%
%TO.P,REF\u002A\u002A1324,*%
%TO.N,*%
X183410000Y-126380000D03*
%TD*%
%TO.P,REF\u002A\u002A187,*%
%TO.N,*%
X140230000Y-45100000D03*
%TD*%
%TO.P,,*%
%TO.N,*%
X157830000Y-123900000D03*
%TD*%
%TO.P,REF\u002A\u002A1306,*%
%TO.N,*%
X137690000Y-126380000D03*
%TD*%
%TO.P,REF\u002A\u002A401,*%
%TO.N,*%
X150390000Y-60340000D03*
%TD*%
%TO.P,REF\u002A\u002A726,*%
%TO.N,*%
X175790000Y-83200000D03*
%TD*%
%TO.P,REF\u002A\u002A933,*%
%TO.N,*%
X168170000Y-98440000D03*
%TD*%
%TO.P,REF\u002A\u002A328,*%
%TO.N,*%
X142770000Y-55260000D03*
%TD*%
%TO.P,REF\u002A\u002A501,*%
%TO.N,*%
X137690000Y-67960000D03*
%TD*%
%TO.P,REF\u002A\u002A1043,*%
%TO.N,*%
X180870000Y-106060000D03*
%TD*%
%TO.P,REF\u002A\u002A1006,*%
%TO.N,*%
X175790000Y-103520000D03*
%TD*%
%TO.P,REF\u002A\u002A967,*%
%TO.N,*%
X165630000Y-100980000D03*
%TD*%
%TO.P,REF\u002A\u002A439,*%
%TO.N,*%
X158010000Y-62880000D03*
%TD*%
%TO.P,REF\u002A\u002A460,*%
%TO.N,*%
X122450000Y-65420000D03*
%TD*%
%TO.P,REF\u002A\u002A757,*%
%TO.N,*%
X165630000Y-85740000D03*
%TD*%
%TO.P,REF\u002A\u002A164,*%
%TO.N,*%
X170710000Y-42560000D03*
%TD*%
%TO.P,REF\u002A\u002A431,*%
%TO.N,*%
X137690000Y-62880000D03*
%TD*%
%TO.P,REF\u002A\u002A860,*%
%TO.N,*%
X160550000Y-93360000D03*
%TD*%
%TO.P,REF\u002A\u002A808,*%
%TO.N,*%
X117370000Y-90820000D03*
%TD*%
%TO.P,REF\u002A\u002A1144,*%
%TO.N,*%
X170710000Y-113680000D03*
%TD*%
%TO.P,REF\u002A\u002A395,*%
%TO.N,*%
X135150000Y-60340000D03*
%TD*%
%TO.P,REF\u002A\u002A225,*%
%TO.N,*%
X147850000Y-47640000D03*
%TD*%
%TO.P,REF\u002A\u002A3,*%
%TO.N,*%
X117370000Y-32400000D03*
%TD*%
%TO.P,REF\u002A\u002A394,*%
%TO.N,*%
X132610000Y-60340000D03*
%TD*%
%TO.P,REF\u002A\u002A1282,*%
%TO.N,*%
X165630000Y-123840000D03*
%TD*%
%TO.P,REF\u002A\u002A742,*%
%TO.N,*%
X127530000Y-85740000D03*
%TD*%
%TO.P,REF\u002A\u002A886,*%
%TO.N,*%
X137690000Y-95900000D03*
%TD*%
%TO.P,REF\u002A\u002A1322,*%
%TO.N,*%
X178330000Y-126380000D03*
%TD*%
%TO.P,REF\u002A\u002A1113,*%
%TO.N,*%
X180870000Y-111140000D03*
%TD*%
%TO.P,REF\u002A\u002A1354,*%
%TO.N,*%
X170710000Y-128920000D03*
%TD*%
%TO.P,REF\u002A\u002A91,*%
%TO.N,*%
X163090000Y-37480000D03*
%TD*%
%TO.P,REF\u002A\u002A48,*%
%TO.N,*%
X142770000Y-34940000D03*
%TD*%
%TO.P,REF\u002A\u002A83,*%
%TO.N,*%
X142770000Y-37480000D03*
%TD*%
%TO.P,REF\u002A\u002A1193,*%
%TO.N,*%
X117370000Y-118760000D03*
%TD*%
%TO.P,REF\u002A\u002A1036,*%
%TO.N,*%
X163090000Y-106060000D03*
%TD*%
%TO.P,REF\u002A\u002A481,*%
%TO.N,*%
X175790000Y-65420000D03*
%TD*%
%TO.P,REF\u002A\u002A533,*%
%TO.N,*%
X130070000Y-70500000D03*
%TD*%
%TO.P,REF\u002A\u002A221,*%
%TO.N,*%
X137690000Y-47640000D03*
%TD*%
%TO.P,REF\u002A\u002A1314,*%
%TO.N,*%
X158010000Y-126380000D03*
%TD*%
%TO.P,REF\u002A\u002A1307,*%
%TO.N,*%
X140230000Y-126380000D03*
%TD*%
%TO.P,REF\u002A\u002A198,*%
%TO.N,*%
X168170000Y-45100000D03*
%TD*%
%TO.P,REF\u002A\u002A13,*%
%TO.N,*%
X142770000Y-32400000D03*
%TD*%
%TO.P,REF\u002A\u002A952,*%
%TO.N,*%
X127530000Y-100980000D03*
%TD*%
%TO.P,REF\u002A\u002A150,*%
%TO.N,*%
X135150000Y-42560000D03*
%TD*%
%TO.P,REF\u002A\u002A153,*%
%TO.N,*%
X142770000Y-42560000D03*
%TD*%
%TO.P,REF\u002A\u002A1200,*%
%TO.N,*%
X135150000Y-118760000D03*
%TD*%
%TO.P,REF\u002A\u002A1288,*%
%TO.N,*%
X180870000Y-123840000D03*
%TD*%
%TO.P,REF\u002A\u002A798,*%
%TO.N,*%
X180870000Y-88280000D03*
%TD*%
%TO.P,REF\u002A\u002A266,*%
%TO.N,*%
X163090000Y-50180000D03*
%TD*%
%TO.P,REF\u002A\u002A864,*%
%TO.N,*%
X170710000Y-93360000D03*
%TD*%
%TO.P,REF\u002A\u002A710,*%
%TO.N,*%
X135150000Y-83200000D03*
%TD*%
%TO.P,REF\u002A\u002A581,*%
%TO.N,*%
X163090000Y-73040000D03*
%TD*%
%TO.P,REF\u002A\u002A1360,*%
%TO.N,*%
X185950000Y-128920000D03*
%TD*%
%TO.P,REF\u002A\u002A689,*%
%TO.N,*%
X170710000Y-80660000D03*
%TD*%
%TO.P,REF\u002A\u002A780,*%
%TO.N,*%
X135150000Y-88280000D03*
%TD*%
%TO.P,REF\u002A\u002A1007,*%
%TO.N,*%
X178330000Y-103520000D03*
%TD*%
%TO.P,REF\u002A\u002A392,*%
%TO.N,*%
X127530000Y-60340000D03*
%TD*%
%TO.P,REF\u002A\u002A563,*%
%TO.N,*%
X117370000Y-73040000D03*
%TD*%
%TO.P,REF\u002A\u002A371,*%
%TO.N,*%
X163090000Y-57800000D03*
%TD*%
%TO.P,REF\u002A\u002A1316,*%
%TO.N,*%
X163090000Y-126380000D03*
%TD*%
%TO.P,REF\u002A\u002A500,*%
%TO.N,*%
X135150000Y-67960000D03*
%TD*%
%TO.P,REF\u002A\u002A921,*%
%TO.N,*%
X137690000Y-98440000D03*
%TD*%
%TO.P,REF\u002A\u002A1231,*%
%TO.N,*%
X124990000Y-121300000D03*
%TD*%
%TO.P,REF\u002A\u002A760,*%
%TO.N,*%
X173250000Y-85740000D03*
%TD*%
%TO.P,REF\u002A\u002A690,*%
%TO.N,*%
X173250000Y-80660000D03*
%TD*%
%TO.P,REF\u002A\u002A849,*%
%TO.N,*%
X132610000Y-93360000D03*
%TD*%
%TO.P,,*%
%TO.N,*%
X140140000Y-123900000D03*
%TD*%
%TO.P,REF\u002A\u002A192,*%
%TO.N,*%
X152930000Y-45100000D03*
%TD*%
%TO.P,REF\u002A\u002A186,*%
%TO.N,*%
X137690000Y-45100000D03*
%TD*%
%TO.P,REF\u002A\u002A1248,*%
%TO.N,*%
X168170000Y-121300000D03*
%TD*%
%TO.P,REF\u002A\u002A1158,*%
%TO.N,*%
X117370000Y-116220000D03*
%TD*%
%TO.P,REF\u002A\u002A580,*%
%TO.N,*%
X160550000Y-73040000D03*
%TD*%
%TO.P,REF\u002A\u002A146,*%
%TO.N,*%
X124990000Y-42560000D03*
%TD*%
%TO.P,REF\u002A\u002A468,*%
%TO.N,*%
X142770000Y-65420000D03*
%TD*%
%TO.P,REF\u002A\u002A294,*%
%TO.N,*%
X145310000Y-52720000D03*
%TD*%
%TO.P,REF\u002A\u002A112,*%
%TO.N,*%
X127530000Y-40020000D03*
%TD*%
%TO.P,REF\u002A\u002A442,*%
%TO.N,*%
X165630000Y-62880000D03*
%TD*%
%TO.P,REF\u002A\u002A1162,*%
%TO.N,*%
X127530000Y-116220000D03*
%TD*%
%TO.P,REF\u002A\u002A232,*%
%TO.N,*%
X165630000Y-47640000D03*
%TD*%
%TO.P,REF\u002A\u002A197,*%
%TO.N,*%
X165630000Y-45100000D03*
%TD*%
%TO.P,REF\u002A\u002A953,*%
%TO.N,*%
X130070000Y-100980000D03*
%TD*%
%TO.P,REF\u002A\u002A108,*%
%TO.N,*%
X117370000Y-40020000D03*
%TD*%
%TO.P,REF\u002A\u002A1323,*%
%TO.N,*%
X180870000Y-126380000D03*
%TD*%
%TO.P,REF\u002A\u002A930,*%
%TO.N,*%
X160550000Y-98440000D03*
%TD*%
%TO.P,REF\u002A\u002A1114,*%
%TO.N,*%
X183410000Y-111140000D03*
%TD*%
%TO.P,REF\u002A\u002A89,*%
%TO.N,*%
X158010000Y-37480000D03*
%TD*%
%TO.P,REF\u002A\u002A605,*%
%TO.N,*%
X135150000Y-75580000D03*
%TD*%
%TO.P,REF\u002A\u002A1128,*%
%TO.N,*%
X130070000Y-113680000D03*
%TD*%
%TO.P,REF\u002A\u002A220,*%
%TO.N,*%
X135150000Y-47640000D03*
%TD*%
%TO.P,REF\u002A\u002A353,*%
%TO.N,*%
X117370000Y-57800000D03*
%TD*%
%TO.P,REF\u002A\u002A354,*%
%TO.N,*%
X119910000Y-57800000D03*
%TD*%
%TO.P,REF\u002A\u002A775,*%
%TO.N,*%
X122450000Y-88280000D03*
%TD*%
%TO.P,REF\u002A\u002A991,*%
%TO.N,*%
X137690000Y-103520000D03*
%TD*%
%TO.P,REF\u002A\u002A1264,*%
%TO.N,*%
X119910000Y-123840000D03*
%TD*%
%TO.P,REF\u002A\u002A762,*%
%TO.N,*%
X178330000Y-85740000D03*
%TD*%
%TO.P,REF\u002A\u002A949,*%
%TO.N,*%
X119910000Y-100980000D03*
%TD*%
%TO.P,REF\u002A\u002A144,*%
%TO.N,*%
X119910000Y-42560000D03*
%TD*%
%TO.P,REF\u002A\u002A904,*%
%TO.N,*%
X183410000Y-95900000D03*
%TD*%
%TO.P,REF\u002A\u002A970,*%
%TO.N,*%
X173250000Y-100980000D03*
%TD*%
%TO.P,REF\u002A\u002A652,*%
%TO.N,*%
X165630000Y-78120000D03*
%TD*%
%TO.P,REF\u002A\u002A111,*%
%TO.N,*%
X124990000Y-40020000D03*
%TD*%
%TO.P,REF\u002A\u002A43,*%
%TO.N,*%
X130070000Y-34940000D03*
%TD*%
%TO.P,REF\u002A\u002A1353,*%
%TO.N,*%
X168170000Y-128920000D03*
%TD*%
%TO.P,REF\u002A\u002A917,*%
%TO.N,*%
X127530000Y-98440000D03*
%TD*%
%TO.P,REF\u002A\u002A410,*%
%TO.N,*%
X173250000Y-60340000D03*
%TD*%
%TO.P,REF\u002A\u002A954,*%
%TO.N,*%
X132610000Y-100980000D03*
%TD*%
%TO.P,REF\u002A\u002A1249,*%
%TO.N,*%
X170710000Y-121300000D03*
%TD*%
%TO.P,REF\u002A\u002A1019,*%
%TO.N,*%
X119910000Y-106060000D03*
%TD*%
%TO.P,REF\u002A\u002A850,*%
%TO.N,*%
X135150000Y-93360000D03*
%TD*%
%TO.P,REF\u002A\u002A535,*%
%TO.N,*%
X135150000Y-70500000D03*
%TD*%
%TO.P,REF\u002A\u002A1356,*%
%TO.N,*%
X175790000Y-128920000D03*
%TD*%
%TO.P,REF\u002A\u002A882,*%
%TO.N,*%
X127530000Y-95900000D03*
%TD*%
%TO.P,REF\u002A\u002A833,*%
%TO.N,GND*%
X180870000Y-90820000D03*
%TD*%
%TO.P,REF\u002A\u002A931,*%
%TO.N,*%
X163090000Y-98440000D03*
%TD*%
%TO.P,REF\u002A\u002A725,*%
%TO.N,*%
X173250000Y-83200000D03*
%TD*%
%TO.P,REF\u002A\u002A7,*%
%TO.N,*%
X127530000Y-32400000D03*
%TD*%
%TO.P,REF\u002A\u002A776,*%
%TO.N,*%
X124990000Y-88280000D03*
%TD*%
%TO.P,REF\u002A\u002A1061,*%
%TO.N,*%
X137690000Y-108600000D03*
%TD*%
%TO.P,REF\u002A\u002A1332,*%
%TO.N,*%
X114830000Y-128920000D03*
%TD*%
%TO.P,REF\u002A\u002A471,*%
%TO.N,*%
X150390000Y-65420000D03*
%TD*%
%TO.P,REF\u002A\u002A1315,*%
%TO.N,*%
X160550000Y-126380000D03*
%TD*%
%TO.P,REF\u002A\u002A466,*%
%TO.N,*%
X137690000Y-65420000D03*
%TD*%
%TO.P,REF\u002A\u002A17,*%
%TO.N,*%
X152930000Y-32400000D03*
%TD*%
%TO.P,REF\u002A\u002A222,*%
%TO.N,*%
X140230000Y-47640000D03*
%TD*%
%TO.P,REF\u002A\u002A936,*%
%TO.N,*%
X175790000Y-98440000D03*
%TD*%
%TO.P,REF\u002A\u002A948,*%
%TO.N,*%
X117370000Y-100980000D03*
%TD*%
%TO.P,REF\u002A\u002A409,*%
%TO.N,*%
X170710000Y-60340000D03*
%TD*%
%TO.P,REF\u002A\u002A913,*%
%TO.N,*%
X117370000Y-98440000D03*
%TD*%
%TO.P,,*%
%TO.N,*%
X155390000Y-126380000D03*
%TD*%
%TO.P,REF\u002A\u002A987,*%
%TO.N,*%
X127530000Y-103520000D03*
%TD*%
%TO.P,REF\u002A\u002A1318,*%
%TO.N,*%
X168170000Y-126380000D03*
%TD*%
%TO.P,REF\u002A\u002A189,*%
%TO.N,*%
X145310000Y-45100000D03*
%TD*%
%TO.P,REF\u002A\u002A363,*%
%TO.N,*%
X142770000Y-57800000D03*
%TD*%
%TO.P,REF\u002A\u002A325,*%
%TO.N,*%
X135150000Y-55260000D03*
%TD*%
%TO.P,REF\u002A\u002A1005,*%
%TO.N,*%
X173250000Y-103520000D03*
%TD*%
%TO.P,REF\u002A\u002A602,*%
%TO.N,*%
X127530000Y-75580000D03*
%TD*%
%TO.P,REF\u002A\u002A343,*%
%TO.N,*%
X180870000Y-55260000D03*
%TD*%
%TO.P,REF\u002A\u002A1218,*%
%TO.N,*%
X180870000Y-118760000D03*
%TD*%
%TO.P,REF\u002A\u002A22,*%
%TO.N,*%
X165630000Y-32400000D03*
%TD*%
%TO.P,REF\u002A\u002A293,*%
%TO.N,*%
X142770000Y-52720000D03*
%TD*%
%TO.P,REF\u002A\u002A1178,*%
%TO.N,*%
X168170000Y-116220000D03*
%TD*%
%TO.P,REF\u002A\u002A1213,*%
%TO.N,*%
X168170000Y-118760000D03*
%TD*%
%TO.P,REF\u002A\u002A1201,*%
%TO.N,*%
X137690000Y-118760000D03*
%TD*%
%TO.P,REF\u002A\u002A517,*%
%TO.N,*%
X178330000Y-67960000D03*
%TD*%
%TO.P,REF\u002A\u002A1296,*%
%TO.N,*%
X112290000Y-126380000D03*
%TD*%
%TO.P,REF\u002A\u002A883,*%
%TO.N,*%
X130070000Y-95900000D03*
%TD*%
%TO.P,,*%
%TO.N,GND*%
X183480000Y-90880000D03*
%TD*%
%TO.P,REF\u002A\u002A14,*%
%TO.N,*%
X145310000Y-32400000D03*
%TD*%
%TO.P,REF\u002A\u002A985,*%
%TO.N,*%
X122450000Y-103520000D03*
%TD*%
%TO.P,REF\u002A\u002A427,*%
%TO.N,*%
X127530000Y-62880000D03*
%TD*%
%TO.P,REF\u002A\u002A673,*%
%TO.N,*%
X130070000Y-80660000D03*
%TD*%
%TO.P,REF\u002A\u002A515,*%
%TO.N,*%
X173250000Y-67960000D03*
%TD*%
%TO.P,REF\u002A\u002A511,*%
%TO.N,*%
X163090000Y-67960000D03*
%TD*%
%TO.P,REF\u002A\u002A268,*%
%TO.N,*%
X168170000Y-50180000D03*
%TD*%
%TO.P,REF\u002A\u002A897,*%
%TO.N,*%
X165630000Y-95900000D03*
%TD*%
%TO.P,REF\u002A\u002A1283,*%
%TO.N,*%
X168170000Y-123840000D03*
%TD*%
%TO.P,REF\u002A\u002A366,*%
%TO.N,*%
X150390000Y-57800000D03*
%TD*%
%TO.P,REF\u002A\u002A641,*%
%TO.N,*%
X137690000Y-78120000D03*
%TD*%
%TO.P,REF\u002A\u002A534,*%
%TO.N,*%
X132610000Y-70500000D03*
%TD*%
%TO.P,REF\u002A\u002A1111,*%
%TO.N,*%
X175790000Y-111140000D03*
%TD*%
%TO.P,REF\u002A\u002A496,*%
%TO.N,*%
X124990000Y-67960000D03*
%TD*%
%TO.P,REF\u002A\u002A1038,*%
%TO.N,*%
X168170000Y-106060000D03*
%TD*%
%TO.P,REF\u002A\u002A1056,*%
%TO.N,*%
X124990000Y-108600000D03*
%TD*%
%TO.P,REF\u002A\u002A773,*%
%TO.N,*%
X117370000Y-88280000D03*
%TD*%
%TO.P,REF\u002A\u002A828,*%
%TO.N,*%
X168170000Y-90820000D03*
%TD*%
%TO.P,REF\u002A\u002A92,*%
%TO.N,*%
X165630000Y-37480000D03*
%TD*%
%TO.P,REF\u002A\u002A551,*%
%TO.N,*%
X175790000Y-70500000D03*
%TD*%
%TO.P,REF\u002A\u002A636,*%
%TO.N,*%
X124990000Y-78120000D03*
%TD*%
%TO.P,REF\u002A\u002A1096,*%
%TO.N,*%
X137690000Y-111140000D03*
%TD*%
%TO.P,REF\u002A\u002A746,*%
%TO.N,*%
X137690000Y-85740000D03*
%TD*%
%TO.P,REF\u002A\u002A413,*%
%TO.N,*%
X180870000Y-60340000D03*
%TD*%
%TO.P,REF\u002A\u002A364,*%
%TO.N,*%
X145310000Y-57800000D03*
%TD*%
%TO.P,REF\u002A\u002A1127,*%
%TO.N,*%
X127530000Y-113680000D03*
%TD*%
%TO.P,REF\u002A\u002A181,*%
%TO.N,*%
X124990000Y-45100000D03*
%TD*%
%TO.P,REF\u002A\u002A1002,*%
%TO.N,*%
X165630000Y-103520000D03*
%TD*%
%TO.P,REF\u002A\u002A1287,*%
%TO.N,*%
X178330000Y-123840000D03*
%TD*%
%TO.P,REF\u002A\u002A400,*%
%TO.N,*%
X147850000Y-60340000D03*
%TD*%
%TO.P,REF\u002A\u002A761,*%
%TO.N,*%
X175790000Y-85740000D03*
%TD*%
%TO.P,REF\u002A\u002A846,*%
%TO.N,*%
X124990000Y-93360000D03*
%TD*%
%TO.P,REF\u002A\u002A1079,*%
%TO.N,*%
X183410000Y-108600000D03*
%TD*%
%TO.P,REF\u002A\u002A93,*%
%TO.N,*%
X168170000Y-37480000D03*
%TD*%
%TO.P,REF\u002A\u002A510,*%
%TO.N,*%
X160550000Y-67960000D03*
%TD*%
%TO.P,REF\u002A\u002A545,*%
%TO.N,*%
X160550000Y-70500000D03*
%TD*%
%TO.P,REF\u002A\u002A447,*%
%TO.N,*%
X178330000Y-62880000D03*
%TD*%
%TO.P,REF\u002A\u002A462,*%
%TO.N,*%
X127530000Y-65420000D03*
%TD*%
%TO.P,REF\u002A\u002A654,*%
%TO.N,*%
X170710000Y-78120000D03*
%TD*%
%TO.P,REF\u002A\u002A1320,*%
%TO.N,*%
X173250000Y-126380000D03*
%TD*%
%TO.P,REF\u002A\u002A1190,*%
%TO.N,*%
X109750000Y-118760000D03*
%TD*%
%TO.P,REF\u002A\u002A809,*%
%TO.N,*%
X119910000Y-90820000D03*
%TD*%
%TO.P,REF\u002A\u002A1253,*%
%TO.N,*%
X180870000Y-121300000D03*
%TD*%
%TO.P,REF\u002A\u002A704,*%
%TO.N,*%
X119910000Y-83200000D03*
%TD*%
%TO.P,REF\u002A\u002A1024,*%
%TO.N,*%
X132610000Y-106060000D03*
%TD*%
%TO.P,REF\u002A\u002A902,*%
%TO.N,*%
X178330000Y-95900000D03*
%TD*%
%TO.P,REF\u002A\u002A816,*%
%TO.N,*%
X137690000Y-90820000D03*
%TD*%
%TO.P,REF\u002A\u002A393,*%
%TO.N,*%
X130070000Y-60340000D03*
%TD*%
%TO.P,REF\u002A\u002A1350,*%
%TO.N,*%
X160550000Y-128920000D03*
%TD*%
%TO.P,REF\u002A\u002A116,*%
%TO.N,*%
X137690000Y-40020000D03*
%TD*%
%TO.P,REF\u002A\u002A723,*%
%TO.N,*%
X168170000Y-83200000D03*
%TD*%
%TO.P,REF\u002A\u002A255,*%
%TO.N,*%
X135150000Y-50180000D03*
%TD*%
%TO.P,REF\u002A\u002A129,*%
%TO.N,*%
X170710000Y-40020000D03*
%TD*%
%TO.P,REF\u002A\u002A1145,*%
%TO.N,*%
X173250000Y-113680000D03*
%TD*%
%TO.P,REF\u002A\u002A814,*%
%TO.N,*%
X132610000Y-90820000D03*
%TD*%
%TO.P,REF\u002A\u002A552,*%
%TO.N,*%
X178330000Y-70500000D03*
%TD*%
%TO.P,REF\u002A\u002A1229,*%
%TO.N,*%
X119910000Y-121300000D03*
%TD*%
%TO.P,REF\u002A\u002A1078,*%
%TO.N,*%
X180870000Y-108600000D03*
%TD*%
%TO.P,REF\u002A\u002A443,*%
%TO.N,*%
X168170000Y-62880000D03*
%TD*%
%TO.P,REF\u002A\u002A437,*%
%TO.N,*%
X152930000Y-62880000D03*
%TD*%
%TO.P,REF\u002A\u002A903,*%
%TO.N,*%
X180870000Y-95900000D03*
%TD*%
%TO.P,REF\u002A\u002A968,*%
%TO.N,*%
X168170000Y-100980000D03*
%TD*%
%TO.P,REF\u002A\u002A483,*%
%TO.N,*%
X180870000Y-65420000D03*
%TD*%
%TO.P,REF\u002A\u002A436,*%
%TO.N,*%
X150390000Y-62880000D03*
%TD*%
%TO.P,REF\u002A\u002A360,*%
%TO.N,*%
X135150000Y-57800000D03*
%TD*%
%TO.P,REF\u002A\u002A306,*%
%TO.N,*%
X175790000Y-52720000D03*
%TD*%
%TO.P,REF\u002A\u002A54,*%
%TO.N,*%
X158010000Y-34940000D03*
%TD*%
%TO.P,REF\u002A\u002A585,*%
%TO.N,*%
X173250000Y-73040000D03*
%TD*%
%TO.P,REF\u002A\u002A1073,*%
%TO.N,*%
X168170000Y-108600000D03*
%TD*%
%TO.P,REF\u002A\u002A162,*%
%TO.N,*%
X165630000Y-42560000D03*
%TD*%
%TO.P,REF\u002A\u002A299,*%
%TO.N,*%
X158010000Y-52720000D03*
%TD*%
%TO.P,REF\u002A\u002A880,*%
%TO.N,*%
X122450000Y-95900000D03*
%TD*%
%TO.P,REF\u002A\u002A319,*%
%TO.N,*%
X119910000Y-55260000D03*
%TD*%
%TO.P,REF\u002A\u002A412,*%
%TO.N,*%
X178330000Y-60340000D03*
%TD*%
%TO.P,REF\u002A\u002A1161,*%
%TO.N,*%
X124990000Y-116220000D03*
%TD*%
%TO.P,REF\u002A\u002A1058,*%
%TO.N,*%
X130070000Y-108600000D03*
%TD*%
%TO.P,REF\u002A\u002A359,*%
%TO.N,*%
X132610000Y-57800000D03*
%TD*%
%TO.P,REF\u002A\u002A884,*%
%TO.N,*%
X132610000Y-95900000D03*
%TD*%
%TO.P,REF\u002A\u002A120,*%
%TO.N,*%
X147850000Y-40020000D03*
%TD*%
%TO.P,REF\u002A\u002A724,*%
%TO.N,*%
X170710000Y-83200000D03*
%TD*%
%TO.P,REF\u002A\u002A463,*%
%TO.N,*%
X130070000Y-65420000D03*
%TD*%
%TO.P,REF\u002A\u002A532,*%
%TO.N,*%
X127530000Y-70500000D03*
%TD*%
%TO.P,REF\u002A\u002A1053,*%
%TO.N,*%
X117370000Y-108600000D03*
%TD*%
%TO.P,REF\u002A\u002A166,*%
%TO.N,*%
X175790000Y-42560000D03*
%TD*%
%TO.P,REF\u002A\u002A1234,*%
%TO.N,*%
X132610000Y-121300000D03*
%TD*%
%TO.P,REF\u002A\u002A743,*%
%TO.N,*%
X130070000Y-85740000D03*
%TD*%
%TO.P,REF\u002A\u002A12,*%
%TO.N,*%
X140230000Y-32400000D03*
%TD*%
%TO.P,REF\u002A\u002A779,*%
%TO.N,*%
X132610000Y-88280000D03*
%TD*%
%TO.P,REF\u002A\u002A402,*%
%TO.N,*%
X152930000Y-60340000D03*
%TD*%
%TO.P,REF\u002A\u002A127,*%
%TO.N,*%
X165630000Y-40020000D03*
%TD*%
%TO.P,REF\u002A\u002A1070,*%
%TO.N,*%
X160550000Y-108600000D03*
%TD*%
%TO.P,REF\u002A\u002A549,*%
%TO.N,*%
X170710000Y-70500000D03*
%TD*%
%TO.P,REF\u002A\u002A781,*%
%TO.N,*%
X137690000Y-88280000D03*
%TD*%
%TO.P,REF\u002A\u002A1074,*%
%TO.N,*%
X170710000Y-108600000D03*
%TD*%
%TO.P,REF\u002A\u002A213,*%
%TO.N,*%
X117370000Y-47640000D03*
%TD*%
%TO.P,REF\u002A\u002A965,*%
%TO.N,*%
X160550000Y-100980000D03*
%TD*%
%TO.P,REF\u002A\u002A21,*%
%TO.N,*%
X163090000Y-32400000D03*
%TD*%
%TO.P,REF\u002A\u002A425,*%
%TO.N,*%
X122450000Y-62880000D03*
%TD*%
%TO.P,REF\u002A\u002A720,*%
%TO.N,*%
X160550000Y-83200000D03*
%TD*%
%TO.P,REF\u002A\u002A1352,*%
%TO.N,*%
X165630000Y-128920000D03*
%TD*%
%TO.P,REF\u002A\u002A1199,*%
%TO.N,*%
X132610000Y-118760000D03*
%TD*%
%TO.P,REF\u002A\u002A1230,*%
%TO.N,*%
X122450000Y-121300000D03*
%TD*%
%TO.P,REF\u002A\u002A1077,*%
%TO.N,*%
X178330000Y-108600000D03*
%TD*%
%TO.P,REF\u002A\u002A355,*%
%TO.N,*%
X122450000Y-57800000D03*
%TD*%
%TO.P,REF\u002A\u002A815,*%
%TO.N,*%
X135150000Y-90820000D03*
%TD*%
%TO.P,REF\u002A\u002A1147,*%
%TO.N,*%
X178330000Y-113680000D03*
%TD*%
%TO.P,REF\u002A\u002A588,*%
%TO.N,*%
X180870000Y-73040000D03*
%TD*%
%TO.P,REF\u002A\u002A1357,*%
%TO.N,*%
X178330000Y-128920000D03*
%TD*%
%TO.P,REF\u002A\u002A45,*%
%TO.N,*%
X135150000Y-34940000D03*
%TD*%
%TO.P,REF\u002A\u002A226,*%
%TO.N,*%
X150390000Y-47640000D03*
%TD*%
%TO.P,REF\u002A\u002A408,*%
%TO.N,*%
X168170000Y-60340000D03*
%TD*%
%TO.P,REF\u002A\u002A830,*%
%TO.N,GND*%
X173250000Y-90820000D03*
%TD*%
%TO.P,REF\u002A\u002A1290,*%
%TO.N,*%
X185950000Y-123840000D03*
%TD*%
%TO.P,REF\u002A\u002A868,*%
%TO.N,GND*%
X180870000Y-93360000D03*
%TD*%
%TO.P,REF\u002A\u002A231,*%
%TO.N,*%
X163090000Y-47640000D03*
%TD*%
%TO.P,REF\u002A\u002A405,*%
%TO.N,*%
X160550000Y-60340000D03*
%TD*%
%TO.P,REF\u002A\u002A633,*%
%TO.N,*%
X117370000Y-78120000D03*
%TD*%
%TO.P,REF\u002A\u002A843,*%
%TO.N,*%
X117370000Y-93360000D03*
%TD*%
%TO.P,REF\u002A\u002A637,*%
%TO.N,*%
X127530000Y-78120000D03*
%TD*%
%TO.P,REF\u002A\u002A361,*%
%TO.N,*%
X137690000Y-57800000D03*
%TD*%
%TO.P,REF\u002A\u002A44,*%
%TO.N,*%
X132610000Y-34940000D03*
%TD*%
%TO.P,REF\u002A\u002A1214,*%
%TO.N,*%
X170710000Y-118760000D03*
%TD*%
%TO.P,REF\u002A\u002A118,*%
%TO.N,*%
X142770000Y-40020000D03*
%TD*%
%TO.P,REF\u002A\u002A1055,*%
%TO.N,*%
X122450000Y-108600000D03*
%TD*%
%TO.P,REF\u002A\u002A1233,*%
%TO.N,*%
X130070000Y-121300000D03*
%TD*%
%TO.P,REF\u002A\u002A297,*%
%TO.N,*%
X152930000Y-52720000D03*
%TD*%
%TO.P,REF\u002A\u002A214,*%
%TO.N,*%
X119910000Y-47640000D03*
%TD*%
%TO.P,REF\u002A\u002A1194,*%
%TO.N,*%
X119910000Y-118760000D03*
%TD*%
%TO.P,REF\u002A\u002A1004,*%
%TO.N,*%
X170710000Y-103520000D03*
%TD*%
%TO.P,REF\u002A\u002A1196,*%
%TO.N,*%
X124990000Y-118760000D03*
%TD*%
%TO.P,REF\u002A\u002A1163,*%
%TO.N,*%
X130070000Y-116220000D03*
%TD*%
%TO.P,REF\u002A\u002A41,*%
%TO.N,*%
X124990000Y-34940000D03*
%TD*%
%TO.P,REF\u002A\u002A653,*%
%TO.N,*%
X168170000Y-78120000D03*
%TD*%
%TO.P,REF\u002A\u002A1175,*%
%TO.N,*%
X160550000Y-116220000D03*
%TD*%
%TO.P,REF\u002A\u002A866,*%
%TO.N,GND*%
X175790000Y-93360000D03*
%TD*%
%TO.P,REF\u002A\u002A377,*%
%TO.N,*%
X178330000Y-57800000D03*
%TD*%
%TO.P,REF\u002A\u002A705,*%
%TO.N,*%
X122450000Y-83200000D03*
%TD*%
%TO.P,REF\u002A\u002A267,*%
%TO.N,*%
X165630000Y-50180000D03*
%TD*%
%TO.P,REF\u002A\u002A606,*%
%TO.N,*%
X137690000Y-75580000D03*
%TD*%
%TO.P,REF\u002A\u002A956,*%
%TO.N,*%
X137690000Y-100980000D03*
%TD*%
%TO.P,REF\u002A\u002A330,*%
%TO.N,*%
X147850000Y-55260000D03*
%TD*%
%TO.P,REF\u002A\u002A827,*%
%TO.N,*%
X165630000Y-90820000D03*
%TD*%
%TO.P,REF\u002A\u002A300,*%
%TO.N,*%
X160550000Y-52720000D03*
%TD*%
%TO.P,REF\u002A\u002A934,*%
%TO.N,*%
X170710000Y-98440000D03*
%TD*%
%TO.P,REF\u002A\u002A329,*%
%TO.N,*%
X145310000Y-55260000D03*
%TD*%
%TO.P,REF\u002A\u002A469,*%
%TO.N,*%
X145310000Y-65420000D03*
%TD*%
%TO.P,REF\u002A\u002A193,*%
%TO.N,*%
X155470000Y-45100000D03*
%TD*%
%TO.P,REF\u002A\u002A378,*%
%TO.N,*%
X180870000Y-57800000D03*
%TD*%
%TO.P,REF\u002A\u002A898,*%
%TO.N,*%
X168170000Y-95900000D03*
%TD*%
%TO.P,REF\u002A\u002A1112,*%
%TO.N,*%
X178330000Y-111140000D03*
%TD*%
%TO.P,,*%
%TO.N,*%
X142800000Y-126390000D03*
%TD*%
%TO.P,REF\u002A\u002A739,*%
%TO.N,*%
X119910000Y-85740000D03*
%TD*%
%TO.P,REF\u002A\u002A301,*%
%TO.N,*%
X163090000Y-52720000D03*
%TD*%
%TO.P,REF\u002A\u002A1195,*%
%TO.N,*%
X122450000Y-118760000D03*
%TD*%
%TO.P,REF\u002A\u002A745,*%
%TO.N,*%
X135150000Y-85740000D03*
%TD*%
%TO.P,REF\u002A\u002A52,*%
%TO.N,*%
X152930000Y-34940000D03*
%TD*%
%TO.P,REF\u002A\u002A984,*%
%TO.N,*%
X119910000Y-103520000D03*
%TD*%
%TO.P,REF\u002A\u002A480,*%
%TO.N,*%
X173250000Y-65420000D03*
%TD*%
%TO.P,REF\u002A\u002A1025,*%
%TO.N,*%
X135150000Y-106060000D03*
%TD*%
%TO.P,REF\u002A\u002A1126,*%
%TO.N,*%
X124990000Y-113680000D03*
%TD*%
%TO.P,REF\u002A\u002A896,*%
%TO.N,*%
X163090000Y-95900000D03*
%TD*%
%TO.P,REF\u002A\u002A528,*%
%TO.N,*%
X117370000Y-70500000D03*
%TD*%
%TO.P,REF\u002A\u002A1054,*%
%TO.N,*%
X119910000Y-108600000D03*
%TD*%
%TO.P,REF\u002A\u002A335,*%
%TO.N,*%
X160550000Y-55260000D03*
%TD*%
%TO.P,REF\u002A\u002A1020,*%
%TO.N,*%
X122450000Y-106060000D03*
%TD*%
%TO.P,REF\u002A\u002A88,*%
%TO.N,*%
X155470000Y-37480000D03*
%TD*%
%TO.P,REF\u002A\u002A1251,*%
%TO.N,*%
X175790000Y-121300000D03*
%TD*%
%TO.P,REF\u002A\u002A671,*%
%TO.N,*%
X124990000Y-80660000D03*
%TD*%
%TO.P,REF\u002A\u002A465,*%
%TO.N,*%
X135150000Y-65420000D03*
%TD*%
%TO.P,REF\u002A\u002A82,*%
%TO.N,*%
X140230000Y-37480000D03*
%TD*%
%TO.P,REF\u002A\u002A16,*%
%TO.N,*%
X150390000Y-32400000D03*
%TD*%
%TO.P,REF\u002A\u002A529,*%
%TO.N,*%
X119910000Y-70500000D03*
%TD*%
%TO.P,REF\u002A\u002A334,*%
%TO.N,*%
X158010000Y-55260000D03*
%TD*%
%TO.P,REF\u002A\u002A638,*%
%TO.N,*%
X130070000Y-78120000D03*
%TD*%
%TO.P,REF\u002A\u002A825,*%
%TO.N,*%
X160550000Y-90820000D03*
%TD*%
%TO.P,REF\u002A\u002A1351,*%
%TO.N,*%
X163090000Y-128920000D03*
%TD*%
%TO.P,REF\u002A\u002A727,*%
%TO.N,*%
X178330000Y-83200000D03*
%TD*%
%TO.P,REF\u002A\u002A446,*%
%TO.N,*%
X175790000Y-62880000D03*
%TD*%
%TO.P,REF\u002A\u002A1217,*%
%TO.N,*%
X178330000Y-118760000D03*
%TD*%
%TO.P,REF\u002A\u002A1197,*%
%TO.N,*%
X127530000Y-118760000D03*
%TD*%
%TO.P,REF\u002A\u002A986,*%
%TO.N,*%
X124990000Y-103520000D03*
%TD*%
%TO.P,REF\u002A\u002A848,*%
%TO.N,*%
X130070000Y-93360000D03*
%TD*%
%TO.P,REF\u002A\u002A51,*%
%TO.N,*%
X150390000Y-34940000D03*
%TD*%
%TO.P,REF\u002A\u002A709,*%
%TO.N,*%
X132610000Y-83200000D03*
%TD*%
%TO.P,REF\u002A\u002A369,*%
%TO.N,*%
X158010000Y-57800000D03*
%TD*%
%TO.P,REF\u002A\u002A56,*%
%TO.N,*%
X163090000Y-34940000D03*
%TD*%
%TO.P,REF\u002A\u002A1003,*%
%TO.N,*%
X168170000Y-103520000D03*
%TD*%
%TO.P,REF\u002A\u002A604,*%
%TO.N,*%
X132610000Y-75580000D03*
%TD*%
%TO.P,REF\u002A\u002A620,*%
%TO.N,*%
X173250000Y-75580000D03*
%TD*%
%TO.P,REF\u002A\u002A58,*%
%TO.N,*%
X168170000Y-34940000D03*
%TD*%
%TO.P,REF\u002A\u002A1271,*%
%TO.N,*%
X137690000Y-123900000D03*
%TD*%
%TO.P,REF\u002A\u002A1120,*%
%TO.N,*%
X109750000Y-113680000D03*
%TD*%
%TO.P,REF\u002A\u002A79,*%
%TO.N,*%
X132610000Y-37480000D03*
%TD*%
%TO.P,REF\u002A\u002A567,*%
%TO.N,*%
X127530000Y-73040000D03*
%TD*%
%TO.P,REF\u002A\u002A1075,*%
%TO.N,*%
X173250000Y-108600000D03*
%TD*%
%TO.P,REF\u002A\u002A19,*%
%TO.N,*%
X158010000Y-32400000D03*
%TD*%
%TO.P,REF\u002A\u002A711,*%
%TO.N,*%
X137690000Y-83200000D03*
%TD*%
%TO.P,REF\u002A\u002A862,*%
%TO.N,*%
X165630000Y-93360000D03*
%TD*%
%TO.P,REF\u002A\u002A1142,*%
%TO.N,*%
X165630000Y-113680000D03*
%TD*%
%TO.P,REF\u002A\u002A674,*%
%TO.N,*%
X132610000Y-80660000D03*
%TD*%
%TO.P,REF\u002A\u002A686,*%
%TO.N,*%
X163090000Y-80660000D03*
%TD*%
%TO.P,REF\u002A\u002A1107,*%
%TO.N,*%
X165630000Y-111140000D03*
%TD*%
%TO.P,REF\u002A\u002A178,*%
%TO.N,*%
X117370000Y-45100000D03*
%TD*%
%TO.P,REF\u002A\u002A475,*%
%TO.N,*%
X160550000Y-65420000D03*
%TD*%
%TO.P,REF\u002A\u002A497,*%
%TO.N,*%
X127530000Y-67960000D03*
%TD*%
%TO.P,REF\u002A\u002A1176,*%
%TO.N,*%
X163090000Y-116220000D03*
%TD*%
%TO.P,REF\u002A\u002A937,*%
%TO.N,*%
X178330000Y-98440000D03*
%TD*%
%TO.P,REF\u002A\u002A147,*%
%TO.N,*%
X127530000Y-42560000D03*
%TD*%
%TO.P,REF\u002A\u002A1129,*%
%TO.N,*%
X132610000Y-113680000D03*
%TD*%
%TO.P,REF\u002A\u002A1105,*%
%TO.N,*%
X160550000Y-111140000D03*
%TD*%
%TO.P,REF\u002A\u002A375,*%
%TO.N,*%
X173250000Y-57800000D03*
%TD*%
%TO.P,REF\u002A\u002A117,*%
%TO.N,*%
X140230000Y-40020000D03*
%TD*%
%TO.P,REF\u002A\u002A444,*%
%TO.N,*%
X170710000Y-62880000D03*
%TD*%
%TO.P,REF\u002A\u002A1319,*%
%TO.N,*%
X170710000Y-126380000D03*
%TD*%
%TO.P,REF\u002A\u002A740,*%
%TO.N,*%
X122450000Y-85740000D03*
%TD*%
%TO.P,REF\u002A\u002A668,*%
%TO.N,*%
X117370000Y-80660000D03*
%TD*%
%TO.P,REF\u002A\u002A1165,*%
%TO.N,*%
X135150000Y-116220000D03*
%TD*%
%TO.P,REF\u002A\u002A756,*%
%TO.N,*%
X163090000Y-85740000D03*
%TD*%
%TO.P,REF\u002A\u002A565,*%
%TO.N,*%
X122450000Y-73040000D03*
%TD*%
%TO.P,REF\u002A\u002A1001,*%
%TO.N,*%
X163090000Y-103520000D03*
%TD*%
%TO.P,REF\u002A\u002A845,*%
%TO.N,*%
X122450000Y-93360000D03*
%TD*%
%TO.P,REF\u002A\u002A915,*%
%TO.N,*%
X122450000Y-98440000D03*
%TD*%
%TO.P,REF\u002A\u002A161,*%
%TO.N,*%
X163090000Y-42560000D03*
%TD*%
%TO.P,REF\u002A\u002A367,*%
%TO.N,*%
X152930000Y-57800000D03*
%TD*%
%TO.P,REF\u002A\u002A318,*%
%TO.N,*%
X117370000Y-55260000D03*
%TD*%
%TO.P,REF\u002A\u002A122,*%
%TO.N,*%
X152930000Y-40020000D03*
%TD*%
%TO.P,REF\u002A\u002A333,*%
%TO.N,*%
X155470000Y-55260000D03*
%TD*%
%TO.P,REF\u002A\u002A687,*%
%TO.N,*%
X165630000Y-80660000D03*
%TD*%
%TO.P,REF\u002A\u002A296,*%
%TO.N,*%
X150390000Y-52720000D03*
%TD*%
%TO.P,REF\u002A\u002A599,*%
%TO.N,*%
X119910000Y-75580000D03*
%TD*%
%TO.P,REF\u002A\u002A403,*%
%TO.N,*%
X155470000Y-60340000D03*
%TD*%
%TO.P,REF\u002A\u002A974,*%
%TO.N,*%
X183410000Y-100980000D03*
%TD*%
%TO.P,REF\u002A\u002A879,*%
%TO.N,*%
X119910000Y-95900000D03*
%TD*%
%TO.P,REF\u002A\u002A615,*%
%TO.N,*%
X160550000Y-75580000D03*
%TD*%
%TO.P,REF\u002A\u002A1042,*%
%TO.N,*%
X178330000Y-106060000D03*
%TD*%
%TO.P,REF\u002A\u002A125,*%
%TO.N,*%
X160550000Y-40020000D03*
%TD*%
%TO.P,REF\u002A\u002A339,*%
%TO.N,*%
X170710000Y-55260000D03*
%TD*%
%TO.P,REF\u002A\u002A10,*%
%TO.N,*%
X135150000Y-32400000D03*
%TD*%
%TO.P,REF\u002A\u002A1298,*%
%TO.N,*%
X117370000Y-126380000D03*
%TD*%
%TO.P,REF\u002A\u002A77,*%
%TO.N,*%
X127530000Y-37480000D03*
%TD*%
%TO.P,REF\u002A\u002A512,*%
%TO.N,*%
X165630000Y-67960000D03*
%TD*%
%TO.P,REF\u002A\u002A476,*%
%TO.N,*%
X163090000Y-65420000D03*
%TD*%
%TO.P,REF\u002A\u002A482,*%
%TO.N,*%
X178330000Y-65420000D03*
%TD*%
%TO.P,REF\u002A\u002A163,*%
%TO.N,*%
X168170000Y-42560000D03*
%TD*%
%TO.P,REF\u002A\u002A55,*%
%TO.N,*%
X160550000Y-34940000D03*
%TD*%
%TO.P,REF\u002A\u002A1355,*%
%TO.N,*%
X173250000Y-128920000D03*
%TD*%
%TO.P,REF\u002A\u002A1232,*%
%TO.N,*%
X127530000Y-121300000D03*
%TD*%
%TO.P,REF\u002A\u002A1140,*%
%TO.N,*%
X160550000Y-113680000D03*
%TD*%
%TO.P,REF\u002A\u002A42,*%
%TO.N,*%
X127530000Y-34940000D03*
%TD*%
%TO.P,REF\u002A\u002A1255,*%
%TO.N,*%
X185950000Y-121300000D03*
%TD*%
%TO.P,REF\u002A\u002A847,*%
%TO.N,*%
X127530000Y-93360000D03*
%TD*%
%TO.P,REF\u002A\u002A1057,*%
%TO.N,*%
X127530000Y-108600000D03*
%TD*%
%TO.P,REF\u002A\u002A154,*%
%TO.N,*%
X145310000Y-42560000D03*
%TD*%
%TO.P,REF\u002A\u002A320,*%
%TO.N,*%
X122450000Y-55260000D03*
%TD*%
%TO.P,REF\u002A\u002A844,*%
%TO.N,*%
X119910000Y-93360000D03*
%TD*%
%TO.P,REF\u002A\u002A566,*%
%TO.N,*%
X124990000Y-73040000D03*
%TD*%
%TO.P,REF\u002A\u002A867,*%
%TO.N,GND*%
X178330000Y-93360000D03*
%TD*%
%TO.P,REF\u002A\u002A365,*%
%TO.N,*%
X147850000Y-57800000D03*
%TD*%
%TO.P,REF\u002A\u002A811,*%
%TO.N,*%
X124990000Y-90820000D03*
%TD*%
%TO.P,REF\u002A\u002A972,*%
%TO.N,*%
X178330000Y-100980000D03*
%TD*%
%TO.P,REF\u002A\u002A86,*%
%TO.N,*%
X150390000Y-37480000D03*
%TD*%
%TO.P,,*%
%TO.N,*%
X155320000Y-123900000D03*
%TD*%
%TO.P,REF\u002A\u002A474,*%
%TO.N,*%
X158010000Y-65420000D03*
%TD*%
%TO.P,REF\u002A\u002A337,*%
%TO.N,*%
X165630000Y-55260000D03*
%TD*%
%TO.P,REF\u002A\u002A341,*%
%TO.N,*%
X175790000Y-55260000D03*
%TD*%
%TO.P,REF\u002A\u002A18,*%
%TO.N,*%
X155470000Y-32400000D03*
%TD*%
%TO.P,REF\u002A\u002A358,*%
%TO.N,*%
X130070000Y-57800000D03*
%TD*%
%TO.P,REF\u002A\u002A441,*%
%TO.N,*%
X163090000Y-62880000D03*
%TD*%
%TO.P,REF\u002A\u002A298,*%
%TO.N,*%
X155470000Y-52720000D03*
%TD*%
%TO.P,REF\u002A\u002A693,*%
%TO.N,*%
X180870000Y-80660000D03*
%TD*%
%TO.P,REF\u002A\u002A398,*%
%TO.N,*%
X142770000Y-60340000D03*
%TD*%
%TO.P,REF\u002A\u002A708,*%
%TO.N,*%
X130070000Y-83200000D03*
%TD*%
%TO.P,REF\u002A\u002A90,*%
%TO.N,*%
X160550000Y-37480000D03*
%TD*%
%TO.P,REF\u002A\u002A370,*%
%TO.N,*%
X160550000Y-57800000D03*
%TD*%
%TO.P,REF\u002A\u002A191,*%
%TO.N,*%
X150390000Y-45100000D03*
%TD*%
%TO.P,REF\u002A\u002A861,*%
%TO.N,*%
X163090000Y-93360000D03*
%TD*%
%TO.P,REF\u002A\u002A744,*%
%TO.N,*%
X132610000Y-85740000D03*
%TD*%
%TO.P,REF\u002A\u002A685,*%
%TO.N,*%
X160550000Y-80660000D03*
%TD*%
%TO.P,REF\u002A\u002A376,*%
%TO.N,*%
X175790000Y-57800000D03*
%TD*%
%TO.P,REF\u002A\u002A1146,*%
%TO.N,*%
X175790000Y-113680000D03*
%TD*%
%TO.P,REF\u002A\u002A1072,*%
%TO.N,*%
X165630000Y-108600000D03*
%TD*%
%TO.P,REF\u002A\u002A262,*%
%TO.N,*%
X152930000Y-50180000D03*
%TD*%
%TO.P,REF\u002A\u002A670,*%
%TO.N,*%
X122450000Y-80660000D03*
%TD*%
%TO.P,REF\u002A\u002A433,*%
%TO.N,*%
X142770000Y-62880000D03*
%TD*%
%TO.P,REF\u002A\u002A305,*%
%TO.N,*%
X173250000Y-52720000D03*
%TD*%
%TO.P,REF\u002A\u002A1211,*%
%TO.N,*%
X163090000Y-118760000D03*
%TD*%
%TO.P,REF\u002A\u002A759,*%
%TO.N,*%
X170710000Y-85740000D03*
%TD*%
%TO.P,REF\u002A\u002A794,*%
%TO.N,*%
X170710000Y-88280000D03*
%TD*%
%TO.P,REF\u002A\u002A1246,*%
%TO.N,*%
X163090000Y-121300000D03*
%TD*%
%TO.P,REF\u002A\u002A445,*%
%TO.N,*%
X173250000Y-62880000D03*
%TD*%
%TO.P,REF\u002A\u002A1090,*%
%TO.N,*%
X122450000Y-111140000D03*
%TD*%
%TO.P,REF\u002A\u002A1210,*%
%TO.N,*%
X160550000Y-118760000D03*
%TD*%
%TO.P,REF\u002A\u002A1125,*%
%TO.N,*%
X122450000Y-113680000D03*
%TD*%
%TO.P,REF\u002A\u002A1177,*%
%TO.N,*%
X165630000Y-116220000D03*
%TD*%
%TO.P,REF\u002A\u002A399,*%
%TO.N,*%
X145310000Y-60340000D03*
%TD*%
%TO.P,REF\u002A\u002A553,*%
%TO.N,*%
X180870000Y-70500000D03*
%TD*%
D11*
%TO.N,*%
X109750000Y-121300000D02*
X117370000Y-121300000D01*
X173250000Y-42560000D02*
X168170000Y-47640000D01*
X158010000Y-126380000D02*
X158010000Y-128920000D01*
X180870000Y-123840000D02*
X185950000Y-123840000D01*
X160550000Y-37480000D02*
X158010000Y-37480000D01*
X173250000Y-128920000D02*
X175790000Y-126380000D01*
X173250000Y-40020000D02*
X168170000Y-34940000D01*
X173250000Y-88280000D02*
X180870000Y-88280000D01*
X178330000Y-128920000D02*
X180870000Y-126380000D01*
X127530000Y-42560000D02*
X127530000Y-45100000D01*
X117370000Y-37480000D02*
X124990000Y-37480000D01*
X185950000Y-118760000D02*
X187610000Y-118760000D01*
X117370000Y-40020000D02*
X124990000Y-40020000D01*
X109750000Y-118760000D02*
X117370000Y-118760000D01*
X117370000Y-34940000D02*
X124990000Y-34940000D01*
X175790000Y-128920000D02*
X175790000Y-126380000D01*
X175790000Y-126380000D02*
X178330000Y-128920000D01*
X168170000Y-37480000D02*
X165630000Y-37480000D01*
X109750000Y-113680000D02*
X117370000Y-113680000D01*
X178330000Y-128920000D02*
X178330000Y-126380000D01*
X170710000Y-128920000D02*
X170710000Y-126380000D01*
X175790000Y-42560000D02*
X168170000Y-50180000D01*
X163090000Y-126380000D02*
X163090000Y-128920000D01*
X160550000Y-128920000D02*
X163090000Y-126380000D01*
X163090000Y-128920000D02*
X165630000Y-126380000D01*
X183410000Y-111140000D02*
X175790000Y-111140000D01*
X155390000Y-126380000D02*
X165630000Y-126380000D01*
X173250000Y-128920000D02*
X173250000Y-126380000D01*
X188750000Y-119900000D02*
X188750000Y-125040000D01*
X163090000Y-37480000D02*
X160550000Y-37480000D01*
X187610000Y-118760000D02*
X188750000Y-119900000D01*
X130070000Y-42560000D02*
X130070000Y-45100000D01*
X155470000Y-128920000D02*
X155390000Y-128920000D01*
X185950000Y-116220000D02*
X185950000Y-113680000D01*
X185950000Y-126380000D02*
X185950000Y-128920000D01*
X165630000Y-128920000D02*
X185950000Y-128920000D01*
X168170000Y-45100000D02*
X155470000Y-45100000D01*
X168170000Y-128920000D02*
X168170000Y-126380000D01*
X183410000Y-126380000D02*
X185950000Y-128920000D01*
X170710000Y-40020000D02*
X168170000Y-37480000D01*
X185950000Y-113680000D02*
X183410000Y-111140000D01*
X173250000Y-80660000D02*
X180870000Y-80660000D01*
X160550000Y-126380000D02*
X163090000Y-128920000D01*
X180870000Y-128920000D02*
X183410000Y-126380000D01*
X183410000Y-128920000D02*
X185950000Y-126380000D01*
X168170000Y-45100000D02*
X170710000Y-42560000D01*
X155390000Y-126380000D02*
X157930000Y-128920000D01*
X165630000Y-126380000D02*
X168170000Y-128920000D01*
X155390000Y-126380000D02*
X155390000Y-128920000D01*
X183410000Y-128920000D02*
X183410000Y-126380000D01*
X185950000Y-128920000D02*
X188750000Y-126120000D01*
X168170000Y-128920000D02*
X170710000Y-126380000D01*
X188750000Y-125040000D02*
X187410000Y-126380000D01*
X173250000Y-78120000D02*
X180870000Y-78120000D01*
X165630000Y-126380000D02*
X165630000Y-128920000D01*
X180870000Y-126380000D02*
X183410000Y-128920000D01*
X158010000Y-126380000D02*
X160550000Y-128920000D01*
X173250000Y-75580000D02*
X180870000Y-75580000D01*
X165630000Y-128920000D02*
X168170000Y-126380000D01*
X175790000Y-40020000D02*
X168170000Y-32400000D01*
X124990000Y-42560000D02*
X124990000Y-45100000D01*
X170710000Y-126380000D02*
X173250000Y-128920000D01*
X160550000Y-126380000D02*
X160550000Y-128920000D01*
X187410000Y-126380000D02*
X185950000Y-126380000D01*
X132610000Y-42560000D02*
X132610000Y-45100000D01*
X175790000Y-128920000D02*
X178330000Y-126380000D01*
X180870000Y-128920000D02*
X180870000Y-126380000D01*
X173250000Y-73040000D02*
X180870000Y-73040000D01*
X157930000Y-128920000D02*
X158010000Y-128920000D01*
X109750000Y-116220000D02*
X117370000Y-116220000D01*
X173250000Y-126380000D02*
X175790000Y-128920000D01*
X168170000Y-126380000D02*
X185950000Y-126380000D01*
X178330000Y-126380000D02*
X180870000Y-128920000D01*
X155390000Y-128920000D02*
X165630000Y-128920000D01*
X158010000Y-126380000D02*
X155470000Y-128920000D01*
X170710000Y-128920000D02*
X173250000Y-126380000D01*
X158010000Y-128920000D02*
X160550000Y-126380000D01*
X168170000Y-126380000D02*
X170710000Y-128920000D01*
X180870000Y-121300000D02*
X185950000Y-121300000D01*
X188750000Y-126120000D02*
X188750000Y-125040000D01*
X158010000Y-37480000D02*
X155470000Y-37480000D01*
X117370000Y-32400000D02*
X124990000Y-32400000D01*
X165630000Y-37480000D02*
X163090000Y-37480000D01*
X163090000Y-126380000D02*
X165630000Y-128920000D01*
%TO.N,GND*%
X181000000Y-93360000D02*
X180870000Y-93360000D01*
%TD*%
%TA.AperFunction,Conductor*%
%TO.N,GND*%
G36*
X172251551Y-89450588D02*
G01*
X172319640Y-89470695D01*
X172333195Y-89480784D01*
X172336625Y-89483714D01*
X172375429Y-89543168D01*
X172377641Y-89577560D01*
X172385877Y-89596667D01*
X173237188Y-90447978D01*
X173251132Y-90455592D01*
X173252965Y-90455461D01*
X173259580Y-90451210D01*
X174111080Y-89599710D01*
X174120260Y-89582898D01*
X174134020Y-89519650D01*
X174162698Y-89484292D01*
X174163134Y-89483919D01*
X174227900Y-89454835D01*
X174245237Y-89453663D01*
X176301724Y-89456834D01*
X179873520Y-89462342D01*
X179941608Y-89482448D01*
X179988018Y-89536175D01*
X179991648Y-89563658D01*
X180005877Y-89596667D01*
X180857188Y-90447978D01*
X180871132Y-90455592D01*
X180872965Y-90455461D01*
X180879580Y-90451210D01*
X181731080Y-89599710D01*
X181745726Y-89572888D01*
X181754831Y-89531031D01*
X181805032Y-89480828D01*
X181865614Y-89465414D01*
X182180497Y-89465899D01*
X182492794Y-89466381D01*
X182560882Y-89486487D01*
X182607292Y-89540214D01*
X182616903Y-89612980D01*
X182611389Y-89646256D01*
X182615876Y-89656666D01*
X183750115Y-90790905D01*
X183784141Y-90853217D01*
X183779076Y-90924032D01*
X183750115Y-90969095D01*
X182624937Y-92094273D01*
X182562625Y-92128299D01*
X182544831Y-92130857D01*
X182543421Y-92130958D01*
X182545895Y-92136685D01*
X183680115Y-93270905D01*
X183714141Y-93333217D01*
X183709076Y-93404032D01*
X183680115Y-93449095D01*
X182554271Y-94574939D01*
X182491959Y-94608965D01*
X182465278Y-94611844D01*
X182217841Y-94612034D01*
X181815420Y-94612343D01*
X181747284Y-94592393D01*
X181726228Y-94575438D01*
X180882812Y-93732022D01*
X180868868Y-93724408D01*
X180867035Y-93724539D01*
X180860420Y-93728790D01*
X180012315Y-94576895D01*
X179950003Y-94610921D01*
X179923317Y-94613800D01*
X179277374Y-94614297D01*
X179209238Y-94594347D01*
X179188182Y-94577392D01*
X178342812Y-93732022D01*
X178328868Y-93724408D01*
X178327035Y-93724539D01*
X178320420Y-93728790D01*
X177470358Y-94578852D01*
X177408046Y-94612878D01*
X177381360Y-94615757D01*
X176739328Y-94616251D01*
X176671192Y-94596301D01*
X176650136Y-94579346D01*
X175802812Y-93732022D01*
X175788868Y-93724408D01*
X175787035Y-93724539D01*
X175780420Y-93728790D01*
X174928401Y-94580809D01*
X174866089Y-94614835D01*
X174839403Y-94617714D01*
X174201282Y-94618205D01*
X174133146Y-94598255D01*
X174112090Y-94581300D01*
X173262812Y-93732022D01*
X173248868Y-93724408D01*
X173247035Y-93724539D01*
X173240420Y-93728790D01*
X172386444Y-94582766D01*
X172324132Y-94616792D01*
X172297447Y-94619671D01*
X171995079Y-94619904D01*
X171926944Y-94599954D01*
X171880410Y-94546335D01*
X171868987Y-94494924D01*
X171868011Y-94374394D01*
X171887461Y-94306114D01*
X171898196Y-94291544D01*
X171913706Y-94273384D01*
X171973156Y-94234575D01*
X172007556Y-94232361D01*
X172026667Y-94224123D01*
X172877978Y-93372812D01*
X172884356Y-93361132D01*
X173614408Y-93361132D01*
X173614539Y-93362965D01*
X173618790Y-93369580D01*
X174470290Y-94221080D01*
X174484234Y-94228694D01*
X174517551Y-94226311D01*
X174518641Y-94225905D01*
X174548217Y-94227280D01*
X174556253Y-94228612D01*
X174566667Y-94224123D01*
X175417978Y-93372812D01*
X175424356Y-93361132D01*
X176154408Y-93361132D01*
X176154539Y-93362965D01*
X176158790Y-93369580D01*
X177010290Y-94221080D01*
X177024234Y-94228694D01*
X177057551Y-94226311D01*
X177058641Y-94225905D01*
X177088217Y-94227280D01*
X177096253Y-94228612D01*
X177106667Y-94224123D01*
X177957978Y-93372812D01*
X177964356Y-93361132D01*
X178694408Y-93361132D01*
X178694539Y-93362965D01*
X178698790Y-93369580D01*
X179550290Y-94221080D01*
X179564234Y-94228694D01*
X179597551Y-94226311D01*
X179598641Y-94225905D01*
X179628217Y-94227280D01*
X179636253Y-94228612D01*
X179646667Y-94224123D01*
X180497978Y-93372812D01*
X180504356Y-93361132D01*
X181234408Y-93361132D01*
X181234539Y-93362965D01*
X181238790Y-93369580D01*
X182090290Y-94221080D01*
X182104234Y-94228694D01*
X182137551Y-94226311D01*
X182138641Y-94225905D01*
X182168217Y-94227280D01*
X182176253Y-94228612D01*
X182186667Y-94224123D01*
X183037978Y-93372812D01*
X183045592Y-93358868D01*
X183045461Y-93357035D01*
X183041210Y-93350420D01*
X182189710Y-92498920D01*
X182175766Y-92491306D01*
X182142449Y-92493689D01*
X182141359Y-92494095D01*
X182111783Y-92492720D01*
X182103747Y-92491388D01*
X182093333Y-92495877D01*
X181242022Y-93347188D01*
X181234408Y-93361132D01*
X180504356Y-93361132D01*
X180505592Y-93358868D01*
X180505461Y-93357035D01*
X180501210Y-93350420D01*
X179649710Y-92498920D01*
X179635766Y-92491306D01*
X179602449Y-92493689D01*
X179601359Y-92494095D01*
X179571783Y-92492720D01*
X179563747Y-92491388D01*
X179553333Y-92495877D01*
X178702022Y-93347188D01*
X178694408Y-93361132D01*
X177964356Y-93361132D01*
X177965592Y-93358868D01*
X177965461Y-93357035D01*
X177961210Y-93350420D01*
X177109710Y-92498920D01*
X177095766Y-92491306D01*
X177062449Y-92493689D01*
X177061359Y-92494095D01*
X177031783Y-92492720D01*
X177023747Y-92491388D01*
X177013333Y-92495877D01*
X176162022Y-93347188D01*
X176154408Y-93361132D01*
X175424356Y-93361132D01*
X175425592Y-93358868D01*
X175425461Y-93357035D01*
X175421210Y-93350420D01*
X174569710Y-92498920D01*
X174555766Y-92491306D01*
X174522449Y-92493689D01*
X174521359Y-92494095D01*
X174491783Y-92492720D01*
X174483747Y-92491388D01*
X174473333Y-92495877D01*
X173622022Y-93347188D01*
X173614408Y-93361132D01*
X172884356Y-93361132D01*
X172885592Y-93358868D01*
X172885461Y-93357035D01*
X172881210Y-93350420D01*
X172029710Y-92498920D01*
X172012898Y-92489740D01*
X171949650Y-92475980D01*
X171914226Y-92447225D01*
X171881629Y-92409060D01*
X171852597Y-92344271D01*
X171851443Y-92328248D01*
X171850008Y-92150997D01*
X171850007Y-92149044D01*
X171850176Y-92126253D01*
X171850709Y-92054234D01*
X172381306Y-92054234D01*
X172383689Y-92087551D01*
X172384095Y-92088641D01*
X172382720Y-92118217D01*
X172381388Y-92126253D01*
X172385877Y-92136667D01*
X173237188Y-92987978D01*
X173251132Y-92995592D01*
X173252965Y-92995461D01*
X173259580Y-92991210D01*
X174111080Y-92139710D01*
X174117534Y-92127890D01*
X174922093Y-92127890D01*
X174925876Y-92136666D01*
X175777188Y-92987978D01*
X175791132Y-92995592D01*
X175792965Y-92995461D01*
X175799580Y-92991210D01*
X176651080Y-92139710D01*
X176657534Y-92127890D01*
X177462093Y-92127890D01*
X177465876Y-92136666D01*
X178317188Y-92987978D01*
X178331132Y-92995592D01*
X178332965Y-92995461D01*
X178339580Y-92991210D01*
X179191080Y-92139710D01*
X179197840Y-92127330D01*
X179192113Y-92119680D01*
X179085316Y-92054234D01*
X180001306Y-92054234D01*
X180003689Y-92087551D01*
X180004095Y-92088641D01*
X180002720Y-92118217D01*
X180001388Y-92126253D01*
X180005877Y-92136667D01*
X180857188Y-92987978D01*
X180871132Y-92995592D01*
X180872965Y-92995461D01*
X180879580Y-92991210D01*
X181731080Y-92139710D01*
X181738694Y-92125766D01*
X181736311Y-92092449D01*
X181735905Y-92091359D01*
X181737280Y-92061783D01*
X181738612Y-92053747D01*
X181734123Y-92043333D01*
X180882812Y-91192022D01*
X180868868Y-91184408D01*
X180867035Y-91184539D01*
X180860420Y-91188790D01*
X180008920Y-92040290D01*
X180001306Y-92054234D01*
X179085316Y-92054234D01*
X179020958Y-92014795D01*
X179012163Y-92010313D01*
X178802012Y-91923266D01*
X178792627Y-91920217D01*
X178571446Y-91867115D01*
X178561699Y-91865572D01*
X178334930Y-91847725D01*
X178325070Y-91847725D01*
X178098301Y-91865572D01*
X178088554Y-91867115D01*
X177867373Y-91920217D01*
X177857988Y-91923266D01*
X177647837Y-92010313D01*
X177639042Y-92014795D01*
X177471555Y-92117432D01*
X177462093Y-92127890D01*
X176657534Y-92127890D01*
X176657840Y-92127330D01*
X176652113Y-92119680D01*
X176480958Y-92014795D01*
X176472163Y-92010313D01*
X176262012Y-91923266D01*
X176252627Y-91920217D01*
X176031446Y-91867115D01*
X176021699Y-91865572D01*
X175794930Y-91847725D01*
X175785070Y-91847725D01*
X175558301Y-91865572D01*
X175548554Y-91867115D01*
X175327373Y-91920217D01*
X175317988Y-91923266D01*
X175107837Y-92010313D01*
X175099042Y-92014795D01*
X174931555Y-92117432D01*
X174922093Y-92127890D01*
X174117534Y-92127890D01*
X174118694Y-92125766D01*
X174116311Y-92092449D01*
X174115905Y-92091359D01*
X174117280Y-92061783D01*
X174118612Y-92053747D01*
X174114123Y-92043333D01*
X173262812Y-91192022D01*
X173248868Y-91184408D01*
X173247035Y-91184539D01*
X173240420Y-91188790D01*
X172388920Y-92040290D01*
X172381306Y-92054234D01*
X171850709Y-92054234D01*
X171852215Y-91850934D01*
X171872721Y-91782964D01*
X171882400Y-91770038D01*
X171890806Y-91760196D01*
X171913706Y-91733383D01*
X171973156Y-91694575D01*
X172007556Y-91692361D01*
X172026667Y-91684123D01*
X172877978Y-90832812D01*
X172884356Y-90821132D01*
X173614408Y-90821132D01*
X173614539Y-90822965D01*
X173618790Y-90829580D01*
X174470290Y-91681080D01*
X174482670Y-91687840D01*
X174490320Y-91682113D01*
X174595205Y-91510958D01*
X174599687Y-91502163D01*
X174686734Y-91292012D01*
X174689783Y-91282627D01*
X174742885Y-91061446D01*
X174744428Y-91051699D01*
X174762275Y-90824930D01*
X179357725Y-90824930D01*
X179375572Y-91051699D01*
X179377115Y-91061446D01*
X179430217Y-91282627D01*
X179433266Y-91292012D01*
X179520313Y-91502163D01*
X179524795Y-91510958D01*
X179627432Y-91678445D01*
X179637890Y-91687907D01*
X179646666Y-91684124D01*
X180497978Y-90832812D01*
X180504356Y-90821132D01*
X181234408Y-90821132D01*
X181234539Y-90822965D01*
X181238790Y-90829580D01*
X182090290Y-91681080D01*
X182104234Y-91688694D01*
X182126232Y-91687121D01*
X182195606Y-91702212D01*
X182222575Y-91727866D01*
X182223999Y-91726292D01*
X182247890Y-91747907D01*
X182256666Y-91744124D01*
X183107978Y-90892812D01*
X183115592Y-90878868D01*
X183115461Y-90877035D01*
X183111210Y-90870420D01*
X182259710Y-90018920D01*
X182245766Y-90011306D01*
X182223768Y-90012879D01*
X182154394Y-89997788D01*
X182127425Y-89972134D01*
X182126001Y-89973708D01*
X182102110Y-89952093D01*
X182093334Y-89955876D01*
X181242022Y-90807188D01*
X181234408Y-90821132D01*
X180504356Y-90821132D01*
X180505592Y-90818868D01*
X180505461Y-90817035D01*
X180501210Y-90810420D01*
X179649710Y-89958920D01*
X179637330Y-89952160D01*
X179629680Y-89957887D01*
X179524795Y-90129042D01*
X179520313Y-90137837D01*
X179433266Y-90347988D01*
X179430217Y-90357373D01*
X179377115Y-90578554D01*
X179375572Y-90588301D01*
X179357725Y-90815070D01*
X179357725Y-90824930D01*
X174762275Y-90824930D01*
X174762275Y-90815070D01*
X174744428Y-90588301D01*
X174742885Y-90578554D01*
X174689783Y-90357373D01*
X174686734Y-90347988D01*
X174599687Y-90137837D01*
X174595205Y-90129042D01*
X174492568Y-89961555D01*
X174482110Y-89952093D01*
X174473334Y-89955876D01*
X173622022Y-90807188D01*
X173614408Y-90821132D01*
X172884356Y-90821132D01*
X172885592Y-90818868D01*
X172885461Y-90817035D01*
X172881210Y-90810420D01*
X172029710Y-89958920D01*
X172012898Y-89949740D01*
X171949650Y-89935980D01*
X171914227Y-89907226D01*
X171897558Y-89887710D01*
X171868525Y-89822921D01*
X171867371Y-89804954D01*
X171869072Y-89575258D01*
X171889579Y-89507289D01*
X171943577Y-89461195D01*
X171995262Y-89450193D01*
X172251551Y-89450588D01*
G37*
%TD.AperFunction*%
%TD*%
M02*
