M48
; DRILL file {KiCad (6.0.7)} date Thu Dec 29 16:13:59 2022
; FORMAT={-:-/ absolute / inch / decimal}
; #@! TF.CreationDate,2022-12-29T16:13:59-06:00
; #@! TF.GenerationSoftware,Kicad,Pcbnew,(6.0.7)
; #@! TF.FileFunction,Plated,1,2,PTH
FMAT,2
INCH
; #@! TA.AperFunction,Plated,PTH,ComponentDrill
T1C0.0394
%
G90
G05
T1
X4.3209Y-4.4756
X4.3209Y-4.5756
X4.3209Y-4.6756
X4.3209Y-4.7756
X4.3209Y-4.8756
X4.3209Y-4.9756
X4.3209Y-5.0756
X4.4209Y-4.8756
X4.4209Y-4.9756
X4.4209Y-5.0756
X4.5209Y-4.8756
X4.5209Y-4.9756
X4.5209Y-5.0756
X4.6209Y-1.2756
X4.6209Y-1.3756
X4.6209Y-1.4756
X4.6209Y-1.5756
X4.6209Y-1.6756
X4.6209Y-1.7756
X4.6209Y-1.8756
X4.6209Y-1.9756
X4.6209Y-2.0756
X4.6209Y-2.1756
X4.6209Y-2.2756
X4.6209Y-2.3756
X4.6209Y-2.4756
X4.6209Y-2.5756
X4.6209Y-2.6756
X4.6209Y-2.7756
X4.6209Y-2.8756
X4.6209Y-2.9756
X4.6209Y-3.0756
X4.6209Y-3.1756
X4.6209Y-3.2756
X4.6209Y-3.3756
X4.6209Y-3.4756
X4.6209Y-3.5756
X4.6209Y-3.6756
X4.6209Y-3.7756
X4.6209Y-3.8756
X4.6209Y-3.9756
X4.6209Y-4.0756
X4.6209Y-4.1756
X4.6209Y-4.2756
X4.6209Y-4.3756
X4.6209Y-4.4756
X4.6209Y-4.5756
X4.6209Y-4.6756
X4.6209Y-4.7756
X4.6209Y-4.8756
X4.6209Y-4.9756
X4.7209Y-1.6756
X4.7209Y-1.7756
X4.7209Y-1.8756
X4.7209Y-1.9756
X4.7209Y-2.0756
X4.7209Y-2.1756
X4.7209Y-2.2756
X4.7209Y-2.3756
X4.7209Y-2.4756
X4.7209Y-2.5756
X4.7209Y-2.6756
X4.7209Y-2.7756
X4.7209Y-2.8756
X4.7209Y-2.9756
X4.7209Y-3.0756
X4.7209Y-3.1756
X4.7209Y-3.2756
X4.7209Y-3.3756
X4.7209Y-3.4756
X4.7209Y-3.5756
X4.7209Y-3.6756
X4.7209Y-3.7756
X4.7209Y-3.8756
X4.7209Y-3.9756
X4.7209Y-4.0756
X4.7209Y-4.1756
X4.7209Y-4.2756
X4.7209Y-4.3756
X4.7209Y-4.4756
X4.7209Y-4.5756
X4.7209Y-4.6756
X4.7209Y-4.7756
X4.7209Y-4.8756
X4.7209Y-4.9756
X4.8209Y-1.6756
X4.8209Y-1.7756
X4.8209Y-1.8756
X4.8209Y-1.9756
X4.8209Y-2.0756
X4.8209Y-2.1756
X4.8209Y-2.2756
X4.8209Y-2.3756
X4.8209Y-2.4756
X4.8209Y-2.5756
X4.8209Y-2.6756
X4.8209Y-2.7756
X4.8209Y-2.8756
X4.8209Y-2.9756
X4.8209Y-3.0756
X4.8209Y-3.1756
X4.8209Y-3.2756
X4.8209Y-3.3756
X4.8209Y-3.4756
X4.8209Y-3.5756
X4.8209Y-3.6756
X4.8209Y-3.7756
X4.8209Y-3.8756
X4.8209Y-3.9756
X4.8209Y-4.0756
X4.8209Y-4.1756
X4.8209Y-4.2756
X4.8209Y-4.3756
X4.8209Y-4.4756
X4.8209Y-4.5756
X4.8209Y-4.6756
X4.8209Y-4.7756
X4.8209Y-4.8756
X4.8209Y-4.9756
X4.9209Y-1.2756
X4.9209Y-1.3756
X4.9209Y-1.4756
X4.9209Y-1.5756
X4.9209Y-1.6756
X4.9209Y-1.7756
X4.9209Y-2.2756
X4.9209Y-2.3756
X4.9209Y-2.4756
X4.9209Y-2.5756
X4.9209Y-2.6756
X4.9209Y-2.7756
X4.9209Y-2.8756
X4.9209Y-2.9756
X4.9209Y-3.0756
X4.9209Y-3.1756
X4.9209Y-3.2756
X4.9209Y-3.3756
X4.9209Y-3.4756
X4.9209Y-3.5756
X4.9209Y-3.6756
X4.9209Y-3.7756
X4.9209Y-3.8756
X4.9209Y-3.9756
X4.9209Y-4.0756
X4.9209Y-4.1756
X4.9209Y-4.2756
X4.9209Y-4.3756
X4.9209Y-4.4756
X4.9209Y-4.5756
X4.9209Y-4.6756
X4.9209Y-4.7756
X4.9209Y-4.8756
X4.9209Y-4.9756
X5.0209Y-1.2756
X5.0209Y-1.3756
X5.0209Y-1.4756
X5.0209Y-1.5756
X5.0209Y-1.6756
X5.0209Y-1.7756
X5.0209Y-2.2756
X5.0209Y-2.3756
X5.0209Y-2.4756
X5.0209Y-2.5756
X5.0209Y-2.6756
X5.0209Y-2.7756
X5.0209Y-2.8756
X5.0209Y-2.9756
X5.0209Y-3.0756
X5.0209Y-3.1756
X5.0209Y-3.2756
X5.0209Y-3.3756
X5.0209Y-3.4756
X5.0209Y-3.5756
X5.0209Y-3.6756
X5.0209Y-3.7756
X5.0209Y-3.8756
X5.0209Y-3.9756
X5.0209Y-4.0756
X5.0209Y-4.1756
X5.0209Y-4.2756
X5.0209Y-4.3756
X5.0209Y-4.4756
X5.0209Y-4.5756
X5.0209Y-4.6756
X5.0209Y-4.7756
X5.1209Y-1.2756
X5.1209Y-1.3756
X5.1209Y-1.4756
X5.1209Y-1.5756
X5.1209Y-1.6756
X5.1209Y-1.7756
X5.1209Y-2.2756
X5.1209Y-2.3756
X5.1209Y-2.4756
X5.1209Y-2.5756
X5.1209Y-2.6756
X5.1209Y-2.7756
X5.1209Y-2.8756
X5.1209Y-2.9756
X5.1209Y-3.0756
X5.1209Y-3.1756
X5.1209Y-3.2756
X5.1209Y-3.3756
X5.1209Y-3.4756
X5.1209Y-3.5756
X5.1209Y-3.6756
X5.1209Y-3.7756
X5.1209Y-3.8756
X5.1209Y-3.9756
X5.1209Y-4.0756
X5.1209Y-4.1756
X5.1209Y-4.2756
X5.1209Y-4.3756
X5.1209Y-4.4756
X5.1209Y-4.5756
X5.1209Y-4.6756
X5.1209Y-4.7756
X5.2209Y-1.2756
X5.2209Y-1.3756
X5.2209Y-1.4756
X5.2209Y-1.5756
X5.2209Y-1.6756
X5.2209Y-1.7756
X5.2209Y-2.2756
X5.2209Y-2.3756
X5.2209Y-2.4756
X5.2209Y-2.5756
X5.2209Y-2.6756
X5.2209Y-2.7756
X5.2209Y-2.8756
X5.2209Y-2.9756
X5.2209Y-3.0756
X5.2209Y-3.1756
X5.2209Y-3.2756
X5.2209Y-3.3756
X5.2209Y-3.4756
X5.2209Y-3.5756
X5.2209Y-3.6756
X5.2209Y-3.7756
X5.2209Y-3.8756
X5.2209Y-3.9756
X5.2209Y-4.0756
X5.2209Y-4.1756
X5.2209Y-4.2756
X5.2209Y-4.3756
X5.2209Y-4.4756
X5.2209Y-4.5756
X5.2209Y-4.6756
X5.2209Y-4.7756
X5.3209Y-1.2756
X5.3209Y-1.3756
X5.3209Y-1.4756
X5.3209Y-1.5756
X5.3209Y-1.6756
X5.3209Y-1.7756
X5.3209Y-1.8756
X5.3209Y-1.9756
X5.3209Y-2.0756
X5.3209Y-2.1756
X5.3209Y-2.2756
X5.3209Y-2.3756
X5.3209Y-2.4756
X5.3209Y-2.5756
X5.3209Y-2.6756
X5.3209Y-2.7756
X5.3209Y-2.8756
X5.3209Y-2.9756
X5.3209Y-3.0756
X5.3209Y-3.1756
X5.3209Y-3.2756
X5.3209Y-3.3756
X5.3209Y-3.4756
X5.3209Y-3.5756
X5.3209Y-3.6756
X5.3209Y-3.7756
X5.3209Y-3.8756
X5.3209Y-3.9756
X5.3209Y-4.0756
X5.3209Y-4.1756
X5.3209Y-4.2756
X5.3209Y-4.3756
X5.3209Y-4.4756
X5.3209Y-4.5756
X5.3209Y-4.6756
X5.3209Y-4.7756
X5.4209Y-1.2756
X5.4209Y-1.3756
X5.4209Y-1.4756
X5.4209Y-1.5756
X5.4209Y-1.6756
X5.4209Y-1.7756
X5.4209Y-1.8756
X5.4209Y-1.9756
X5.4209Y-2.0756
X5.4209Y-2.1756
X5.4209Y-2.2756
X5.4209Y-2.3756
X5.4209Y-2.4756
X5.4209Y-2.5756
X5.4209Y-2.6756
X5.4209Y-2.7756
X5.4209Y-2.8756
X5.4209Y-2.9756
X5.4209Y-3.0756
X5.4209Y-3.1756
X5.4209Y-3.2756
X5.4209Y-3.3756
X5.4209Y-3.4756
X5.4209Y-3.5756
X5.4209Y-3.6756
X5.4209Y-3.7756
X5.4209Y-3.8756
X5.4209Y-3.9756
X5.4209Y-4.0756
X5.4209Y-4.1756
X5.4209Y-4.2756
X5.4209Y-4.3756
X5.4209Y-4.4756
X5.4209Y-4.5756
X5.4209Y-4.6756
X5.4209Y-4.7756
X5.4209Y-4.878
X5.4209Y-4.9756
X5.5173Y-4.878
X5.5209Y-1.2756
X5.5209Y-1.3756
X5.5209Y-1.4756
X5.5209Y-1.5756
X5.5209Y-1.6756
X5.5209Y-1.7756
X5.5209Y-1.8756
X5.5209Y-1.9756
X5.5209Y-2.0756
X5.5209Y-2.1756
X5.5209Y-2.2756
X5.5209Y-2.3756
X5.5209Y-2.4756
X5.5209Y-2.5756
X5.5209Y-4.9756
X5.6181Y-4.878
X5.6209Y-1.2756
X5.6209Y-1.3756
X5.6209Y-1.4756
X5.6209Y-1.5756
X5.6209Y-1.6756
X5.6209Y-1.7756
X5.6209Y-1.8756
X5.6209Y-1.9756
X5.6209Y-2.0756
X5.6209Y-2.1756
X5.6209Y-2.2756
X5.6209Y-2.3756
X5.6209Y-2.4756
X5.6209Y-2.5756
X5.622Y-4.976
X5.7209Y-1.2756
X5.7209Y-1.3756
X5.7209Y-1.4756
X5.7209Y-1.5756
X5.7209Y-1.6756
X5.7209Y-1.7756
X5.7209Y-1.8756
X5.7209Y-1.9756
X5.7209Y-2.0756
X5.7209Y-2.1756
X5.7209Y-2.2756
X5.7209Y-2.3756
X5.7209Y-2.4756
X5.7209Y-2.5756
X5.8209Y-1.2756
X5.8209Y-1.3756
X5.8209Y-1.4756
X5.8209Y-1.5756
X5.8209Y-1.6756
X5.8209Y-1.7756
X5.8209Y-1.8756
X5.8209Y-1.9756
X5.8209Y-2.0756
X5.8209Y-2.1756
X5.8209Y-2.2756
X5.8209Y-2.3756
X5.8209Y-2.4756
X5.8209Y-2.5756
X5.9209Y-1.2756
X5.9209Y-1.3756
X5.9209Y-1.4756
X5.9209Y-1.5756
X5.9209Y-1.6756
X5.9209Y-1.7756
X5.9209Y-1.8756
X5.9209Y-1.9756
X5.9209Y-2.0756
X5.9209Y-2.1756
X5.9209Y-2.2756
X5.9209Y-2.3756
X5.9209Y-2.4756
X5.9209Y-2.5756
X6.0209Y-1.2756
X6.0209Y-1.3756
X6.0209Y-1.4756
X6.0209Y-1.5756
X6.0209Y-1.6756
X6.0209Y-1.7756
X6.0209Y-1.8756
X6.0209Y-1.9756
X6.0209Y-2.0756
X6.0209Y-2.1756
X6.0209Y-2.2756
X6.0209Y-2.3756
X6.0209Y-2.4756
X6.0209Y-2.5756
X6.115Y-4.878
X6.1177Y-4.9756
X6.1177Y-5.0756
X6.1209Y-1.2756
X6.1209Y-1.3756
X6.1209Y-1.4756
X6.1209Y-1.5756
X6.1209Y-1.6756
X6.1209Y-1.7756
X6.1209Y-1.8756
X6.1209Y-1.9756
X6.1209Y-2.0756
X6.1209Y-2.1756
X6.1209Y-2.2756
X6.1209Y-2.3756
X6.1209Y-2.4756
X6.1209Y-2.5756
X6.2138Y-4.878
X6.2209Y-1.2756
X6.2209Y-1.3756
X6.2209Y-1.4756
X6.2209Y-1.5756
X6.2209Y-1.6756
X6.2209Y-1.7756
X6.2209Y-1.8756
X6.2209Y-1.9756
X6.2209Y-2.0756
X6.2209Y-2.1756
X6.2209Y-2.2756
X6.2209Y-2.3756
X6.2209Y-2.4756
X6.2209Y-2.5756
X6.2209Y-4.9756
X6.2209Y-5.0756
X6.3209Y-1.2756
X6.3209Y-1.3756
X6.3209Y-1.4756
X6.3209Y-1.5756
X6.3209Y-1.6756
X6.3209Y-1.7756
X6.3209Y-1.8756
X6.3209Y-1.9756
X6.3209Y-2.0756
X6.3209Y-2.1756
X6.3209Y-2.2756
X6.3209Y-2.3756
X6.3209Y-2.4756
X6.3209Y-2.5756
X6.3209Y-2.6756
X6.3209Y-2.7756
X6.3209Y-2.8756
X6.3209Y-2.9756
X6.3209Y-3.0756
X6.3209Y-3.1756
X6.3209Y-3.2756
X6.3209Y-3.3756
X6.3209Y-3.4756
X6.3209Y-3.5756
X6.3209Y-3.6756
X6.3209Y-3.7756
X6.3209Y-3.8756
X6.3209Y-3.9756
X6.3209Y-4.0756
X6.3209Y-4.1756
X6.3209Y-4.2756
X6.3209Y-4.3756
X6.3209Y-4.4756
X6.3209Y-4.5756
X6.3209Y-4.6756
X6.3209Y-4.7756
X6.3209Y-4.878
X6.3209Y-4.9756
X6.3209Y-5.0756
X6.4209Y-1.2756
X6.4209Y-1.3756
X6.4209Y-1.4756
X6.4209Y-1.5756
X6.4209Y-1.6756
X6.4209Y-1.7756
X6.4209Y-1.8756
X6.4209Y-1.9756
X6.4209Y-2.0756
X6.4209Y-2.1756
X6.4209Y-2.2756
X6.4209Y-2.3756
X6.4209Y-2.4756
X6.4209Y-2.5756
X6.4209Y-2.6756
X6.4209Y-2.7756
X6.4209Y-2.8756
X6.4209Y-2.9756
X6.4209Y-3.0756
X6.4209Y-3.1756
X6.4209Y-3.2756
X6.4209Y-3.3756
X6.4209Y-3.4756
X6.4209Y-3.5756
X6.4209Y-3.6756
X6.4209Y-3.7756
X6.4209Y-3.8756
X6.4209Y-3.9756
X6.4209Y-4.0756
X6.4209Y-4.1756
X6.4209Y-4.2756
X6.4209Y-4.3756
X6.4209Y-4.4756
X6.4209Y-4.5756
X6.4209Y-4.6756
X6.4209Y-4.7756
X6.4209Y-4.8756
X6.4209Y-4.9756
X6.4209Y-5.0756
X6.5209Y-1.2756
X6.5209Y-1.3756
X6.5209Y-1.4756
X6.5209Y-1.5756
X6.5209Y-1.6756
X6.5209Y-1.7756
X6.5209Y-1.8756
X6.5209Y-1.9756
X6.5209Y-2.0756
X6.5209Y-2.1756
X6.5209Y-2.2756
X6.5209Y-2.3756
X6.5209Y-2.4756
X6.5209Y-2.5756
X6.5209Y-2.6756
X6.5209Y-2.7756
X6.5209Y-2.8756
X6.5209Y-2.9756
X6.5209Y-3.0756
X6.5209Y-3.1756
X6.5209Y-3.2756
X6.5209Y-3.3756
X6.5209Y-3.4756
X6.5209Y-3.5756
X6.5209Y-3.6756
X6.5209Y-3.7756
X6.5209Y-3.8756
X6.5209Y-3.9756
X6.5209Y-4.0756
X6.5209Y-4.1756
X6.5209Y-4.2756
X6.5209Y-4.3756
X6.5209Y-4.4756
X6.5209Y-4.5756
X6.5209Y-4.6756
X6.5209Y-4.7756
X6.5209Y-4.8756
X6.5209Y-4.9756
X6.5209Y-5.0756
X6.6209Y-1.2756
X6.6209Y-1.3756
X6.6209Y-1.4756
X6.6209Y-1.5756
X6.6209Y-1.6756
X6.6209Y-1.7756
X6.6209Y-1.8756
X6.6209Y-1.9756
X6.6209Y-2.0756
X6.6209Y-2.1756
X6.6209Y-2.2756
X6.6209Y-2.3756
X6.6209Y-2.4756
X6.6209Y-2.5756
X6.6209Y-2.6756
X6.6209Y-2.7756
X6.6209Y-2.8756
X6.6209Y-2.9756
X6.6209Y-3.0756
X6.6209Y-3.1756
X6.6209Y-3.2756
X6.6209Y-3.3756
X6.6209Y-3.4756
X6.6209Y-3.5756
X6.6209Y-3.6756
X6.6209Y-3.7756
X6.6209Y-3.8756
X6.6209Y-3.9756
X6.6209Y-4.0756
X6.6209Y-4.1756
X6.6209Y-4.2756
X6.6209Y-4.3756
X6.6209Y-4.4756
X6.6209Y-4.5756
X6.6209Y-4.6756
X6.6209Y-4.7756
X6.6209Y-4.8756
X6.6209Y-4.9756
X6.6209Y-5.0756
X6.7209Y-1.5756
X6.7209Y-1.6756
X6.7209Y-2.0756
X6.7209Y-2.1756
X6.7209Y-2.2756
X6.7209Y-2.3756
X6.7209Y-2.4756
X6.7209Y-2.5756
X6.7209Y-2.6756
X6.7209Y-2.7756
X6.7209Y-2.8756
X6.7209Y-2.9756
X6.7209Y-3.0756
X6.7209Y-3.1756
X6.7209Y-3.2756
X6.7209Y-3.3756
X6.7209Y-3.4756
X6.7209Y-3.5756
X6.7209Y-3.6756
X6.7209Y-3.7756
X6.7209Y-3.8756
X6.7209Y-3.9756
X6.7209Y-4.0756
X6.7209Y-4.1756
X6.7209Y-4.2756
X6.7209Y-4.3756
X6.7209Y-4.4756
X6.7209Y-4.5756
X6.7209Y-4.6756
X6.7209Y-4.7756
X6.7209Y-4.8756
X6.7209Y-4.9756
X6.7209Y-5.0756
X6.8209Y-1.5756
X6.8209Y-1.6756
X6.8209Y-2.0756
X6.8209Y-2.1756
X6.8209Y-2.2756
X6.8209Y-2.3756
X6.8209Y-2.4756
X6.8209Y-2.5756
X6.8209Y-2.6756
X6.8209Y-2.7756
X6.8209Y-2.8756
X6.8209Y-2.9756
X6.8209Y-3.0756
X6.8209Y-3.1756
X6.8209Y-3.2756
X6.8209Y-3.3756
X6.8209Y-3.4756
X6.8209Y-3.5756
X6.8209Y-3.6756
X6.8209Y-3.7756
X6.8209Y-3.8756
X6.8209Y-3.9756
X6.8209Y-4.0756
X6.8209Y-4.1756
X6.8209Y-4.2756
X6.8209Y-4.3756
X6.8209Y-4.4756
X6.8209Y-4.5756
X6.8209Y-4.6756
X6.8209Y-4.7756
X6.8209Y-4.8756
X6.8209Y-4.9756
X6.8209Y-5.0756
X6.9209Y-1.5756
X6.9209Y-1.6756
X6.9209Y-2.0756
X6.9209Y-2.1756
X6.9209Y-2.2756
X6.9209Y-2.3756
X6.9209Y-2.4756
X6.9209Y-2.5756
X6.9209Y-2.6756
X6.9209Y-2.7756
X6.9209Y-3.2756
X6.9209Y-3.3756
X6.9209Y-3.6756
X6.9209Y-3.7756
X6.9209Y-3.8756
X6.9209Y-3.9756
X6.9209Y-4.0756
X6.9209Y-4.1756
X6.9209Y-4.2756
X6.9209Y-4.3756
X6.9209Y-4.4756
X6.9209Y-4.5756
X6.9209Y-4.6756
X6.9209Y-4.7756
X6.9209Y-4.8756
X6.9209Y-4.9756
X6.9209Y-5.0756
X7.0209Y-2.0756
X7.0209Y-2.1756
X7.0209Y-2.2756
X7.0209Y-2.3756
X7.0209Y-2.4756
X7.0209Y-2.5756
X7.0209Y-2.6756
X7.0209Y-2.7756
X7.0209Y-3.2756
X7.0209Y-3.3756
X7.0209Y-3.6756
X7.0209Y-3.7756
X7.0209Y-3.8756
X7.0209Y-3.9756
X7.0209Y-4.0756
X7.0209Y-4.1756
X7.0209Y-4.2756
X7.0209Y-4.3756
X7.0209Y-4.4756
X7.0209Y-4.5756
X7.0209Y-4.6756
X7.0209Y-4.7756
X7.0209Y-4.8756
X7.0209Y-4.9756
X7.0209Y-5.0756
X7.1209Y-2.0756
X7.1209Y-2.1756
X7.1209Y-2.2756
X7.1209Y-2.3756
X7.1209Y-2.4756
X7.1209Y-2.5756
X7.1209Y-2.6756
X7.1209Y-2.7756
X7.1209Y-2.8756
X7.1209Y-2.9756
X7.1209Y-3.0756
X7.1209Y-3.1756
X7.1209Y-3.2756
X7.1209Y-3.3756
X7.1209Y-3.4756
X7.1209Y-3.5756
X7.1209Y-3.6756
X7.1209Y-3.7756
X7.1209Y-3.8756
X7.1209Y-3.9756
X7.1209Y-4.0756
X7.1209Y-4.1756
X7.1209Y-4.2756
X7.1209Y-4.3756
X7.1209Y-4.4756
X7.1209Y-4.5756
X7.1209Y-4.6756
X7.1209Y-4.7756
X7.1209Y-4.8756
X7.1209Y-4.9756
X7.1209Y-5.0756
X7.2209Y-3.6756
X7.2209Y-3.7756
X7.2209Y-3.8756
X7.2209Y-3.9756
X7.2209Y-4.0756
X7.2209Y-4.1756
X7.2209Y-4.2756
X7.2209Y-4.3756
X7.2209Y-4.9756
X7.2209Y-5.0756
X7.2236Y-3.578
X7.3209Y-4.5756
X7.3209Y-4.6756
X7.3209Y-4.7756
X7.3209Y-4.8756
X7.3209Y-4.9756
X7.3209Y-5.0756
T0
M30
