%TF.GenerationSoftware,KiCad,Pcbnew,(6.0.7)*%
%TF.CreationDate,2022-12-29T16:14:02-06:00*%
%TF.ProjectId,DevBoard_Addon,44657642-6f61-4726-945f-4164646f6e2e,0b*%
%TF.SameCoordinates,Original*%
%TF.FileFunction,Legend,Bot*%
%TF.FilePolarity,Positive*%
%FSLAX46Y46*%
G04 Gerber Fmt 4.6, Leading zero omitted, Abs format (unit mm)*
G04 Created by KiCad (PCBNEW (6.0.7)) date 2022-12-29 16:14:02*
%MOMM*%
%LPD*%
G01*
G04 APERTURE LIST*
%ADD10C,0.120000*%
G04 APERTURE END LIST*
D10*
X182200000Y-87020000D02*
X179610000Y-87020000D01*
X179610000Y-87020000D02*
X179610000Y-89550000D01*
X179610000Y-89550000D02*
X182200000Y-89550000D01*
X182200000Y-89550000D02*
X182200000Y-87020000D01*
X174460000Y-109840000D02*
X184890000Y-109840000D01*
X184890000Y-109840000D02*
X184890000Y-112440000D01*
X184890000Y-112440000D02*
X174460000Y-112440000D01*
X174460000Y-112440000D02*
X174460000Y-109840000D01*
X169460000Y-46360000D02*
X166920000Y-46360000D01*
X166920000Y-46360000D02*
X166920000Y-51470000D01*
X166920000Y-51470000D02*
X169460000Y-51470000D01*
X169460000Y-51470000D02*
X169460000Y-46360000D01*
X182150000Y-81910000D02*
X179550000Y-81910000D01*
X179550000Y-81910000D02*
X179550000Y-71690000D01*
X179550000Y-71690000D02*
X182150000Y-71690000D01*
X182150000Y-71690000D02*
X182150000Y-81910000D01*
X169460000Y-43850000D02*
X154200000Y-43850000D01*
X154200000Y-43850000D02*
X154200000Y-46370000D01*
X154200000Y-46370000D02*
X169460000Y-46370000D01*
X169460000Y-46370000D02*
X169460000Y-43850000D01*
X108490000Y-112390000D02*
X111090000Y-112390000D01*
X111090000Y-112390000D02*
X111090000Y-122610000D01*
X111090000Y-122610000D02*
X108490000Y-122610000D01*
X108490000Y-122610000D02*
X108490000Y-112390000D01*
X133930000Y-41340000D02*
X123710000Y-41340000D01*
X123710000Y-41340000D02*
X123710000Y-46360000D01*
X123710000Y-46360000D02*
X133930000Y-46360000D01*
X133930000Y-46360000D02*
X133930000Y-41340000D01*
X115990000Y-122610000D02*
X118590000Y-122610000D01*
X118590000Y-122610000D02*
X118590000Y-112390000D01*
X118590000Y-112390000D02*
X115990000Y-112390000D01*
X115990000Y-112390000D02*
X115990000Y-122610000D01*
X182200000Y-120020000D02*
X179600000Y-120020000D01*
X179600000Y-120020000D02*
X179600000Y-125110000D01*
X179600000Y-125110000D02*
X182200000Y-125110000D01*
X182200000Y-125110000D02*
X182200000Y-120020000D01*
X187170000Y-125120000D02*
X184570000Y-125120000D01*
X184570000Y-125120000D02*
X184570000Y-114900000D01*
X184570000Y-114900000D02*
X187170000Y-114900000D01*
X187170000Y-114900000D02*
X187170000Y-125120000D01*
X169460000Y-36230000D02*
X154200000Y-36230000D01*
X154200000Y-36230000D02*
X154200000Y-38750000D01*
X154200000Y-38750000D02*
X169460000Y-38750000D01*
X169460000Y-38750000D02*
X169460000Y-36230000D01*
X182200000Y-92090000D02*
X179600000Y-92090000D01*
X179600000Y-92090000D02*
X179600000Y-87010000D01*
X179600000Y-87010000D02*
X182200000Y-87010000D01*
X182200000Y-87010000D02*
X182200000Y-92090000D01*
X123700000Y-31110000D02*
X126300000Y-31110000D01*
X126300000Y-31110000D02*
X126300000Y-41330000D01*
X126300000Y-41330000D02*
X123700000Y-41330000D01*
X123700000Y-41330000D02*
X123700000Y-31110000D01*
X133910000Y-41350000D02*
X123690000Y-41350000D01*
X123690000Y-41350000D02*
X123690000Y-43890000D01*
X123690000Y-43890000D02*
X133910000Y-43890000D01*
X133910000Y-43890000D02*
X133910000Y-41350000D01*
X169450000Y-31115000D02*
X166910000Y-31115000D01*
X166910000Y-31115000D02*
X166910000Y-36225000D01*
X166910000Y-36225000D02*
X169450000Y-36225000D01*
X169450000Y-36225000D02*
X169450000Y-31115000D01*
X116040000Y-31070000D02*
X118640000Y-31070000D01*
X118640000Y-31070000D02*
X118640000Y-41290000D01*
X118640000Y-41290000D02*
X116040000Y-41290000D01*
X116040000Y-41290000D02*
X116040000Y-31070000D01*
X133940000Y-43860000D02*
X123720000Y-43860000D01*
X123720000Y-43860000D02*
X123720000Y-41320000D01*
X123720000Y-41320000D02*
X133940000Y-41320000D01*
X133940000Y-41320000D02*
X133940000Y-43860000D01*
X177070000Y-43880000D02*
X169440000Y-43880000D01*
X169440000Y-43880000D02*
X169440000Y-38770000D01*
X169440000Y-38770000D02*
X177070000Y-38770000D01*
X177070000Y-38770000D02*
X177070000Y-43880000D01*
X184770000Y-89550000D02*
X171930000Y-89550000D01*
X171930000Y-89550000D02*
X171930000Y-94600000D01*
X171930000Y-94600000D02*
X184770000Y-94600000D01*
X184770000Y-94600000D02*
X184770000Y-89550000D01*
X174620000Y-71770000D02*
X172020000Y-71770000D01*
X172020000Y-71770000D02*
X172020000Y-81990000D01*
X172020000Y-81990000D02*
X174620000Y-81990000D01*
X174620000Y-81990000D02*
X174620000Y-71770000D01*
X174530000Y-87060000D02*
X171930000Y-87060000D01*
X171930000Y-87060000D02*
X171930000Y-89550000D01*
X171930000Y-89550000D02*
X174530000Y-89550000D01*
X174530000Y-89550000D02*
X174530000Y-87060000D01*
X154050000Y-125100000D02*
X190280000Y-125100000D01*
X190280000Y-125100000D02*
X190280000Y-130090000D01*
X190280000Y-130090000D02*
X154050000Y-130090000D01*
X154050000Y-130090000D02*
X154050000Y-125100000D01*
%TO.C,kibuzzard-63AE1100*%
G36*
X152653531Y-123838732D02*
G01*
X152783874Y-123858066D01*
X152911695Y-123890084D01*
X153035762Y-123934476D01*
X153154880Y-123990814D01*
X153267903Y-124058558D01*
X153373741Y-124137053D01*
X153471376Y-124225544D01*
X153559867Y-124323179D01*
X153638363Y-124429017D01*
X153706106Y-124542040D01*
X153762444Y-124661158D01*
X153806836Y-124785225D01*
X153838854Y-124913046D01*
X153858188Y-125043389D01*
X153864654Y-125175000D01*
X153858188Y-125306611D01*
X153838854Y-125436954D01*
X153806836Y-125564775D01*
X153762444Y-125688842D01*
X153706106Y-125807960D01*
X153638363Y-125920983D01*
X153559867Y-126026821D01*
X153471376Y-126124456D01*
X153373741Y-126212947D01*
X153267903Y-126291442D01*
X153154880Y-126359186D01*
X153035762Y-126415524D01*
X152911695Y-126459916D01*
X152783874Y-126491934D01*
X152653531Y-126511268D01*
X152521920Y-126517734D01*
X145078080Y-126517734D01*
X144946469Y-126511268D01*
X144816125Y-126491934D01*
X144688305Y-126459916D01*
X144564238Y-126415524D01*
X144445119Y-126359186D01*
X144332097Y-126291442D01*
X144226258Y-126212947D01*
X144128624Y-126124456D01*
X144040132Y-126026821D01*
X143961637Y-125920983D01*
X143893894Y-125807960D01*
X143837556Y-125688842D01*
X143793164Y-125564775D01*
X143761146Y-125436954D01*
X143741812Y-125306611D01*
X143735346Y-125175000D01*
X143736547Y-125150552D01*
X145590710Y-125150552D01*
X145605642Y-125313976D01*
X145650440Y-125465314D01*
X145725102Y-125604568D01*
X145829629Y-125731736D01*
X145955408Y-125837722D01*
X146093828Y-125913426D01*
X146244889Y-125958848D01*
X146408590Y-125973989D01*
X146815307Y-125973989D01*
X146925321Y-125960098D01*
X146984217Y-125918426D01*
X147010887Y-125776186D01*
X147010887Y-124547144D01*
X147188687Y-124547144D01*
X147188687Y-125785076D01*
X147192021Y-125861753D01*
X147213135Y-125920649D01*
X147272031Y-125965654D01*
X147386490Y-125980656D01*
X147498170Y-125966210D01*
X147557622Y-125922871D01*
X147578736Y-125861753D01*
X147582070Y-125780631D01*
X147582070Y-124987199D01*
X147610962Y-125013869D01*
X147766537Y-125082766D01*
X147900999Y-125004979D01*
X147914549Y-124978309D01*
X148037682Y-124978309D01*
X148082132Y-125100546D01*
X148542190Y-125889534D01*
X148613310Y-125957320D01*
X148709989Y-125987324D01*
X148801111Y-125963988D01*
X148862230Y-125916204D01*
X148882232Y-125891756D01*
X149256860Y-125250565D01*
X149477862Y-125250565D01*
X149494809Y-125369469D01*
X149545649Y-125452813D01*
X149695667Y-125518376D01*
X150222400Y-125518376D01*
X150149057Y-125622834D01*
X150002372Y-125665061D01*
X149887358Y-125658394D01*
X149800125Y-125638391D01*
X149775677Y-125629501D01*
X149686777Y-125605054D01*
X149564540Y-125705066D01*
X149535647Y-125807301D01*
X149565234Y-125893840D01*
X149653995Y-125955653D01*
X149801931Y-125992741D01*
X150009040Y-126005104D01*
X150164337Y-125990935D01*
X150301299Y-125948430D01*
X150414924Y-125882588D01*
X150482197Y-125816191D01*
X150729130Y-125816191D01*
X150763579Y-125893979D01*
X150866925Y-125958431D01*
X150981384Y-125989546D01*
X151052504Y-125968433D01*
X151093620Y-125925094D01*
X151122759Y-125861629D01*
X151180544Y-125727538D01*
X151266975Y-125522821D01*
X151335872Y-125527266D01*
X151615907Y-125527266D01*
X151615907Y-125778409D01*
X151619241Y-125855085D01*
X151640355Y-125913981D01*
X151699251Y-125958987D01*
X151813710Y-125973989D01*
X151937059Y-125953431D01*
X151995955Y-125891756D01*
X152009290Y-125776186D01*
X152009290Y-124542699D01*
X152005956Y-124466022D01*
X151984842Y-124407126D01*
X151925946Y-124362121D01*
X151811487Y-124347119D01*
X151331427Y-124347119D01*
X151202275Y-124362923D01*
X151075593Y-124410337D01*
X150951380Y-124489359D01*
X150870259Y-124570480D01*
X150804695Y-124676049D01*
X150761356Y-124800509D01*
X150746910Y-124938304D01*
X150765431Y-125095854D01*
X150820993Y-125233649D01*
X150913597Y-125351689D01*
X150875074Y-125442811D01*
X150824697Y-125559122D01*
X150762467Y-125700621D01*
X150729130Y-125816191D01*
X150482197Y-125816191D01*
X150500212Y-125798411D01*
X150578000Y-125673704D01*
X150624672Y-125539613D01*
X150640230Y-125396139D01*
X150620104Y-125221919D01*
X150559726Y-125072642D01*
X150459096Y-124948305D01*
X150328339Y-124855083D01*
X150177579Y-124799151D01*
X150006817Y-124780506D01*
X149862633Y-124794119D01*
X149739006Y-124834957D01*
X149635938Y-124903022D01*
X149553427Y-124998311D01*
X149496754Y-125119160D01*
X149477862Y-125250565D01*
X149256860Y-125250565D01*
X149344512Y-125100546D01*
X149388962Y-124980531D01*
X149360070Y-124903299D01*
X149273392Y-124831624D01*
X149140042Y-124782729D01*
X149063366Y-124812732D01*
X149004470Y-124902744D01*
X148713322Y-125462814D01*
X148422175Y-124902744D01*
X148385504Y-124841625D01*
X148346610Y-124803842D01*
X148275490Y-124784951D01*
X148153252Y-124831624D01*
X148066575Y-124902744D01*
X148037682Y-124978309D01*
X147914549Y-124978309D01*
X147971007Y-124867184D01*
X147890997Y-124736056D01*
X147526507Y-124407126D01*
X147519840Y-124402681D01*
X147394269Y-124344896D01*
X147288700Y-124356009D01*
X147230915Y-124381567D01*
X147199800Y-124429351D01*
X147188687Y-124547144D01*
X147010887Y-124547144D01*
X147010887Y-124540476D01*
X147007554Y-124462689D01*
X146986440Y-124404904D01*
X146927544Y-124359898D01*
X146813085Y-124344896D01*
X146401922Y-124347119D01*
X146245653Y-124361634D01*
X146099107Y-124405182D01*
X145962284Y-124477760D01*
X145835185Y-124579370D01*
X145728227Y-124702163D01*
X145651829Y-124838291D01*
X145605990Y-124987754D01*
X145590710Y-125150552D01*
X143736547Y-125150552D01*
X143741812Y-125043389D01*
X143761146Y-124913046D01*
X143793164Y-124785225D01*
X143837556Y-124661158D01*
X143893894Y-124542040D01*
X143961637Y-124429017D01*
X144040132Y-124323179D01*
X144128624Y-124225544D01*
X144226258Y-124137053D01*
X144332097Y-124058558D01*
X144445119Y-123990814D01*
X144564238Y-123934476D01*
X144688305Y-123890084D01*
X144816125Y-123858066D01*
X144946469Y-123838732D01*
X145078080Y-123832266D01*
X152521920Y-123832266D01*
X152653531Y-123838732D01*
G37*
G36*
X146617505Y-125580606D02*
G01*
X146401922Y-125580606D01*
X146249681Y-125550880D01*
X146112997Y-125461703D01*
X146016319Y-125327519D01*
X145984092Y-125162776D01*
X146015485Y-124997478D01*
X146109664Y-124861627D01*
X146246070Y-124770783D01*
X146404145Y-124740501D01*
X146617505Y-124740501D01*
X146617505Y-125580606D01*
G37*
G36*
X151615907Y-125133884D02*
G01*
X151331427Y-125133884D01*
X151202522Y-125084989D01*
X151138070Y-124938304D01*
X151202522Y-124790507D01*
X151335872Y-124740501D01*
X151615907Y-124740501D01*
X151615907Y-125133884D01*
G37*
G36*
X150155725Y-125190558D02*
G01*
X150226845Y-125316129D01*
X149946810Y-125316129D01*
X149862355Y-125245009D01*
X149901249Y-125162776D01*
X150012374Y-125131661D01*
X150155725Y-125190558D01*
G37*
%TO.C,kibuzzard-63744917*%
G36*
X174863820Y-74505707D02*
G01*
X179356180Y-74505707D01*
X179356180Y-76734293D01*
X174863820Y-76734293D01*
X174863820Y-75620000D01*
X175376450Y-75620000D01*
X175384189Y-75756227D01*
X175407406Y-75877572D01*
X175446102Y-75984034D01*
X175500275Y-76075613D01*
X175555242Y-76133556D01*
X175628069Y-76180388D01*
X175716373Y-76211344D01*
X175817775Y-76221663D01*
X175919573Y-76211145D01*
X176009069Y-76179594D01*
X176083284Y-76132564D01*
X176139244Y-76075613D01*
X176147727Y-76062119D01*
X176325775Y-76062119D01*
X176336094Y-76142288D01*
X176370225Y-76183563D01*
X176468650Y-76202613D01*
X177089362Y-76202613D01*
X177187788Y-76159750D01*
X177229063Y-76059738D01*
X177214180Y-75977386D01*
X177169531Y-75901781D01*
X177103848Y-75834709D01*
X177025862Y-75777956D01*
X176941725Y-75726759D01*
X176857588Y-75676356D01*
X176779602Y-75622977D01*
X176768546Y-75612856D01*
X177308438Y-75612856D01*
X177318756Y-75734002D01*
X177349713Y-75845822D01*
X177401306Y-75948315D01*
X177473538Y-76041481D01*
X177560850Y-76118921D01*
X177657688Y-76174236D01*
X177764050Y-76207425D01*
X177879938Y-76218488D01*
X177996073Y-76207573D01*
X178103180Y-76174831D01*
X178201257Y-76120261D01*
X178271802Y-76059738D01*
X178562563Y-76059738D01*
X178564944Y-76115300D01*
X178580025Y-76156575D01*
X178622094Y-76188722D01*
X178703850Y-76199438D01*
X178791956Y-76184356D01*
X178834025Y-76139113D01*
X178843550Y-76058150D01*
X178843550Y-75175500D01*
X178841169Y-75120731D01*
X178826088Y-75078662D01*
X178784019Y-75046516D01*
X178702263Y-75035800D01*
X178613759Y-75050484D01*
X178570500Y-75094537D01*
X178562563Y-75177087D01*
X178562563Y-76059738D01*
X178271802Y-76059738D01*
X178290306Y-76043863D01*
X178364274Y-75952383D01*
X178417108Y-75852569D01*
X178448808Y-75744420D01*
X178459375Y-75627938D01*
X178447469Y-75500342D01*
X178411750Y-75381081D01*
X178356188Y-75275314D01*
X178284750Y-75188200D01*
X178199422Y-75118747D01*
X178102188Y-75065962D01*
X177997413Y-75032625D01*
X177889463Y-75021512D01*
X177775857Y-75032129D01*
X177669991Y-75063978D01*
X177571863Y-75117060D01*
X177481475Y-75191375D01*
X177405771Y-75281416D01*
X177351697Y-75381677D01*
X177319252Y-75492157D01*
X177308438Y-75612856D01*
X176768546Y-75612856D01*
X176713919Y-75562850D01*
X176669270Y-75497366D01*
X176654387Y-75427912D01*
X176665500Y-75387431D01*
X176690106Y-75344569D01*
X176732175Y-75313612D01*
X176811550Y-75299325D01*
X176899656Y-75336631D01*
X176941725Y-75410450D01*
X176948075Y-75446962D01*
X176948075Y-75456487D01*
X176950456Y-75508875D01*
X176965537Y-75548562D01*
X177008400Y-75577137D01*
X177089362Y-75586662D01*
X177177866Y-75571581D01*
X177221125Y-75526337D01*
X177229063Y-75445375D01*
X177215922Y-75339101D01*
X177176499Y-75240411D01*
X177110794Y-75149306D01*
X177023834Y-75076546D01*
X176920647Y-75032890D01*
X176801231Y-75018337D01*
X176681728Y-75033066D01*
X176578276Y-75077251D01*
X176490875Y-75150894D01*
X176424729Y-75243410D01*
X176385042Y-75344216D01*
X176371812Y-75453312D01*
X176381734Y-75541419D01*
X176411500Y-75624763D01*
X176455156Y-75697788D01*
X176506750Y-75754938D01*
X176617875Y-75842647D01*
X176716300Y-75896225D01*
X176755987Y-75912100D01*
X176755987Y-75920038D01*
X176465475Y-75920038D01*
X176372606Y-75935119D01*
X176335300Y-75981156D01*
X176325775Y-76062119D01*
X176147727Y-76062119D01*
X176181908Y-76007747D01*
X176216237Y-75927975D01*
X176241814Y-75832901D01*
X176257160Y-75729714D01*
X176262275Y-75618412D01*
X176258130Y-75517694D01*
X176245694Y-75427207D01*
X176224969Y-75346950D01*
X176185480Y-75246342D01*
X176141625Y-75169944D01*
X176086261Y-75110809D01*
X176012244Y-75061994D01*
X175922352Y-75029252D01*
X175819362Y-75018337D01*
X175716770Y-75029053D01*
X175628069Y-75061200D01*
X175555044Y-75109222D01*
X175499481Y-75167562D01*
X175457214Y-75236619D01*
X175424075Y-75316787D01*
X175397617Y-75413978D01*
X175381742Y-75515049D01*
X175376450Y-75620000D01*
X174863820Y-75620000D01*
X174863820Y-74505707D01*
G37*
G36*
X175890205Y-75319318D02*
G01*
X175940806Y-75379295D01*
X175971167Y-75479258D01*
X175981287Y-75619206D01*
X175971266Y-75759154D01*
X175941203Y-75859117D01*
X175891098Y-75919095D01*
X175820950Y-75939088D01*
X175749413Y-75919641D01*
X175698316Y-75861300D01*
X175667657Y-75764066D01*
X175657437Y-75627938D01*
X175657437Y-75618412D01*
X175667558Y-75478812D01*
X175697919Y-75379097D01*
X175748520Y-75319268D01*
X175819362Y-75299325D01*
X175890205Y-75319318D01*
G37*
G36*
X177991856Y-75324527D02*
G01*
X178087900Y-75390606D01*
X178138171Y-75455253D01*
X178168333Y-75531717D01*
X178178388Y-75620000D01*
X178168245Y-75708283D01*
X178137818Y-75784747D01*
X178087106Y-75849394D01*
X177990467Y-75915473D01*
X177883113Y-75937500D01*
X177775956Y-75916069D01*
X177679913Y-75851775D01*
X177629642Y-75788099D01*
X177599479Y-75711369D01*
X177589425Y-75621588D01*
X177599567Y-75531629D01*
X177629994Y-75454371D01*
X177680706Y-75389812D01*
X177777345Y-75324328D01*
X177884700Y-75302500D01*
X177991856Y-75324527D01*
G37*
%TO.C,kibuzzard-637448FA*%
G36*
X177743419Y-72726908D02*
G01*
X177839463Y-72792987D01*
X177889733Y-72857634D01*
X177919896Y-72934099D01*
X177929950Y-73022381D01*
X177919808Y-73110664D01*
X177889381Y-73187128D01*
X177838669Y-73251775D01*
X177742030Y-73317855D01*
X177634675Y-73339881D01*
X177527519Y-73318450D01*
X177431475Y-73254156D01*
X177381204Y-73190480D01*
X177351042Y-73113751D01*
X177340988Y-73023969D01*
X177351130Y-72934010D01*
X177381557Y-72856752D01*
X177432269Y-72792194D01*
X177528908Y-72726709D01*
X177636263Y-72704881D01*
X177743419Y-72726908D01*
G37*
G36*
X176027728Y-72706072D02*
G01*
X176058287Y-72785844D01*
X176030506Y-72854106D01*
X175940812Y-72885856D01*
X175846356Y-72856487D01*
X175813812Y-72797750D01*
X175817781Y-72751712D01*
X175834450Y-72715994D01*
X175936050Y-72679481D01*
X176027728Y-72706072D01*
G37*
G36*
X179107743Y-74133499D02*
G01*
X175012257Y-74133499D01*
X175012257Y-72893794D01*
X175524887Y-72893794D01*
X175531745Y-73011078D01*
X175552319Y-73120362D01*
X175586609Y-73221644D01*
X175634615Y-73314926D01*
X175696337Y-73400206D01*
X175769934Y-73473358D01*
X175853563Y-73530254D01*
X175947226Y-73570894D01*
X176050921Y-73595278D01*
X176164650Y-73603406D01*
X176174175Y-73603406D01*
X176259900Y-73587531D01*
X176293237Y-73542684D01*
X176303912Y-73465294D01*
X176437700Y-73465294D01*
X176440081Y-73520062D01*
X176455162Y-73562131D01*
X176497231Y-73594278D01*
X176578987Y-73604994D01*
X176658759Y-73594675D01*
X176701225Y-73563719D01*
X176716306Y-73520062D01*
X176718687Y-73462119D01*
X176718687Y-73015237D01*
X177060000Y-73015237D01*
X177070319Y-73136384D01*
X177101275Y-73248203D01*
X177152869Y-73350696D01*
X177225100Y-73443863D01*
X177312412Y-73521303D01*
X177409250Y-73576617D01*
X177515613Y-73609806D01*
X177631500Y-73620869D01*
X177747636Y-73609955D01*
X177854742Y-73577213D01*
X177952820Y-73522642D01*
X178023365Y-73462119D01*
X178314125Y-73462119D01*
X178316506Y-73517681D01*
X178331588Y-73558956D01*
X178373656Y-73591103D01*
X178455413Y-73601819D01*
X178543519Y-73586738D01*
X178585588Y-73541494D01*
X178595113Y-73460531D01*
X178595113Y-72577881D01*
X178592731Y-72523112D01*
X178577650Y-72481044D01*
X178535581Y-72448897D01*
X178453825Y-72438181D01*
X178365322Y-72452866D01*
X178322063Y-72496919D01*
X178314125Y-72579469D01*
X178314125Y-73462119D01*
X178023365Y-73462119D01*
X178041869Y-73446244D01*
X178115836Y-73354764D01*
X178168670Y-73254950D01*
X178200371Y-73146802D01*
X178210938Y-73030319D01*
X178199031Y-72902723D01*
X178163313Y-72783462D01*
X178107750Y-72677695D01*
X178036313Y-72590581D01*
X177950984Y-72521128D01*
X177853750Y-72468344D01*
X177748975Y-72435006D01*
X177641025Y-72423894D01*
X177527420Y-72434510D01*
X177421553Y-72466359D01*
X177323426Y-72519441D01*
X177233038Y-72593756D01*
X177157334Y-72683797D01*
X177103259Y-72784058D01*
X177070815Y-72894538D01*
X177060000Y-73015237D01*
X176718687Y-73015237D01*
X176718687Y-72895381D01*
X176739325Y-72914431D01*
X176850450Y-72963644D01*
X176946494Y-72908081D01*
X176996500Y-72809656D01*
X176939350Y-72715994D01*
X176679000Y-72481044D01*
X176674237Y-72477869D01*
X176584544Y-72436594D01*
X176509137Y-72444531D01*
X176467862Y-72462787D01*
X176445637Y-72496919D01*
X176437700Y-72581056D01*
X176437700Y-73465294D01*
X176303912Y-73465294D01*
X176304350Y-73462119D01*
X176289269Y-73374013D01*
X176244025Y-73331944D01*
X176151950Y-73322419D01*
X176025744Y-73300194D01*
X175931287Y-73246219D01*
X175875328Y-73184306D01*
X175843975Y-73128744D01*
X175836037Y-73106519D01*
X175955100Y-73133506D01*
X176053966Y-73121953D01*
X176143131Y-73087292D01*
X176222594Y-73029525D01*
X176284771Y-72957294D01*
X176322077Y-72879242D01*
X176334512Y-72795369D01*
X176321812Y-72694298D01*
X176283712Y-72604869D01*
X176220212Y-72527081D01*
X176138544Y-72467109D01*
X176045940Y-72431126D01*
X175942400Y-72419131D01*
X175815224Y-72433860D01*
X175710978Y-72478045D01*
X175629662Y-72551687D01*
X175571454Y-72648613D01*
X175536529Y-72762649D01*
X175524887Y-72893794D01*
X175012257Y-72893794D01*
X175012257Y-71906501D01*
X179107743Y-71906501D01*
X179107743Y-74133499D01*
G37*
%TO.C,kibuzzard-63744A28*%
G36*
X188105918Y-112267149D02*
G01*
X185274082Y-112267149D01*
X185274082Y-111019506D01*
X185786712Y-111019506D01*
X185818462Y-111106819D01*
X186147075Y-111670381D01*
X186197875Y-111718800D01*
X186266931Y-111740231D01*
X186332019Y-111723563D01*
X186375675Y-111689431D01*
X186389962Y-111671969D01*
X186575932Y-111353675D01*
X186815413Y-111353675D01*
X186828113Y-111458097D01*
X186866213Y-111552289D01*
X186929713Y-111636250D01*
X187012086Y-111701955D01*
X187106807Y-111741378D01*
X187213875Y-111754519D01*
X187309125Y-111746228D01*
X187398025Y-111721358D01*
X187480575Y-111679906D01*
X187520263Y-111649744D01*
X187532963Y-111638631D01*
X187593288Y-111543381D01*
X187534550Y-111440194D01*
X187442475Y-111387806D01*
X187336113Y-111438606D01*
X187236894Y-111471944D01*
X187132119Y-111441781D01*
X187097988Y-111358438D01*
X187135294Y-111274300D01*
X187220225Y-111243344D01*
X187296425Y-111271919D01*
X187382944Y-111308431D01*
X187482956Y-111278269D01*
X187556775Y-111229850D01*
X187574238Y-111190956D01*
X187566300Y-111116741D01*
X187542488Y-110935369D01*
X187518278Y-110756775D01*
X187509150Y-110690894D01*
X187498038Y-110657556D01*
X187475019Y-110614694D01*
X187433744Y-110580562D01*
X187369450Y-110565481D01*
X187128150Y-110567069D01*
X186978925Y-110567069D01*
X186923363Y-110569450D01*
X186882088Y-110584531D01*
X186849941Y-110627394D01*
X186839225Y-110711531D01*
X186849147Y-110788128D01*
X186878913Y-110827419D01*
X186917806Y-110842500D01*
X186969400Y-110844881D01*
X187247213Y-110844881D01*
X187263088Y-110965531D01*
X187207525Y-110962356D01*
X187110335Y-110974968D01*
X187019847Y-111012803D01*
X186936063Y-111075862D01*
X186869035Y-111157178D01*
X186828818Y-111249782D01*
X186815413Y-111353675D01*
X186575932Y-111353675D01*
X186720163Y-111106819D01*
X186751913Y-111021094D01*
X186731275Y-110965928D01*
X186669362Y-110914731D01*
X186574112Y-110879806D01*
X186519344Y-110901237D01*
X186477275Y-110965531D01*
X186269312Y-111365581D01*
X186061350Y-110965531D01*
X186035156Y-110921875D01*
X186007375Y-110894887D01*
X185956575Y-110881394D01*
X185869262Y-110914731D01*
X185807350Y-110965531D01*
X185786712Y-111019506D01*
X185274082Y-111019506D01*
X185274082Y-110052851D01*
X188105918Y-110052851D01*
X188105918Y-112267149D01*
G37*
%TO.C,kibuzzard-6374467C*%
G36*
X127649154Y-54362109D02*
G01*
X127749117Y-54392172D01*
X127809095Y-54442277D01*
X127829088Y-54512425D01*
X127809641Y-54583962D01*
X127751300Y-54635059D01*
X127654066Y-54665718D01*
X127517938Y-54675938D01*
X127508412Y-54675938D01*
X127368812Y-54665817D01*
X127269097Y-54635456D01*
X127209268Y-54584855D01*
X127189325Y-54514013D01*
X127209318Y-54443170D01*
X127269295Y-54392569D01*
X127369258Y-54362208D01*
X127509206Y-54352088D01*
X127649154Y-54362109D01*
G37*
G36*
X127598283Y-53131917D02*
G01*
X127674747Y-53162344D01*
X127739394Y-53213056D01*
X127805473Y-53309695D01*
X127827500Y-53417050D01*
X127806069Y-53524206D01*
X127741775Y-53620250D01*
X127678099Y-53670521D01*
X127601369Y-53700683D01*
X127511588Y-53710737D01*
X127421629Y-53700595D01*
X127344371Y-53670168D01*
X127279812Y-53619456D01*
X127214328Y-53522817D01*
X127192500Y-53415462D01*
X127214527Y-53308306D01*
X127280606Y-53212262D01*
X127345253Y-53161992D01*
X127421717Y-53131829D01*
X127510000Y-53121775D01*
X127598283Y-53131917D01*
G37*
G36*
X128624293Y-51943982D02*
G01*
X128624293Y-56376018D01*
X126395707Y-56376018D01*
X126395707Y-55723688D01*
X126927387Y-55723688D01*
X126942469Y-55811794D01*
X126987712Y-55853863D01*
X127076612Y-55863388D01*
X127147852Y-55853069D01*
X127234569Y-55822113D01*
X127328430Y-55776670D01*
X127421100Y-55722894D01*
X127513572Y-55664752D01*
X127606838Y-55606213D01*
X127714788Y-55545094D01*
X127811625Y-55501438D01*
X127897350Y-55475244D01*
X127971963Y-55466513D01*
X128023556Y-55463338D01*
X128058481Y-55447463D01*
X128083088Y-55405394D01*
X128089438Y-55325225D01*
X128083088Y-55245056D01*
X128057688Y-55202988D01*
X128021969Y-55187906D01*
X127968788Y-55185525D01*
X127864211Y-55194256D01*
X127756856Y-55220450D01*
X127653867Y-55258947D01*
X127562388Y-55304588D01*
X127480036Y-55353800D01*
X127404431Y-55403013D01*
X127337359Y-55448653D01*
X127280606Y-55487150D01*
X127208375Y-55522075D01*
X127208375Y-55160125D01*
X127192500Y-55068050D01*
X127146462Y-55029950D01*
X127067087Y-55020425D01*
X126987712Y-55029950D01*
X126946437Y-55060113D01*
X126927387Y-55152188D01*
X126927387Y-55723688D01*
X126395707Y-55723688D01*
X126395707Y-54514013D01*
X126908337Y-54514013D01*
X126919053Y-54616605D01*
X126951200Y-54705306D01*
X126999222Y-54778331D01*
X127057562Y-54833894D01*
X127126619Y-54876161D01*
X127206787Y-54909300D01*
X127303978Y-54935758D01*
X127405049Y-54951633D01*
X127510000Y-54956925D01*
X127646227Y-54949186D01*
X127767572Y-54925969D01*
X127874034Y-54887273D01*
X127965613Y-54833100D01*
X128023556Y-54778133D01*
X128070388Y-54705306D01*
X128101344Y-54617002D01*
X128111663Y-54515600D01*
X128101145Y-54413802D01*
X128069594Y-54324306D01*
X128022564Y-54250091D01*
X127965613Y-54194131D01*
X127897747Y-54151467D01*
X127817975Y-54117137D01*
X127722901Y-54091561D01*
X127619714Y-54076215D01*
X127508412Y-54071100D01*
X127407694Y-54075245D01*
X127317207Y-54087681D01*
X127236950Y-54108406D01*
X127136342Y-54147895D01*
X127059944Y-54191750D01*
X127000809Y-54247114D01*
X126951994Y-54321131D01*
X126919252Y-54411023D01*
X126908337Y-54514013D01*
X126395707Y-54514013D01*
X126395707Y-53410700D01*
X126911512Y-53410700D01*
X126922129Y-53524305D01*
X126953978Y-53630172D01*
X127007060Y-53728299D01*
X127081375Y-53818687D01*
X127171416Y-53894391D01*
X127271677Y-53948466D01*
X127382157Y-53980910D01*
X127502856Y-53991725D01*
X127624002Y-53981406D01*
X127735822Y-53950450D01*
X127838315Y-53898856D01*
X127931481Y-53826625D01*
X128008921Y-53739312D01*
X128064236Y-53642475D01*
X128097425Y-53536112D01*
X128108488Y-53420225D01*
X128097573Y-53304089D01*
X128064831Y-53196983D01*
X128010261Y-53098905D01*
X127933863Y-53009856D01*
X127842383Y-52935889D01*
X127742569Y-52883055D01*
X127634420Y-52851354D01*
X127517938Y-52840787D01*
X127390342Y-52852694D01*
X127271081Y-52888412D01*
X127165314Y-52943975D01*
X127078200Y-53015412D01*
X127008747Y-53100741D01*
X126955962Y-53197975D01*
X126922625Y-53302750D01*
X126911512Y-53410700D01*
X126395707Y-53410700D01*
X126395707Y-52597900D01*
X126925800Y-52597900D01*
X126940484Y-52686403D01*
X126984537Y-52729662D01*
X127067087Y-52737600D01*
X127949738Y-52737600D01*
X128005300Y-52735219D01*
X128046575Y-52720137D01*
X128078722Y-52678069D01*
X128089438Y-52596312D01*
X128074356Y-52508206D01*
X128029113Y-52466137D01*
X127948150Y-52456612D01*
X127065500Y-52456612D01*
X127010731Y-52458994D01*
X126968662Y-52474075D01*
X126936516Y-52516144D01*
X126925800Y-52597900D01*
X126395707Y-52597900D01*
X126395707Y-51943982D01*
X128624293Y-51943982D01*
G37*
%TO.C,kibuzzard-63744754*%
G36*
X133727943Y-46539701D02*
G01*
X133727943Y-50900299D01*
X131512057Y-50900299D01*
X131512057Y-49995556D01*
X132024687Y-49995556D01*
X132030442Y-50070764D01*
X132047706Y-50147163D01*
X132094537Y-50263844D01*
X132116762Y-50301944D01*
X132145337Y-50346394D01*
X132220744Y-50387669D01*
X132308850Y-50354331D01*
X132373144Y-50295594D01*
X132394575Y-50243206D01*
X132359650Y-50162244D01*
X132319169Y-50084456D01*
X132305675Y-49984444D01*
X132323534Y-49882050D01*
X132377112Y-49781244D01*
X132475537Y-49701869D01*
X132543205Y-49678056D01*
X132619206Y-49670119D01*
X132695208Y-49678056D01*
X132762875Y-49701869D01*
X132862888Y-49782831D01*
X132915275Y-49881653D01*
X132932738Y-49984444D01*
X132920038Y-50077313D01*
X132894638Y-50140019D01*
X132874000Y-50168594D01*
X132842250Y-50244794D01*
X132864475Y-50295991D01*
X132931150Y-50351156D01*
X133020050Y-50386081D01*
X133075613Y-50364650D01*
X133115300Y-50314644D01*
X133148638Y-50259875D01*
X133189913Y-50152719D01*
X133208963Y-50073145D01*
X133215313Y-49996350D01*
X133210352Y-49920547D01*
X133195469Y-49843950D01*
X133168878Y-49765766D01*
X133128794Y-49685200D01*
X133076803Y-49607611D01*
X133014494Y-49538356D01*
X132937500Y-49479023D01*
X132841456Y-49431200D01*
X132731323Y-49399648D01*
X132612062Y-49389131D01*
X132493992Y-49399450D01*
X132387431Y-49430406D01*
X132295356Y-49477436D01*
X132220744Y-49535975D01*
X132160220Y-49604833D01*
X132110412Y-49682819D01*
X132062787Y-49786712D01*
X132034212Y-49890958D01*
X132024687Y-49995556D01*
X131512057Y-49995556D01*
X131512057Y-48917644D01*
X132024687Y-48917644D01*
X132030442Y-48992852D01*
X132047706Y-49069250D01*
X132094537Y-49185931D01*
X132116762Y-49224031D01*
X132145337Y-49268481D01*
X132220744Y-49309756D01*
X132308850Y-49276419D01*
X132373144Y-49217681D01*
X132394575Y-49165294D01*
X132359650Y-49084331D01*
X132319169Y-49006544D01*
X132305675Y-48906531D01*
X132323534Y-48804138D01*
X132377112Y-48703331D01*
X132475537Y-48623956D01*
X132543205Y-48600144D01*
X132619206Y-48592206D01*
X132695208Y-48600144D01*
X132762875Y-48623956D01*
X132862888Y-48704919D01*
X132915275Y-48803741D01*
X132932738Y-48906531D01*
X132920038Y-48999400D01*
X132894638Y-49062106D01*
X132874000Y-49090681D01*
X132842250Y-49166881D01*
X132864475Y-49218078D01*
X132931150Y-49273244D01*
X133020050Y-49308169D01*
X133075613Y-49286738D01*
X133115300Y-49236731D01*
X133148638Y-49181963D01*
X133189913Y-49074806D01*
X133208963Y-48995233D01*
X133215313Y-48918438D01*
X133210352Y-48842634D01*
X133195469Y-48766038D01*
X133168878Y-48687853D01*
X133128794Y-48607287D01*
X133076803Y-48529698D01*
X133014494Y-48460444D01*
X132937500Y-48401111D01*
X132841456Y-48353287D01*
X132731323Y-48321736D01*
X132612062Y-48311219D01*
X132493992Y-48321537D01*
X132387431Y-48352494D01*
X132295356Y-48399523D01*
X132220744Y-48458062D01*
X132160220Y-48526920D01*
X132110412Y-48604906D01*
X132062787Y-48708799D01*
X132034212Y-48813045D01*
X132024687Y-48917644D01*
X131512057Y-48917644D01*
X131512057Y-48060394D01*
X132026275Y-48060394D01*
X132053262Y-48154056D01*
X132101681Y-48224303D01*
X132154862Y-48247719D01*
X132231062Y-48223906D01*
X133120062Y-47785756D01*
X133176419Y-47732575D01*
X133197850Y-47658756D01*
X133197850Y-47642881D01*
X133176419Y-47567475D01*
X133120062Y-47514294D01*
X132231062Y-47076144D01*
X132154862Y-47052331D01*
X132101681Y-47075747D01*
X132053262Y-47145994D01*
X132026275Y-47226162D01*
X132032625Y-47268231D01*
X132054850Y-47295219D01*
X132096919Y-47321412D01*
X132141369Y-47342645D01*
X132228681Y-47382531D01*
X132340798Y-47433530D01*
X132459662Y-47488100D01*
X132578527Y-47542869D01*
X132690644Y-47594462D01*
X132775377Y-47633555D01*
X132812088Y-47650819D01*
X132116762Y-47968319D01*
X132069137Y-47990544D01*
X132026275Y-48060394D01*
X131512057Y-48060394D01*
X131512057Y-46539701D01*
X133727943Y-46539701D01*
G37*
%TO.C,kibuzzard-63744AC6*%
G36*
X187986075Y-119101625D02*
G01*
X187832087Y-119101625D01*
X187723344Y-119080392D01*
X187625712Y-119016694D01*
X187556656Y-118920848D01*
X187533637Y-118803175D01*
X187556061Y-118685105D01*
X187623331Y-118588069D01*
X187720764Y-118523180D01*
X187833675Y-118501550D01*
X187986075Y-118501550D01*
X187986075Y-119101625D01*
G37*
G36*
X187252518Y-117687295D02*
G01*
X190567482Y-117687295D01*
X190567482Y-119912705D01*
X187252518Y-119912705D01*
X187252518Y-118794444D01*
X187252650Y-118794444D01*
X187263316Y-118911175D01*
X187295314Y-119019273D01*
X187348644Y-119118740D01*
X187423306Y-119209575D01*
X187513149Y-119285279D01*
X187612020Y-119339353D01*
X187719921Y-119371798D01*
X187836850Y-119382613D01*
X188127362Y-119382613D01*
X188205944Y-119372691D01*
X188248012Y-119342925D01*
X188266467Y-119244500D01*
X188394062Y-119244500D01*
X188396444Y-119300062D01*
X188411525Y-119341338D01*
X188453594Y-119373484D01*
X188535350Y-119384200D01*
X188621075Y-119374675D01*
X188660762Y-119344513D01*
X188773034Y-119194935D01*
X188871724Y-119063701D01*
X188956831Y-118950813D01*
X189028357Y-118856268D01*
X189086301Y-118780068D01*
X189130663Y-118722212D01*
X189130663Y-119244500D01*
X189133044Y-119300062D01*
X189148125Y-119341338D01*
X189190194Y-119373484D01*
X189271950Y-119384200D01*
X189351325Y-119373484D01*
X189392600Y-119341338D01*
X189407681Y-119298475D01*
X189410062Y-119242913D01*
X189410062Y-119165125D01*
X189537063Y-119165125D01*
X189581513Y-119261963D01*
X189656522Y-119322387D01*
X189748200Y-119365547D01*
X189856547Y-119391443D01*
X189981563Y-119400075D01*
X190095962Y-119388913D01*
X190202622Y-119355427D01*
X190301543Y-119299616D01*
X190392725Y-119221481D01*
X190469123Y-119127571D01*
X190523694Y-119024433D01*
X190556436Y-118912068D01*
X190567350Y-118790475D01*
X190556238Y-118669478D01*
X190522900Y-118558898D01*
X190467338Y-118458737D01*
X190389550Y-118368994D01*
X190296681Y-118295026D01*
X190195875Y-118242192D01*
X190087131Y-118210492D01*
X189970450Y-118199925D01*
X189847860Y-118213683D01*
X189729856Y-118254958D01*
X189616438Y-118323750D01*
X189573575Y-118394394D01*
X189610088Y-118484087D01*
X189669222Y-118547191D01*
X189722800Y-118568225D01*
X189819638Y-118524569D01*
X189892663Y-118491827D01*
X189978388Y-118480912D01*
X190092291Y-118502145D01*
X190192700Y-118565844D01*
X190262947Y-118663872D01*
X190286363Y-118788094D01*
X190275779Y-118875053D01*
X190244029Y-118952841D01*
X190191113Y-119021456D01*
X190089513Y-119093489D01*
X189975213Y-119117500D01*
X189892266Y-119110356D01*
X189818050Y-119088925D01*
X189818050Y-118915888D01*
X189943463Y-118915888D01*
X190013313Y-118903188D01*
X190040300Y-118865881D01*
X190046650Y-118799206D01*
X190039506Y-118731737D01*
X190013313Y-118696812D01*
X189937113Y-118682525D01*
X189657713Y-118682525D01*
X189552938Y-118726975D01*
X189537063Y-118815875D01*
X189537063Y-119165125D01*
X189410062Y-119165125D01*
X189410062Y-118357087D01*
X189394981Y-118268981D01*
X189349738Y-118231675D01*
X189271950Y-118222150D01*
X189196544Y-118230881D01*
X189157650Y-118250725D01*
X189121138Y-118292000D01*
X189015657Y-118435272D01*
X188922524Y-118561346D01*
X188841737Y-118670222D01*
X188773299Y-118761900D01*
X188717207Y-118836380D01*
X188673462Y-118893663D01*
X188673462Y-118357087D01*
X188658381Y-118268981D01*
X188613137Y-118231675D01*
X188537731Y-118222150D01*
X188464706Y-118230087D01*
X188423431Y-118249137D01*
X188403587Y-118282475D01*
X188394062Y-118363437D01*
X188394062Y-119244500D01*
X188266467Y-119244500D01*
X188267062Y-119241325D01*
X188267062Y-118358675D01*
X188264681Y-118303112D01*
X188249600Y-118261837D01*
X188207531Y-118229691D01*
X188125775Y-118218975D01*
X187832087Y-118220562D01*
X187720466Y-118230931D01*
X187615791Y-118262036D01*
X187518060Y-118313878D01*
X187427275Y-118386456D01*
X187350877Y-118474166D01*
X187296306Y-118571400D01*
X187263564Y-118678159D01*
X187252650Y-118794444D01*
X187252518Y-118794444D01*
X187252518Y-117687295D01*
G37*
%TO.C,kibuzzard-637445E7*%
G36*
X121829606Y-34602939D02*
G01*
X121925650Y-34669019D01*
X121975921Y-34733665D01*
X122006083Y-34810130D01*
X122016138Y-34898412D01*
X122005995Y-34986695D01*
X121975568Y-35063160D01*
X121924856Y-35127806D01*
X121828217Y-35193886D01*
X121720863Y-35215913D01*
X121613706Y-35194481D01*
X121517663Y-35130188D01*
X121467392Y-35066511D01*
X121437229Y-34989782D01*
X121427175Y-34900000D01*
X121437317Y-34810042D01*
X121467744Y-34732783D01*
X121518456Y-34668225D01*
X121615095Y-34602741D01*
X121722450Y-34580912D01*
X121829606Y-34602939D01*
G37*
G36*
X123193930Y-36012705D02*
G01*
X119146070Y-36012705D01*
X119146070Y-35099231D01*
X119658700Y-35099231D01*
X119671400Y-35203653D01*
X119709500Y-35297845D01*
X119773000Y-35381806D01*
X119855374Y-35447511D01*
X119950094Y-35486934D01*
X120057162Y-35500075D01*
X120152412Y-35491785D01*
X120241312Y-35466914D01*
X120323862Y-35425463D01*
X120363550Y-35395300D01*
X120376250Y-35384188D01*
X120403397Y-35341325D01*
X120523887Y-35341325D01*
X120526269Y-35396094D01*
X120541350Y-35438163D01*
X120583419Y-35470309D01*
X120665175Y-35481025D01*
X120744947Y-35470706D01*
X120787412Y-35439750D01*
X120802494Y-35396094D01*
X120804875Y-35338150D01*
X120804875Y-34891269D01*
X121146187Y-34891269D01*
X121156506Y-35012415D01*
X121187463Y-35124234D01*
X121239056Y-35226727D01*
X121311288Y-35319894D01*
X121398600Y-35397334D01*
X121495438Y-35452648D01*
X121601800Y-35485837D01*
X121717688Y-35496900D01*
X121833823Y-35485986D01*
X121940930Y-35453244D01*
X122039007Y-35398673D01*
X122109552Y-35338150D01*
X122400313Y-35338150D01*
X122402694Y-35393713D01*
X122417775Y-35434988D01*
X122459844Y-35467134D01*
X122541600Y-35477850D01*
X122629706Y-35462769D01*
X122671775Y-35417525D01*
X122681300Y-35336563D01*
X122681300Y-34453912D01*
X122678919Y-34399144D01*
X122663838Y-34357075D01*
X122621769Y-34324928D01*
X122540013Y-34314212D01*
X122451509Y-34328897D01*
X122408250Y-34372950D01*
X122400313Y-34455500D01*
X122400313Y-35338150D01*
X122109552Y-35338150D01*
X122128056Y-35322275D01*
X122202024Y-35230795D01*
X122254858Y-35130981D01*
X122286558Y-35022833D01*
X122297125Y-34906350D01*
X122285219Y-34778755D01*
X122249500Y-34659494D01*
X122193938Y-34553727D01*
X122122500Y-34466612D01*
X122037172Y-34397159D01*
X121939938Y-34344375D01*
X121835163Y-34311037D01*
X121727213Y-34299925D01*
X121613607Y-34310541D01*
X121507741Y-34342391D01*
X121409613Y-34395473D01*
X121319225Y-34469787D01*
X121243521Y-34559829D01*
X121189447Y-34660089D01*
X121157002Y-34770569D01*
X121146187Y-34891269D01*
X120804875Y-34891269D01*
X120804875Y-34771412D01*
X120825512Y-34790462D01*
X120936637Y-34839675D01*
X121032681Y-34784112D01*
X121082687Y-34685687D01*
X121025537Y-34592025D01*
X120765187Y-34357075D01*
X120760425Y-34353900D01*
X120670731Y-34312625D01*
X120595325Y-34320562D01*
X120554050Y-34338819D01*
X120531825Y-34372950D01*
X120523887Y-34457087D01*
X120523887Y-35341325D01*
X120403397Y-35341325D01*
X120436575Y-35288938D01*
X120377837Y-35185750D01*
X120285762Y-35133363D01*
X120179400Y-35184163D01*
X120080181Y-35217500D01*
X119975406Y-35187338D01*
X119941275Y-35103994D01*
X119978581Y-35019856D01*
X120063512Y-34988900D01*
X120139712Y-35017475D01*
X120226231Y-35053988D01*
X120326244Y-35023825D01*
X120400062Y-34975406D01*
X120417525Y-34936513D01*
X120409587Y-34862297D01*
X120385775Y-34680925D01*
X120361566Y-34502331D01*
X120352437Y-34436450D01*
X120341325Y-34403112D01*
X120318306Y-34360250D01*
X120277031Y-34326119D01*
X120212737Y-34311037D01*
X119971437Y-34312625D01*
X119822212Y-34312625D01*
X119766650Y-34315006D01*
X119725375Y-34330087D01*
X119693228Y-34372950D01*
X119682512Y-34457087D01*
X119692434Y-34533684D01*
X119722200Y-34572975D01*
X119761094Y-34588056D01*
X119812687Y-34590437D01*
X120090500Y-34590437D01*
X120106375Y-34711087D01*
X120050812Y-34707912D01*
X119953622Y-34720524D01*
X119863135Y-34758360D01*
X119779350Y-34821419D01*
X119712322Y-34902734D01*
X119672106Y-34995338D01*
X119658700Y-35099231D01*
X119146070Y-35099231D01*
X119146070Y-33787295D01*
X123193930Y-33787295D01*
X123193930Y-36012705D01*
G37*
%TO.C,kibuzzard-63744705*%
G36*
X176036075Y-91181625D02*
G01*
X175882087Y-91181625D01*
X175773344Y-91160392D01*
X175675712Y-91096694D01*
X175606656Y-91000848D01*
X175583637Y-90883175D01*
X175606061Y-90765105D01*
X175673331Y-90668069D01*
X175770764Y-90603180D01*
X175883675Y-90581550D01*
X176036075Y-90581550D01*
X176036075Y-91181625D01*
G37*
G36*
X174790020Y-89767295D02*
G01*
X179129980Y-89767295D01*
X179129980Y-91992705D01*
X174790020Y-91992705D01*
X174790020Y-90874444D01*
X175302650Y-90874444D01*
X175313316Y-90991175D01*
X175345314Y-91099273D01*
X175398644Y-91198740D01*
X175473306Y-91289575D01*
X175563149Y-91365279D01*
X175662020Y-91419353D01*
X175769921Y-91451798D01*
X175886850Y-91462613D01*
X176177362Y-91462613D01*
X176255944Y-91452691D01*
X176298012Y-91422925D01*
X176316467Y-91324500D01*
X176444062Y-91324500D01*
X176446444Y-91380062D01*
X176461525Y-91421338D01*
X176503594Y-91453484D01*
X176585350Y-91464200D01*
X176671075Y-91454675D01*
X176710762Y-91424513D01*
X176823034Y-91274935D01*
X176921724Y-91143701D01*
X177006831Y-91030813D01*
X177078357Y-90936268D01*
X177136301Y-90860068D01*
X177180663Y-90802212D01*
X177180663Y-91324500D01*
X177183044Y-91380062D01*
X177198125Y-91421338D01*
X177240194Y-91453484D01*
X177321950Y-91464200D01*
X177401325Y-91453484D01*
X177442600Y-91421338D01*
X177457681Y-91378475D01*
X177460062Y-91322913D01*
X177460062Y-91245125D01*
X177587063Y-91245125D01*
X177631513Y-91341963D01*
X177706522Y-91402387D01*
X177798200Y-91445547D01*
X177906547Y-91471443D01*
X178031563Y-91480075D01*
X178145962Y-91468913D01*
X178252622Y-91435427D01*
X178351543Y-91379616D01*
X178442725Y-91301481D01*
X178519123Y-91207571D01*
X178573694Y-91104433D01*
X178606436Y-90992068D01*
X178617350Y-90870475D01*
X178606238Y-90749478D01*
X178572900Y-90638898D01*
X178517338Y-90538737D01*
X178439550Y-90448994D01*
X178346681Y-90375026D01*
X178245875Y-90322192D01*
X178137131Y-90290492D01*
X178020450Y-90279925D01*
X177897860Y-90293683D01*
X177779856Y-90334958D01*
X177666438Y-90403750D01*
X177623575Y-90474394D01*
X177660088Y-90564087D01*
X177719222Y-90627191D01*
X177772800Y-90648225D01*
X177869638Y-90604569D01*
X177942663Y-90571827D01*
X178028388Y-90560912D01*
X178142291Y-90582145D01*
X178242700Y-90645844D01*
X178312947Y-90743872D01*
X178336363Y-90868094D01*
X178325779Y-90955053D01*
X178294029Y-91032841D01*
X178241113Y-91101456D01*
X178139513Y-91173489D01*
X178025213Y-91197500D01*
X177942266Y-91190356D01*
X177868050Y-91168925D01*
X177868050Y-90995888D01*
X177993463Y-90995888D01*
X178063313Y-90983188D01*
X178090300Y-90945881D01*
X178096650Y-90879206D01*
X178089506Y-90811737D01*
X178063313Y-90776812D01*
X177987113Y-90762525D01*
X177707713Y-90762525D01*
X177602938Y-90806975D01*
X177587063Y-90895875D01*
X177587063Y-91245125D01*
X177460062Y-91245125D01*
X177460062Y-90437087D01*
X177444981Y-90348981D01*
X177399738Y-90311675D01*
X177321950Y-90302150D01*
X177246544Y-90310881D01*
X177207650Y-90330725D01*
X177171138Y-90372000D01*
X177065657Y-90515272D01*
X176972524Y-90641346D01*
X176891737Y-90750222D01*
X176823299Y-90841900D01*
X176767207Y-90916380D01*
X176723462Y-90973663D01*
X176723462Y-90437087D01*
X176708381Y-90348981D01*
X176663137Y-90311675D01*
X176587731Y-90302150D01*
X176514706Y-90310087D01*
X176473431Y-90329137D01*
X176453587Y-90362475D01*
X176444062Y-90443437D01*
X176444062Y-91324500D01*
X176316467Y-91324500D01*
X176317062Y-91321325D01*
X176317062Y-90438675D01*
X176314681Y-90383112D01*
X176299600Y-90341837D01*
X176257531Y-90309691D01*
X176175775Y-90298975D01*
X175882087Y-90300562D01*
X175770466Y-90310931D01*
X175665791Y-90342036D01*
X175568060Y-90393878D01*
X175477275Y-90466456D01*
X175400877Y-90554166D01*
X175346306Y-90651400D01*
X175313564Y-90758159D01*
X175302650Y-90874444D01*
X174790020Y-90874444D01*
X174790020Y-89767295D01*
G37*
%TO.C,kibuzzard-63744811*%
G36*
X174057286Y-48685086D02*
G01*
X169642714Y-48685086D01*
X169642714Y-47442206D01*
X170155344Y-47442206D01*
X170162202Y-47559491D01*
X170182776Y-47668774D01*
X170217066Y-47770057D01*
X170265072Y-47863338D01*
X170326794Y-47948619D01*
X170400390Y-48021771D01*
X170484020Y-48078667D01*
X170577682Y-48119307D01*
X170681378Y-48143691D01*
X170795106Y-48151819D01*
X170804631Y-48151819D01*
X170890356Y-48135944D01*
X170923694Y-48091097D01*
X170934806Y-48010531D01*
X170919725Y-47922425D01*
X170874481Y-47880356D01*
X170782406Y-47870831D01*
X170656200Y-47848606D01*
X170561744Y-47794631D01*
X170505784Y-47732719D01*
X170474431Y-47677156D01*
X170466494Y-47654931D01*
X170585556Y-47681919D01*
X170684422Y-47670365D01*
X170773587Y-47635705D01*
X170853050Y-47577938D01*
X170859200Y-47570794D01*
X171044344Y-47570794D01*
X171052083Y-47707021D01*
X171075300Y-47828366D01*
X171113995Y-47934827D01*
X171168169Y-48026406D01*
X171223136Y-48084350D01*
X171295962Y-48131181D01*
X171384267Y-48162138D01*
X171485669Y-48172456D01*
X171587467Y-48161939D01*
X171676962Y-48130388D01*
X171751178Y-48083358D01*
X171807137Y-48026406D01*
X171849802Y-47958541D01*
X171884131Y-47878769D01*
X171909708Y-47783695D01*
X171925053Y-47680508D01*
X171930169Y-47569206D01*
X171929940Y-47563650D01*
X172009544Y-47563650D01*
X172019863Y-47684796D01*
X172050819Y-47796616D01*
X172102412Y-47899109D01*
X172174644Y-47992275D01*
X172261956Y-48069715D01*
X172358794Y-48125030D01*
X172465156Y-48158218D01*
X172581044Y-48169281D01*
X172697179Y-48158367D01*
X172804286Y-48125625D01*
X172902364Y-48071055D01*
X172972909Y-48010531D01*
X173263669Y-48010531D01*
X173266050Y-48066094D01*
X173281131Y-48107369D01*
X173323200Y-48139516D01*
X173404956Y-48150231D01*
X173493063Y-48135150D01*
X173535131Y-48089906D01*
X173544656Y-48008944D01*
X173544656Y-47126294D01*
X173542275Y-47071525D01*
X173527194Y-47029456D01*
X173485125Y-46997309D01*
X173403369Y-46986594D01*
X173314866Y-47001278D01*
X173271606Y-47045331D01*
X173263669Y-47127881D01*
X173263669Y-48010531D01*
X172972909Y-48010531D01*
X172991413Y-47994656D01*
X173065380Y-47903177D01*
X173118214Y-47803363D01*
X173149914Y-47695214D01*
X173160481Y-47578731D01*
X173148575Y-47451136D01*
X173112856Y-47331875D01*
X173057294Y-47226108D01*
X172985856Y-47138994D01*
X172900528Y-47069541D01*
X172803294Y-47016756D01*
X172698519Y-46983419D01*
X172590569Y-46972306D01*
X172476963Y-46982923D01*
X172371097Y-47014772D01*
X172272970Y-47067854D01*
X172182581Y-47142169D01*
X172106877Y-47232210D01*
X172052803Y-47332470D01*
X172020359Y-47442950D01*
X172009544Y-47563650D01*
X171929940Y-47563650D01*
X171926024Y-47468488D01*
X171913588Y-47378001D01*
X171892863Y-47297744D01*
X171853373Y-47197136D01*
X171809519Y-47120737D01*
X171754155Y-47061603D01*
X171680137Y-47012787D01*
X171590245Y-46980045D01*
X171487256Y-46969131D01*
X171384664Y-46979847D01*
X171295962Y-47011994D01*
X171222937Y-47060016D01*
X171167375Y-47118356D01*
X171125108Y-47187412D01*
X171091969Y-47267581D01*
X171065510Y-47364772D01*
X171049635Y-47465842D01*
X171044344Y-47570794D01*
X170859200Y-47570794D01*
X170915227Y-47505706D01*
X170952533Y-47427654D01*
X170964969Y-47343781D01*
X170952269Y-47242710D01*
X170914169Y-47153281D01*
X170850669Y-47075494D01*
X170769001Y-47015522D01*
X170676397Y-46979538D01*
X170572856Y-46967544D01*
X170445680Y-46982272D01*
X170341434Y-47026458D01*
X170260119Y-47100100D01*
X170201910Y-47197026D01*
X170166985Y-47311061D01*
X170155344Y-47442206D01*
X169642714Y-47442206D01*
X169642714Y-46454914D01*
X174057286Y-46454914D01*
X174057286Y-48685086D01*
G37*
G36*
X170658184Y-47254484D02*
G01*
X170688744Y-47334256D01*
X170660962Y-47402519D01*
X170571269Y-47434269D01*
X170476812Y-47404900D01*
X170444269Y-47346162D01*
X170448237Y-47300125D01*
X170464906Y-47264406D01*
X170566506Y-47227894D01*
X170658184Y-47254484D01*
G37*
G36*
X172692963Y-47275320D02*
G01*
X172789006Y-47341400D01*
X172839277Y-47406047D01*
X172869440Y-47482511D01*
X172879494Y-47570794D01*
X172869351Y-47659076D01*
X172838924Y-47735541D01*
X172788213Y-47800188D01*
X172691573Y-47866267D01*
X172584219Y-47888294D01*
X172477063Y-47866863D01*
X172381019Y-47802569D01*
X172330748Y-47738892D01*
X172300585Y-47662163D01*
X172290531Y-47572381D01*
X172300674Y-47482423D01*
X172331101Y-47405165D01*
X172381813Y-47340606D01*
X172478452Y-47275122D01*
X172585806Y-47253294D01*
X172692963Y-47275320D01*
G37*
G36*
X171558098Y-47270111D02*
G01*
X171608700Y-47330089D01*
X171639061Y-47430052D01*
X171649181Y-47570000D01*
X171639160Y-47709948D01*
X171609097Y-47809911D01*
X171558991Y-47869889D01*
X171488844Y-47889881D01*
X171417307Y-47870434D01*
X171366209Y-47812094D01*
X171335551Y-47714859D01*
X171325331Y-47578731D01*
X171325331Y-47569206D01*
X171335452Y-47429605D01*
X171365812Y-47329891D01*
X171416414Y-47270062D01*
X171487256Y-47250119D01*
X171558098Y-47270111D01*
G37*
%TO.C,kibuzzard-63744705*%
G36*
X130371625Y-49797913D02*
G01*
X130350392Y-49906656D01*
X130286694Y-50004288D01*
X130190848Y-50073344D01*
X130073175Y-50096363D01*
X129955105Y-50073939D01*
X129858069Y-50006669D01*
X129793180Y-49909236D01*
X129771550Y-49796325D01*
X129771550Y-49643925D01*
X130371625Y-49643925D01*
X130371625Y-49797913D01*
G37*
G36*
X128957295Y-50889980D02*
G01*
X128957295Y-49504225D01*
X129488975Y-49504225D01*
X129490562Y-49797913D01*
X129500931Y-49909534D01*
X129532036Y-50014209D01*
X129583878Y-50111940D01*
X129656456Y-50202725D01*
X129744166Y-50279123D01*
X129841400Y-50333694D01*
X129948159Y-50366436D01*
X130064444Y-50377350D01*
X130181175Y-50366684D01*
X130289273Y-50334686D01*
X130388740Y-50281356D01*
X130479575Y-50206694D01*
X130555279Y-50116851D01*
X130609353Y-50017980D01*
X130641798Y-49910079D01*
X130652613Y-49793150D01*
X130652613Y-49502638D01*
X130642691Y-49424056D01*
X130612925Y-49381988D01*
X130511325Y-49362938D01*
X129628675Y-49362938D01*
X129573112Y-49365319D01*
X129531837Y-49380400D01*
X129499691Y-49422469D01*
X129488975Y-49504225D01*
X128957295Y-49504225D01*
X128957295Y-49092269D01*
X129492150Y-49092269D01*
X129500087Y-49165294D01*
X129519137Y-49206569D01*
X129552475Y-49226413D01*
X129633437Y-49235938D01*
X130514500Y-49235938D01*
X130570062Y-49233556D01*
X130611338Y-49218475D01*
X130643484Y-49176406D01*
X130654200Y-49094650D01*
X130644675Y-49008925D01*
X130614513Y-48969238D01*
X130464935Y-48856966D01*
X130333701Y-48758276D01*
X130220813Y-48673169D01*
X130126268Y-48601643D01*
X130050068Y-48543699D01*
X129992212Y-48499337D01*
X130514500Y-48499337D01*
X130570062Y-48496956D01*
X130611338Y-48481875D01*
X130643484Y-48439806D01*
X130654200Y-48358050D01*
X130643484Y-48278675D01*
X130611338Y-48237400D01*
X130568475Y-48222319D01*
X130512913Y-48219938D01*
X129627087Y-48219938D01*
X129538981Y-48235019D01*
X129501675Y-48280262D01*
X129492150Y-48358050D01*
X129500881Y-48433456D01*
X129520725Y-48472350D01*
X129562000Y-48508862D01*
X129705272Y-48614343D01*
X129831346Y-48707476D01*
X129940222Y-48788263D01*
X130031900Y-48856701D01*
X130106380Y-48912793D01*
X130163663Y-48956538D01*
X129627087Y-48956538D01*
X129538981Y-48971619D01*
X129501675Y-49016863D01*
X129492150Y-49092269D01*
X128957295Y-49092269D01*
X128957295Y-47659550D01*
X129469925Y-47659550D01*
X129483683Y-47782140D01*
X129524958Y-47900144D01*
X129593750Y-48013562D01*
X129664394Y-48056425D01*
X129754087Y-48019912D01*
X129817191Y-47960778D01*
X129838225Y-47907200D01*
X129794569Y-47810362D01*
X129761827Y-47737337D01*
X129750912Y-47651612D01*
X129772145Y-47537709D01*
X129835844Y-47437300D01*
X129933872Y-47367053D01*
X130058094Y-47343637D01*
X130145053Y-47354221D01*
X130222841Y-47385971D01*
X130291456Y-47438887D01*
X130363489Y-47540487D01*
X130387500Y-47654787D01*
X130380356Y-47737734D01*
X130358925Y-47811950D01*
X130185888Y-47811950D01*
X130185888Y-47686537D01*
X130173188Y-47616687D01*
X130135881Y-47589700D01*
X130069206Y-47583350D01*
X130001737Y-47590494D01*
X129966812Y-47616687D01*
X129952525Y-47692887D01*
X129952525Y-47972287D01*
X129996975Y-48077062D01*
X130085875Y-48092937D01*
X130435125Y-48092937D01*
X130531963Y-48048487D01*
X130592387Y-47973478D01*
X130635547Y-47881800D01*
X130661443Y-47773453D01*
X130670075Y-47648437D01*
X130658913Y-47534038D01*
X130625427Y-47427378D01*
X130569616Y-47328457D01*
X130491481Y-47237275D01*
X130397571Y-47160877D01*
X130294433Y-47106306D01*
X130182068Y-47073564D01*
X130060475Y-47062650D01*
X129939478Y-47073762D01*
X129828898Y-47107100D01*
X129728737Y-47162662D01*
X129638994Y-47240450D01*
X129565026Y-47333319D01*
X129512192Y-47434125D01*
X129480492Y-47542869D01*
X129469925Y-47659550D01*
X128957295Y-47659550D01*
X128957295Y-46550020D01*
X131182705Y-46550020D01*
X131182705Y-50889980D01*
X128957295Y-50889980D01*
G37*
G36*
X189301625Y-128707913D02*
G01*
X189280392Y-128816656D01*
X189216694Y-128914288D01*
X189120848Y-128983344D01*
X189003175Y-129006363D01*
X188885105Y-128983939D01*
X188788069Y-128916669D01*
X188723180Y-128819236D01*
X188701550Y-128706325D01*
X188701550Y-128553925D01*
X189301625Y-128553925D01*
X189301625Y-128707913D01*
G37*
G36*
X187887295Y-129799980D02*
G01*
X187887295Y-128414225D01*
X188418975Y-128414225D01*
X188420562Y-128707913D01*
X188430931Y-128819534D01*
X188462036Y-128924209D01*
X188513878Y-129021940D01*
X188586456Y-129112725D01*
X188674166Y-129189123D01*
X188771400Y-129243694D01*
X188878159Y-129276436D01*
X188994444Y-129287350D01*
X189111175Y-129276684D01*
X189219273Y-129244686D01*
X189318740Y-129191356D01*
X189409575Y-129116694D01*
X189485279Y-129026851D01*
X189539353Y-128927980D01*
X189571798Y-128820079D01*
X189582613Y-128703150D01*
X189582613Y-128412638D01*
X189572691Y-128334056D01*
X189542925Y-128291988D01*
X189441325Y-128272938D01*
X188558675Y-128272938D01*
X188503112Y-128275319D01*
X188461837Y-128290400D01*
X188429691Y-128332469D01*
X188418975Y-128414225D01*
X187887295Y-128414225D01*
X187887295Y-128002269D01*
X188422150Y-128002269D01*
X188430087Y-128075294D01*
X188449137Y-128116569D01*
X188482475Y-128136413D01*
X188563437Y-128145938D01*
X189444500Y-128145938D01*
X189500062Y-128143556D01*
X189541338Y-128128475D01*
X189573484Y-128086406D01*
X189584200Y-128004650D01*
X189574675Y-127918925D01*
X189544513Y-127879238D01*
X189394935Y-127766966D01*
X189263701Y-127668276D01*
X189150813Y-127583169D01*
X189056268Y-127511643D01*
X188980068Y-127453699D01*
X188922212Y-127409337D01*
X189444500Y-127409337D01*
X189500062Y-127406956D01*
X189541338Y-127391875D01*
X189573484Y-127349806D01*
X189584200Y-127268050D01*
X189573484Y-127188675D01*
X189541338Y-127147400D01*
X189498475Y-127132319D01*
X189442913Y-127129938D01*
X188557087Y-127129938D01*
X188468981Y-127145019D01*
X188431675Y-127190262D01*
X188422150Y-127268050D01*
X188430881Y-127343456D01*
X188450725Y-127382350D01*
X188492000Y-127418862D01*
X188635272Y-127524343D01*
X188761346Y-127617476D01*
X188870222Y-127698263D01*
X188961900Y-127766701D01*
X189036380Y-127822793D01*
X189093663Y-127866538D01*
X188557087Y-127866538D01*
X188468981Y-127881619D01*
X188431675Y-127926863D01*
X188422150Y-128002269D01*
X187887295Y-128002269D01*
X187887295Y-126569550D01*
X188399925Y-126569550D01*
X188413683Y-126692140D01*
X188454958Y-126810144D01*
X188523750Y-126923562D01*
X188594394Y-126966425D01*
X188684087Y-126929912D01*
X188747191Y-126870778D01*
X188768225Y-126817200D01*
X188724569Y-126720362D01*
X188691827Y-126647337D01*
X188680912Y-126561612D01*
X188702145Y-126447709D01*
X188765844Y-126347300D01*
X188863872Y-126277053D01*
X188988094Y-126253637D01*
X189075053Y-126264221D01*
X189152841Y-126295971D01*
X189221456Y-126348887D01*
X189293489Y-126450487D01*
X189317500Y-126564787D01*
X189310356Y-126647734D01*
X189288925Y-126721950D01*
X189115888Y-126721950D01*
X189115888Y-126596537D01*
X189103188Y-126526687D01*
X189065881Y-126499700D01*
X188999206Y-126493350D01*
X188931737Y-126500494D01*
X188896812Y-126526687D01*
X188882525Y-126602887D01*
X188882525Y-126882287D01*
X188926975Y-126987062D01*
X189015875Y-127002937D01*
X189365125Y-127002937D01*
X189461963Y-126958487D01*
X189522387Y-126883478D01*
X189565547Y-126791800D01*
X189591443Y-126683453D01*
X189600075Y-126558437D01*
X189588913Y-126444038D01*
X189555427Y-126337378D01*
X189499616Y-126238457D01*
X189421481Y-126147275D01*
X189327571Y-126070877D01*
X189224433Y-126016306D01*
X189112068Y-125983564D01*
X188990475Y-125972650D01*
X188869478Y-125983762D01*
X188758898Y-126017100D01*
X188658737Y-126072662D01*
X188568994Y-126150450D01*
X188495026Y-126243319D01*
X188442192Y-126344125D01*
X188410492Y-126452869D01*
X188399925Y-126569550D01*
X187887295Y-126569550D01*
X187887295Y-125460020D01*
X190112705Y-125460020D01*
X190112705Y-129799980D01*
X187887295Y-129799980D01*
G37*
%TO.C,kibuzzard-63744A8D*%
G36*
X187536470Y-120255551D02*
G01*
X190263530Y-120255551D01*
X190263530Y-122444449D01*
X187536470Y-122444449D01*
X187536470Y-121587331D01*
X188049100Y-121587331D01*
X188057831Y-121659563D01*
X188085612Y-121698456D01*
X188164987Y-121712744D01*
X188542812Y-121712744D01*
X188613853Y-121699250D01*
X188649175Y-121658769D01*
X188657112Y-121585744D01*
X188647588Y-121514306D01*
X188617425Y-121476206D01*
X188541225Y-121461919D01*
X188163400Y-121461919D01*
X188092756Y-121475016D01*
X188058625Y-121514306D01*
X188049100Y-121587331D01*
X187536470Y-121587331D01*
X187536470Y-121343650D01*
X188736487Y-121343650D01*
X188747154Y-121460381D01*
X188779152Y-121568480D01*
X188832482Y-121667946D01*
X188907144Y-121758781D01*
X188996986Y-121834485D01*
X189095858Y-121888559D01*
X189203758Y-121921004D01*
X189320688Y-121931819D01*
X189611200Y-121931819D01*
X189689781Y-121921897D01*
X189731850Y-121892131D01*
X189750900Y-121790531D01*
X189750900Y-120907881D01*
X189748519Y-120852319D01*
X189733438Y-120811044D01*
X189691369Y-120778897D01*
X189609613Y-120768181D01*
X189315925Y-120769769D01*
X189204304Y-120780137D01*
X189099628Y-120811242D01*
X189001898Y-120863084D01*
X188911113Y-120935662D01*
X188834714Y-121023372D01*
X188780144Y-121120606D01*
X188747402Y-121227366D01*
X188736487Y-121343650D01*
X187536470Y-121343650D01*
X187536470Y-120255551D01*
G37*
G36*
X189469913Y-121650831D02*
G01*
X189315925Y-121650831D01*
X189207181Y-121629598D01*
X189109550Y-121565900D01*
X189040494Y-121470055D01*
X189017475Y-121352381D01*
X189039898Y-121234311D01*
X189107169Y-121137275D01*
X189204602Y-121072386D01*
X189317513Y-121050756D01*
X189469913Y-121050756D01*
X189469913Y-121650831D01*
G37*
%TO.C,kibuzzard-63744B7E*%
G36*
X112333698Y-118399318D02*
G01*
X112384300Y-118459295D01*
X112414661Y-118559258D01*
X112424781Y-118699206D01*
X112414760Y-118839154D01*
X112384697Y-118939117D01*
X112334591Y-118999095D01*
X112264444Y-119019088D01*
X112192907Y-118999641D01*
X112141809Y-118941300D01*
X112111151Y-118844066D01*
X112100931Y-118707938D01*
X112100931Y-118698412D01*
X112111052Y-118558812D01*
X112141412Y-118459097D01*
X112192014Y-118399268D01*
X112262856Y-118379325D01*
X112333698Y-118399318D01*
G37*
G36*
X114408363Y-118404527D02*
G01*
X114504406Y-118470606D01*
X114554677Y-118535253D01*
X114584840Y-118611717D01*
X114594894Y-118700000D01*
X114584751Y-118788283D01*
X114554324Y-118864747D01*
X114503613Y-118929394D01*
X114406973Y-118995473D01*
X114299619Y-119017500D01*
X114192463Y-118996069D01*
X114096419Y-118931775D01*
X114046148Y-118868099D01*
X114015985Y-118791369D01*
X114005931Y-118701588D01*
X114016074Y-118611629D01*
X114046501Y-118534371D01*
X114097213Y-118469812D01*
X114193852Y-118404328D01*
X114301206Y-118382500D01*
X114408363Y-118404527D01*
G37*
G36*
X115772686Y-119814293D02*
G01*
X111307314Y-119814293D01*
X111307314Y-118700000D01*
X111819944Y-118700000D01*
X111827683Y-118836227D01*
X111850900Y-118957572D01*
X111889595Y-119064034D01*
X111943769Y-119155613D01*
X111998736Y-119213556D01*
X112071562Y-119260388D01*
X112159867Y-119291344D01*
X112261269Y-119301663D01*
X112363067Y-119291145D01*
X112452562Y-119259594D01*
X112526778Y-119212564D01*
X112582737Y-119155613D01*
X112593715Y-119138150D01*
X112808956Y-119138150D01*
X112824037Y-119229431D01*
X112870075Y-119268325D01*
X112947069Y-119277850D01*
X113020094Y-119269913D01*
X113061369Y-119250863D01*
X113082006Y-119219113D01*
X113091531Y-119136563D01*
X113091531Y-118942888D01*
X113521744Y-118942888D01*
X113610247Y-118927806D01*
X113653506Y-118882563D01*
X113661444Y-118814300D01*
X113656681Y-118750800D01*
X113642325Y-118692856D01*
X113724944Y-118692856D01*
X113735263Y-118814002D01*
X113766219Y-118925822D01*
X113817813Y-119028315D01*
X113890044Y-119121481D01*
X113977356Y-119198921D01*
X114074194Y-119254236D01*
X114180556Y-119287425D01*
X114296444Y-119298488D01*
X114412579Y-119287573D01*
X114519686Y-119254831D01*
X114617764Y-119200261D01*
X114688309Y-119139738D01*
X114979069Y-119139738D01*
X114981450Y-119195300D01*
X114996531Y-119236575D01*
X115038600Y-119268722D01*
X115120356Y-119279438D01*
X115208463Y-119264356D01*
X115250531Y-119219113D01*
X115260056Y-119138150D01*
X115260056Y-118255500D01*
X115257675Y-118200731D01*
X115242594Y-118158662D01*
X115200525Y-118126516D01*
X115118769Y-118115800D01*
X115030266Y-118130484D01*
X114987006Y-118174537D01*
X114979069Y-118257087D01*
X114979069Y-119139738D01*
X114688309Y-119139738D01*
X114706813Y-119123863D01*
X114780780Y-119032383D01*
X114833614Y-118932569D01*
X114865314Y-118824420D01*
X114875881Y-118707938D01*
X114863975Y-118580342D01*
X114828256Y-118461081D01*
X114772694Y-118355314D01*
X114701256Y-118268200D01*
X114615928Y-118198747D01*
X114518694Y-118145962D01*
X114413919Y-118112625D01*
X114305969Y-118101512D01*
X114192363Y-118112129D01*
X114086497Y-118143978D01*
X113988370Y-118197060D01*
X113897981Y-118271375D01*
X113822277Y-118361416D01*
X113768203Y-118461677D01*
X113735759Y-118572157D01*
X113724944Y-118692856D01*
X113642325Y-118692856D01*
X113524919Y-118218987D01*
X113508250Y-118163425D01*
X113479675Y-118126912D01*
X113424906Y-118109450D01*
X113351881Y-118120562D01*
X113268537Y-118161044D01*
X113240756Y-118222162D01*
X113251869Y-118288837D01*
X113253456Y-118293600D01*
X113350294Y-118680950D01*
X113091531Y-118680950D01*
X113091531Y-118247562D01*
X113089150Y-118193587D01*
X113074069Y-118153900D01*
X113030412Y-118122944D01*
X112949450Y-118114212D01*
X112869281Y-118124531D01*
X112826419Y-118157869D01*
X112811337Y-118199938D01*
X112808956Y-118255500D01*
X112808956Y-119138150D01*
X112593715Y-119138150D01*
X112625402Y-119087747D01*
X112659731Y-119007975D01*
X112685308Y-118912901D01*
X112700653Y-118809714D01*
X112705769Y-118698412D01*
X112701624Y-118597694D01*
X112689188Y-118507207D01*
X112668462Y-118426950D01*
X112628973Y-118326342D01*
X112585119Y-118249944D01*
X112529755Y-118190809D01*
X112455737Y-118141994D01*
X112365845Y-118109252D01*
X112262856Y-118098337D01*
X112160264Y-118109053D01*
X112071562Y-118141200D01*
X111998537Y-118189222D01*
X111942975Y-118247562D01*
X111900708Y-118316619D01*
X111867569Y-118396787D01*
X111841110Y-118493978D01*
X111825235Y-118595049D01*
X111819944Y-118700000D01*
X111307314Y-118700000D01*
X111307314Y-117585707D01*
X115772686Y-117585707D01*
X115772686Y-119814293D01*
G37*
%TO.C,kibuzzard-637446CB*%
G36*
X125110806Y-49749188D02*
G01*
X124893319Y-49642825D01*
X125110806Y-49538050D01*
X125110806Y-49749188D01*
G37*
G36*
X125310831Y-48417275D02*
G01*
X125289598Y-48526019D01*
X125225900Y-48623650D01*
X125130055Y-48692706D01*
X125012381Y-48715725D01*
X124894311Y-48693302D01*
X124797275Y-48626031D01*
X124732386Y-48528598D01*
X124710756Y-48415687D01*
X124710756Y-48263287D01*
X125310831Y-48263287D01*
X125310831Y-48417275D01*
G37*
G36*
X126121911Y-46520345D02*
G01*
X126121911Y-50739655D01*
X123898089Y-50739655D01*
X123898089Y-49644412D01*
X124429769Y-49644412D01*
X124450406Y-49719025D01*
X124512319Y-49771413D01*
X125398144Y-50200038D01*
X125479106Y-50227025D01*
X125533478Y-50204006D01*
X125582294Y-50134950D01*
X125609281Y-50050019D01*
X125594994Y-49999219D01*
X125564831Y-49970644D01*
X125517206Y-49946038D01*
X125345756Y-49863488D01*
X125345756Y-49423750D01*
X125517206Y-49341200D01*
X125563244Y-49316594D01*
X125592613Y-49288019D01*
X125607694Y-49237219D01*
X125580706Y-49152288D01*
X125533081Y-49083231D01*
X125479106Y-49060213D01*
X125398144Y-49087200D01*
X124510731Y-49515825D01*
X124451994Y-49569006D01*
X124429769Y-49644412D01*
X123898089Y-49644412D01*
X123898089Y-48123587D01*
X124428181Y-48123587D01*
X124429769Y-48417275D01*
X124440137Y-48528896D01*
X124471242Y-48633572D01*
X124523084Y-48731302D01*
X124595662Y-48822088D01*
X124683372Y-48898486D01*
X124780606Y-48953056D01*
X124887366Y-48985798D01*
X125003650Y-48996713D01*
X125120381Y-48986046D01*
X125228480Y-48954048D01*
X125327946Y-48900718D01*
X125418781Y-48826056D01*
X125494485Y-48736214D01*
X125548559Y-48637342D01*
X125581004Y-48529442D01*
X125591819Y-48412512D01*
X125591819Y-48122000D01*
X125581897Y-48043419D01*
X125552131Y-48001350D01*
X125450531Y-47982300D01*
X124567881Y-47982300D01*
X124512319Y-47984681D01*
X124471044Y-47999762D01*
X124438897Y-48041831D01*
X124428181Y-48123587D01*
X123898089Y-48123587D01*
X123898089Y-47440962D01*
X124410719Y-47440962D01*
X124416870Y-47532045D01*
X124435325Y-47614794D01*
X124485331Y-47723537D01*
X124515494Y-47763225D01*
X124593281Y-47812437D01*
X124680594Y-47774337D01*
X124740125Y-47719569D01*
X124759969Y-47663212D01*
X124728219Y-47580662D01*
X124712344Y-47562406D01*
X124691706Y-47537800D01*
X124671069Y-47452869D01*
X124695675Y-47367144D01*
X124763937Y-47333012D01*
X124834581Y-47373494D01*
X124871094Y-47474300D01*
X124883198Y-47537403D01*
X124900462Y-47606062D01*
X124922489Y-47674722D01*
X124948881Y-47737825D01*
X124987973Y-47793189D01*
X125048100Y-47838631D01*
X125126880Y-47868992D01*
X125221931Y-47879112D01*
X125318967Y-47868794D01*
X125403700Y-47837837D01*
X125473352Y-47790212D01*
X125525144Y-47729887D01*
X125571887Y-47642222D01*
X125599933Y-47550676D01*
X125609281Y-47455250D01*
X125604717Y-47382622D01*
X125591025Y-47313962D01*
X125545781Y-47206012D01*
X125495775Y-47134575D01*
X125447356Y-47088537D01*
X125429894Y-47074250D01*
X125338613Y-47032975D01*
X125291583Y-47050041D01*
X125231456Y-47101237D01*
X125193356Y-47185375D01*
X125213200Y-47238556D01*
X125272731Y-47309200D01*
X125324325Y-47372700D01*
X125348931Y-47448900D01*
X125335526Y-47530921D01*
X125295309Y-47580133D01*
X125228281Y-47596537D01*
X125167163Y-47556056D01*
X125131444Y-47455250D01*
X125116958Y-47392544D01*
X125095725Y-47325075D01*
X125068936Y-47257606D01*
X125037781Y-47194900D01*
X124994720Y-47139536D01*
X124932212Y-47094094D01*
X124852639Y-47063733D01*
X124758381Y-47053612D01*
X124669217Y-47065166D01*
X124587990Y-47099826D01*
X124514700Y-47157594D01*
X124456933Y-47235293D01*
X124422272Y-47329749D01*
X124410719Y-47440962D01*
X123898089Y-47440962D01*
X123898089Y-46520345D01*
X126121911Y-46520345D01*
G37*
%TO.C,kibuzzard-63744AEF*%
G36*
X176543587Y-88238894D02*
G01*
X176580497Y-88287908D01*
X176592800Y-88355575D01*
X176580100Y-88423044D01*
X176542000Y-88471463D01*
X176438812Y-88510356D01*
X176334037Y-88470669D01*
X176294747Y-88421456D01*
X176281650Y-88353194D01*
X176293953Y-88285328D01*
X176330862Y-88237306D01*
X176437225Y-88199206D01*
X176543587Y-88238894D01*
G37*
G36*
X174759370Y-87097614D02*
G01*
X179340630Y-87097614D01*
X179340630Y-89302386D01*
X174759370Y-89302386D01*
X174759370Y-88081731D01*
X175272000Y-88081731D01*
X175282716Y-88162297D01*
X175314862Y-88203969D01*
X175356931Y-88217463D01*
X175411700Y-88219844D01*
X175514887Y-88213494D01*
X175514887Y-88432569D01*
X175501394Y-88494481D01*
X175450594Y-88513531D01*
X175393444Y-88515913D01*
X175351375Y-88530994D01*
X175314862Y-88637356D01*
X175325975Y-88717922D01*
X175359312Y-88759594D01*
X175401381Y-88773088D01*
X175454562Y-88775469D01*
X175555810Y-88767178D01*
X175639418Y-88742308D01*
X175705387Y-88700856D01*
X175753012Y-88639649D01*
X175781587Y-88555512D01*
X175791112Y-88448444D01*
X175791112Y-88356369D01*
X176000662Y-88356369D01*
X176017728Y-88480789D01*
X176068925Y-88590525D01*
X176144530Y-88679425D01*
X176234819Y-88741338D01*
X176334236Y-88777652D01*
X176437225Y-88789756D01*
X176540412Y-88776858D01*
X176640425Y-88738163D01*
X176731111Y-88674266D01*
X176806319Y-88585763D01*
X176856920Y-88478408D01*
X176873787Y-88357956D01*
X176873590Y-88356369D01*
X176953162Y-88356369D01*
X176970228Y-88480789D01*
X177021425Y-88590525D01*
X177097030Y-88679425D01*
X177187319Y-88741338D01*
X177286736Y-88777652D01*
X177389725Y-88789756D01*
X177492913Y-88776858D01*
X177592925Y-88738163D01*
X177683611Y-88674266D01*
X177758819Y-88585763D01*
X177809420Y-88478408D01*
X177820286Y-88400819D01*
X177905663Y-88400819D01*
X177919156Y-88500919D01*
X177955404Y-88589555D01*
X178014406Y-88666725D01*
X178089813Y-88726256D01*
X178175273Y-88761975D01*
X178270788Y-88773881D01*
X178688300Y-88773881D01*
X178776406Y-88758800D01*
X178818475Y-88713556D01*
X178828000Y-88631006D01*
X178828000Y-87749944D01*
X178825619Y-87694381D01*
X178810538Y-87653106D01*
X178768469Y-87620959D01*
X178686713Y-87610244D01*
X178286663Y-87610244D01*
X178194588Y-87621533D01*
X178113096Y-87655399D01*
X178042188Y-87711844D01*
X177984861Y-87785222D01*
X177950465Y-87867772D01*
X177939000Y-87959494D01*
X177954081Y-88059903D01*
X177999325Y-88151581D01*
X177947290Y-88228663D01*
X177916069Y-88311742D01*
X177905663Y-88400819D01*
X177820286Y-88400819D01*
X177826288Y-88357956D01*
X177811471Y-88238365D01*
X177767021Y-88133590D01*
X177692938Y-88043631D01*
X177599804Y-87974840D01*
X177498204Y-87933565D01*
X177388138Y-87919806D01*
X177278247Y-87933476D01*
X177177176Y-87974487D01*
X177084925Y-88042837D01*
X177011724Y-88132355D01*
X176967803Y-88236865D01*
X176953162Y-88356369D01*
X176873590Y-88356369D01*
X176858971Y-88238365D01*
X176814521Y-88133590D01*
X176740437Y-88043631D01*
X176647304Y-87974840D01*
X176545704Y-87933565D01*
X176435637Y-87919806D01*
X176325747Y-87933476D01*
X176224676Y-87974487D01*
X176132425Y-88042837D01*
X176059224Y-88132355D01*
X176015303Y-88236865D01*
X176000662Y-88356369D01*
X175791112Y-88356369D01*
X175791112Y-88213494D01*
X175856200Y-88218256D01*
X175914144Y-88191269D01*
X175937162Y-88099194D01*
X175929225Y-88004737D01*
X175907000Y-87962669D01*
X175843500Y-87942031D01*
X175791112Y-87948381D01*
X175791112Y-87784869D01*
X175788731Y-87730894D01*
X175773650Y-87692794D01*
X175732772Y-87663028D01*
X175651412Y-87653106D01*
X175565291Y-87667791D01*
X175522825Y-87711844D01*
X175514887Y-87792806D01*
X175514887Y-87948381D01*
X175409319Y-87942031D01*
X175355344Y-87944412D01*
X175313275Y-87959494D01*
X175282319Y-88000372D01*
X175272000Y-88081731D01*
X174759370Y-88081731D01*
X174759370Y-87097614D01*
G37*
G36*
X178547013Y-88492894D02*
G01*
X178286663Y-88492894D01*
X178211653Y-88465906D01*
X178186650Y-88384944D01*
X178195381Y-88324619D01*
X178224750Y-88292869D01*
X178313650Y-88280169D01*
X178399375Y-88257944D01*
X178427950Y-88166662D01*
X178398581Y-88075381D01*
X178300950Y-88053156D01*
X178224750Y-88019819D01*
X178219988Y-87962669D01*
X178246181Y-87907106D01*
X178324763Y-87891231D01*
X178547013Y-87891231D01*
X178547013Y-88492894D01*
G37*
G36*
X177496088Y-88238894D02*
G01*
X177532997Y-88287908D01*
X177545300Y-88355575D01*
X177532600Y-88423044D01*
X177494500Y-88471463D01*
X177391313Y-88510356D01*
X177286538Y-88470669D01*
X177247247Y-88421456D01*
X177234150Y-88353194D01*
X177246453Y-88285328D01*
X177283363Y-88237306D01*
X177389725Y-88199206D01*
X177496088Y-88238894D01*
G37*
%TO.C,kibuzzard-63744691*%
G36*
X131506501Y-56350611D02*
G01*
X131506501Y-55050581D01*
X132347744Y-55050581D01*
X132369175Y-55105350D01*
X132433469Y-55147419D01*
X132833519Y-55355381D01*
X132433469Y-55563344D01*
X132389812Y-55589538D01*
X132362825Y-55617319D01*
X132349331Y-55668119D01*
X132382669Y-55755431D01*
X132433469Y-55817344D01*
X132487444Y-55837981D01*
X132574756Y-55806231D01*
X133138319Y-55477619D01*
X133186738Y-55426819D01*
X133208169Y-55357763D01*
X133191500Y-55292675D01*
X133157369Y-55249019D01*
X133139906Y-55234731D01*
X132574756Y-54904531D01*
X132489031Y-54872781D01*
X132433866Y-54893419D01*
X132382669Y-54955331D01*
X132347744Y-55050581D01*
X131506501Y-55050581D01*
X131506501Y-54363194D01*
X132019131Y-54363194D01*
X132031478Y-54484197D01*
X132068520Y-54586855D01*
X132130256Y-54671169D01*
X132207426Y-54733787D01*
X132290770Y-54771358D01*
X132380287Y-54783881D01*
X132464337Y-54770123D01*
X132531276Y-54728848D01*
X132581106Y-54660056D01*
X132592219Y-54660056D01*
X132626350Y-54706888D01*
X132677944Y-54756894D01*
X132749381Y-54796184D01*
X132830344Y-54809281D01*
X132936971Y-54795170D01*
X133030369Y-54752837D01*
X133110538Y-54682281D01*
X133171833Y-54590383D01*
X133208610Y-54484020D01*
X133220869Y-54363194D01*
X133208522Y-54243249D01*
X133171480Y-54137416D01*
X133109744Y-54045694D01*
X133060134Y-54000847D01*
X132997031Y-53961556D01*
X132955756Y-53944094D01*
X132939881Y-53940919D01*
X132854156Y-53923456D01*
X132785100Y-53962350D01*
X132762081Y-54079031D01*
X132777956Y-54163169D01*
X132860506Y-54210794D01*
X132936706Y-54298106D01*
X132946231Y-54364781D01*
X132937698Y-54437806D01*
X132912100Y-54488606D01*
X132835106Y-54528294D01*
X132759700Y-54489400D01*
X132727156Y-54397325D01*
X132723981Y-54325094D01*
X132708106Y-54283819D01*
X132667228Y-54251672D01*
X132585869Y-54240956D01*
X132497366Y-54255641D01*
X132454106Y-54299694D01*
X132446169Y-54382244D01*
X132430691Y-54472731D01*
X132384256Y-54502894D01*
X132320756Y-54471144D01*
X132290594Y-54383038D01*
X132309644Y-54293344D01*
X132347744Y-54252069D01*
X132366794Y-54242544D01*
X132426325Y-54198094D01*
X132446169Y-54137769D01*
X132417594Y-54050456D01*
X132367984Y-53990925D01*
X132311231Y-53971081D01*
X132203281Y-54007594D01*
X132153275Y-54042519D01*
X132090569Y-54108400D01*
X132041356Y-54213175D01*
X132024687Y-54284414D01*
X132019131Y-54363194D01*
X131506501Y-54363194D01*
X131506501Y-53684537D01*
X132904956Y-53684537D01*
X132913291Y-53765698D01*
X132938294Y-53817094D01*
X133049419Y-53844081D01*
X133055769Y-53844081D01*
X133112125Y-53841700D01*
X133155781Y-53825031D01*
X133190309Y-53783161D01*
X133201819Y-53705175D01*
X133194278Y-53625403D01*
X133171656Y-53578175D01*
X133057356Y-53547219D01*
X133051006Y-53547219D01*
X132995444Y-53549600D01*
X132952581Y-53564681D01*
X132916863Y-53606552D01*
X132904956Y-53684537D01*
X131506501Y-53684537D01*
X131506501Y-53021756D01*
X132019131Y-53021756D01*
X132031478Y-53142759D01*
X132068520Y-53245417D01*
X132130256Y-53329731D01*
X132207426Y-53392349D01*
X132290770Y-53429920D01*
X132380287Y-53442444D01*
X132464337Y-53428685D01*
X132531276Y-53387410D01*
X132581106Y-53318619D01*
X132592219Y-53318619D01*
X132626350Y-53365450D01*
X132677944Y-53415456D01*
X132749381Y-53454747D01*
X132830344Y-53467844D01*
X132936971Y-53453733D01*
X133030369Y-53411399D01*
X133110538Y-53340844D01*
X133171833Y-53248945D01*
X133208610Y-53142583D01*
X133220869Y-53021756D01*
X133208522Y-52901812D01*
X133171480Y-52795978D01*
X133109744Y-52704256D01*
X133060134Y-52659409D01*
X132997031Y-52620119D01*
X132955756Y-52602656D01*
X132939881Y-52599481D01*
X132854156Y-52582019D01*
X132785100Y-52620912D01*
X132762081Y-52737594D01*
X132777956Y-52821731D01*
X132860506Y-52869356D01*
X132936706Y-52956669D01*
X132946231Y-53023344D01*
X132937698Y-53096369D01*
X132912100Y-53147169D01*
X132835106Y-53186856D01*
X132759700Y-53147962D01*
X132727156Y-53055887D01*
X132723981Y-52983656D01*
X132708106Y-52942381D01*
X132667228Y-52910234D01*
X132585869Y-52899519D01*
X132497366Y-52914203D01*
X132454106Y-52958256D01*
X132446169Y-53040806D01*
X132430691Y-53131294D01*
X132384256Y-53161456D01*
X132320756Y-53129706D01*
X132290594Y-53041600D01*
X132309644Y-52951906D01*
X132347744Y-52910631D01*
X132366794Y-52901106D01*
X132426325Y-52856656D01*
X132446169Y-52796331D01*
X132417594Y-52709019D01*
X132367984Y-52649487D01*
X132311231Y-52629644D01*
X132203281Y-52666156D01*
X132153275Y-52701081D01*
X132090569Y-52766962D01*
X132041356Y-52871737D01*
X132024687Y-52942977D01*
X132019131Y-53021756D01*
X131506501Y-53021756D01*
X131506501Y-52069389D01*
X133733499Y-52069389D01*
X133733499Y-56350611D01*
X131506501Y-56350611D01*
G37*
%TO.C,kibuzzard-63744604*%
G36*
X123217743Y-38571911D02*
G01*
X119122257Y-38571911D01*
X119122257Y-37683044D01*
X119634887Y-37683044D01*
X119647676Y-37784115D01*
X119686040Y-37873544D01*
X119749981Y-37951331D01*
X119832090Y-38011303D01*
X119924959Y-38047287D01*
X120028587Y-38059281D01*
X120154882Y-38044553D01*
X120258599Y-38000367D01*
X120339737Y-37926725D01*
X120354514Y-37902119D01*
X120547700Y-37902119D01*
X120550081Y-37956888D01*
X120565162Y-37998956D01*
X120607231Y-38031103D01*
X120688987Y-38041819D01*
X120768759Y-38031500D01*
X120811225Y-38000544D01*
X120826306Y-37956888D01*
X120828687Y-37898944D01*
X120828687Y-37452062D01*
X121170000Y-37452062D01*
X121180319Y-37573209D01*
X121211275Y-37685028D01*
X121262869Y-37787521D01*
X121335100Y-37880688D01*
X121422412Y-37958128D01*
X121519250Y-38013442D01*
X121625613Y-38046631D01*
X121741500Y-38057694D01*
X121857636Y-38046780D01*
X121964742Y-38014038D01*
X122062820Y-37959467D01*
X122133365Y-37898944D01*
X122424125Y-37898944D01*
X122426506Y-37954506D01*
X122441588Y-37995781D01*
X122483656Y-38027928D01*
X122565413Y-38038644D01*
X122653519Y-38023563D01*
X122695588Y-37978319D01*
X122705113Y-37897356D01*
X122705113Y-37014706D01*
X122702731Y-36959938D01*
X122687650Y-36917869D01*
X122645581Y-36885722D01*
X122563825Y-36875006D01*
X122475322Y-36889691D01*
X122432063Y-36933744D01*
X122424125Y-37016294D01*
X122424125Y-37898944D01*
X122133365Y-37898944D01*
X122151869Y-37883069D01*
X122225836Y-37791589D01*
X122278670Y-37691775D01*
X122310371Y-37583627D01*
X122320938Y-37467144D01*
X122309031Y-37339548D01*
X122273313Y-37220287D01*
X122217750Y-37114520D01*
X122146313Y-37027406D01*
X122060984Y-36957953D01*
X121963750Y-36905169D01*
X121858975Y-36871831D01*
X121751025Y-36860719D01*
X121637420Y-36871335D01*
X121531553Y-36903184D01*
X121433426Y-36956266D01*
X121343038Y-37030581D01*
X121267334Y-37120622D01*
X121213259Y-37220883D01*
X121180815Y-37331363D01*
X121170000Y-37452062D01*
X120828687Y-37452062D01*
X120828687Y-37332206D01*
X120849325Y-37351256D01*
X120960450Y-37400469D01*
X121056494Y-37344906D01*
X121106500Y-37246481D01*
X121049350Y-37152819D01*
X120789000Y-36917869D01*
X120784237Y-36914694D01*
X120694544Y-36873419D01*
X120619137Y-36881356D01*
X120577862Y-36899612D01*
X120555637Y-36933744D01*
X120547700Y-37017881D01*
X120547700Y-37902119D01*
X120354514Y-37902119D01*
X120397946Y-37829799D01*
X120432871Y-37715764D01*
X120444512Y-37584619D01*
X120437623Y-37467334D01*
X120416953Y-37358051D01*
X120382505Y-37256768D01*
X120334276Y-37163487D01*
X120272269Y-37078206D01*
X120198323Y-37005054D01*
X120114281Y-36948158D01*
X120020142Y-36907518D01*
X119915907Y-36883134D01*
X119801575Y-36875006D01*
X119713469Y-36890087D01*
X119676162Y-36935331D01*
X119666637Y-37011531D01*
X119674575Y-37084556D01*
X119693625Y-37125831D01*
X119725375Y-37146469D01*
X119817450Y-37155994D01*
X119943656Y-37178219D01*
X120039700Y-37232194D01*
X120096056Y-37294106D01*
X120125425Y-37349669D01*
X120133362Y-37371894D01*
X120015887Y-37344906D01*
X119916140Y-37356460D01*
X119826446Y-37391120D01*
X119746806Y-37448887D01*
X119684629Y-37521119D01*
X119647323Y-37599171D01*
X119634887Y-37683044D01*
X119122257Y-37683044D01*
X119122257Y-36348089D01*
X123217743Y-36348089D01*
X123217743Y-38571911D01*
G37*
G36*
X121853419Y-37163733D02*
G01*
X121949463Y-37229812D01*
X121999733Y-37294459D01*
X122029896Y-37370924D01*
X122039950Y-37459206D01*
X122029808Y-37547489D01*
X121999381Y-37623953D01*
X121948669Y-37688600D01*
X121852030Y-37754680D01*
X121744675Y-37776706D01*
X121637519Y-37755275D01*
X121541475Y-37690981D01*
X121491204Y-37627305D01*
X121461042Y-37550576D01*
X121450988Y-37460794D01*
X121461130Y-37370835D01*
X121491557Y-37293577D01*
X121542269Y-37229019D01*
X121638908Y-37163534D01*
X121746263Y-37141706D01*
X121853419Y-37163733D01*
G37*
G36*
X120123044Y-37621925D02*
G01*
X120155588Y-37681456D01*
X120151619Y-37727494D01*
X120136537Y-37762419D01*
X120034937Y-37798931D01*
X119943259Y-37772341D01*
X119912700Y-37692569D01*
X119940481Y-37624306D01*
X120029381Y-37592556D01*
X120123044Y-37621925D01*
G37*
%TO.C,kibuzzard-6374476F*%
G36*
X174050299Y-38577943D02*
G01*
X169689701Y-38577943D01*
X169689701Y-37070744D01*
X170202331Y-37070744D01*
X170235669Y-37158850D01*
X170294406Y-37223144D01*
X170346794Y-37244575D01*
X170427756Y-37209650D01*
X170505544Y-37169169D01*
X170605556Y-37155675D01*
X170707950Y-37173534D01*
X170808756Y-37227112D01*
X170888131Y-37325537D01*
X170911944Y-37393205D01*
X170919881Y-37469206D01*
X170911944Y-37545208D01*
X170888131Y-37612875D01*
X170807169Y-37712888D01*
X170708347Y-37765275D01*
X170605556Y-37782738D01*
X170512687Y-37770038D01*
X170449981Y-37744638D01*
X170421406Y-37724000D01*
X170345206Y-37692250D01*
X170294009Y-37714475D01*
X170238844Y-37781150D01*
X170203919Y-37870050D01*
X170225350Y-37925613D01*
X170275356Y-37965300D01*
X170330125Y-37998638D01*
X170437281Y-38039913D01*
X170516855Y-38058963D01*
X170593650Y-38065313D01*
X170669453Y-38060352D01*
X170746050Y-38045469D01*
X170824234Y-38018878D01*
X170904800Y-37978794D01*
X170982389Y-37926803D01*
X171051644Y-37864494D01*
X171110977Y-37787500D01*
X171158800Y-37691456D01*
X171190352Y-37581323D01*
X171200869Y-37462062D01*
X171190550Y-37343992D01*
X171159594Y-37237431D01*
X171112564Y-37145356D01*
X171054025Y-37070744D01*
X171280244Y-37070744D01*
X171313581Y-37158850D01*
X171372319Y-37223144D01*
X171424706Y-37244575D01*
X171505669Y-37209650D01*
X171583456Y-37169169D01*
X171683469Y-37155675D01*
X171785862Y-37173534D01*
X171886669Y-37227112D01*
X171966044Y-37325537D01*
X171989856Y-37393205D01*
X171997794Y-37469206D01*
X171989856Y-37545208D01*
X171966044Y-37612875D01*
X171885081Y-37712888D01*
X171786259Y-37765275D01*
X171683469Y-37782738D01*
X171590600Y-37770038D01*
X171527894Y-37744638D01*
X171499319Y-37724000D01*
X171423119Y-37692250D01*
X171371922Y-37714475D01*
X171316756Y-37781150D01*
X171281831Y-37870050D01*
X171303262Y-37925613D01*
X171353269Y-37965300D01*
X171408037Y-37998638D01*
X171515194Y-38039913D01*
X171594767Y-38058963D01*
X171671562Y-38065313D01*
X171747366Y-38060352D01*
X171823962Y-38045469D01*
X171902147Y-38018878D01*
X171982713Y-37978794D01*
X172060302Y-37926803D01*
X172129556Y-37864494D01*
X172188889Y-37787500D01*
X172236713Y-37691456D01*
X172268264Y-37581323D01*
X172278781Y-37462062D01*
X172268463Y-37343992D01*
X172237506Y-37237431D01*
X172190477Y-37145356D01*
X172131938Y-37070744D01*
X172063080Y-37010220D01*
X172054691Y-37004862D01*
X172342281Y-37004862D01*
X172366094Y-37081062D01*
X172804244Y-37970062D01*
X172857425Y-38026419D01*
X172931244Y-38047850D01*
X172947119Y-38047850D01*
X173022525Y-38026419D01*
X173075706Y-37970062D01*
X173513856Y-37081062D01*
X173537669Y-37004862D01*
X173514253Y-36951681D01*
X173444006Y-36903262D01*
X173363838Y-36876275D01*
X173321769Y-36882625D01*
X173294781Y-36904850D01*
X173268588Y-36946919D01*
X173247355Y-36991369D01*
X173207469Y-37078681D01*
X173156470Y-37190798D01*
X173101900Y-37309662D01*
X173047131Y-37428527D01*
X172995538Y-37540644D01*
X172956445Y-37625377D01*
X172939181Y-37662088D01*
X172621681Y-36966762D01*
X172599456Y-36919137D01*
X172529606Y-36876275D01*
X172435944Y-36903262D01*
X172365697Y-36951681D01*
X172342281Y-37004862D01*
X172054691Y-37004862D01*
X171985094Y-36960412D01*
X171881201Y-36912787D01*
X171776955Y-36884212D01*
X171672356Y-36874687D01*
X171597148Y-36880442D01*
X171520750Y-36897706D01*
X171404069Y-36944537D01*
X171365969Y-36966762D01*
X171321519Y-36995337D01*
X171280244Y-37070744D01*
X171054025Y-37070744D01*
X170985167Y-37010220D01*
X170907181Y-36960412D01*
X170803288Y-36912787D01*
X170699042Y-36884212D01*
X170594444Y-36874687D01*
X170519236Y-36880442D01*
X170442837Y-36897706D01*
X170326156Y-36944537D01*
X170288056Y-36966762D01*
X170243606Y-36995337D01*
X170202331Y-37070744D01*
X169689701Y-37070744D01*
X169689701Y-36362057D01*
X174050299Y-36362057D01*
X174050299Y-38577943D01*
G37*
%TO.C,kibuzzard-637448C4*%
G36*
X172769794Y-49844527D02*
G01*
X172865838Y-49910606D01*
X172916108Y-49975253D01*
X172946271Y-50051717D01*
X172956325Y-50140000D01*
X172946183Y-50228283D01*
X172915756Y-50304747D01*
X172865044Y-50369394D01*
X172768405Y-50435473D01*
X172661050Y-50457500D01*
X172553894Y-50436069D01*
X172457850Y-50371775D01*
X172407579Y-50308099D01*
X172377417Y-50231369D01*
X172367363Y-50141588D01*
X172377505Y-50051629D01*
X172407932Y-49974371D01*
X172458644Y-49909812D01*
X172555283Y-49844328D01*
X172662638Y-49822500D01*
X172769794Y-49844527D01*
G37*
G36*
X171634930Y-49839318D02*
G01*
X171685531Y-49899295D01*
X171715892Y-49999258D01*
X171726012Y-50139206D01*
X171715991Y-50279154D01*
X171685928Y-50379117D01*
X171635823Y-50439095D01*
X171565675Y-50459088D01*
X171494138Y-50439641D01*
X171443041Y-50381300D01*
X171412382Y-50284066D01*
X171402162Y-50147938D01*
X171402162Y-50138412D01*
X171412283Y-49998812D01*
X171442644Y-49899097D01*
X171493245Y-49839268D01*
X171564087Y-49819325D01*
X171634930Y-49839318D01*
G37*
G36*
X174134118Y-51254293D02*
G01*
X169625882Y-51254293D01*
X169625882Y-50582119D01*
X170138512Y-50582119D01*
X170148831Y-50662288D01*
X170182962Y-50703563D01*
X170281387Y-50722613D01*
X170902100Y-50722613D01*
X171000525Y-50679750D01*
X171041800Y-50579738D01*
X171026917Y-50497386D01*
X170982269Y-50421781D01*
X170916586Y-50354709D01*
X170838600Y-50297956D01*
X170754462Y-50246759D01*
X170670325Y-50196356D01*
X170592339Y-50142977D01*
X170589087Y-50140000D01*
X171121175Y-50140000D01*
X171128914Y-50276227D01*
X171152131Y-50397572D01*
X171190827Y-50504034D01*
X171245000Y-50595613D01*
X171299967Y-50653556D01*
X171372794Y-50700388D01*
X171461098Y-50731344D01*
X171562500Y-50741663D01*
X171664298Y-50731145D01*
X171753794Y-50699594D01*
X171828009Y-50652564D01*
X171883969Y-50595613D01*
X171926633Y-50527747D01*
X171960963Y-50447975D01*
X171986539Y-50352901D01*
X172001885Y-50249714D01*
X172007000Y-50138412D01*
X172006771Y-50132856D01*
X172086375Y-50132856D01*
X172096694Y-50254002D01*
X172127650Y-50365822D01*
X172179244Y-50468315D01*
X172251475Y-50561481D01*
X172338788Y-50638921D01*
X172435625Y-50694236D01*
X172541988Y-50727425D01*
X172657875Y-50738488D01*
X172774011Y-50727573D01*
X172881117Y-50694831D01*
X172979195Y-50640261D01*
X173049740Y-50579738D01*
X173340500Y-50579738D01*
X173342881Y-50635300D01*
X173357963Y-50676575D01*
X173400031Y-50708722D01*
X173481788Y-50719438D01*
X173569894Y-50704356D01*
X173611963Y-50659113D01*
X173621488Y-50578150D01*
X173621488Y-49695500D01*
X173619106Y-49640731D01*
X173604025Y-49598662D01*
X173561956Y-49566516D01*
X173480200Y-49555800D01*
X173391697Y-49570484D01*
X173348438Y-49614537D01*
X173340500Y-49697087D01*
X173340500Y-50579738D01*
X173049740Y-50579738D01*
X173068244Y-50563863D01*
X173142211Y-50472383D01*
X173195045Y-50372569D01*
X173226746Y-50264420D01*
X173237313Y-50147938D01*
X173225406Y-50020342D01*
X173189688Y-49901081D01*
X173134125Y-49795314D01*
X173062688Y-49708200D01*
X172977359Y-49638747D01*
X172880125Y-49585962D01*
X172775350Y-49552625D01*
X172667400Y-49541512D01*
X172553795Y-49552129D01*
X172447928Y-49583978D01*
X172349801Y-49637060D01*
X172259413Y-49711375D01*
X172183709Y-49801416D01*
X172129634Y-49901677D01*
X172097190Y-50012157D01*
X172086375Y-50132856D01*
X172006771Y-50132856D01*
X172002855Y-50037694D01*
X171990419Y-49947207D01*
X171969694Y-49866950D01*
X171930205Y-49766342D01*
X171886350Y-49689944D01*
X171830986Y-49630809D01*
X171756969Y-49581994D01*
X171667077Y-49549252D01*
X171564087Y-49538337D01*
X171461495Y-49549053D01*
X171372794Y-49581200D01*
X171299769Y-49629222D01*
X171244206Y-49687562D01*
X171201939Y-49756619D01*
X171168800Y-49836787D01*
X171142342Y-49933978D01*
X171126467Y-50035049D01*
X171121175Y-50140000D01*
X170589087Y-50140000D01*
X170526656Y-50082850D01*
X170482008Y-50017366D01*
X170467125Y-49947912D01*
X170478237Y-49907431D01*
X170502844Y-49864569D01*
X170544912Y-49833612D01*
X170624287Y-49819325D01*
X170712394Y-49856631D01*
X170754462Y-49930450D01*
X170760812Y-49966962D01*
X170760812Y-49976487D01*
X170763194Y-50028875D01*
X170778275Y-50068562D01*
X170821137Y-50097137D01*
X170902100Y-50106662D01*
X170990603Y-50091581D01*
X171033862Y-50046337D01*
X171041800Y-49965375D01*
X171028659Y-49859101D01*
X170989236Y-49760411D01*
X170923531Y-49669306D01*
X170836572Y-49596546D01*
X170733384Y-49552890D01*
X170613969Y-49538337D01*
X170494465Y-49553066D01*
X170391013Y-49597251D01*
X170303612Y-49670894D01*
X170237467Y-49763410D01*
X170197779Y-49864216D01*
X170184550Y-49973312D01*
X170194472Y-50061419D01*
X170224237Y-50144763D01*
X170267894Y-50217788D01*
X170319487Y-50274938D01*
X170430612Y-50362647D01*
X170529037Y-50416225D01*
X170568725Y-50432100D01*
X170568725Y-50440038D01*
X170278212Y-50440038D01*
X170185344Y-50455119D01*
X170148037Y-50501156D01*
X170138512Y-50582119D01*
X169625882Y-50582119D01*
X169625882Y-49025707D01*
X174134118Y-49025707D01*
X174134118Y-51254293D01*
G37*
%TO.C,kibuzzard-637446E5*%
G36*
X126448089Y-50810586D02*
G01*
X126448089Y-49220569D01*
X126979769Y-49220569D01*
X126994453Y-49309072D01*
X127038506Y-49352331D01*
X127121056Y-49360269D01*
X127908456Y-49360269D01*
X127908456Y-49792069D01*
X127920363Y-49868269D01*
X127957669Y-49900019D01*
X128025138Y-49907956D01*
X128092606Y-49900019D01*
X128127531Y-49873031D01*
X128143406Y-49790481D01*
X128143406Y-49218981D01*
X128128325Y-49130875D01*
X128083081Y-49088806D01*
X128002119Y-49079281D01*
X127119469Y-49079281D01*
X127064700Y-49081663D01*
X127022631Y-49096744D01*
X126990484Y-49138813D01*
X126979769Y-49220569D01*
X126448089Y-49220569D01*
X126448089Y-48583981D01*
X126968656Y-48583981D01*
X126974411Y-48659189D01*
X126991675Y-48735588D01*
X127038506Y-48852269D01*
X127060731Y-48890369D01*
X127089306Y-48934819D01*
X127164712Y-48976094D01*
X127252819Y-48942756D01*
X127317112Y-48884019D01*
X127338544Y-48831631D01*
X127303619Y-48750669D01*
X127263137Y-48672881D01*
X127249644Y-48572869D01*
X127267503Y-48470475D01*
X127321081Y-48369669D01*
X127419506Y-48290294D01*
X127487173Y-48266481D01*
X127563175Y-48258544D01*
X127639177Y-48266481D01*
X127706844Y-48290294D01*
X127806856Y-48371256D01*
X127859244Y-48470078D01*
X127876706Y-48572869D01*
X127864006Y-48665738D01*
X127838606Y-48728444D01*
X127817969Y-48757019D01*
X127786219Y-48833219D01*
X127808444Y-48884416D01*
X127875119Y-48939581D01*
X127964019Y-48974506D01*
X128019581Y-48953075D01*
X128059269Y-48903069D01*
X128092606Y-48848300D01*
X128133881Y-48741144D01*
X128152931Y-48661570D01*
X128159281Y-48584775D01*
X128154320Y-48508972D01*
X128139438Y-48432375D01*
X128112847Y-48354191D01*
X128072763Y-48273625D01*
X128020772Y-48196036D01*
X127958463Y-48126781D01*
X127881469Y-48067448D01*
X127785425Y-48019625D01*
X127675292Y-47988073D01*
X127556031Y-47977556D01*
X127437961Y-47987875D01*
X127331400Y-48018831D01*
X127239325Y-48065861D01*
X127164712Y-48124400D01*
X127104189Y-48193258D01*
X127054381Y-48271244D01*
X127006756Y-48375137D01*
X126978181Y-48479383D01*
X126968656Y-48583981D01*
X126448089Y-48583981D01*
X126448089Y-47460031D01*
X126960719Y-47460031D01*
X126966870Y-47551114D01*
X126985325Y-47633862D01*
X127035331Y-47742606D01*
X127065494Y-47782294D01*
X127143281Y-47831506D01*
X127230594Y-47793406D01*
X127290125Y-47738637D01*
X127309969Y-47682281D01*
X127278219Y-47599731D01*
X127262344Y-47581475D01*
X127241706Y-47556869D01*
X127221069Y-47471937D01*
X127245675Y-47386212D01*
X127313937Y-47352081D01*
X127384581Y-47392562D01*
X127421094Y-47493369D01*
X127433198Y-47556472D01*
X127450462Y-47625131D01*
X127472489Y-47693791D01*
X127498881Y-47756894D01*
X127537973Y-47812258D01*
X127598100Y-47857700D01*
X127676880Y-47888061D01*
X127771931Y-47898181D01*
X127868967Y-47887862D01*
X127953700Y-47856906D01*
X128023352Y-47809281D01*
X128075144Y-47748956D01*
X128121887Y-47661291D01*
X128149933Y-47569745D01*
X128159281Y-47474319D01*
X128154717Y-47401691D01*
X128141025Y-47333031D01*
X128095781Y-47225081D01*
X128045775Y-47153644D01*
X127997356Y-47107606D01*
X127979894Y-47093319D01*
X127888613Y-47052044D01*
X127841583Y-47069109D01*
X127781456Y-47120306D01*
X127743356Y-47204444D01*
X127763200Y-47257625D01*
X127822731Y-47328269D01*
X127874325Y-47391769D01*
X127898931Y-47467969D01*
X127885526Y-47549990D01*
X127845309Y-47599202D01*
X127778281Y-47615606D01*
X127717163Y-47575125D01*
X127681444Y-47474319D01*
X127666958Y-47411612D01*
X127645725Y-47344144D01*
X127618936Y-47276675D01*
X127587781Y-47213969D01*
X127544720Y-47158605D01*
X127482212Y-47113162D01*
X127402639Y-47082802D01*
X127308381Y-47072681D01*
X127219217Y-47084235D01*
X127137990Y-47118895D01*
X127064700Y-47176662D01*
X127006933Y-47254362D01*
X126972272Y-47348818D01*
X126960719Y-47460031D01*
X126448089Y-47460031D01*
X126448089Y-46539414D01*
X128671911Y-46539414D01*
X128671911Y-50810586D01*
X126448089Y-50810586D01*
G37*
%TO.C,kibuzzard-63744BAB*%
G36*
X114397094Y-113316114D02*
G01*
X114493138Y-113382194D01*
X114543408Y-113446840D01*
X114573571Y-113523305D01*
X114583625Y-113611588D01*
X114573483Y-113699870D01*
X114543056Y-113776335D01*
X114492344Y-113840981D01*
X114395705Y-113907061D01*
X114288350Y-113929088D01*
X114181194Y-113907656D01*
X114085150Y-113843363D01*
X114034879Y-113779686D01*
X114004717Y-113702957D01*
X113994663Y-113613175D01*
X114004805Y-113523217D01*
X114035232Y-113445958D01*
X114085944Y-113381400D01*
X114182583Y-113315916D01*
X114289938Y-113294087D01*
X114397094Y-113316114D01*
G37*
G36*
X115761418Y-114722705D02*
G01*
X111278582Y-114722705D01*
X111278582Y-114053706D01*
X111791212Y-114053706D01*
X111801531Y-114133875D01*
X111835662Y-114175150D01*
X111934087Y-114194200D01*
X112554800Y-114194200D01*
X112653225Y-114151338D01*
X112694500Y-114051325D01*
X112694213Y-114049738D01*
X112797687Y-114049738D01*
X112812769Y-114141019D01*
X112858806Y-114179913D01*
X112935800Y-114189438D01*
X113008825Y-114181500D01*
X113050100Y-114162450D01*
X113070737Y-114130700D01*
X113080262Y-114048150D01*
X113080262Y-113854475D01*
X113510475Y-113854475D01*
X113598978Y-113839394D01*
X113642238Y-113794150D01*
X113650175Y-113725888D01*
X113645413Y-113662388D01*
X113631057Y-113604444D01*
X113713675Y-113604444D01*
X113723994Y-113725590D01*
X113754950Y-113837409D01*
X113806544Y-113939902D01*
X113878775Y-114033069D01*
X113966088Y-114110509D01*
X114062925Y-114165823D01*
X114169288Y-114199012D01*
X114285175Y-114210075D01*
X114401311Y-114199161D01*
X114508417Y-114166419D01*
X114606495Y-114111848D01*
X114677040Y-114051325D01*
X114967800Y-114051325D01*
X114970181Y-114106888D01*
X114985263Y-114148163D01*
X115027331Y-114180309D01*
X115109088Y-114191025D01*
X115197194Y-114175944D01*
X115239263Y-114130700D01*
X115248788Y-114049738D01*
X115248788Y-113167087D01*
X115246406Y-113112319D01*
X115231325Y-113070250D01*
X115189256Y-113038103D01*
X115107500Y-113027387D01*
X115018997Y-113042072D01*
X114975738Y-113086125D01*
X114967800Y-113168675D01*
X114967800Y-114051325D01*
X114677040Y-114051325D01*
X114695544Y-114035450D01*
X114769511Y-113943970D01*
X114822345Y-113844156D01*
X114854046Y-113736008D01*
X114864613Y-113619525D01*
X114852706Y-113491930D01*
X114816988Y-113372669D01*
X114761425Y-113266902D01*
X114689988Y-113179787D01*
X114604659Y-113110334D01*
X114507425Y-113057550D01*
X114402650Y-113024212D01*
X114294700Y-113013100D01*
X114181095Y-113023716D01*
X114075228Y-113055566D01*
X113977101Y-113108648D01*
X113886713Y-113182962D01*
X113811009Y-113273004D01*
X113756934Y-113373264D01*
X113724490Y-113483744D01*
X113713675Y-113604444D01*
X113631057Y-113604444D01*
X113513650Y-113130575D01*
X113496981Y-113075012D01*
X113468406Y-113038500D01*
X113413637Y-113021037D01*
X113340612Y-113032150D01*
X113257269Y-113072631D01*
X113229487Y-113133750D01*
X113240600Y-113200425D01*
X113242187Y-113205187D01*
X113339025Y-113592537D01*
X113080262Y-113592537D01*
X113080262Y-113159150D01*
X113077881Y-113105175D01*
X113062800Y-113065487D01*
X113019144Y-113034531D01*
X112938181Y-113025800D01*
X112858012Y-113036119D01*
X112815150Y-113069456D01*
X112800069Y-113111525D01*
X112797687Y-113167087D01*
X112797687Y-114049738D01*
X112694213Y-114049738D01*
X112679617Y-113968973D01*
X112634969Y-113893369D01*
X112569286Y-113826297D01*
X112491300Y-113769544D01*
X112407162Y-113718347D01*
X112323025Y-113667944D01*
X112245039Y-113614564D01*
X112179356Y-113554437D01*
X112134708Y-113488953D01*
X112119825Y-113419500D01*
X112130937Y-113379019D01*
X112155544Y-113336156D01*
X112197612Y-113305200D01*
X112276987Y-113290912D01*
X112365094Y-113328219D01*
X112407162Y-113402037D01*
X112413512Y-113438550D01*
X112413512Y-113448075D01*
X112415894Y-113500462D01*
X112430975Y-113540150D01*
X112473837Y-113568725D01*
X112554800Y-113578250D01*
X112643303Y-113563169D01*
X112686562Y-113517925D01*
X112694500Y-113436962D01*
X112681359Y-113330688D01*
X112641936Y-113231999D01*
X112576231Y-113140894D01*
X112489272Y-113068133D01*
X112386084Y-113024477D01*
X112266669Y-113009925D01*
X112147165Y-113024653D01*
X112043713Y-113068839D01*
X111956312Y-113142481D01*
X111890167Y-113234997D01*
X111850479Y-113335803D01*
X111837250Y-113444900D01*
X111847172Y-113533006D01*
X111876937Y-113616350D01*
X111920594Y-113689375D01*
X111972187Y-113746525D01*
X112083312Y-113834234D01*
X112181737Y-113887813D01*
X112221425Y-113903688D01*
X112221425Y-113911625D01*
X111930912Y-113911625D01*
X111838044Y-113926706D01*
X111800737Y-113972744D01*
X111791212Y-114053706D01*
X111278582Y-114053706D01*
X111278582Y-112497295D01*
X115761418Y-112497295D01*
X115761418Y-114722705D01*
G37*
%TO.C,kibuzzard-637447F3*%
G36*
X171204748Y-31999318D02*
G01*
X171255350Y-32059295D01*
X171285711Y-32159258D01*
X171295831Y-32299206D01*
X171285810Y-32439154D01*
X171255747Y-32539117D01*
X171205641Y-32599095D01*
X171135494Y-32619088D01*
X171063957Y-32599641D01*
X171012859Y-32541300D01*
X170982201Y-32444066D01*
X170971981Y-32307938D01*
X170971981Y-32298412D01*
X170982102Y-32158812D01*
X171012462Y-32059097D01*
X171063064Y-31999268D01*
X171133906Y-31979325D01*
X171204748Y-31999318D01*
G37*
G36*
X173703936Y-33414293D02*
G01*
X169556064Y-33414293D01*
X169556064Y-32742913D01*
X170068694Y-32742913D01*
X170071075Y-32797681D01*
X170086156Y-32839750D01*
X170128225Y-32871897D01*
X170209981Y-32882613D01*
X170289753Y-32872294D01*
X170332219Y-32841338D01*
X170347300Y-32797681D01*
X170349681Y-32739738D01*
X170349681Y-32300000D01*
X170690994Y-32300000D01*
X170698733Y-32436227D01*
X170721950Y-32557572D01*
X170760645Y-32664034D01*
X170814819Y-32755613D01*
X170869786Y-32813556D01*
X170942612Y-32860388D01*
X171030917Y-32891344D01*
X171132319Y-32901663D01*
X171234117Y-32891145D01*
X171323612Y-32859594D01*
X171397828Y-32812564D01*
X171453787Y-32755613D01*
X171496452Y-32687747D01*
X171530781Y-32607975D01*
X171556358Y-32512901D01*
X171571703Y-32409714D01*
X171576819Y-32298412D01*
X171576590Y-32292856D01*
X171656194Y-32292856D01*
X171666513Y-32414002D01*
X171697469Y-32525822D01*
X171749063Y-32628315D01*
X171821294Y-32721481D01*
X171908606Y-32798921D01*
X172005444Y-32854236D01*
X172111806Y-32887425D01*
X172227694Y-32898488D01*
X172343829Y-32887573D01*
X172450936Y-32854831D01*
X172549014Y-32800261D01*
X172619559Y-32739738D01*
X172910319Y-32739738D01*
X172912700Y-32795300D01*
X172927781Y-32836575D01*
X172969850Y-32868722D01*
X173051606Y-32879438D01*
X173139713Y-32864356D01*
X173181781Y-32819113D01*
X173191306Y-32738150D01*
X173191306Y-31855500D01*
X173188925Y-31800731D01*
X173173844Y-31758662D01*
X173131775Y-31726516D01*
X173050019Y-31715800D01*
X172961516Y-31730484D01*
X172918256Y-31774537D01*
X172910319Y-31857087D01*
X172910319Y-32739738D01*
X172619559Y-32739738D01*
X172638063Y-32723863D01*
X172712030Y-32632383D01*
X172764864Y-32532569D01*
X172796564Y-32424420D01*
X172807131Y-32307938D01*
X172795225Y-32180342D01*
X172759506Y-32061081D01*
X172703944Y-31955314D01*
X172632506Y-31868200D01*
X172547178Y-31798747D01*
X172449944Y-31745962D01*
X172345169Y-31712625D01*
X172237219Y-31701512D01*
X172123613Y-31712129D01*
X172017747Y-31743978D01*
X171919620Y-31797060D01*
X171829231Y-31871375D01*
X171753527Y-31961416D01*
X171699453Y-32061677D01*
X171667009Y-32172157D01*
X171656194Y-32292856D01*
X171576590Y-32292856D01*
X171572674Y-32197694D01*
X171560238Y-32107207D01*
X171539512Y-32026950D01*
X171500023Y-31926342D01*
X171456169Y-31849944D01*
X171400805Y-31790809D01*
X171326787Y-31741994D01*
X171236895Y-31709252D01*
X171133906Y-31698337D01*
X171031314Y-31709053D01*
X170942612Y-31741200D01*
X170869587Y-31789222D01*
X170814025Y-31847562D01*
X170771758Y-31916619D01*
X170738619Y-31996787D01*
X170712160Y-32093978D01*
X170696285Y-32195049D01*
X170690994Y-32300000D01*
X170349681Y-32300000D01*
X170349681Y-32173000D01*
X170370319Y-32192050D01*
X170481444Y-32241262D01*
X170577487Y-32185700D01*
X170627494Y-32087275D01*
X170570344Y-31993612D01*
X170309994Y-31758662D01*
X170305231Y-31755487D01*
X170215537Y-31714212D01*
X170140131Y-31722150D01*
X170098856Y-31740406D01*
X170076631Y-31774537D01*
X170068694Y-31858675D01*
X170068694Y-32742913D01*
X169556064Y-32742913D01*
X169556064Y-31185707D01*
X173703936Y-31185707D01*
X173703936Y-33414293D01*
G37*
G36*
X172339613Y-32004527D02*
G01*
X172435656Y-32070606D01*
X172485927Y-32135253D01*
X172516090Y-32211717D01*
X172526144Y-32300000D01*
X172516001Y-32388283D01*
X172485574Y-32464747D01*
X172434863Y-32529394D01*
X172338223Y-32595473D01*
X172230869Y-32617500D01*
X172123713Y-32596069D01*
X172027669Y-32531775D01*
X171977398Y-32468099D01*
X171947235Y-32391369D01*
X171937181Y-32301588D01*
X171947324Y-32211629D01*
X171977751Y-32134371D01*
X172028463Y-32069812D01*
X172125102Y-32004328D01*
X172232456Y-31982500D01*
X172339613Y-32004527D01*
G37*
%TO.C,kibuzzard-63744B54*%
G36*
X112368184Y-121045278D02*
G01*
X112398744Y-121125050D01*
X112370962Y-121193312D01*
X112281269Y-121225062D01*
X112186812Y-121195694D01*
X112154269Y-121136956D01*
X112158237Y-121090919D01*
X112174906Y-121055200D01*
X112276506Y-121018687D01*
X112368184Y-121045278D01*
G37*
G36*
X114402963Y-121066114D02*
G01*
X114499006Y-121132194D01*
X114549277Y-121196840D01*
X114579440Y-121273305D01*
X114589494Y-121361588D01*
X114579351Y-121449870D01*
X114548924Y-121526335D01*
X114498213Y-121590981D01*
X114401573Y-121657061D01*
X114294219Y-121679088D01*
X114187063Y-121657656D01*
X114091019Y-121593363D01*
X114040748Y-121529686D01*
X114010585Y-121452957D01*
X114000531Y-121363175D01*
X114010674Y-121273217D01*
X114041101Y-121195958D01*
X114091813Y-121131400D01*
X114188452Y-121065916D01*
X114295806Y-121044087D01*
X114402963Y-121066114D01*
G37*
G36*
X115767286Y-122474293D02*
G01*
X111352714Y-122474293D01*
X111352714Y-121233000D01*
X111865344Y-121233000D01*
X111872202Y-121350284D01*
X111892776Y-121459568D01*
X111927066Y-121560851D01*
X111975072Y-121654132D01*
X112036794Y-121739413D01*
X112110390Y-121812565D01*
X112194020Y-121869461D01*
X112287682Y-121910101D01*
X112391378Y-121934485D01*
X112505106Y-121942613D01*
X112514631Y-121942613D01*
X112600356Y-121926738D01*
X112633694Y-121881891D01*
X112644806Y-121801325D01*
X112629725Y-121713219D01*
X112584481Y-121671150D01*
X112492406Y-121661625D01*
X112366200Y-121639400D01*
X112271744Y-121585425D01*
X112258831Y-121571138D01*
X112754344Y-121571138D01*
X112768455Y-121677765D01*
X112810788Y-121771163D01*
X112881344Y-121851331D01*
X112973242Y-121912626D01*
X113079605Y-121949403D01*
X113200431Y-121961663D01*
X113320376Y-121949315D01*
X113426209Y-121912274D01*
X113517931Y-121850538D01*
X113562778Y-121800928D01*
X113602069Y-121737825D01*
X113619531Y-121696550D01*
X113622706Y-121680675D01*
X113640169Y-121594950D01*
X113601275Y-121525894D01*
X113484594Y-121502875D01*
X113400456Y-121518750D01*
X113352831Y-121601300D01*
X113265519Y-121677500D01*
X113198844Y-121687025D01*
X113125819Y-121678492D01*
X113075019Y-121652894D01*
X113035331Y-121575900D01*
X113074225Y-121500494D01*
X113166300Y-121467950D01*
X113238531Y-121464775D01*
X113279806Y-121448900D01*
X113311953Y-121408022D01*
X113319010Y-121354444D01*
X113719544Y-121354444D01*
X113729863Y-121475590D01*
X113760819Y-121587409D01*
X113812412Y-121689902D01*
X113884644Y-121783069D01*
X113971956Y-121860509D01*
X114068794Y-121915823D01*
X114175156Y-121949012D01*
X114291044Y-121960075D01*
X114407179Y-121949161D01*
X114514286Y-121916419D01*
X114612364Y-121861848D01*
X114682909Y-121801325D01*
X114973669Y-121801325D01*
X114976050Y-121856888D01*
X114991131Y-121898163D01*
X115033200Y-121930309D01*
X115114956Y-121941025D01*
X115203063Y-121925944D01*
X115245131Y-121880700D01*
X115254656Y-121799738D01*
X115254656Y-120917087D01*
X115252275Y-120862319D01*
X115237194Y-120820250D01*
X115195125Y-120788103D01*
X115113369Y-120777387D01*
X115024866Y-120792072D01*
X114981606Y-120836125D01*
X114973669Y-120918675D01*
X114973669Y-121801325D01*
X114682909Y-121801325D01*
X114701413Y-121785450D01*
X114775380Y-121693970D01*
X114828214Y-121594156D01*
X114859914Y-121486008D01*
X114870481Y-121369525D01*
X114858575Y-121241930D01*
X114822856Y-121122669D01*
X114767294Y-121016902D01*
X114695856Y-120929787D01*
X114610528Y-120860334D01*
X114513294Y-120807550D01*
X114408519Y-120774212D01*
X114300569Y-120763100D01*
X114186963Y-120773716D01*
X114081097Y-120805566D01*
X113982970Y-120858648D01*
X113892581Y-120932962D01*
X113816877Y-121023004D01*
X113762803Y-121123264D01*
X113730359Y-121233744D01*
X113719544Y-121354444D01*
X113319010Y-121354444D01*
X113322669Y-121326662D01*
X113307984Y-121238159D01*
X113263931Y-121194900D01*
X113181381Y-121186962D01*
X113090894Y-121171484D01*
X113060731Y-121125050D01*
X113092481Y-121061550D01*
X113180587Y-121031387D01*
X113270281Y-121050437D01*
X113311556Y-121088537D01*
X113321081Y-121107588D01*
X113365531Y-121167119D01*
X113425856Y-121186962D01*
X113513169Y-121158387D01*
X113572700Y-121108778D01*
X113592544Y-121052025D01*
X113556031Y-120944075D01*
X113521106Y-120894069D01*
X113455225Y-120831362D01*
X113350450Y-120782150D01*
X113279211Y-120765481D01*
X113200431Y-120759925D01*
X113079428Y-120772272D01*
X112976770Y-120809314D01*
X112892456Y-120871050D01*
X112829838Y-120948220D01*
X112792267Y-121031564D01*
X112779744Y-121121081D01*
X112793502Y-121205131D01*
X112834777Y-121272070D01*
X112903569Y-121321900D01*
X112903569Y-121333012D01*
X112856737Y-121367144D01*
X112806731Y-121418738D01*
X112767441Y-121490175D01*
X112754344Y-121571138D01*
X112258831Y-121571138D01*
X112215784Y-121523513D01*
X112184431Y-121467950D01*
X112176494Y-121445725D01*
X112295556Y-121472713D01*
X112394422Y-121461159D01*
X112483587Y-121426499D01*
X112563050Y-121368731D01*
X112625227Y-121296500D01*
X112662533Y-121218448D01*
X112674969Y-121134575D01*
X112662269Y-121033504D01*
X112624169Y-120944075D01*
X112560669Y-120866287D01*
X112479001Y-120806315D01*
X112386397Y-120770332D01*
X112282856Y-120758337D01*
X112155680Y-120773066D01*
X112051434Y-120817251D01*
X111970119Y-120890894D01*
X111911910Y-120987819D01*
X111876985Y-121101855D01*
X111865344Y-121233000D01*
X111352714Y-121233000D01*
X111352714Y-120245707D01*
X115767286Y-120245707D01*
X115767286Y-122474293D01*
G37*
%TO.C,kibuzzard-6374461A*%
G36*
X121862150Y-39734527D02*
G01*
X121958194Y-39800606D01*
X122008465Y-39865253D01*
X122038627Y-39941717D01*
X122048681Y-40030000D01*
X122038539Y-40118283D01*
X122008112Y-40194747D01*
X121957400Y-40259394D01*
X121860761Y-40325473D01*
X121753406Y-40347500D01*
X121646250Y-40326069D01*
X121550206Y-40261775D01*
X121499935Y-40198099D01*
X121469773Y-40121369D01*
X121459719Y-40031588D01*
X121469861Y-39941629D01*
X121500288Y-39864371D01*
X121551000Y-39799812D01*
X121647639Y-39734328D01*
X121754994Y-39712500D01*
X121862150Y-39734527D01*
G37*
G36*
X123226474Y-41141118D02*
G01*
X119113526Y-41141118D01*
X119113526Y-39596612D01*
X119626156Y-39596612D01*
X119636475Y-39667852D01*
X119667431Y-39754569D01*
X119712873Y-39848430D01*
X119766650Y-39941100D01*
X119824792Y-40033572D01*
X119883331Y-40126838D01*
X119944450Y-40234788D01*
X119988106Y-40331625D01*
X120014300Y-40417350D01*
X120023031Y-40491963D01*
X120026206Y-40543556D01*
X120042081Y-40578481D01*
X120084150Y-40603088D01*
X120164319Y-40609438D01*
X120244487Y-40603088D01*
X120286556Y-40577688D01*
X120301637Y-40541969D01*
X120304019Y-40488788D01*
X120302693Y-40472913D01*
X120556431Y-40472913D01*
X120558812Y-40527681D01*
X120573894Y-40569750D01*
X120615962Y-40601897D01*
X120697719Y-40612613D01*
X120777491Y-40602294D01*
X120819956Y-40571338D01*
X120835037Y-40527681D01*
X120837419Y-40469738D01*
X120837419Y-40022856D01*
X121178731Y-40022856D01*
X121189050Y-40144002D01*
X121220006Y-40255822D01*
X121271600Y-40358315D01*
X121343831Y-40451481D01*
X121431144Y-40528921D01*
X121527981Y-40584236D01*
X121634344Y-40617425D01*
X121750231Y-40628488D01*
X121866367Y-40617573D01*
X121973473Y-40584831D01*
X122071551Y-40530261D01*
X122142096Y-40469738D01*
X122432856Y-40469738D01*
X122435238Y-40525300D01*
X122450319Y-40566575D01*
X122492388Y-40598722D01*
X122574144Y-40609438D01*
X122662250Y-40594356D01*
X122704319Y-40549113D01*
X122713844Y-40468150D01*
X122713844Y-39585500D01*
X122711463Y-39530731D01*
X122696381Y-39488662D01*
X122654313Y-39456516D01*
X122572556Y-39445800D01*
X122484053Y-39460484D01*
X122440794Y-39504537D01*
X122432856Y-39587087D01*
X122432856Y-40469738D01*
X122142096Y-40469738D01*
X122160600Y-40453863D01*
X122234568Y-40362383D01*
X122287402Y-40262569D01*
X122319102Y-40154420D01*
X122329669Y-40037938D01*
X122317763Y-39910342D01*
X122282044Y-39791081D01*
X122226481Y-39685314D01*
X122155044Y-39598200D01*
X122069716Y-39528747D01*
X121972481Y-39475962D01*
X121867706Y-39442625D01*
X121759756Y-39431512D01*
X121646151Y-39442129D01*
X121540284Y-39473978D01*
X121442157Y-39527060D01*
X121351769Y-39601375D01*
X121276065Y-39691416D01*
X121221991Y-39791677D01*
X121189546Y-39902157D01*
X121178731Y-40022856D01*
X120837419Y-40022856D01*
X120837419Y-39903000D01*
X120858056Y-39922050D01*
X120969181Y-39971262D01*
X121065225Y-39915700D01*
X121115231Y-39817275D01*
X121058081Y-39723612D01*
X120797731Y-39488662D01*
X120792969Y-39485487D01*
X120703275Y-39444212D01*
X120627869Y-39452150D01*
X120586594Y-39470406D01*
X120564369Y-39504537D01*
X120556431Y-39588675D01*
X120556431Y-40472913D01*
X120302693Y-40472913D01*
X120295287Y-40384211D01*
X120269094Y-40276856D01*
X120230597Y-40173867D01*
X120184956Y-40082388D01*
X120135744Y-40000036D01*
X120086531Y-39924431D01*
X120040891Y-39857359D01*
X120002394Y-39800606D01*
X119967469Y-39728375D01*
X120329419Y-39728375D01*
X120421494Y-39712500D01*
X120459594Y-39666462D01*
X120469119Y-39587087D01*
X120459594Y-39507712D01*
X120429431Y-39466437D01*
X120337356Y-39447387D01*
X119765856Y-39447387D01*
X119677750Y-39462469D01*
X119635681Y-39507712D01*
X119626156Y-39596612D01*
X119113526Y-39596612D01*
X119113526Y-38918882D01*
X123226474Y-38918882D01*
X123226474Y-41141118D01*
G37*
%TO.C,kibuzzard-6374494E*%
G36*
X177893756Y-80365320D02*
G01*
X177989800Y-80431400D01*
X178040071Y-80496047D01*
X178070233Y-80572511D01*
X178080288Y-80660794D01*
X178070145Y-80749076D01*
X178039718Y-80825541D01*
X177989006Y-80890188D01*
X177892367Y-80956267D01*
X177785013Y-80978294D01*
X177677856Y-80956863D01*
X177581813Y-80892569D01*
X177531542Y-80828892D01*
X177501379Y-80752163D01*
X177491325Y-80662381D01*
X177501467Y-80572423D01*
X177531894Y-80495165D01*
X177582606Y-80430606D01*
X177679245Y-80365122D01*
X177786600Y-80343294D01*
X177893756Y-80365320D01*
G37*
G36*
X175842706Y-80823513D02*
G01*
X175875250Y-80883044D01*
X175871281Y-80929081D01*
X175856200Y-80964006D01*
X175754600Y-81000519D01*
X175662922Y-80973928D01*
X175632362Y-80894156D01*
X175660144Y-80825894D01*
X175749044Y-80794144D01*
X175842706Y-80823513D01*
G37*
G36*
X174841920Y-79546501D02*
G01*
X179258080Y-79546501D01*
X179258080Y-81773499D01*
X174841920Y-81773499D01*
X174841920Y-80884631D01*
X175354550Y-80884631D01*
X175367338Y-80985702D01*
X175405703Y-81075131D01*
X175469644Y-81152919D01*
X175551753Y-81212891D01*
X175644622Y-81248874D01*
X175748250Y-81260869D01*
X175874544Y-81246140D01*
X175978261Y-81201955D01*
X176059400Y-81128313D01*
X176074654Y-81102913D01*
X176227675Y-81102913D01*
X176237994Y-81183081D01*
X176272125Y-81224356D01*
X176370550Y-81243406D01*
X176991262Y-81243406D01*
X177089688Y-81200544D01*
X177130963Y-81100531D01*
X177116080Y-81018180D01*
X177071431Y-80942575D01*
X177005748Y-80875503D01*
X176927762Y-80818750D01*
X176843625Y-80767553D01*
X176759487Y-80717150D01*
X176681502Y-80663770D01*
X176670447Y-80653650D01*
X177210338Y-80653650D01*
X177220656Y-80774796D01*
X177251613Y-80886616D01*
X177303206Y-80989109D01*
X177375438Y-81082275D01*
X177462750Y-81159715D01*
X177559588Y-81215030D01*
X177665950Y-81248218D01*
X177781838Y-81259281D01*
X177897973Y-81248367D01*
X178005080Y-81215625D01*
X178103157Y-81161055D01*
X178173702Y-81100531D01*
X178464463Y-81100531D01*
X178466844Y-81156094D01*
X178481925Y-81197369D01*
X178523994Y-81229516D01*
X178605750Y-81240231D01*
X178693856Y-81225150D01*
X178735925Y-81179906D01*
X178745450Y-81098944D01*
X178745450Y-80216294D01*
X178743069Y-80161525D01*
X178727988Y-80119456D01*
X178685919Y-80087309D01*
X178604163Y-80076594D01*
X178515659Y-80091278D01*
X178472400Y-80135331D01*
X178464463Y-80217881D01*
X178464463Y-81100531D01*
X178173702Y-81100531D01*
X178192206Y-81084656D01*
X178266174Y-80993177D01*
X178319008Y-80893363D01*
X178350708Y-80785214D01*
X178361275Y-80668731D01*
X178349369Y-80541136D01*
X178313650Y-80421875D01*
X178258088Y-80316108D01*
X178186650Y-80228994D01*
X178101322Y-80159541D01*
X178004088Y-80106756D01*
X177899313Y-80073419D01*
X177791363Y-80062306D01*
X177677757Y-80072923D01*
X177571891Y-80104772D01*
X177473763Y-80157854D01*
X177383375Y-80232169D01*
X177307671Y-80322210D01*
X177253597Y-80422470D01*
X177221152Y-80532950D01*
X177210338Y-80653650D01*
X176670447Y-80653650D01*
X176615819Y-80603644D01*
X176571170Y-80538159D01*
X176556287Y-80468706D01*
X176567400Y-80428225D01*
X176592006Y-80385362D01*
X176634075Y-80354406D01*
X176713450Y-80340119D01*
X176801556Y-80377425D01*
X176843625Y-80451244D01*
X176849975Y-80487756D01*
X176849975Y-80497281D01*
X176852356Y-80549669D01*
X176867437Y-80589356D01*
X176910300Y-80617931D01*
X176991262Y-80627456D01*
X177079766Y-80612375D01*
X177123025Y-80567131D01*
X177130963Y-80486169D01*
X177117822Y-80379894D01*
X177078399Y-80281205D01*
X177012694Y-80190100D01*
X176925734Y-80117340D01*
X176822547Y-80073683D01*
X176703131Y-80059131D01*
X176583628Y-80073860D01*
X176480176Y-80118045D01*
X176392775Y-80191687D01*
X176326629Y-80284203D01*
X176286942Y-80385010D01*
X176273712Y-80494106D01*
X176283634Y-80582212D01*
X176313400Y-80665556D01*
X176357056Y-80738581D01*
X176408650Y-80795731D01*
X176519775Y-80883441D01*
X176618200Y-80937019D01*
X176657887Y-80952894D01*
X176657887Y-80960831D01*
X176367375Y-80960831D01*
X176274506Y-80975913D01*
X176237200Y-81021950D01*
X176227675Y-81102913D01*
X176074654Y-81102913D01*
X176117608Y-81031387D01*
X176152533Y-80917351D01*
X176164175Y-80786206D01*
X176157285Y-80668922D01*
X176136616Y-80559638D01*
X176102167Y-80458356D01*
X176053939Y-80365074D01*
X175991931Y-80279794D01*
X175917985Y-80206642D01*
X175833943Y-80149746D01*
X175739804Y-80109106D01*
X175635569Y-80084722D01*
X175521237Y-80076594D01*
X175433131Y-80091675D01*
X175395825Y-80136919D01*
X175386300Y-80213119D01*
X175394237Y-80286144D01*
X175413287Y-80327419D01*
X175445037Y-80348056D01*
X175537112Y-80357581D01*
X175663319Y-80379806D01*
X175759362Y-80433781D01*
X175815719Y-80495694D01*
X175845087Y-80551256D01*
X175853025Y-80573481D01*
X175735550Y-80546494D01*
X175635802Y-80558047D01*
X175546108Y-80592708D01*
X175466469Y-80650475D01*
X175404292Y-80722706D01*
X175366985Y-80800758D01*
X175354550Y-80884631D01*
X174841920Y-80884631D01*
X174841920Y-79546501D01*
G37*
%TO.C,kibuzzard-6374466A*%
G36*
X125368288Y-55297925D02*
G01*
X125403213Y-55313006D01*
X125439725Y-55414606D01*
X125413134Y-55506284D01*
X125333363Y-55536844D01*
X125265100Y-55509063D01*
X125233350Y-55420163D01*
X125262719Y-55326500D01*
X125322250Y-55293956D01*
X125368288Y-55297925D01*
G37*
G36*
X126214293Y-51912714D02*
G01*
X126214293Y-56327286D01*
X123985707Y-56327286D01*
X123985707Y-55647969D01*
X124515800Y-55647969D01*
X124530881Y-55736075D01*
X124576125Y-55773381D01*
X124652325Y-55782906D01*
X124725350Y-55774969D01*
X124766625Y-55755919D01*
X124787262Y-55724169D01*
X124796787Y-55632094D01*
X124819012Y-55505888D01*
X124872987Y-55409844D01*
X124934900Y-55353488D01*
X124990462Y-55324119D01*
X125012687Y-55316181D01*
X124985700Y-55433656D01*
X124997253Y-55533404D01*
X125031914Y-55623098D01*
X125089681Y-55702738D01*
X125161913Y-55764915D01*
X125239965Y-55802221D01*
X125323838Y-55814656D01*
X125424908Y-55801868D01*
X125514338Y-55763503D01*
X125592125Y-55699563D01*
X125652097Y-55617453D01*
X125688081Y-55524585D01*
X125700075Y-55420956D01*
X125685347Y-55294662D01*
X125641161Y-55190945D01*
X125567519Y-55109806D01*
X125470593Y-55051598D01*
X125356558Y-55016673D01*
X125225413Y-55005031D01*
X125108128Y-55011921D01*
X124998844Y-55032590D01*
X124897562Y-55067039D01*
X124804280Y-55115267D01*
X124719000Y-55177275D01*
X124645848Y-55251221D01*
X124588952Y-55335263D01*
X124548312Y-55429402D01*
X124523928Y-55533637D01*
X124515800Y-55647969D01*
X123985707Y-55647969D01*
X123985707Y-54482744D01*
X124498337Y-54482744D01*
X124509053Y-54585336D01*
X124541200Y-54674038D01*
X124589222Y-54747063D01*
X124647562Y-54802625D01*
X124716619Y-54844892D01*
X124796787Y-54878031D01*
X124893978Y-54904490D01*
X124995049Y-54920365D01*
X125100000Y-54925656D01*
X125236227Y-54917917D01*
X125357572Y-54894700D01*
X125464034Y-54856005D01*
X125555613Y-54801831D01*
X125613556Y-54746864D01*
X125660388Y-54674038D01*
X125691344Y-54585733D01*
X125701663Y-54484331D01*
X125691145Y-54382533D01*
X125659594Y-54293038D01*
X125612564Y-54218822D01*
X125555613Y-54162863D01*
X125487747Y-54120198D01*
X125407975Y-54085869D01*
X125312901Y-54060292D01*
X125209714Y-54044947D01*
X125098412Y-54039831D01*
X124997694Y-54043976D01*
X124907207Y-54056412D01*
X124826950Y-54077137D01*
X124726342Y-54116627D01*
X124649944Y-54160481D01*
X124590809Y-54215845D01*
X124541994Y-54289863D01*
X124509252Y-54379755D01*
X124498337Y-54482744D01*
X123985707Y-54482744D01*
X123985707Y-53379431D01*
X124501512Y-53379431D01*
X124512129Y-53493037D01*
X124543978Y-53598903D01*
X124597060Y-53697030D01*
X124671375Y-53787419D01*
X124761416Y-53863123D01*
X124861677Y-53917197D01*
X124972157Y-53949641D01*
X125092856Y-53960456D01*
X125214002Y-53950137D01*
X125325822Y-53919181D01*
X125428315Y-53867588D01*
X125521481Y-53795356D01*
X125598921Y-53708044D01*
X125654236Y-53611206D01*
X125687425Y-53504844D01*
X125698488Y-53388956D01*
X125687573Y-53272821D01*
X125654831Y-53165714D01*
X125600261Y-53067636D01*
X125523863Y-52978587D01*
X125432383Y-52904620D01*
X125332569Y-52851786D01*
X125224420Y-52820086D01*
X125107938Y-52809519D01*
X124980342Y-52821425D01*
X124861081Y-52857144D01*
X124755314Y-52912706D01*
X124668200Y-52984144D01*
X124598747Y-53069472D01*
X124545962Y-53166706D01*
X124512625Y-53271481D01*
X124501512Y-53379431D01*
X123985707Y-53379431D01*
X123985707Y-52566631D01*
X124515800Y-52566631D01*
X124530484Y-52655134D01*
X124574537Y-52698394D01*
X124657087Y-52706331D01*
X125539738Y-52706331D01*
X125595300Y-52703950D01*
X125636575Y-52688869D01*
X125668722Y-52646800D01*
X125679438Y-52565044D01*
X125664356Y-52476937D01*
X125619113Y-52434869D01*
X125538150Y-52425344D01*
X124655500Y-52425344D01*
X124600731Y-52427725D01*
X124558662Y-52442806D01*
X124526516Y-52484875D01*
X124515800Y-52566631D01*
X123985707Y-52566631D01*
X123985707Y-51912714D01*
X126214293Y-51912714D01*
G37*
G36*
X125188283Y-53100649D02*
G01*
X125264747Y-53131076D01*
X125329394Y-53181787D01*
X125395473Y-53278427D01*
X125417500Y-53385781D01*
X125396069Y-53492937D01*
X125331775Y-53588981D01*
X125268099Y-53639252D01*
X125191369Y-53669415D01*
X125101588Y-53679469D01*
X125011629Y-53669326D01*
X124934371Y-53638899D01*
X124869812Y-53588187D01*
X124804328Y-53491548D01*
X124782500Y-53384194D01*
X124804527Y-53277037D01*
X124870606Y-53180994D01*
X124935253Y-53130723D01*
X125011717Y-53100560D01*
X125100000Y-53090506D01*
X125188283Y-53100649D01*
G37*
G36*
X125239154Y-54330840D02*
G01*
X125339117Y-54360903D01*
X125399095Y-54411009D01*
X125419088Y-54481156D01*
X125399641Y-54552693D01*
X125341300Y-54603791D01*
X125244066Y-54634449D01*
X125107938Y-54644669D01*
X125098412Y-54644669D01*
X124958812Y-54634548D01*
X124859097Y-54604188D01*
X124799268Y-54553586D01*
X124779325Y-54482744D01*
X124799318Y-54411902D01*
X124859295Y-54361300D01*
X124959258Y-54330939D01*
X125099206Y-54320819D01*
X125239154Y-54330840D01*
G37*
%TO.C,kibuzzard-63744888*%
G36*
X170579531Y-34662025D02*
G01*
X170604931Y-34721556D01*
X170577150Y-34782675D01*
X170497775Y-34811250D01*
X170419987Y-34782675D01*
X170393794Y-34722350D01*
X170420781Y-34662819D01*
X170500950Y-34635037D01*
X170579531Y-34662025D01*
G37*
G36*
X174014749Y-36087468D02*
G01*
X169565251Y-36087468D01*
X169565251Y-35179550D01*
X170077881Y-35179550D01*
X170092257Y-35290410D01*
X170135384Y-35385925D01*
X170207262Y-35466094D01*
X170297309Y-35526507D01*
X170394940Y-35562755D01*
X170500156Y-35574838D01*
X170605372Y-35562843D01*
X170703003Y-35526860D01*
X170793050Y-35466888D01*
X170864928Y-35386983D01*
X170908056Y-35291204D01*
X170922431Y-35179550D01*
X170914295Y-35113867D01*
X170889887Y-35050169D01*
X170835658Y-34973175D01*
X171001806Y-34973175D01*
X171009545Y-35109402D01*
X171032762Y-35230747D01*
X171071458Y-35337209D01*
X171125631Y-35428788D01*
X171180598Y-35486731D01*
X171253425Y-35533563D01*
X171341730Y-35564519D01*
X171443131Y-35574838D01*
X171544930Y-35564320D01*
X171634425Y-35532769D01*
X171708641Y-35485739D01*
X171764600Y-35428788D01*
X171807264Y-35360922D01*
X171841594Y-35281150D01*
X171867170Y-35186076D01*
X171882516Y-35082889D01*
X171887631Y-34971588D01*
X171887402Y-34966031D01*
X171967006Y-34966031D01*
X171977325Y-35087177D01*
X172008281Y-35198997D01*
X172059875Y-35301490D01*
X172132106Y-35394656D01*
X172219419Y-35472096D01*
X172316256Y-35527411D01*
X172422619Y-35560600D01*
X172538506Y-35571663D01*
X172654642Y-35560748D01*
X172761748Y-35528006D01*
X172859826Y-35473436D01*
X172930371Y-35412913D01*
X173221131Y-35412913D01*
X173223513Y-35468475D01*
X173238594Y-35509750D01*
X173280663Y-35541897D01*
X173362419Y-35552613D01*
X173450525Y-35537531D01*
X173492594Y-35492288D01*
X173502119Y-35411325D01*
X173502119Y-34528675D01*
X173499738Y-34473906D01*
X173484656Y-34431837D01*
X173442588Y-34399691D01*
X173360831Y-34388975D01*
X173272328Y-34403659D01*
X173229069Y-34447712D01*
X173221131Y-34530262D01*
X173221131Y-35412913D01*
X172930371Y-35412913D01*
X172948875Y-35397038D01*
X173022843Y-35305558D01*
X173075677Y-35205744D01*
X173107377Y-35097595D01*
X173117944Y-34981113D01*
X173106038Y-34853517D01*
X173070319Y-34734256D01*
X173014756Y-34628489D01*
X172943319Y-34541375D01*
X172857991Y-34471922D01*
X172760756Y-34419137D01*
X172655981Y-34385800D01*
X172548031Y-34374687D01*
X172434426Y-34385304D01*
X172328559Y-34417153D01*
X172230432Y-34470235D01*
X172140044Y-34544550D01*
X172064340Y-34634591D01*
X172010266Y-34734852D01*
X171977821Y-34845332D01*
X171967006Y-34966031D01*
X171887402Y-34966031D01*
X171883486Y-34870869D01*
X171871051Y-34780382D01*
X171850325Y-34700125D01*
X171810836Y-34599517D01*
X171766981Y-34523119D01*
X171711617Y-34463984D01*
X171637600Y-34415169D01*
X171547708Y-34382427D01*
X171444719Y-34371512D01*
X171342127Y-34382228D01*
X171253425Y-34414375D01*
X171180400Y-34462397D01*
X171124837Y-34520737D01*
X171082570Y-34589794D01*
X171049431Y-34669962D01*
X171022973Y-34767153D01*
X171007098Y-34868224D01*
X171001806Y-34973175D01*
X170835658Y-34973175D01*
X170825594Y-34958887D01*
X170792256Y-34928725D01*
X170819244Y-34903325D01*
X170861312Y-34834269D01*
X170887506Y-34723937D01*
X170874453Y-34626218D01*
X170835295Y-34540493D01*
X170770031Y-34466762D01*
X170687481Y-34410318D01*
X170596465Y-34376451D01*
X170496981Y-34365162D01*
X170397851Y-34376628D01*
X170307892Y-34411024D01*
X170227106Y-34468350D01*
X170163606Y-34543492D01*
X170125506Y-34631333D01*
X170112806Y-34731875D01*
X170135825Y-34828712D01*
X170182656Y-34903325D01*
X170206469Y-34928725D01*
X170170750Y-34961269D01*
X170113600Y-35047788D01*
X170086811Y-35113272D01*
X170077881Y-35179550D01*
X169565251Y-35179550D01*
X169565251Y-33852532D01*
X174014749Y-33852532D01*
X174014749Y-36087468D01*
G37*
G36*
X170604931Y-35104144D02*
G01*
X170641444Y-35185900D01*
X170604931Y-35268450D01*
X170498569Y-35306550D01*
X170393794Y-35268450D01*
X170358869Y-35186694D01*
X170394587Y-35104938D01*
X170499362Y-35066838D01*
X170604931Y-35104144D01*
G37*
G36*
X172650425Y-34677702D02*
G01*
X172746469Y-34743781D01*
X172796740Y-34808428D01*
X172826902Y-34884892D01*
X172836956Y-34973175D01*
X172826814Y-35061458D01*
X172796387Y-35137922D01*
X172745675Y-35202569D01*
X172649036Y-35268648D01*
X172541681Y-35290675D01*
X172434525Y-35269244D01*
X172338481Y-35204950D01*
X172288210Y-35141274D01*
X172258048Y-35064544D01*
X172247994Y-34974763D01*
X172258136Y-34884804D01*
X172288563Y-34807546D01*
X172339275Y-34742987D01*
X172435914Y-34677503D01*
X172543269Y-34655675D01*
X172650425Y-34677702D01*
G37*
G36*
X171515561Y-34672493D02*
G01*
X171566162Y-34732470D01*
X171596523Y-34832433D01*
X171606644Y-34972381D01*
X171596623Y-35112329D01*
X171566559Y-35212292D01*
X171516454Y-35272270D01*
X171446306Y-35292263D01*
X171374770Y-35272816D01*
X171323672Y-35214475D01*
X171293013Y-35117241D01*
X171282794Y-34981113D01*
X171282794Y-34971588D01*
X171292914Y-34831987D01*
X171323275Y-34732272D01*
X171373877Y-34672443D01*
X171444719Y-34652500D01*
X171515561Y-34672493D01*
G37*
%TO.C,kibuzzard-6374492F*%
G36*
X175005270Y-77007295D02*
G01*
X179154730Y-77007295D01*
X179154730Y-79232705D01*
X175005270Y-79232705D01*
X175005270Y-78564500D01*
X175517900Y-78564500D01*
X175520281Y-78619269D01*
X175535362Y-78661338D01*
X175577431Y-78693484D01*
X175659187Y-78704200D01*
X175738959Y-78693881D01*
X175781425Y-78662925D01*
X175796506Y-78619269D01*
X175798789Y-78563706D01*
X176124325Y-78563706D01*
X176134644Y-78643875D01*
X176168775Y-78685150D01*
X176267200Y-78704200D01*
X176887912Y-78704200D01*
X176986337Y-78661338D01*
X177027612Y-78561325D01*
X177012730Y-78478973D01*
X176968081Y-78403369D01*
X176902398Y-78336297D01*
X176824412Y-78279544D01*
X176740275Y-78228347D01*
X176656137Y-78177944D01*
X176578152Y-78124564D01*
X176567097Y-78114444D01*
X177106988Y-78114444D01*
X177117306Y-78235590D01*
X177148263Y-78347409D01*
X177199856Y-78449902D01*
X177272088Y-78543069D01*
X177359400Y-78620509D01*
X177456238Y-78675823D01*
X177562600Y-78709012D01*
X177678488Y-78720075D01*
X177794623Y-78709161D01*
X177901730Y-78676419D01*
X177999807Y-78621848D01*
X178070352Y-78561325D01*
X178361113Y-78561325D01*
X178363494Y-78616888D01*
X178378575Y-78658163D01*
X178420644Y-78690309D01*
X178502400Y-78701025D01*
X178590506Y-78685944D01*
X178632575Y-78640700D01*
X178642100Y-78559738D01*
X178642100Y-77677087D01*
X178639719Y-77622319D01*
X178624638Y-77580250D01*
X178582569Y-77548103D01*
X178500813Y-77537387D01*
X178412309Y-77552072D01*
X178369050Y-77596125D01*
X178361113Y-77678675D01*
X178361113Y-78561325D01*
X178070352Y-78561325D01*
X178088856Y-78545450D01*
X178162824Y-78453970D01*
X178215658Y-78354156D01*
X178247358Y-78246008D01*
X178257925Y-78129525D01*
X178246019Y-78001930D01*
X178210300Y-77882669D01*
X178154738Y-77776902D01*
X178083300Y-77689787D01*
X177997972Y-77620334D01*
X177900738Y-77567550D01*
X177795963Y-77534212D01*
X177688013Y-77523100D01*
X177574407Y-77533716D01*
X177468541Y-77565566D01*
X177370413Y-77618648D01*
X177280025Y-77692962D01*
X177204321Y-77783004D01*
X177150247Y-77883264D01*
X177117802Y-77993744D01*
X177106988Y-78114444D01*
X176567097Y-78114444D01*
X176512469Y-78064437D01*
X176467820Y-77998953D01*
X176452937Y-77929500D01*
X176464050Y-77889019D01*
X176488656Y-77846156D01*
X176530725Y-77815200D01*
X176610100Y-77800912D01*
X176698206Y-77838219D01*
X176740275Y-77912037D01*
X176746625Y-77948550D01*
X176746625Y-77958075D01*
X176749006Y-78010462D01*
X176764087Y-78050150D01*
X176806950Y-78078725D01*
X176887912Y-78088250D01*
X176976416Y-78073169D01*
X177019675Y-78027925D01*
X177027612Y-77946962D01*
X177014472Y-77840688D01*
X176975049Y-77741999D01*
X176909344Y-77650894D01*
X176822384Y-77578133D01*
X176719197Y-77534477D01*
X176599781Y-77519925D01*
X176480278Y-77534653D01*
X176376826Y-77578839D01*
X176289425Y-77652481D01*
X176223279Y-77744997D01*
X176183592Y-77845803D01*
X176170362Y-77954900D01*
X176180284Y-78043006D01*
X176210050Y-78126350D01*
X176253706Y-78199375D01*
X176305300Y-78256525D01*
X176416425Y-78344234D01*
X176514850Y-78397813D01*
X176554537Y-78413688D01*
X176554537Y-78421625D01*
X176264025Y-78421625D01*
X176171156Y-78436706D01*
X176133850Y-78482744D01*
X176124325Y-78563706D01*
X175798789Y-78563706D01*
X175798887Y-78561325D01*
X175798887Y-77994587D01*
X175819525Y-78013637D01*
X175930650Y-78062850D01*
X176026694Y-78007287D01*
X176076700Y-77908862D01*
X176019550Y-77815200D01*
X175759200Y-77580250D01*
X175754437Y-77577075D01*
X175664744Y-77535800D01*
X175589337Y-77543737D01*
X175548062Y-77561994D01*
X175525837Y-77596125D01*
X175517900Y-77680262D01*
X175517900Y-78564500D01*
X175005270Y-78564500D01*
X175005270Y-77007295D01*
G37*
G36*
X177790406Y-77826114D02*
G01*
X177886450Y-77892194D01*
X177936721Y-77956840D01*
X177966883Y-78033305D01*
X177976938Y-78121588D01*
X177966795Y-78209870D01*
X177936368Y-78286335D01*
X177885656Y-78350981D01*
X177789017Y-78417061D01*
X177681663Y-78439088D01*
X177574506Y-78417656D01*
X177478463Y-78353363D01*
X177428192Y-78289686D01*
X177398029Y-78212957D01*
X177387975Y-78123175D01*
X177398117Y-78033217D01*
X177428544Y-77955958D01*
X177479256Y-77891400D01*
X177575895Y-77825916D01*
X177683250Y-77804087D01*
X177790406Y-77826114D01*
G37*
%TO.C,kibuzzard-63744705*%
G36*
X170866075Y-45471625D02*
G01*
X170712087Y-45471625D01*
X170603344Y-45450392D01*
X170505712Y-45386694D01*
X170436656Y-45290848D01*
X170413637Y-45173175D01*
X170436061Y-45055105D01*
X170503331Y-44958069D01*
X170600764Y-44893180D01*
X170713675Y-44871550D01*
X170866075Y-44871550D01*
X170866075Y-45471625D01*
G37*
G36*
X169620020Y-44057295D02*
G01*
X173959980Y-44057295D01*
X173959980Y-46282705D01*
X169620020Y-46282705D01*
X169620020Y-45164444D01*
X170132650Y-45164444D01*
X170143316Y-45281175D01*
X170175314Y-45389273D01*
X170228644Y-45488740D01*
X170303306Y-45579575D01*
X170393149Y-45655279D01*
X170492020Y-45709353D01*
X170599921Y-45741798D01*
X170716850Y-45752613D01*
X171007362Y-45752613D01*
X171085944Y-45742691D01*
X171128012Y-45712925D01*
X171146467Y-45614500D01*
X171274062Y-45614500D01*
X171276444Y-45670062D01*
X171291525Y-45711338D01*
X171333594Y-45743484D01*
X171415350Y-45754200D01*
X171501075Y-45744675D01*
X171540762Y-45714513D01*
X171653034Y-45564935D01*
X171751724Y-45433701D01*
X171836831Y-45320813D01*
X171908357Y-45226268D01*
X171966301Y-45150068D01*
X172010663Y-45092212D01*
X172010663Y-45614500D01*
X172013044Y-45670062D01*
X172028125Y-45711338D01*
X172070194Y-45743484D01*
X172151950Y-45754200D01*
X172231325Y-45743484D01*
X172272600Y-45711338D01*
X172287681Y-45668475D01*
X172290062Y-45612913D01*
X172290062Y-45535125D01*
X172417063Y-45535125D01*
X172461513Y-45631963D01*
X172536522Y-45692387D01*
X172628200Y-45735547D01*
X172736547Y-45761443D01*
X172861563Y-45770075D01*
X172975962Y-45758913D01*
X173082622Y-45725427D01*
X173181543Y-45669616D01*
X173272725Y-45591481D01*
X173349123Y-45497571D01*
X173403694Y-45394433D01*
X173436436Y-45282068D01*
X173447350Y-45160475D01*
X173436238Y-45039478D01*
X173402900Y-44928898D01*
X173347338Y-44828737D01*
X173269550Y-44738994D01*
X173176681Y-44665026D01*
X173075875Y-44612192D01*
X172967131Y-44580492D01*
X172850450Y-44569925D01*
X172727860Y-44583683D01*
X172609856Y-44624958D01*
X172496438Y-44693750D01*
X172453575Y-44764394D01*
X172490088Y-44854087D01*
X172549222Y-44917191D01*
X172602800Y-44938225D01*
X172699638Y-44894569D01*
X172772663Y-44861827D01*
X172858388Y-44850912D01*
X172972291Y-44872145D01*
X173072700Y-44935844D01*
X173142947Y-45033872D01*
X173166363Y-45158094D01*
X173155779Y-45245053D01*
X173124029Y-45322841D01*
X173071113Y-45391456D01*
X172969513Y-45463489D01*
X172855213Y-45487500D01*
X172772266Y-45480356D01*
X172698050Y-45458925D01*
X172698050Y-45285888D01*
X172823463Y-45285888D01*
X172893313Y-45273188D01*
X172920300Y-45235881D01*
X172926650Y-45169206D01*
X172919506Y-45101737D01*
X172893313Y-45066812D01*
X172817113Y-45052525D01*
X172537713Y-45052525D01*
X172432938Y-45096975D01*
X172417063Y-45185875D01*
X172417063Y-45535125D01*
X172290062Y-45535125D01*
X172290062Y-44727087D01*
X172274981Y-44638981D01*
X172229738Y-44601675D01*
X172151950Y-44592150D01*
X172076544Y-44600881D01*
X172037650Y-44620725D01*
X172001138Y-44662000D01*
X171895657Y-44805272D01*
X171802524Y-44931346D01*
X171721737Y-45040222D01*
X171653299Y-45131900D01*
X171597207Y-45206380D01*
X171553462Y-45263663D01*
X171553462Y-44727087D01*
X171538381Y-44638981D01*
X171493137Y-44601675D01*
X171417731Y-44592150D01*
X171344706Y-44600087D01*
X171303431Y-44619137D01*
X171283587Y-44652475D01*
X171274062Y-44733437D01*
X171274062Y-45614500D01*
X171146467Y-45614500D01*
X171147062Y-45611325D01*
X171147062Y-44728675D01*
X171144681Y-44673112D01*
X171129600Y-44631837D01*
X171087531Y-44599691D01*
X171005775Y-44588975D01*
X170712087Y-44590562D01*
X170600466Y-44600931D01*
X170495791Y-44632036D01*
X170398060Y-44683878D01*
X170307275Y-44756456D01*
X170230877Y-44844166D01*
X170176306Y-44941400D01*
X170143564Y-45048159D01*
X170132650Y-45164444D01*
X169620020Y-45164444D01*
X169620020Y-44057295D01*
G37*
%TO.C,kibuzzard-63744B94*%
G36*
X115601236Y-117261118D02*
G01*
X111478764Y-117261118D01*
X111478764Y-116592913D01*
X111991394Y-116592913D01*
X111993775Y-116647681D01*
X112008856Y-116689750D01*
X112050925Y-116721897D01*
X112132681Y-116732613D01*
X112212453Y-116722294D01*
X112254919Y-116691338D01*
X112270000Y-116647681D01*
X112272381Y-116589738D01*
X112272381Y-116588150D01*
X112637506Y-116588150D01*
X112652587Y-116679431D01*
X112698625Y-116718325D01*
X112775619Y-116727850D01*
X112848644Y-116719913D01*
X112889919Y-116700863D01*
X112910556Y-116669113D01*
X112920081Y-116586563D01*
X112920081Y-116392888D01*
X113350294Y-116392888D01*
X113438797Y-116377806D01*
X113482056Y-116332563D01*
X113489994Y-116264300D01*
X113485231Y-116200800D01*
X113470875Y-116142856D01*
X113553494Y-116142856D01*
X113563813Y-116264002D01*
X113594769Y-116375822D01*
X113646363Y-116478315D01*
X113718594Y-116571481D01*
X113805906Y-116648921D01*
X113902744Y-116704236D01*
X114009106Y-116737425D01*
X114124994Y-116748488D01*
X114241129Y-116737573D01*
X114348236Y-116704831D01*
X114446314Y-116650261D01*
X114516859Y-116589738D01*
X114807619Y-116589738D01*
X114810000Y-116645300D01*
X114825081Y-116686575D01*
X114867150Y-116718722D01*
X114948906Y-116729438D01*
X115037013Y-116714356D01*
X115079081Y-116669113D01*
X115088606Y-116588150D01*
X115088606Y-115705500D01*
X115086225Y-115650731D01*
X115071144Y-115608662D01*
X115029075Y-115576516D01*
X114947319Y-115565800D01*
X114858816Y-115580484D01*
X114815556Y-115624537D01*
X114807619Y-115707087D01*
X114807619Y-116589738D01*
X114516859Y-116589738D01*
X114535363Y-116573863D01*
X114609330Y-116482383D01*
X114662164Y-116382569D01*
X114693864Y-116274420D01*
X114704431Y-116157938D01*
X114692525Y-116030342D01*
X114656806Y-115911081D01*
X114601244Y-115805314D01*
X114529806Y-115718200D01*
X114444478Y-115648747D01*
X114347244Y-115595962D01*
X114242469Y-115562625D01*
X114134519Y-115551512D01*
X114020913Y-115562129D01*
X113915047Y-115593978D01*
X113816920Y-115647060D01*
X113726531Y-115721375D01*
X113650827Y-115811416D01*
X113596753Y-115911677D01*
X113564309Y-116022157D01*
X113553494Y-116142856D01*
X113470875Y-116142856D01*
X113353469Y-115668987D01*
X113336800Y-115613425D01*
X113308225Y-115576912D01*
X113253456Y-115559450D01*
X113180431Y-115570562D01*
X113097087Y-115611044D01*
X113069306Y-115672162D01*
X113080419Y-115738837D01*
X113082006Y-115743600D01*
X113178844Y-116130950D01*
X112920081Y-116130950D01*
X112920081Y-115697562D01*
X112917700Y-115643587D01*
X112902619Y-115603900D01*
X112858962Y-115572944D01*
X112778000Y-115564212D01*
X112697831Y-115574531D01*
X112654969Y-115607869D01*
X112639887Y-115649938D01*
X112637506Y-115705500D01*
X112637506Y-116588150D01*
X112272381Y-116588150D01*
X112272381Y-116023000D01*
X112293019Y-116042050D01*
X112404144Y-116091262D01*
X112500187Y-116035700D01*
X112550194Y-115937275D01*
X112493044Y-115843612D01*
X112232694Y-115608662D01*
X112227931Y-115605487D01*
X112138237Y-115564212D01*
X112062831Y-115572150D01*
X112021556Y-115590406D01*
X111999331Y-115624537D01*
X111991394Y-115708675D01*
X111991394Y-116592913D01*
X111478764Y-116592913D01*
X111478764Y-115038882D01*
X115601236Y-115038882D01*
X115601236Y-117261118D01*
G37*
G36*
X114236913Y-115854527D02*
G01*
X114332956Y-115920606D01*
X114383227Y-115985253D01*
X114413390Y-116061717D01*
X114423444Y-116150000D01*
X114413301Y-116238283D01*
X114382874Y-116314747D01*
X114332163Y-116379394D01*
X114235523Y-116445473D01*
X114128169Y-116467500D01*
X114021013Y-116446069D01*
X113924969Y-116381775D01*
X113874698Y-116318099D01*
X113844535Y-116241369D01*
X113834481Y-116151588D01*
X113844624Y-116061629D01*
X113875051Y-115984371D01*
X113925763Y-115919812D01*
X114022402Y-115854328D01*
X114129756Y-115832500D01*
X114236913Y-115854527D01*
G37*
%TO.C,kibuzzard-63744A28*%
G36*
X190315918Y-117317149D02*
G01*
X187484082Y-117317149D01*
X187484082Y-116069506D01*
X187996712Y-116069506D01*
X188028462Y-116156819D01*
X188357075Y-116720381D01*
X188407875Y-116768800D01*
X188476931Y-116790231D01*
X188542019Y-116773563D01*
X188585675Y-116739431D01*
X188599962Y-116721969D01*
X188785932Y-116403675D01*
X189025413Y-116403675D01*
X189038113Y-116508097D01*
X189076213Y-116602289D01*
X189139713Y-116686250D01*
X189222086Y-116751955D01*
X189316807Y-116791378D01*
X189423875Y-116804519D01*
X189519125Y-116796228D01*
X189608025Y-116771358D01*
X189690575Y-116729906D01*
X189730263Y-116699744D01*
X189742963Y-116688631D01*
X189803288Y-116593381D01*
X189744550Y-116490194D01*
X189652475Y-116437806D01*
X189546113Y-116488606D01*
X189446894Y-116521944D01*
X189342119Y-116491781D01*
X189307988Y-116408438D01*
X189345294Y-116324300D01*
X189430225Y-116293344D01*
X189506425Y-116321919D01*
X189592944Y-116358431D01*
X189692956Y-116328269D01*
X189766775Y-116279850D01*
X189784238Y-116240956D01*
X189776300Y-116166741D01*
X189752488Y-115985369D01*
X189728278Y-115806775D01*
X189719150Y-115740894D01*
X189708038Y-115707556D01*
X189685019Y-115664694D01*
X189643744Y-115630562D01*
X189579450Y-115615481D01*
X189338150Y-115617069D01*
X189188925Y-115617069D01*
X189133363Y-115619450D01*
X189092088Y-115634531D01*
X189059941Y-115677394D01*
X189049225Y-115761531D01*
X189059147Y-115838128D01*
X189088913Y-115877419D01*
X189127806Y-115892500D01*
X189179400Y-115894881D01*
X189457213Y-115894881D01*
X189473088Y-116015531D01*
X189417525Y-116012356D01*
X189320335Y-116024968D01*
X189229847Y-116062803D01*
X189146063Y-116125862D01*
X189079035Y-116207178D01*
X189038818Y-116299782D01*
X189025413Y-116403675D01*
X188785932Y-116403675D01*
X188930163Y-116156819D01*
X188961913Y-116071094D01*
X188941275Y-116015928D01*
X188879362Y-115964731D01*
X188784112Y-115929806D01*
X188729344Y-115951237D01*
X188687275Y-116015531D01*
X188479312Y-116415581D01*
X188271350Y-116015531D01*
X188245156Y-115971875D01*
X188217375Y-115944887D01*
X188166575Y-115931394D01*
X188079262Y-115964731D01*
X188017350Y-116015531D01*
X187996712Y-116069506D01*
X187484082Y-116069506D01*
X187484082Y-115102851D01*
X190315918Y-115102851D01*
X190315918Y-117317149D01*
G37*
%TO.C,kibuzzard-637445BF*%
G36*
X121866913Y-32024527D02*
G01*
X121962956Y-32090606D01*
X122013227Y-32155253D01*
X122043390Y-32231717D01*
X122053444Y-32320000D01*
X122043301Y-32408283D01*
X122012874Y-32484747D01*
X121962163Y-32549394D01*
X121865523Y-32615473D01*
X121758169Y-32637500D01*
X121651013Y-32616069D01*
X121554969Y-32551775D01*
X121504698Y-32488099D01*
X121474535Y-32411369D01*
X121464481Y-32321588D01*
X121474624Y-32231629D01*
X121505051Y-32154371D01*
X121555763Y-32089812D01*
X121652402Y-32024328D01*
X121759756Y-32002500D01*
X121866913Y-32024527D01*
G37*
G36*
X123231236Y-33431118D02*
G01*
X119108764Y-33431118D01*
X119108764Y-32758150D01*
X119621394Y-32758150D01*
X119636475Y-32849431D01*
X119682512Y-32888325D01*
X119759506Y-32897850D01*
X119832531Y-32889913D01*
X119873806Y-32870863D01*
X119894444Y-32839113D01*
X119903236Y-32762913D01*
X120561194Y-32762913D01*
X120563575Y-32817681D01*
X120578656Y-32859750D01*
X120620725Y-32891897D01*
X120702481Y-32902613D01*
X120782253Y-32892294D01*
X120824719Y-32861338D01*
X120839800Y-32817681D01*
X120842181Y-32759738D01*
X120842181Y-32312856D01*
X121183494Y-32312856D01*
X121193813Y-32434002D01*
X121224769Y-32545822D01*
X121276363Y-32648315D01*
X121348594Y-32741481D01*
X121435906Y-32818921D01*
X121532744Y-32874236D01*
X121639106Y-32907425D01*
X121754994Y-32918488D01*
X121871129Y-32907573D01*
X121978236Y-32874831D01*
X122076314Y-32820261D01*
X122146859Y-32759738D01*
X122437619Y-32759738D01*
X122440000Y-32815300D01*
X122455081Y-32856575D01*
X122497150Y-32888722D01*
X122578906Y-32899438D01*
X122667013Y-32884356D01*
X122709081Y-32839113D01*
X122718606Y-32758150D01*
X122718606Y-31875500D01*
X122716225Y-31820731D01*
X122701144Y-31778662D01*
X122659075Y-31746516D01*
X122577319Y-31735800D01*
X122488816Y-31750484D01*
X122445556Y-31794537D01*
X122437619Y-31877087D01*
X122437619Y-32759738D01*
X122146859Y-32759738D01*
X122165363Y-32743863D01*
X122239330Y-32652383D01*
X122292164Y-32552569D01*
X122323864Y-32444420D01*
X122334431Y-32327938D01*
X122322525Y-32200342D01*
X122286806Y-32081081D01*
X122231244Y-31975314D01*
X122159806Y-31888200D01*
X122074478Y-31818747D01*
X121977244Y-31765962D01*
X121872469Y-31732625D01*
X121764519Y-31721512D01*
X121650913Y-31732129D01*
X121545047Y-31763978D01*
X121446920Y-31817060D01*
X121356531Y-31891375D01*
X121280827Y-31981416D01*
X121226753Y-32081677D01*
X121194309Y-32192157D01*
X121183494Y-32312856D01*
X120842181Y-32312856D01*
X120842181Y-32193000D01*
X120862819Y-32212050D01*
X120973944Y-32261262D01*
X121069987Y-32205700D01*
X121119994Y-32107275D01*
X121062844Y-32013612D01*
X120802494Y-31778662D01*
X120797731Y-31775487D01*
X120708037Y-31734212D01*
X120632631Y-31742150D01*
X120591356Y-31760406D01*
X120569131Y-31794537D01*
X120561194Y-31878675D01*
X120561194Y-32762913D01*
X119903236Y-32762913D01*
X119903969Y-32756563D01*
X119903969Y-32562888D01*
X120334181Y-32562888D01*
X120422684Y-32547806D01*
X120465944Y-32502563D01*
X120473881Y-32434300D01*
X120469119Y-32370800D01*
X120337356Y-31838987D01*
X120320687Y-31783425D01*
X120292112Y-31746912D01*
X120237344Y-31729450D01*
X120164319Y-31740562D01*
X120080975Y-31781044D01*
X120053194Y-31842162D01*
X120064306Y-31908837D01*
X120065894Y-31913600D01*
X120162731Y-32300950D01*
X119903969Y-32300950D01*
X119903969Y-31867562D01*
X119901587Y-31813587D01*
X119886506Y-31773900D01*
X119842850Y-31742944D01*
X119761887Y-31734212D01*
X119681719Y-31744531D01*
X119638856Y-31777869D01*
X119623775Y-31819938D01*
X119621394Y-31875500D01*
X119621394Y-32758150D01*
X119108764Y-32758150D01*
X119108764Y-31208882D01*
X123231236Y-31208882D01*
X123231236Y-33431118D01*
G37*
%TO.C,kibuzzard-63744691*%
G36*
X174129389Y-36366501D02*
G01*
X178410611Y-36366501D01*
X178410611Y-38593499D01*
X174129389Y-38593499D01*
X174129389Y-37347444D01*
X174642019Y-37347444D01*
X174673769Y-37434756D01*
X175002381Y-37998319D01*
X175053181Y-38046738D01*
X175122237Y-38068169D01*
X175187325Y-38051500D01*
X175230981Y-38017369D01*
X175245269Y-37999906D01*
X175426137Y-37690344D01*
X175670719Y-37690344D01*
X175684830Y-37796971D01*
X175727163Y-37890369D01*
X175797719Y-37970538D01*
X175889617Y-38031833D01*
X175995980Y-38068610D01*
X176116806Y-38080869D01*
X176236751Y-38068522D01*
X176342584Y-38031480D01*
X176434306Y-37969744D01*
X176479153Y-37920134D01*
X176481871Y-37915769D01*
X176635919Y-37915769D01*
X176638300Y-37972125D01*
X176654969Y-38015781D01*
X176696839Y-38050309D01*
X176774825Y-38061819D01*
X176854597Y-38054278D01*
X176901825Y-38031656D01*
X176932781Y-37917356D01*
X176932781Y-37911006D01*
X176930400Y-37855444D01*
X176915319Y-37812581D01*
X176873448Y-37776863D01*
X176795463Y-37764956D01*
X176714302Y-37773291D01*
X176662906Y-37798294D01*
X176635919Y-37909419D01*
X176635919Y-37915769D01*
X176481871Y-37915769D01*
X176518444Y-37857031D01*
X176535906Y-37815756D01*
X176539081Y-37799881D01*
X176556544Y-37714156D01*
X176543133Y-37690344D01*
X177012156Y-37690344D01*
X177026267Y-37796971D01*
X177068601Y-37890369D01*
X177139156Y-37970538D01*
X177231055Y-38031833D01*
X177337417Y-38068610D01*
X177458244Y-38080869D01*
X177578188Y-38068522D01*
X177684022Y-38031480D01*
X177775744Y-37969744D01*
X177820591Y-37920134D01*
X177859881Y-37857031D01*
X177877344Y-37815756D01*
X177880519Y-37799881D01*
X177897981Y-37714156D01*
X177859088Y-37645100D01*
X177742406Y-37622081D01*
X177658269Y-37637956D01*
X177610644Y-37720506D01*
X177523331Y-37796706D01*
X177456656Y-37806231D01*
X177383631Y-37797698D01*
X177332831Y-37772100D01*
X177293144Y-37695106D01*
X177332038Y-37619700D01*
X177424113Y-37587156D01*
X177496344Y-37583981D01*
X177537619Y-37568106D01*
X177569766Y-37527228D01*
X177580481Y-37445869D01*
X177565797Y-37357366D01*
X177521744Y-37314106D01*
X177439194Y-37306169D01*
X177348706Y-37290691D01*
X177318544Y-37244256D01*
X177350294Y-37180756D01*
X177438400Y-37150594D01*
X177528094Y-37169644D01*
X177569369Y-37207744D01*
X177578894Y-37226794D01*
X177623344Y-37286325D01*
X177683669Y-37306169D01*
X177770981Y-37277594D01*
X177830513Y-37227984D01*
X177850356Y-37171231D01*
X177813844Y-37063281D01*
X177778919Y-37013275D01*
X177713038Y-36950569D01*
X177608263Y-36901356D01*
X177537023Y-36884687D01*
X177458244Y-36879131D01*
X177337241Y-36891478D01*
X177234583Y-36928520D01*
X177150269Y-36990256D01*
X177087651Y-37067426D01*
X177050080Y-37150770D01*
X177037556Y-37240287D01*
X177051315Y-37324337D01*
X177092590Y-37391276D01*
X177161381Y-37441106D01*
X177161381Y-37452219D01*
X177114550Y-37486350D01*
X177064544Y-37537944D01*
X177025253Y-37609381D01*
X177012156Y-37690344D01*
X176543133Y-37690344D01*
X176517650Y-37645100D01*
X176400969Y-37622081D01*
X176316831Y-37637956D01*
X176269206Y-37720506D01*
X176181894Y-37796706D01*
X176115219Y-37806231D01*
X176042194Y-37797698D01*
X175991394Y-37772100D01*
X175951706Y-37695106D01*
X175990600Y-37619700D01*
X176082675Y-37587156D01*
X176154906Y-37583981D01*
X176196181Y-37568106D01*
X176228328Y-37527228D01*
X176239044Y-37445869D01*
X176224359Y-37357366D01*
X176180306Y-37314106D01*
X176097756Y-37306169D01*
X176007269Y-37290691D01*
X175977106Y-37244256D01*
X176008856Y-37180756D01*
X176096962Y-37150594D01*
X176186656Y-37169644D01*
X176227931Y-37207744D01*
X176237456Y-37226794D01*
X176281906Y-37286325D01*
X176342231Y-37306169D01*
X176429544Y-37277594D01*
X176489075Y-37227984D01*
X176508919Y-37171231D01*
X176472406Y-37063281D01*
X176437481Y-37013275D01*
X176371600Y-36950569D01*
X176266825Y-36901356D01*
X176195586Y-36884687D01*
X176116806Y-36879131D01*
X175995803Y-36891478D01*
X175893145Y-36928520D01*
X175808831Y-36990256D01*
X175746213Y-37067426D01*
X175708642Y-37150770D01*
X175696119Y-37240287D01*
X175709877Y-37324337D01*
X175751152Y-37391276D01*
X175819944Y-37441106D01*
X175819944Y-37452219D01*
X175773112Y-37486350D01*
X175723106Y-37537944D01*
X175683816Y-37609381D01*
X175670719Y-37690344D01*
X175426137Y-37690344D01*
X175575469Y-37434756D01*
X175607219Y-37349031D01*
X175586581Y-37293866D01*
X175524669Y-37242669D01*
X175429419Y-37207744D01*
X175374650Y-37229175D01*
X175332581Y-37293469D01*
X175124619Y-37693519D01*
X174916656Y-37293469D01*
X174890462Y-37249812D01*
X174862681Y-37222825D01*
X174811881Y-37209331D01*
X174724569Y-37242669D01*
X174662656Y-37293469D01*
X174642019Y-37347444D01*
X174129389Y-37347444D01*
X174129389Y-36366501D01*
G37*
%TO.C,kibuzzard-63744AA3*%
G36*
X190338143Y-124884449D02*
G01*
X187461857Y-124884449D01*
X187461857Y-123939225D01*
X187974487Y-123939225D01*
X187982425Y-124011456D01*
X188009412Y-124049556D01*
X188090375Y-124063844D01*
X188226900Y-124063844D01*
X188226900Y-124192431D01*
X188240394Y-124273394D01*
X188280875Y-124307525D01*
X188353106Y-124316256D01*
X188425337Y-124307525D01*
X188463437Y-124278156D01*
X188477725Y-124190844D01*
X188477725Y-124063844D01*
X188615837Y-124063844D01*
X188692037Y-124051144D01*
X188723787Y-124010663D01*
X188731725Y-123938431D01*
X188722994Y-123866200D01*
X188692037Y-123827306D01*
X188604725Y-123813019D01*
X188477725Y-123813019D01*
X188477725Y-123783650D01*
X188811100Y-123783650D01*
X188821766Y-123900381D01*
X188853764Y-124008480D01*
X188907094Y-124107946D01*
X188981756Y-124198781D01*
X189071599Y-124274485D01*
X189170470Y-124328559D01*
X189278371Y-124361004D01*
X189395300Y-124371819D01*
X189685813Y-124371819D01*
X189764394Y-124361897D01*
X189806463Y-124332131D01*
X189825513Y-124230531D01*
X189825513Y-123347881D01*
X189823131Y-123292319D01*
X189808050Y-123251044D01*
X189765981Y-123218897D01*
X189684225Y-123208181D01*
X189390538Y-123209769D01*
X189278916Y-123220137D01*
X189174241Y-123251242D01*
X189076510Y-123303084D01*
X188985725Y-123375662D01*
X188909327Y-123463372D01*
X188854756Y-123560606D01*
X188822014Y-123667366D01*
X188811100Y-123783650D01*
X188477725Y-123783650D01*
X188477725Y-123684431D01*
X188465025Y-123603469D01*
X188424544Y-123569337D01*
X188352312Y-123560606D01*
X188280081Y-123569337D01*
X188241187Y-123598706D01*
X188226900Y-123686019D01*
X188226900Y-123813019D01*
X188098312Y-123813019D01*
X188017350Y-123826513D01*
X187983219Y-123866994D01*
X187974487Y-123939225D01*
X187461857Y-123939225D01*
X187461857Y-122695551D01*
X190338143Y-122695551D01*
X190338143Y-124884449D01*
G37*
G36*
X189544525Y-124090831D02*
G01*
X189390538Y-124090831D01*
X189281794Y-124069598D01*
X189184163Y-124005900D01*
X189115106Y-123910055D01*
X189092088Y-123792381D01*
X189114511Y-123674311D01*
X189181781Y-123577275D01*
X189279214Y-123512386D01*
X189392125Y-123490756D01*
X189544525Y-123490756D01*
X189544525Y-124090831D01*
G37*
%TD*%
M02*
