%TF.GenerationSoftware,KiCad,Pcbnew,(6.0.7)*%
%TF.CreationDate,2022-12-29T16:14:02-06:00*%
%TF.ProjectId,DevBoard_Addon,44657642-6f61-4726-945f-4164646f6e2e,0b*%
%TF.SameCoordinates,Original*%
%TF.FileFunction,Profile,NP*%
%FSLAX46Y46*%
G04 Gerber Fmt 4.6, Leading zero omitted, Abs format (unit mm)*
G04 Created by KiCad (PCBNEW (6.0.7)) date 2022-12-29 16:14:02*
%MOMM*%
%LPD*%
G01*
G04 APERTURE LIST*
%TA.AperFunction,Profile*%
%ADD10C,0.100000*%
%TD*%
%TA.AperFunction,Profile*%
%ADD11C,0.050000*%
%TD*%
G04 APERTURE END LIST*
D10*
X190588960Y-111087266D02*
X190578379Y-129913719D01*
X107710309Y-112324382D02*
X107721040Y-129952734D01*
D11*
X159170000Y-122490000D02*
X139050000Y-122490000D01*
D10*
X136490000Y-122530000D02*
X136470000Y-127690000D01*
X108051040Y-130302734D02*
X116100500Y-130337200D01*
X182068960Y-50587266D02*
X178801040Y-50582734D01*
X108020319Y-111914414D02*
G75*
G03*
X107710309Y-112324382I134081J-423586D01*
G01*
X126200000Y-122560000D02*
X136490000Y-122530000D01*
D11*
X139050000Y-122490000D02*
X139020000Y-66740000D01*
D10*
X116450000Y-127670000D02*
X126200000Y-127640000D01*
D11*
X139020000Y-66740000D02*
X159280000Y-66750000D01*
D10*
X116450500Y-130007200D02*
X116450000Y-127670000D01*
X115500000Y-49870000D02*
X115800000Y-92900000D01*
X115800000Y-92900000D02*
X115786170Y-109972119D01*
X173800000Y-30550000D02*
X115687266Y-30571040D01*
X182398996Y-50937265D02*
G75*
G03*
X182068960Y-50587266I-363896J-12535D01*
G01*
X116100499Y-130337188D02*
G75*
G03*
X116450500Y-130007200I-47499J400988D01*
G01*
X190228391Y-130243616D02*
G75*
G03*
X190578379Y-129913719I35709J312716D01*
G01*
X178471045Y-50240000D02*
G75*
G03*
X178801040Y-50582734I363855J20100D01*
G01*
X182450000Y-82430000D02*
X182430000Y-71470000D01*
X107721004Y-129952735D02*
G75*
G03*
X108051040Y-130302734I363896J12535D01*
G01*
X115337266Y-30901040D02*
X115500000Y-49870000D01*
X115476169Y-110332103D02*
G75*
G03*
X115786170Y-109972119I-11069J323003D01*
G01*
X145912490Y-129944358D02*
G75*
G03*
X146242504Y-130283856I386810J45858D01*
G01*
X178490000Y-36300000D02*
X173800000Y-30550000D01*
X146242504Y-130283856D02*
X190228379Y-130243719D01*
X190310000Y-110740000D02*
X184969000Y-108525800D01*
X145920000Y-127680000D02*
X145912504Y-129944356D01*
X190588947Y-111087268D02*
G75*
G03*
X190310000Y-110740000I-442447J-69732D01*
G01*
X136470000Y-127690000D02*
X145920000Y-127680000D01*
X185128000Y-100041000D02*
X185120000Y-89510000D01*
X184969000Y-108525800D02*
X185128000Y-100041000D01*
X126200000Y-127640000D02*
X126200000Y-122560000D01*
X178471040Y-50240000D02*
X178490000Y-36300000D01*
X115687265Y-30571004D02*
G75*
G03*
X115337266Y-30901040I12535J-363896D01*
G01*
X185120000Y-89510000D02*
X182450000Y-82430000D01*
D11*
X159280000Y-66750000D02*
X159170000Y-122490000D01*
D10*
X115476170Y-110332119D02*
X108020309Y-111914382D01*
X182430000Y-71470000D02*
X182398960Y-50937266D01*
M02*
