%TF.GenerationSoftware,KiCad,Pcbnew,(6.0.7)*%
%TF.CreationDate,2022-12-29T16:14:02-06:00*%
%TF.ProjectId,DevBoard_Addon,44657642-6f61-4726-945f-4164646f6e2e,0b*%
%TF.SameCoordinates,Original*%
%TF.FileFunction,Copper,L2,Bot*%
%TF.FilePolarity,Positive*%
%FSLAX46Y46*%
G04 Gerber Fmt 4.6, Leading zero omitted, Abs format (unit mm)*
G04 Created by KiCad (PCBNEW (6.0.7)) date 2022-12-29 16:14:02*
%MOMM*%
%LPD*%
G01*
G04 APERTURE LIST*
%TA.AperFunction,EtchedComponent*%
%ADD10C,0.010000*%
%TD*%
%TA.AperFunction,ComponentPad*%
%ADD11C,2.000000*%
%TD*%
G04 APERTURE END LIST*
%TO.C,G\u002A\u002A\u002A*%
G36*
X177394903Y-48828703D02*
G01*
X177420074Y-48851719D01*
X177435056Y-48889368D01*
X177444154Y-48949681D01*
X177446339Y-49026337D01*
X177442135Y-49115288D01*
X177432071Y-49212483D01*
X177416673Y-49313872D01*
X177396469Y-49415405D01*
X177371984Y-49513031D01*
X177343746Y-49602700D01*
X177312282Y-49680363D01*
X177295657Y-49714003D01*
X177251334Y-49791613D01*
X177200451Y-49867897D01*
X177146461Y-49938514D01*
X177092814Y-49999119D01*
X177042960Y-50045372D01*
X177000350Y-50072928D01*
X176999799Y-50073172D01*
X176968334Y-50085076D01*
X176945745Y-50090302D01*
X176934692Y-50089484D01*
X176895248Y-50073956D01*
X176853519Y-50043588D01*
X176815852Y-50004610D01*
X176788596Y-49963255D01*
X176778100Y-49925752D01*
X176779007Y-49912610D01*
X176790323Y-49882775D01*
X176817068Y-49855445D01*
X176862370Y-49827970D01*
X176929355Y-49797705D01*
X176988460Y-49772355D01*
X177087585Y-49723574D01*
X177164713Y-49675249D01*
X177221989Y-49625688D01*
X177261553Y-49573196D01*
X177285550Y-49516078D01*
X177287987Y-49504391D01*
X177292983Y-49464861D01*
X177298110Y-49406625D01*
X177303048Y-49334085D01*
X177307479Y-49251642D01*
X177311083Y-49163700D01*
X177312965Y-49112763D01*
X177316505Y-49031206D01*
X177320263Y-48959592D01*
X177324006Y-48901783D01*
X177327499Y-48861640D01*
X177330509Y-48843025D01*
X177339806Y-48830056D01*
X177365211Y-48821197D01*
X177394903Y-48828703D01*
G37*
D10*
X177394903Y-48828703D02*
X177420074Y-48851719D01*
X177435056Y-48889368D01*
X177444154Y-48949681D01*
X177446339Y-49026337D01*
X177442135Y-49115288D01*
X177432071Y-49212483D01*
X177416673Y-49313872D01*
X177396469Y-49415405D01*
X177371984Y-49513031D01*
X177343746Y-49602700D01*
X177312282Y-49680363D01*
X177295657Y-49714003D01*
X177251334Y-49791613D01*
X177200451Y-49867897D01*
X177146461Y-49938514D01*
X177092814Y-49999119D01*
X177042960Y-50045372D01*
X177000350Y-50072928D01*
X176999799Y-50073172D01*
X176968334Y-50085076D01*
X176945745Y-50090302D01*
X176934692Y-50089484D01*
X176895248Y-50073956D01*
X176853519Y-50043588D01*
X176815852Y-50004610D01*
X176788596Y-49963255D01*
X176778100Y-49925752D01*
X176779007Y-49912610D01*
X176790323Y-49882775D01*
X176817068Y-49855445D01*
X176862370Y-49827970D01*
X176929355Y-49797705D01*
X176988460Y-49772355D01*
X177087585Y-49723574D01*
X177164713Y-49675249D01*
X177221989Y-49625688D01*
X177261553Y-49573196D01*
X177285550Y-49516078D01*
X177287987Y-49504391D01*
X177292983Y-49464861D01*
X177298110Y-49406625D01*
X177303048Y-49334085D01*
X177307479Y-49251642D01*
X177311083Y-49163700D01*
X177312965Y-49112763D01*
X177316505Y-49031206D01*
X177320263Y-48959592D01*
X177324006Y-48901783D01*
X177327499Y-48861640D01*
X177330509Y-48843025D01*
X177339806Y-48830056D01*
X177365211Y-48821197D01*
X177394903Y-48828703D01*
G36*
X176868022Y-48627144D02*
G01*
X176879821Y-48649665D01*
X176886573Y-48673748D01*
X176891738Y-48738310D01*
X176885435Y-48821141D01*
X176867793Y-48919359D01*
X176865369Y-48930722D01*
X176854327Y-48995176D01*
X176846877Y-49060062D01*
X176844521Y-49112900D01*
X176844611Y-49132489D01*
X176842147Y-49171874D01*
X176834168Y-49208795D01*
X176818490Y-49251524D01*
X176792930Y-49308332D01*
X176782503Y-49331427D01*
X176753473Y-49402589D01*
X176725158Y-49480214D01*
X176702443Y-49551197D01*
X176656857Y-49691196D01*
X176588083Y-49858690D01*
X176508350Y-50013606D01*
X176419838Y-50151798D01*
X176324728Y-50269122D01*
X176315151Y-50279304D01*
X176281382Y-50312664D01*
X176253970Y-50336009D01*
X176238111Y-50344800D01*
X176231145Y-50343167D01*
X176208232Y-50326511D01*
X176183570Y-50298564D01*
X176163860Y-50267677D01*
X176155800Y-50242201D01*
X176156611Y-50234852D01*
X176163829Y-50204063D01*
X176176914Y-50159397D01*
X176193900Y-50107793D01*
X176204140Y-50077955D01*
X176220650Y-50025783D01*
X176228765Y-49988241D01*
X176228871Y-49959018D01*
X176221354Y-49931808D01*
X176206600Y-49900300D01*
X176201748Y-49890485D01*
X176184282Y-49840204D01*
X176185856Y-49796615D01*
X176206461Y-49751075D01*
X176216610Y-49735998D01*
X176244200Y-49711454D01*
X176273183Y-49710727D01*
X176304955Y-49734138D01*
X176340911Y-49782007D01*
X176365421Y-49818959D01*
X176381367Y-49837918D01*
X176391745Y-49840867D01*
X176400201Y-49830807D01*
X176400837Y-49829561D01*
X176406418Y-49802188D01*
X176408195Y-49755265D01*
X176405951Y-49693953D01*
X176404837Y-49673306D01*
X176403950Y-49619824D01*
X176405949Y-49575739D01*
X176410581Y-49548997D01*
X176415934Y-49536768D01*
X176427748Y-49524483D01*
X176449645Y-49520298D01*
X176489205Y-49521569D01*
X176525669Y-49523244D01*
X176547132Y-49520432D01*
X176556207Y-49509620D01*
X176559644Y-49487550D01*
X176563047Y-49464291D01*
X176580142Y-49398132D01*
X176607693Y-49322728D01*
X176642882Y-49246250D01*
X176655453Y-49221022D01*
X176669620Y-49186801D01*
X176677148Y-49153930D01*
X176679736Y-49113507D01*
X176679082Y-49056631D01*
X176678713Y-49040040D01*
X176678916Y-48986728D01*
X176682808Y-48948488D01*
X176691720Y-48917119D01*
X176706980Y-48884418D01*
X176715999Y-48866239D01*
X176736795Y-48817985D01*
X176751406Y-48775587D01*
X176756190Y-48759677D01*
X176779954Y-48703780D01*
X176809763Y-48658286D01*
X176841041Y-48630599D01*
X176852816Y-48625154D01*
X176868022Y-48627144D01*
G37*
X176868022Y-48627144D02*
X176879821Y-48649665D01*
X176886573Y-48673748D01*
X176891738Y-48738310D01*
X176885435Y-48821141D01*
X176867793Y-48919359D01*
X176865369Y-48930722D01*
X176854327Y-48995176D01*
X176846877Y-49060062D01*
X176844521Y-49112900D01*
X176844611Y-49132489D01*
X176842147Y-49171874D01*
X176834168Y-49208795D01*
X176818490Y-49251524D01*
X176792930Y-49308332D01*
X176782503Y-49331427D01*
X176753473Y-49402589D01*
X176725158Y-49480214D01*
X176702443Y-49551197D01*
X176656857Y-49691196D01*
X176588083Y-49858690D01*
X176508350Y-50013606D01*
X176419838Y-50151798D01*
X176324728Y-50269122D01*
X176315151Y-50279304D01*
X176281382Y-50312664D01*
X176253970Y-50336009D01*
X176238111Y-50344800D01*
X176231145Y-50343167D01*
X176208232Y-50326511D01*
X176183570Y-50298564D01*
X176163860Y-50267677D01*
X176155800Y-50242201D01*
X176156611Y-50234852D01*
X176163829Y-50204063D01*
X176176914Y-50159397D01*
X176193900Y-50107793D01*
X176204140Y-50077955D01*
X176220650Y-50025783D01*
X176228765Y-49988241D01*
X176228871Y-49959018D01*
X176221354Y-49931808D01*
X176206600Y-49900300D01*
X176201748Y-49890485D01*
X176184282Y-49840204D01*
X176185856Y-49796615D01*
X176206461Y-49751075D01*
X176216610Y-49735998D01*
X176244200Y-49711454D01*
X176273183Y-49710727D01*
X176304955Y-49734138D01*
X176340911Y-49782007D01*
X176365421Y-49818959D01*
X176381367Y-49837918D01*
X176391745Y-49840867D01*
X176400201Y-49830807D01*
X176400837Y-49829561D01*
X176406418Y-49802188D01*
X176408195Y-49755265D01*
X176405951Y-49693953D01*
X176404837Y-49673306D01*
X176403950Y-49619824D01*
X176405949Y-49575739D01*
X176410581Y-49548997D01*
X176415934Y-49536768D01*
X176427748Y-49524483D01*
X176449645Y-49520298D01*
X176489205Y-49521569D01*
X176525669Y-49523244D01*
X176547132Y-49520432D01*
X176556207Y-49509620D01*
X176559644Y-49487550D01*
X176563047Y-49464291D01*
X176580142Y-49398132D01*
X176607693Y-49322728D01*
X176642882Y-49246250D01*
X176655453Y-49221022D01*
X176669620Y-49186801D01*
X176677148Y-49153930D01*
X176679736Y-49113507D01*
X176679082Y-49056631D01*
X176678713Y-49040040D01*
X176678916Y-48986728D01*
X176682808Y-48948488D01*
X176691720Y-48917119D01*
X176706980Y-48884418D01*
X176715999Y-48866239D01*
X176736795Y-48817985D01*
X176751406Y-48775587D01*
X176756190Y-48759677D01*
X176779954Y-48703780D01*
X176809763Y-48658286D01*
X176841041Y-48630599D01*
X176852816Y-48625154D01*
X176868022Y-48627144D01*
G36*
X171774599Y-48640214D02*
G01*
X171776675Y-48642952D01*
X171790557Y-48671658D01*
X171803176Y-48717984D01*
X171814884Y-48783875D01*
X171826039Y-48871276D01*
X171836994Y-48982131D01*
X171841976Y-49029293D01*
X171850496Y-49089330D01*
X171859975Y-49139079D01*
X171869132Y-49171007D01*
X171882276Y-49205896D01*
X171886454Y-49236044D01*
X171875315Y-49257614D01*
X171847325Y-49278139D01*
X171824735Y-49291037D01*
X171793497Y-49301374D01*
X171767274Y-49293934D01*
X171736802Y-49267855D01*
X171722632Y-49250241D01*
X171698122Y-49195306D01*
X171682027Y-49118303D01*
X171674575Y-49020607D01*
X171675997Y-48903592D01*
X171677145Y-48881477D01*
X171685131Y-48786555D01*
X171696887Y-48712268D01*
X171712063Y-48659553D01*
X171730307Y-48629349D01*
X171751269Y-48622590D01*
X171774599Y-48640214D01*
G37*
X171774599Y-48640214D02*
X171776675Y-48642952D01*
X171790557Y-48671658D01*
X171803176Y-48717984D01*
X171814884Y-48783875D01*
X171826039Y-48871276D01*
X171836994Y-48982131D01*
X171841976Y-49029293D01*
X171850496Y-49089330D01*
X171859975Y-49139079D01*
X171869132Y-49171007D01*
X171882276Y-49205896D01*
X171886454Y-49236044D01*
X171875315Y-49257614D01*
X171847325Y-49278139D01*
X171824735Y-49291037D01*
X171793497Y-49301374D01*
X171767274Y-49293934D01*
X171736802Y-49267855D01*
X171722632Y-49250241D01*
X171698122Y-49195306D01*
X171682027Y-49118303D01*
X171674575Y-49020607D01*
X171675997Y-48903592D01*
X171677145Y-48881477D01*
X171685131Y-48786555D01*
X171696887Y-48712268D01*
X171712063Y-48659553D01*
X171730307Y-48629349D01*
X171751269Y-48622590D01*
X171774599Y-48640214D01*
G36*
X175287578Y-47518793D02*
G01*
X175302793Y-47539299D01*
X175299966Y-47570740D01*
X175290472Y-47582002D01*
X175263682Y-47586615D01*
X175242031Y-47576962D01*
X175235050Y-47550800D01*
X175240983Y-47525947D01*
X175263682Y-47514984D01*
X175287578Y-47518793D01*
G37*
X175287578Y-47518793D02*
X175302793Y-47539299D01*
X175299966Y-47570740D01*
X175290472Y-47582002D01*
X175263682Y-47586615D01*
X175242031Y-47576962D01*
X175235050Y-47550800D01*
X175240983Y-47525947D01*
X175263682Y-47514984D01*
X175287578Y-47518793D01*
G36*
X173425354Y-49415006D02*
G01*
X173518347Y-49421789D01*
X173610383Y-49431925D01*
X173696814Y-49445209D01*
X173772994Y-49461436D01*
X173833054Y-49478708D01*
X173906068Y-49504591D01*
X173976034Y-49534107D01*
X174039433Y-49565351D01*
X174092743Y-49596413D01*
X174132446Y-49625388D01*
X174155019Y-49650368D01*
X174156944Y-49669446D01*
X174146976Y-49677470D01*
X174126544Y-49682212D01*
X174092842Y-49683366D01*
X174042908Y-49680881D01*
X173973781Y-49674707D01*
X173882500Y-49664794D01*
X173773541Y-49651286D01*
X173641237Y-49631831D01*
X173519354Y-49610504D01*
X173409540Y-49587807D01*
X173313445Y-49564239D01*
X173232718Y-49540301D01*
X173169008Y-49516495D01*
X173123965Y-49493319D01*
X173099237Y-49471275D01*
X173096474Y-49450864D01*
X173117325Y-49432585D01*
X173136756Y-49425492D01*
X173187105Y-49416819D01*
X173255086Y-49412317D01*
X173336051Y-49411781D01*
X173425354Y-49415006D01*
G37*
X173425354Y-49415006D02*
X173518347Y-49421789D01*
X173610383Y-49431925D01*
X173696814Y-49445209D01*
X173772994Y-49461436D01*
X173833054Y-49478708D01*
X173906068Y-49504591D01*
X173976034Y-49534107D01*
X174039433Y-49565351D01*
X174092743Y-49596413D01*
X174132446Y-49625388D01*
X174155019Y-49650368D01*
X174156944Y-49669446D01*
X174146976Y-49677470D01*
X174126544Y-49682212D01*
X174092842Y-49683366D01*
X174042908Y-49680881D01*
X173973781Y-49674707D01*
X173882500Y-49664794D01*
X173773541Y-49651286D01*
X173641237Y-49631831D01*
X173519354Y-49610504D01*
X173409540Y-49587807D01*
X173313445Y-49564239D01*
X173232718Y-49540301D01*
X173169008Y-49516495D01*
X173123965Y-49493319D01*
X173099237Y-49471275D01*
X173096474Y-49450864D01*
X173117325Y-49432585D01*
X173136756Y-49425492D01*
X173187105Y-49416819D01*
X173255086Y-49412317D01*
X173336051Y-49411781D01*
X173425354Y-49415006D01*
G36*
X174018599Y-44376764D02*
G01*
X174060300Y-44378736D01*
X174070136Y-44379171D01*
X174154334Y-44387306D01*
X174214805Y-44402341D01*
X174251282Y-44424179D01*
X174263500Y-44452724D01*
X174260206Y-44468263D01*
X174244450Y-44485507D01*
X174233166Y-44495237D01*
X174225400Y-44520424D01*
X174218175Y-44542514D01*
X174188510Y-44561955D01*
X174165273Y-44576339D01*
X174134148Y-44605527D01*
X174104286Y-44641092D01*
X174081849Y-44675584D01*
X174073000Y-44701555D01*
X174082222Y-44716681D01*
X174107265Y-44718623D01*
X174143657Y-44709142D01*
X174186925Y-44690199D01*
X174232599Y-44663755D01*
X174276204Y-44631770D01*
X174313270Y-44596206D01*
X174329498Y-44578631D01*
X174359766Y-44552016D01*
X174392717Y-44533562D01*
X174432030Y-44522849D01*
X174481387Y-44519456D01*
X174544468Y-44522963D01*
X174624954Y-44532949D01*
X174726526Y-44548994D01*
X174776870Y-44556251D01*
X174850189Y-44564665D01*
X174929932Y-44572102D01*
X175005926Y-44577523D01*
X175054206Y-44580467D01*
X175111850Y-44585193D01*
X175156004Y-44591521D01*
X175193864Y-44600970D01*
X175232630Y-44615061D01*
X175279500Y-44635315D01*
X175345427Y-44664710D01*
X175419713Y-44697378D01*
X175476888Y-44721607D01*
X175520431Y-44738639D01*
X175553824Y-44749716D01*
X175580548Y-44756080D01*
X175604083Y-44758973D01*
X175627909Y-44759637D01*
X175659950Y-44760202D01*
X175686593Y-44763534D01*
X175712749Y-44771909D01*
X175743815Y-44787602D01*
X175785186Y-44812889D01*
X175842258Y-44850046D01*
X175881419Y-44877060D01*
X175930267Y-44917059D01*
X175974497Y-44963484D01*
X176022379Y-45024335D01*
X176028624Y-45032674D01*
X176070705Y-45086427D01*
X176122902Y-45150163D01*
X176179174Y-45216606D01*
X176233480Y-45278485D01*
X176256866Y-45304715D01*
X176340040Y-45401338D01*
X176408514Y-45486593D01*
X176461483Y-45559320D01*
X176498143Y-45618361D01*
X176517689Y-45662554D01*
X176519319Y-45690741D01*
X176507851Y-45700101D01*
X176472801Y-45716254D01*
X176415953Y-45737458D01*
X176338876Y-45763226D01*
X176243138Y-45793071D01*
X176130308Y-45826507D01*
X176001954Y-45863046D01*
X175859646Y-45902201D01*
X175704950Y-45943487D01*
X175615160Y-45967137D01*
X175424550Y-46017598D01*
X175255529Y-46062800D01*
X175105972Y-46103392D01*
X174973752Y-46140021D01*
X174856745Y-46173337D01*
X174752826Y-46203986D01*
X174659867Y-46232616D01*
X174575745Y-46259877D01*
X174498334Y-46286416D01*
X174425508Y-46312881D01*
X174355142Y-46339920D01*
X174285110Y-46368181D01*
X174213288Y-46398313D01*
X174139043Y-46429326D01*
X174067320Y-46457291D01*
X174010771Y-46476407D01*
X173965279Y-46488043D01*
X173926727Y-46493569D01*
X173915612Y-46494383D01*
X173870744Y-46494783D01*
X173832715Y-46487630D01*
X173795394Y-46470254D01*
X173752650Y-46439986D01*
X173698350Y-46394158D01*
X173637712Y-46345512D01*
X173578009Y-46308988D01*
X173513006Y-46282228D01*
X173436017Y-46262488D01*
X173340359Y-46247018D01*
X173244794Y-46237062D01*
X173088960Y-46230945D01*
X172927452Y-46235559D01*
X172764093Y-46250181D01*
X172602707Y-46274091D01*
X172447116Y-46306566D01*
X172301145Y-46346885D01*
X172168615Y-46394327D01*
X172053350Y-46448170D01*
X171959174Y-46507693D01*
X171928723Y-46529905D01*
X171887994Y-46557661D01*
X171856850Y-46576709D01*
X171815315Y-46593799D01*
X171773103Y-46594003D01*
X171727016Y-46573246D01*
X171705087Y-46557671D01*
X171683269Y-46529923D01*
X171677148Y-46494640D01*
X171686339Y-46447390D01*
X171710452Y-46383742D01*
X171715373Y-46372072D01*
X171734236Y-46323351D01*
X171747856Y-46281808D01*
X171753564Y-46255400D01*
X171753738Y-46251224D01*
X171750731Y-46232829D01*
X171735823Y-46223914D01*
X171702265Y-46219793D01*
X171690850Y-46218598D01*
X171655944Y-46210384D01*
X171634792Y-46198480D01*
X171630949Y-46193452D01*
X171627290Y-46183599D01*
X171629790Y-46169541D01*
X171640233Y-46146920D01*
X171660406Y-46111375D01*
X171692092Y-46058550D01*
X171701043Y-46042089D01*
X171721891Y-45992318D01*
X171736576Y-45941923D01*
X171740648Y-45925476D01*
X171761167Y-45872536D01*
X171795723Y-45810537D01*
X171845918Y-45736822D01*
X171913355Y-45648733D01*
X171941047Y-45612691D01*
X171961893Y-45580168D01*
X171970473Y-45555663D01*
X171969618Y-45533364D01*
X171967927Y-45521581D01*
X171971271Y-45500416D01*
X171987148Y-45477966D01*
X172019541Y-45447374D01*
X172031182Y-45437899D01*
X172075849Y-45407858D01*
X172131569Y-45376371D01*
X172188982Y-45348880D01*
X172213264Y-45338227D01*
X172295899Y-45299712D01*
X172395703Y-45250526D01*
X172509259Y-45192434D01*
X172633148Y-45127204D01*
X172763951Y-45056601D01*
X172898250Y-44982393D01*
X172905533Y-44978324D01*
X172987177Y-44933050D01*
X173082891Y-44880449D01*
X173185085Y-44824669D01*
X173286166Y-44769853D01*
X173378543Y-44720146D01*
X173410992Y-44702664D01*
X173492726Y-44657727D01*
X173571155Y-44613428D01*
X173641475Y-44572545D01*
X173698882Y-44537852D01*
X173738571Y-44512126D01*
X173769920Y-44490281D01*
X173830162Y-44448256D01*
X173875178Y-44417730D01*
X173909159Y-44396966D01*
X173936300Y-44384226D01*
X173960791Y-44377771D01*
X173986827Y-44375863D01*
X174018599Y-44376764D01*
G37*
X174018599Y-44376764D02*
X174060300Y-44378736D01*
X174070136Y-44379171D01*
X174154334Y-44387306D01*
X174214805Y-44402341D01*
X174251282Y-44424179D01*
X174263500Y-44452724D01*
X174260206Y-44468263D01*
X174244450Y-44485507D01*
X174233166Y-44495237D01*
X174225400Y-44520424D01*
X174218175Y-44542514D01*
X174188510Y-44561955D01*
X174165273Y-44576339D01*
X174134148Y-44605527D01*
X174104286Y-44641092D01*
X174081849Y-44675584D01*
X174073000Y-44701555D01*
X174082222Y-44716681D01*
X174107265Y-44718623D01*
X174143657Y-44709142D01*
X174186925Y-44690199D01*
X174232599Y-44663755D01*
X174276204Y-44631770D01*
X174313270Y-44596206D01*
X174329498Y-44578631D01*
X174359766Y-44552016D01*
X174392717Y-44533562D01*
X174432030Y-44522849D01*
X174481387Y-44519456D01*
X174544468Y-44522963D01*
X174624954Y-44532949D01*
X174726526Y-44548994D01*
X174776870Y-44556251D01*
X174850189Y-44564665D01*
X174929932Y-44572102D01*
X175005926Y-44577523D01*
X175054206Y-44580467D01*
X175111850Y-44585193D01*
X175156004Y-44591521D01*
X175193864Y-44600970D01*
X175232630Y-44615061D01*
X175279500Y-44635315D01*
X175345427Y-44664710D01*
X175419713Y-44697378D01*
X175476888Y-44721607D01*
X175520431Y-44738639D01*
X175553824Y-44749716D01*
X175580548Y-44756080D01*
X175604083Y-44758973D01*
X175627909Y-44759637D01*
X175659950Y-44760202D01*
X175686593Y-44763534D01*
X175712749Y-44771909D01*
X175743815Y-44787602D01*
X175785186Y-44812889D01*
X175842258Y-44850046D01*
X175881419Y-44877060D01*
X175930267Y-44917059D01*
X175974497Y-44963484D01*
X176022379Y-45024335D01*
X176028624Y-45032674D01*
X176070705Y-45086427D01*
X176122902Y-45150163D01*
X176179174Y-45216606D01*
X176233480Y-45278485D01*
X176256866Y-45304715D01*
X176340040Y-45401338D01*
X176408514Y-45486593D01*
X176461483Y-45559320D01*
X176498143Y-45618361D01*
X176517689Y-45662554D01*
X176519319Y-45690741D01*
X176507851Y-45700101D01*
X176472801Y-45716254D01*
X176415953Y-45737458D01*
X176338876Y-45763226D01*
X176243138Y-45793071D01*
X176130308Y-45826507D01*
X176001954Y-45863046D01*
X175859646Y-45902201D01*
X175704950Y-45943487D01*
X175615160Y-45967137D01*
X175424550Y-46017598D01*
X175255529Y-46062800D01*
X175105972Y-46103392D01*
X174973752Y-46140021D01*
X174856745Y-46173337D01*
X174752826Y-46203986D01*
X174659867Y-46232616D01*
X174575745Y-46259877D01*
X174498334Y-46286416D01*
X174425508Y-46312881D01*
X174355142Y-46339920D01*
X174285110Y-46368181D01*
X174213288Y-46398313D01*
X174139043Y-46429326D01*
X174067320Y-46457291D01*
X174010771Y-46476407D01*
X173965279Y-46488043D01*
X173926727Y-46493569D01*
X173915612Y-46494383D01*
X173870744Y-46494783D01*
X173832715Y-46487630D01*
X173795394Y-46470254D01*
X173752650Y-46439986D01*
X173698350Y-46394158D01*
X173637712Y-46345512D01*
X173578009Y-46308988D01*
X173513006Y-46282228D01*
X173436017Y-46262488D01*
X173340359Y-46247018D01*
X173244794Y-46237062D01*
X173088960Y-46230945D01*
X172927452Y-46235559D01*
X172764093Y-46250181D01*
X172602707Y-46274091D01*
X172447116Y-46306566D01*
X172301145Y-46346885D01*
X172168615Y-46394327D01*
X172053350Y-46448170D01*
X171959174Y-46507693D01*
X171928723Y-46529905D01*
X171887994Y-46557661D01*
X171856850Y-46576709D01*
X171815315Y-46593799D01*
X171773103Y-46594003D01*
X171727016Y-46573246D01*
X171705087Y-46557671D01*
X171683269Y-46529923D01*
X171677148Y-46494640D01*
X171686339Y-46447390D01*
X171710452Y-46383742D01*
X171715373Y-46372072D01*
X171734236Y-46323351D01*
X171747856Y-46281808D01*
X171753564Y-46255400D01*
X171753738Y-46251224D01*
X171750731Y-46232829D01*
X171735823Y-46223914D01*
X171702265Y-46219793D01*
X171690850Y-46218598D01*
X171655944Y-46210384D01*
X171634792Y-46198480D01*
X171630949Y-46193452D01*
X171627290Y-46183599D01*
X171629790Y-46169541D01*
X171640233Y-46146920D01*
X171660406Y-46111375D01*
X171692092Y-46058550D01*
X171701043Y-46042089D01*
X171721891Y-45992318D01*
X171736576Y-45941923D01*
X171740648Y-45925476D01*
X171761167Y-45872536D01*
X171795723Y-45810537D01*
X171845918Y-45736822D01*
X171913355Y-45648733D01*
X171941047Y-45612691D01*
X171961893Y-45580168D01*
X171970473Y-45555663D01*
X171969618Y-45533364D01*
X171967927Y-45521581D01*
X171971271Y-45500416D01*
X171987148Y-45477966D01*
X172019541Y-45447374D01*
X172031182Y-45437899D01*
X172075849Y-45407858D01*
X172131569Y-45376371D01*
X172188982Y-45348880D01*
X172213264Y-45338227D01*
X172295899Y-45299712D01*
X172395703Y-45250526D01*
X172509259Y-45192434D01*
X172633148Y-45127204D01*
X172763951Y-45056601D01*
X172898250Y-44982393D01*
X172905533Y-44978324D01*
X172987177Y-44933050D01*
X173082891Y-44880449D01*
X173185085Y-44824669D01*
X173286166Y-44769853D01*
X173378543Y-44720146D01*
X173410992Y-44702664D01*
X173492726Y-44657727D01*
X173571155Y-44613428D01*
X173641475Y-44572545D01*
X173698882Y-44537852D01*
X173738571Y-44512126D01*
X173769920Y-44490281D01*
X173830162Y-44448256D01*
X173875178Y-44417730D01*
X173909159Y-44396966D01*
X173936300Y-44384226D01*
X173960791Y-44377771D01*
X173986827Y-44375863D01*
X174018599Y-44376764D01*
G36*
X176016100Y-49787136D02*
G01*
X176015605Y-49790544D01*
X176004501Y-49814383D01*
X175981782Y-49849614D01*
X175951415Y-49889933D01*
X175924414Y-49923885D01*
X175903430Y-49953854D01*
X175893343Y-49977605D01*
X175891259Y-50002537D01*
X175894285Y-50036050D01*
X175898725Y-50068317D01*
X175910315Y-50120828D01*
X175924557Y-50154878D01*
X175940234Y-50167000D01*
X175944843Y-50165531D01*
X175959791Y-50147614D01*
X175974703Y-50115824D01*
X175986199Y-50078400D01*
X175990895Y-50043582D01*
X175991069Y-50036089D01*
X175998223Y-49997873D01*
X176014478Y-49979763D01*
X176037964Y-49984118D01*
X176048735Y-49995414D01*
X176065232Y-50033257D01*
X176079418Y-50092889D01*
X176090813Y-50172080D01*
X176098939Y-50268600D01*
X176106255Y-50389250D01*
X176008041Y-50450752D01*
X175965923Y-50475813D01*
X175895583Y-50508948D01*
X175835032Y-50522588D01*
X175779933Y-50516671D01*
X175725948Y-50491134D01*
X175668740Y-50445917D01*
X175641087Y-50421542D01*
X175602996Y-50392631D01*
X175579578Y-50382411D01*
X175571600Y-50391313D01*
X175575969Y-50401882D01*
X175590938Y-50428591D01*
X175612875Y-50464101D01*
X175622822Y-50479910D01*
X175639802Y-50511311D01*
X175649228Y-50541320D01*
X175653284Y-50578863D01*
X175654150Y-50632861D01*
X175654046Y-50646032D01*
X175651705Y-50695109D01*
X175646877Y-50732371D01*
X175640354Y-50751034D01*
X175624342Y-50761834D01*
X175583776Y-50771996D01*
X175535790Y-50770614D01*
X175490270Y-50757277D01*
X175479496Y-50752342D01*
X175452500Y-50741860D01*
X175439832Y-50740012D01*
X175436854Y-50750321D01*
X175431128Y-50779690D01*
X175424411Y-50820552D01*
X175412850Y-50896254D01*
X175351204Y-50918205D01*
X175330610Y-50926227D01*
X175291363Y-50945088D01*
X175264768Y-50962589D01*
X175259393Y-50967265D01*
X175237967Y-50977948D01*
X175215290Y-50969711D01*
X175197314Y-50958577D01*
X175164868Y-50938525D01*
X175145307Y-50930549D01*
X175122990Y-50934154D01*
X175089327Y-50951225D01*
X175064102Y-50964784D01*
X175027255Y-50977554D01*
X174997097Y-50974023D01*
X174965466Y-50954400D01*
X174952088Y-50944917D01*
X174917690Y-50931458D01*
X174876558Y-50932698D01*
X174821493Y-50948334D01*
X174766692Y-50967669D01*
X174714641Y-50916584D01*
X174687027Y-50891357D01*
X174651814Y-50869547D01*
X174622086Y-50869696D01*
X174593191Y-50892468D01*
X174560477Y-50938525D01*
X174535786Y-50975221D01*
X174505782Y-51014097D01*
X174481260Y-51040061D01*
X174440187Y-51063972D01*
X174387602Y-51068565D01*
X174329625Y-51048355D01*
X174266234Y-51003337D01*
X174242186Y-50983890D01*
X174213704Y-50969720D01*
X174189536Y-50974605D01*
X174162519Y-50998191D01*
X174132223Y-51022042D01*
X174098379Y-51036954D01*
X174073222Y-51038369D01*
X174026378Y-51034989D01*
X173966331Y-51027132D01*
X173899204Y-51015740D01*
X173831119Y-51001756D01*
X173768200Y-50986121D01*
X173704274Y-50969394D01*
X173654947Y-50959945D01*
X173613527Y-50957769D01*
X173571850Y-50962448D01*
X173521755Y-50973567D01*
X173517552Y-50974600D01*
X173454050Y-50986378D01*
X173404862Y-50988084D01*
X173373081Y-50979940D01*
X173361800Y-50962167D01*
X173367792Y-50946587D01*
X173386164Y-50916940D01*
X173412600Y-50881215D01*
X173421322Y-50870092D01*
X173449380Y-50830590D01*
X173462459Y-50804879D01*
X173459932Y-50794696D01*
X173441175Y-50801779D01*
X173426427Y-50811292D01*
X173394618Y-50833008D01*
X173357239Y-50859376D01*
X173322597Y-50882581D01*
X173292206Y-50896348D01*
X173257595Y-50902309D01*
X173208196Y-50903600D01*
X173163311Y-50905208D01*
X173107592Y-50910755D01*
X173063685Y-50918893D01*
X173048380Y-50922850D01*
X173017441Y-50927891D01*
X172995499Y-50922747D01*
X172971428Y-50905843D01*
X172970326Y-50904960D01*
X172932786Y-50879503D01*
X172891900Y-50857646D01*
X172887942Y-50855810D01*
X172846959Y-50831633D01*
X172809350Y-50802379D01*
X172791216Y-50788329D01*
X172748294Y-50763888D01*
X172701400Y-50744751D01*
X172657423Y-50729425D01*
X172617859Y-50709056D01*
X172596368Y-50683948D01*
X172591284Y-50649611D01*
X172600941Y-50601558D01*
X172623674Y-50535300D01*
X172636940Y-50493966D01*
X172648975Y-50427675D01*
X172648469Y-50369412D01*
X172636106Y-50323028D01*
X172612572Y-50292373D01*
X172578549Y-50281300D01*
X172566510Y-50281737D01*
X172552008Y-50288798D01*
X172554364Y-50309875D01*
X172563576Y-50350443D01*
X172565941Y-50434278D01*
X172546141Y-50511415D01*
X172505922Y-50578439D01*
X172447026Y-50631934D01*
X172371200Y-50668484D01*
X172341817Y-50678846D01*
X172304202Y-50694933D01*
X172281300Y-50708381D01*
X172280413Y-50709147D01*
X172253904Y-50724242D01*
X172233119Y-50716448D01*
X172214588Y-50684525D01*
X172213104Y-50681015D01*
X172196412Y-50649227D01*
X172174727Y-50627342D01*
X172141385Y-50610526D01*
X172089725Y-50593947D01*
X172074404Y-50589164D01*
X172011179Y-50557348D01*
X171968733Y-50511484D01*
X171946207Y-50450716D01*
X171940948Y-50425797D01*
X171926120Y-50384509D01*
X171902088Y-50356090D01*
X171862776Y-50331883D01*
X171859880Y-50330407D01*
X171837881Y-50318501D01*
X171823378Y-50306151D01*
X171814960Y-50288367D01*
X171811219Y-50260159D01*
X171810747Y-50216536D01*
X171812134Y-50152507D01*
X171812689Y-50125475D01*
X171812105Y-50085660D01*
X171807769Y-50061251D01*
X171797946Y-50045550D01*
X171780905Y-50031857D01*
X171741577Y-50003185D01*
X171698723Y-49965488D01*
X171673444Y-49928807D01*
X171663382Y-49886874D01*
X171666181Y-49833420D01*
X171679482Y-49762177D01*
X171692581Y-49709906D01*
X171694207Y-49705686D01*
X172374415Y-49705686D01*
X172392042Y-49710264D01*
X172428747Y-49699511D01*
X172484184Y-49673431D01*
X172558008Y-49632027D01*
X172689415Y-49554254D01*
X172793833Y-49574416D01*
X172834413Y-49582384D01*
X172902976Y-49596160D01*
X172978471Y-49611593D01*
X173050650Y-49626601D01*
X173056100Y-49627734D01*
X173130229Y-49641542D01*
X173218209Y-49655695D01*
X173309490Y-49668591D01*
X173393527Y-49678629D01*
X173411503Y-49680552D01*
X173497486Y-49691145D01*
X173564163Y-49702368D01*
X173616691Y-49715229D01*
X173660227Y-49730734D01*
X173665173Y-49732811D01*
X173793796Y-49781891D01*
X173907236Y-49814477D01*
X174008974Y-49831148D01*
X174102490Y-49832483D01*
X174191264Y-49819061D01*
X174232602Y-49809954D01*
X174292781Y-49801175D01*
X174344548Y-49802395D01*
X174397724Y-49814282D01*
X174462130Y-49837506D01*
X174481387Y-49844848D01*
X174545680Y-49866791D01*
X174617996Y-49888736D01*
X174686044Y-49906876D01*
X174715241Y-49913715D01*
X174780267Y-49927608D01*
X174840933Y-49938994D01*
X174887134Y-49945910D01*
X174925562Y-49949714D01*
X174949728Y-49949361D01*
X174959913Y-49942880D01*
X174962000Y-49928937D01*
X174961376Y-49920774D01*
X174954540Y-49887776D01*
X174942593Y-49848487D01*
X174933943Y-49821050D01*
X174929386Y-49785442D01*
X174940189Y-49766304D01*
X174967202Y-49760600D01*
X174996371Y-49754405D01*
X175010105Y-49739314D01*
X175003394Y-49720713D01*
X174999268Y-49717832D01*
X174973805Y-49709327D01*
X174937536Y-49703535D01*
X174910296Y-49699008D01*
X174871768Y-49682118D01*
X174829891Y-49648799D01*
X174824750Y-49644105D01*
X174787528Y-49614877D01*
X174750806Y-49598728D01*
X174701646Y-49589698D01*
X174686159Y-49587606D01*
X174643951Y-49578127D01*
X174611922Y-49561045D01*
X174578222Y-49530694D01*
X174565396Y-49517985D01*
X174539542Y-49496025D01*
X174521031Y-49489293D01*
X174503373Y-49494663D01*
X174487027Y-49500376D01*
X174465096Y-49495627D01*
X174434099Y-49475061D01*
X174426340Y-49469355D01*
X174387929Y-49445224D01*
X174353508Y-49428883D01*
X174345451Y-49425644D01*
X174323251Y-49411189D01*
X174299334Y-49385856D01*
X174270393Y-49345745D01*
X174233120Y-49286958D01*
X174209607Y-49259053D01*
X174181954Y-49240281D01*
X174166115Y-49232120D01*
X174133492Y-49203425D01*
X174108423Y-49167200D01*
X174098400Y-49133063D01*
X174093324Y-49102893D01*
X174069476Y-49067996D01*
X174030567Y-49046815D01*
X173981568Y-49041631D01*
X173927453Y-49054721D01*
X173926655Y-49055054D01*
X173884002Y-49070751D01*
X173859039Y-49072813D01*
X173847319Y-49059969D01*
X173844400Y-49030947D01*
X173846606Y-48991219D01*
X173857290Y-48955956D01*
X173880641Y-48929526D01*
X173920783Y-48907570D01*
X173981842Y-48885730D01*
X173993867Y-48881173D01*
X174033610Y-48860422D01*
X174072570Y-48833841D01*
X174088809Y-48821712D01*
X174119112Y-48802838D01*
X174139127Y-48795400D01*
X174158587Y-48803162D01*
X174188573Y-48830078D01*
X174222521Y-48872269D01*
X174256674Y-48925575D01*
X174280533Y-48963274D01*
X174299485Y-48982676D01*
X174310645Y-48978323D01*
X174314300Y-48950340D01*
X174315369Y-48933030D01*
X174327427Y-48904104D01*
X174355956Y-48888787D01*
X174404766Y-48884300D01*
X174422060Y-48883560D01*
X174480555Y-48866918D01*
X174526981Y-48828131D01*
X174561775Y-48766872D01*
X174576718Y-48722024D01*
X174583135Y-48662702D01*
X174568357Y-48617153D01*
X174532217Y-48584989D01*
X174474545Y-48565823D01*
X174423229Y-48551992D01*
X174357782Y-48526604D01*
X174294899Y-48495606D01*
X174245806Y-48463997D01*
X174243328Y-48461982D01*
X174217703Y-48425074D01*
X174214197Y-48376817D01*
X174232920Y-48318478D01*
X174248541Y-48289302D01*
X174269338Y-48265182D01*
X174297917Y-48250254D01*
X174340150Y-48241674D01*
X174401904Y-48236600D01*
X174511150Y-48230250D01*
X174515120Y-48182149D01*
X174515171Y-48181528D01*
X174514441Y-48148180D01*
X174502650Y-48121288D01*
X174475115Y-48090074D01*
X174445236Y-48064777D01*
X174411768Y-48050095D01*
X174375350Y-48051046D01*
X174332541Y-48068504D01*
X174279901Y-48103345D01*
X174213993Y-48156443D01*
X174209048Y-48160616D01*
X174124006Y-48224494D01*
X174039754Y-48270886D01*
X173946870Y-48305033D01*
X173946081Y-48305266D01*
X173891035Y-48316738D01*
X173826011Y-48323368D01*
X173759692Y-48324945D01*
X173700761Y-48321256D01*
X173657902Y-48312090D01*
X173630846Y-48300167D01*
X173560761Y-48253710D01*
X173494688Y-48188896D01*
X173437235Y-48110731D01*
X173393008Y-48024222D01*
X173378417Y-47990237D01*
X173357190Y-47952660D01*
X173336852Y-47936831D01*
X173314209Y-47940922D01*
X173286062Y-47963107D01*
X173280353Y-47968705D01*
X173254404Y-48002333D01*
X173250310Y-48032259D01*
X173266954Y-48064402D01*
X173277181Y-48088046D01*
X173284110Y-48131017D01*
X173284978Y-48180051D01*
X173279717Y-48224937D01*
X173268257Y-48255463D01*
X173255012Y-48267417D01*
X173223917Y-48278480D01*
X173173007Y-48284817D01*
X173164153Y-48285494D01*
X173122693Y-48290621D01*
X173101225Y-48298439D01*
X173095100Y-48310478D01*
X173094161Y-48327234D01*
X173091145Y-48364812D01*
X173086543Y-48416471D01*
X173080867Y-48476276D01*
X173076112Y-48525899D01*
X173072959Y-48581531D01*
X173077657Y-48618453D01*
X173093714Y-48640498D01*
X173124639Y-48651498D01*
X173173942Y-48655288D01*
X173245131Y-48655700D01*
X173377607Y-48655700D01*
X173372284Y-48767048D01*
X173370177Y-48802345D01*
X173363825Y-48856285D01*
X173352962Y-48897677D01*
X173335749Y-48934976D01*
X173313981Y-48967575D01*
X173283764Y-48998691D01*
X173254683Y-49016329D01*
X173232317Y-49016114D01*
X173232057Y-49015924D01*
X173228202Y-49000033D01*
X173227550Y-48966267D01*
X173230256Y-48921639D01*
X173233057Y-48881832D01*
X173231988Y-48845540D01*
X173224914Y-48833500D01*
X173221199Y-48834307D01*
X173200752Y-48849218D01*
X173172729Y-48878749D01*
X173141630Y-48917414D01*
X173111958Y-48959723D01*
X173088211Y-49000190D01*
X173076522Y-49020982D01*
X173054109Y-49052552D01*
X173035365Y-49069584D01*
X173021226Y-49072669D01*
X172984389Y-49076710D01*
X172930530Y-49080672D01*
X172864288Y-49084227D01*
X172790300Y-49087044D01*
X172568050Y-49093850D01*
X172495326Y-49201800D01*
X172474016Y-49234046D01*
X172447424Y-49276365D01*
X172429161Y-49308115D01*
X172422301Y-49324143D01*
X172422584Y-49326859D01*
X172437921Y-49341033D01*
X172473744Y-49350475D01*
X172526026Y-49354026D01*
X172556690Y-49356775D01*
X172581004Y-49368080D01*
X172582984Y-49385129D01*
X172562871Y-49404659D01*
X172520905Y-49423405D01*
X172502671Y-49430477D01*
X172486036Y-49443920D01*
X172475139Y-49468155D01*
X172465393Y-49510369D01*
X172448195Y-49568512D01*
X172410948Y-49633450D01*
X172397774Y-49650524D01*
X172376210Y-49685774D01*
X172374415Y-49705686D01*
X171694207Y-49705686D01*
X171728195Y-49617448D01*
X171777002Y-49543072D01*
X171841024Y-49483283D01*
X171876781Y-49455140D01*
X171935621Y-49402185D01*
X171990112Y-49345540D01*
X172037130Y-49289081D01*
X172073548Y-49236683D01*
X172096241Y-49192223D01*
X172102084Y-49159575D01*
X172091411Y-49138129D01*
X172056866Y-49118605D01*
X172055069Y-49118016D01*
X172023002Y-49104870D01*
X172002210Y-49091889D01*
X171998955Y-49084511D01*
X171992343Y-49054746D01*
X171984792Y-49007094D01*
X171977003Y-48946181D01*
X171969674Y-48876633D01*
X171965270Y-48832867D01*
X171952104Y-48729114D01*
X171936851Y-48646132D01*
X171918933Y-48580553D01*
X171902797Y-48525320D01*
X171886176Y-48453588D01*
X171875094Y-48388567D01*
X171874600Y-48384668D01*
X171865731Y-48325631D01*
X171853493Y-48263470D01*
X171836817Y-48194039D01*
X171814636Y-48113190D01*
X171785883Y-48016775D01*
X171749490Y-47900647D01*
X171735946Y-47857722D01*
X171707027Y-47760588D01*
X171687580Y-47681874D01*
X171677861Y-47617761D01*
X171678125Y-47564426D01*
X171688626Y-47518049D01*
X171709621Y-47474808D01*
X171741365Y-47430883D01*
X171784113Y-47382453D01*
X171791004Y-47374949D01*
X171831584Y-47327388D01*
X171868741Y-47278895D01*
X171895183Y-47238895D01*
X171905266Y-47221239D01*
X171929066Y-47181489D01*
X171946316Y-47162198D01*
X171962030Y-47162434D01*
X171981220Y-47181266D01*
X172008900Y-47217761D01*
X172014922Y-47225797D01*
X172126474Y-47362704D01*
X172236723Y-47475275D01*
X172345324Y-47563190D01*
X172451932Y-47626132D01*
X172503080Y-47648833D01*
X172583723Y-47676616D01*
X172668753Y-47694990D01*
X172764977Y-47705274D01*
X172879200Y-47708783D01*
X172942266Y-47708827D01*
X172995372Y-47707718D01*
X173034235Y-47704584D01*
X173064796Y-47698605D01*
X173092994Y-47688960D01*
X173124766Y-47674828D01*
X173146966Y-47664056D01*
X173189555Y-47640623D01*
X173232488Y-47612384D01*
X173280192Y-47576075D01*
X173337094Y-47528428D01*
X173407620Y-47466178D01*
X173422135Y-47453032D01*
X173546672Y-47326232D01*
X173604602Y-47251196D01*
X174402541Y-47251196D01*
X174412561Y-47265140D01*
X174439388Y-47269167D01*
X174483584Y-47266136D01*
X174510335Y-47261262D01*
X174574355Y-47239203D01*
X174651290Y-47201673D01*
X174682450Y-47185201D01*
X174803255Y-47129639D01*
X174929287Y-47083269D01*
X175054399Y-47047902D01*
X175172440Y-47025348D01*
X175277261Y-47017416D01*
X175294015Y-47017708D01*
X175399582Y-47031515D01*
X175507515Y-47063902D01*
X175612328Y-47111973D01*
X175708535Y-47172832D01*
X175790649Y-47243585D01*
X175853183Y-47321336D01*
X175865562Y-47342601D01*
X175882470Y-47379501D01*
X175889100Y-47406314D01*
X175883967Y-47425799D01*
X175861364Y-47455040D01*
X175828571Y-47478003D01*
X175794241Y-47487300D01*
X175780881Y-47484130D01*
X175747559Y-47469708D01*
X175702993Y-47446294D01*
X175653079Y-47416833D01*
X175607156Y-47388723D01*
X175512781Y-47335160D01*
X175430969Y-47296302D01*
X175357132Y-47270752D01*
X175286684Y-47257116D01*
X175215039Y-47253997D01*
X175137610Y-47260000D01*
X175123827Y-47261868D01*
X175063176Y-47273372D01*
X175000317Y-47289698D01*
X174939087Y-47309278D01*
X174883322Y-47330547D01*
X174836859Y-47351939D01*
X174803533Y-47371889D01*
X174787182Y-47388831D01*
X174791641Y-47401199D01*
X174794613Y-47401895D01*
X174817645Y-47399464D01*
X174856318Y-47390995D01*
X174904139Y-47377836D01*
X174907437Y-47376856D01*
X175040461Y-47350703D01*
X175176289Y-47349175D01*
X175312400Y-47372079D01*
X175446272Y-47419222D01*
X175446342Y-47419253D01*
X175489606Y-47442121D01*
X175529340Y-47469013D01*
X175560836Y-47495911D01*
X175579388Y-47518795D01*
X175580288Y-47533646D01*
X175573844Y-47534604D01*
X175547115Y-47530592D01*
X175505343Y-47520631D01*
X175454213Y-47505971D01*
X175453812Y-47505847D01*
X175389105Y-47487497D01*
X175334761Y-47476764D01*
X175278901Y-47471970D01*
X175209650Y-47471439D01*
X175194017Y-47471865D01*
X175142139Y-47475145D01*
X175079917Y-47480988D01*
X175012442Y-47488697D01*
X174944805Y-47497578D01*
X174882099Y-47506933D01*
X174829413Y-47516069D01*
X174791840Y-47524288D01*
X174774470Y-47530897D01*
X174772836Y-47534526D01*
X174784518Y-47544931D01*
X174816009Y-47555852D01*
X174863340Y-47566119D01*
X174922541Y-47574561D01*
X174976928Y-47581844D01*
X175014763Y-47590973D01*
X175043196Y-47604624D01*
X175070270Y-47625576D01*
X175084723Y-47637874D01*
X175110224Y-47657437D01*
X175124367Y-47665195D01*
X175139285Y-47666844D01*
X175172427Y-47671421D01*
X175216000Y-47677884D01*
X175259999Y-47684572D01*
X175313106Y-47692968D01*
X175347765Y-47699826D01*
X175368054Y-47706761D01*
X175378054Y-47715387D01*
X175381844Y-47727320D01*
X175383503Y-47744173D01*
X175387231Y-47765357D01*
X175400990Y-47784125D01*
X175431900Y-47795619D01*
X175458178Y-47804686D01*
X175495013Y-47823712D01*
X175526842Y-47846173D01*
X175547560Y-47867572D01*
X175551061Y-47883410D01*
X175542791Y-47888347D01*
X175517749Y-47891144D01*
X175474428Y-47889850D01*
X175410577Y-47884377D01*
X175323950Y-47874640D01*
X175273150Y-47868520D01*
X175336842Y-47899646D01*
X175337029Y-47899737D01*
X175399280Y-47923325D01*
X175481023Y-47942543D01*
X175583672Y-47957599D01*
X175708643Y-47968699D01*
X175857350Y-47976052D01*
X175921575Y-47978472D01*
X175993158Y-47981674D01*
X176054277Y-47984951D01*
X176099957Y-47988035D01*
X176125223Y-47990652D01*
X176149179Y-47992317D01*
X176172782Y-47982951D01*
X176198952Y-47956427D01*
X176235604Y-47906467D01*
X176274928Y-47833291D01*
X176301546Y-47758225D01*
X176313375Y-47687534D01*
X176308331Y-47627485D01*
X176305846Y-47619602D01*
X176281167Y-47575212D01*
X176242768Y-47531996D01*
X176198343Y-47497433D01*
X176155587Y-47479002D01*
X176136907Y-47474445D01*
X176115789Y-47463579D01*
X176101511Y-47443422D01*
X176090889Y-47408653D01*
X176080739Y-47353950D01*
X176074340Y-47321123D01*
X176035905Y-47206437D01*
X175974849Y-47099852D01*
X175892895Y-47003503D01*
X175791771Y-46919521D01*
X175673200Y-46850041D01*
X175593222Y-46811404D01*
X175501203Y-46767727D01*
X175427043Y-46733777D01*
X175368009Y-46708458D01*
X175321371Y-46690674D01*
X175284396Y-46679329D01*
X175254353Y-46673326D01*
X175228510Y-46671569D01*
X175185995Y-46676048D01*
X175109532Y-46699532D01*
X175018122Y-46743034D01*
X174912030Y-46806442D01*
X174873371Y-46831171D01*
X174816984Y-46865385D01*
X174769505Y-46890731D01*
X174723473Y-46911043D01*
X174671427Y-46930159D01*
X174660551Y-46934024D01*
X174616025Y-46953794D01*
X174577844Y-46979752D01*
X174541687Y-47016082D01*
X174503230Y-47066968D01*
X174458153Y-47136592D01*
X174430677Y-47182108D01*
X174408767Y-47224472D01*
X174402541Y-47251196D01*
X173604602Y-47251196D01*
X173651056Y-47191025D01*
X173738720Y-47042412D01*
X173813096Y-46875389D01*
X173860703Y-46752428D01*
X174073463Y-46656714D01*
X174218936Y-46592774D01*
X174367361Y-46531072D01*
X174515305Y-46473581D01*
X174666414Y-46419087D01*
X174824332Y-46366376D01*
X174992705Y-46314233D01*
X175175177Y-46261442D01*
X175375394Y-46206791D01*
X175597000Y-46149063D01*
X176053461Y-46025776D01*
X176530291Y-45883050D01*
X176669831Y-45839131D01*
X176748720Y-45922818D01*
X176755157Y-45929643D01*
X176790477Y-45966474D01*
X176813542Y-45987671D01*
X176828796Y-45995782D01*
X176840685Y-45993354D01*
X176853655Y-45982933D01*
X176871625Y-45962804D01*
X176877671Y-45939458D01*
X176867506Y-45909990D01*
X176840425Y-45868312D01*
X176827788Y-45850299D01*
X176812208Y-45823212D01*
X176809477Y-45803720D01*
X176817377Y-45783686D01*
X176817454Y-45783543D01*
X176831038Y-45749410D01*
X176840970Y-45709436D01*
X176846796Y-45686479D01*
X176864012Y-45664479D01*
X176890769Y-45665690D01*
X176927820Y-45689942D01*
X176934074Y-45695451D01*
X176972724Y-45741035D01*
X177003215Y-45795926D01*
X177021682Y-45851701D01*
X177024255Y-45899939D01*
X177022449Y-45927038D01*
X177029800Y-45967080D01*
X177050543Y-46018001D01*
X177054931Y-46027496D01*
X177072498Y-46077194D01*
X177072018Y-46111573D01*
X177052610Y-46133676D01*
X177013395Y-46146547D01*
X176988734Y-46153399D01*
X176970979Y-46168069D01*
X176977989Y-46186054D01*
X177009875Y-46205483D01*
X177012412Y-46206641D01*
X177050079Y-46235865D01*
X177083529Y-46287150D01*
X177094265Y-46306847D01*
X177116742Y-46337576D01*
X177134329Y-46345442D01*
X177146638Y-46342119D01*
X177199550Y-46333707D01*
X177241593Y-46340562D01*
X177281419Y-46363761D01*
X177309643Y-46390511D01*
X177350601Y-46453124D01*
X177385060Y-46539403D01*
X177413255Y-46649852D01*
X177419265Y-46681437D01*
X177429824Y-46749470D01*
X177438334Y-46820797D01*
X177444493Y-46890686D01*
X177447998Y-46954403D01*
X177448546Y-47007216D01*
X177445836Y-47044390D01*
X177439563Y-47061193D01*
X177435027Y-47063457D01*
X177413204Y-47059759D01*
X177393071Y-47033236D01*
X177376418Y-46986019D01*
X177365403Y-46950082D01*
X177349947Y-46921736D01*
X177335441Y-46916958D01*
X177323292Y-46934713D01*
X177314907Y-46973963D01*
X177311695Y-47033673D01*
X177311264Y-47064265D01*
X177308333Y-47099550D01*
X177301457Y-47118465D01*
X177289275Y-47126664D01*
X177277686Y-47130466D01*
X177251201Y-47142495D01*
X177230462Y-47160060D01*
X177213405Y-47187052D01*
X177197968Y-47227360D01*
X177182088Y-47284875D01*
X177163704Y-47363486D01*
X177151162Y-47415027D01*
X177136121Y-47467813D01*
X177122283Y-47507697D01*
X177111541Y-47528677D01*
X177103305Y-47537326D01*
X177088220Y-47544047D01*
X177069627Y-47531231D01*
X177063257Y-47524838D01*
X177053449Y-47511541D01*
X177042980Y-47491729D01*
X177030734Y-47462437D01*
X177015594Y-47420698D01*
X176996445Y-47363545D01*
X176972171Y-47288014D01*
X176941655Y-47191137D01*
X176921695Y-47126676D01*
X176903293Y-47064298D01*
X176891858Y-47020274D01*
X176886695Y-46991430D01*
X176887109Y-46974596D01*
X176892402Y-46966599D01*
X176899229Y-46963245D01*
X176927243Y-46965876D01*
X176957595Y-46993571D01*
X176990411Y-47046431D01*
X177000393Y-47064772D01*
X177017875Y-47090546D01*
X177027540Y-47094218D01*
X177029410Y-47077222D01*
X177023506Y-47040994D01*
X177009850Y-46986968D01*
X176988462Y-46916578D01*
X176987800Y-46914526D01*
X176960071Y-46818641D01*
X176945620Y-46744280D01*
X176944445Y-46691319D01*
X176956543Y-46659634D01*
X176981910Y-46649100D01*
X177003550Y-46645109D01*
X177012014Y-46628532D01*
X176998539Y-46599568D01*
X176967646Y-46569082D01*
X176923621Y-46555575D01*
X176872330Y-46566157D01*
X176837911Y-46587232D01*
X176812260Y-46623730D01*
X176800156Y-46676550D01*
X176800299Y-46748991D01*
X176800776Y-46755910D01*
X176802607Y-46800134D01*
X176799127Y-46829700D01*
X176787964Y-46854048D01*
X176766749Y-46882621D01*
X176752953Y-46900182D01*
X176734522Y-46924935D01*
X176727300Y-46936653D01*
X176727101Y-46940055D01*
X176721461Y-46968596D01*
X176709421Y-47013889D01*
X176692821Y-47070066D01*
X176673500Y-47131262D01*
X176653300Y-47191611D01*
X176634059Y-47245248D01*
X176617618Y-47286306D01*
X176572313Y-47389349D01*
X176580789Y-47536749D01*
X176583827Y-47598042D01*
X176584485Y-47648813D01*
X176581731Y-47687534D01*
X176581731Y-47687542D01*
X176575024Y-47721225D01*
X176563827Y-47756854D01*
X176554204Y-47786188D01*
X176546567Y-47822665D01*
X176548078Y-47856683D01*
X176559504Y-47896618D01*
X176581613Y-47950850D01*
X176582400Y-47952691D01*
X176590214Y-47974602D01*
X176595525Y-47999993D01*
X176598572Y-48033241D01*
X176599594Y-48078723D01*
X176598829Y-48140817D01*
X176596518Y-48223900D01*
X176594313Y-48285580D01*
X176589078Y-48385884D01*
X176582081Y-48465341D01*
X176572811Y-48526931D01*
X176560760Y-48573631D01*
X176545417Y-48608420D01*
X176526273Y-48634277D01*
X176524753Y-48635833D01*
X176499408Y-48657566D01*
X176458517Y-48688642D01*
X176407397Y-48725141D01*
X176351364Y-48763148D01*
X176326968Y-48779577D01*
X176254494Y-48832390D01*
X176193410Y-48883020D01*
X176149378Y-48926876D01*
X176142486Y-48934731D01*
X176088829Y-48985805D01*
X176037466Y-49014821D01*
X175984633Y-49024000D01*
X175965096Y-49027490D01*
X175923449Y-49047268D01*
X175875334Y-49081012D01*
X175826189Y-49124700D01*
X175781449Y-49174310D01*
X175767308Y-49192902D01*
X175731079Y-49246601D01*
X175695017Y-49307261D01*
X175661985Y-49369317D01*
X175634847Y-49427203D01*
X175616464Y-49475353D01*
X175609700Y-49508202D01*
X175609827Y-49514452D01*
X175616819Y-49554567D01*
X175631970Y-49584039D01*
X175651733Y-49595500D01*
X175652751Y-49595353D01*
X175670348Y-49585744D01*
X175702604Y-49563293D01*
X175745286Y-49531072D01*
X175794161Y-49492153D01*
X175817047Y-49473564D01*
X175924811Y-49388538D01*
X176017059Y-49320238D01*
X176093404Y-49268889D01*
X176153458Y-49234717D01*
X176196834Y-49217947D01*
X176223144Y-49218806D01*
X176232000Y-49237517D01*
X176230674Y-49250655D01*
X176220686Y-49291689D01*
X176202502Y-49348038D01*
X176178024Y-49414652D01*
X176149152Y-49486483D01*
X176117789Y-49558482D01*
X176085835Y-49625601D01*
X176085651Y-49625968D01*
X176058638Y-49681592D01*
X176036524Y-49730511D01*
X176032964Y-49739314D01*
X176021586Y-49767451D01*
X176016100Y-49787136D01*
G37*
X176016100Y-49787136D02*
X176015605Y-49790544D01*
X176004501Y-49814383D01*
X175981782Y-49849614D01*
X175951415Y-49889933D01*
X175924414Y-49923885D01*
X175903430Y-49953854D01*
X175893343Y-49977605D01*
X175891259Y-50002537D01*
X175894285Y-50036050D01*
X175898725Y-50068317D01*
X175910315Y-50120828D01*
X175924557Y-50154878D01*
X175940234Y-50167000D01*
X175944843Y-50165531D01*
X175959791Y-50147614D01*
X175974703Y-50115824D01*
X175986199Y-50078400D01*
X175990895Y-50043582D01*
X175991069Y-50036089D01*
X175998223Y-49997873D01*
X176014478Y-49979763D01*
X176037964Y-49984118D01*
X176048735Y-49995414D01*
X176065232Y-50033257D01*
X176079418Y-50092889D01*
X176090813Y-50172080D01*
X176098939Y-50268600D01*
X176106255Y-50389250D01*
X176008041Y-50450752D01*
X175965923Y-50475813D01*
X175895583Y-50508948D01*
X175835032Y-50522588D01*
X175779933Y-50516671D01*
X175725948Y-50491134D01*
X175668740Y-50445917D01*
X175641087Y-50421542D01*
X175602996Y-50392631D01*
X175579578Y-50382411D01*
X175571600Y-50391313D01*
X175575969Y-50401882D01*
X175590938Y-50428591D01*
X175612875Y-50464101D01*
X175622822Y-50479910D01*
X175639802Y-50511311D01*
X175649228Y-50541320D01*
X175653284Y-50578863D01*
X175654150Y-50632861D01*
X175654046Y-50646032D01*
X175651705Y-50695109D01*
X175646877Y-50732371D01*
X175640354Y-50751034D01*
X175624342Y-50761834D01*
X175583776Y-50771996D01*
X175535790Y-50770614D01*
X175490270Y-50757277D01*
X175479496Y-50752342D01*
X175452500Y-50741860D01*
X175439832Y-50740012D01*
X175436854Y-50750321D01*
X175431128Y-50779690D01*
X175424411Y-50820552D01*
X175412850Y-50896254D01*
X175351204Y-50918205D01*
X175330610Y-50926227D01*
X175291363Y-50945088D01*
X175264768Y-50962589D01*
X175259393Y-50967265D01*
X175237967Y-50977948D01*
X175215290Y-50969711D01*
X175197314Y-50958577D01*
X175164868Y-50938525D01*
X175145307Y-50930549D01*
X175122990Y-50934154D01*
X175089327Y-50951225D01*
X175064102Y-50964784D01*
X175027255Y-50977554D01*
X174997097Y-50974023D01*
X174965466Y-50954400D01*
X174952088Y-50944917D01*
X174917690Y-50931458D01*
X174876558Y-50932698D01*
X174821493Y-50948334D01*
X174766692Y-50967669D01*
X174714641Y-50916584D01*
X174687027Y-50891357D01*
X174651814Y-50869547D01*
X174622086Y-50869696D01*
X174593191Y-50892468D01*
X174560477Y-50938525D01*
X174535786Y-50975221D01*
X174505782Y-51014097D01*
X174481260Y-51040061D01*
X174440187Y-51063972D01*
X174387602Y-51068565D01*
X174329625Y-51048355D01*
X174266234Y-51003337D01*
X174242186Y-50983890D01*
X174213704Y-50969720D01*
X174189536Y-50974605D01*
X174162519Y-50998191D01*
X174132223Y-51022042D01*
X174098379Y-51036954D01*
X174073222Y-51038369D01*
X174026378Y-51034989D01*
X173966331Y-51027132D01*
X173899204Y-51015740D01*
X173831119Y-51001756D01*
X173768200Y-50986121D01*
X173704274Y-50969394D01*
X173654947Y-50959945D01*
X173613527Y-50957769D01*
X173571850Y-50962448D01*
X173521755Y-50973567D01*
X173517552Y-50974600D01*
X173454050Y-50986378D01*
X173404862Y-50988084D01*
X173373081Y-50979940D01*
X173361800Y-50962167D01*
X173367792Y-50946587D01*
X173386164Y-50916940D01*
X173412600Y-50881215D01*
X173421322Y-50870092D01*
X173449380Y-50830590D01*
X173462459Y-50804879D01*
X173459932Y-50794696D01*
X173441175Y-50801779D01*
X173426427Y-50811292D01*
X173394618Y-50833008D01*
X173357239Y-50859376D01*
X173322597Y-50882581D01*
X173292206Y-50896348D01*
X173257595Y-50902309D01*
X173208196Y-50903600D01*
X173163311Y-50905208D01*
X173107592Y-50910755D01*
X173063685Y-50918893D01*
X173048380Y-50922850D01*
X173017441Y-50927891D01*
X172995499Y-50922747D01*
X172971428Y-50905843D01*
X172970326Y-50904960D01*
X172932786Y-50879503D01*
X172891900Y-50857646D01*
X172887942Y-50855810D01*
X172846959Y-50831633D01*
X172809350Y-50802379D01*
X172791216Y-50788329D01*
X172748294Y-50763888D01*
X172701400Y-50744751D01*
X172657423Y-50729425D01*
X172617859Y-50709056D01*
X172596368Y-50683948D01*
X172591284Y-50649611D01*
X172600941Y-50601558D01*
X172623674Y-50535300D01*
X172636940Y-50493966D01*
X172648975Y-50427675D01*
X172648469Y-50369412D01*
X172636106Y-50323028D01*
X172612572Y-50292373D01*
X172578549Y-50281300D01*
X172566510Y-50281737D01*
X172552008Y-50288798D01*
X172554364Y-50309875D01*
X172563576Y-50350443D01*
X172565941Y-50434278D01*
X172546141Y-50511415D01*
X172505922Y-50578439D01*
X172447026Y-50631934D01*
X172371200Y-50668484D01*
X172341817Y-50678846D01*
X172304202Y-50694933D01*
X172281300Y-50708381D01*
X172280413Y-50709147D01*
X172253904Y-50724242D01*
X172233119Y-50716448D01*
X172214588Y-50684525D01*
X172213104Y-50681015D01*
X172196412Y-50649227D01*
X172174727Y-50627342D01*
X172141385Y-50610526D01*
X172089725Y-50593947D01*
X172074404Y-50589164D01*
X172011179Y-50557348D01*
X171968733Y-50511484D01*
X171946207Y-50450716D01*
X171940948Y-50425797D01*
X171926120Y-50384509D01*
X171902088Y-50356090D01*
X171862776Y-50331883D01*
X171859880Y-50330407D01*
X171837881Y-50318501D01*
X171823378Y-50306151D01*
X171814960Y-50288367D01*
X171811219Y-50260159D01*
X171810747Y-50216536D01*
X171812134Y-50152507D01*
X171812689Y-50125475D01*
X171812105Y-50085660D01*
X171807769Y-50061251D01*
X171797946Y-50045550D01*
X171780905Y-50031857D01*
X171741577Y-50003185D01*
X171698723Y-49965488D01*
X171673444Y-49928807D01*
X171663382Y-49886874D01*
X171666181Y-49833420D01*
X171679482Y-49762177D01*
X171692581Y-49709906D01*
X171694207Y-49705686D01*
X172374415Y-49705686D01*
X172392042Y-49710264D01*
X172428747Y-49699511D01*
X172484184Y-49673431D01*
X172558008Y-49632027D01*
X172689415Y-49554254D01*
X172793833Y-49574416D01*
X172834413Y-49582384D01*
X172902976Y-49596160D01*
X172978471Y-49611593D01*
X173050650Y-49626601D01*
X173056100Y-49627734D01*
X173130229Y-49641542D01*
X173218209Y-49655695D01*
X173309490Y-49668591D01*
X173393527Y-49678629D01*
X173411503Y-49680552D01*
X173497486Y-49691145D01*
X173564163Y-49702368D01*
X173616691Y-49715229D01*
X173660227Y-49730734D01*
X173665173Y-49732811D01*
X173793796Y-49781891D01*
X173907236Y-49814477D01*
X174008974Y-49831148D01*
X174102490Y-49832483D01*
X174191264Y-49819061D01*
X174232602Y-49809954D01*
X174292781Y-49801175D01*
X174344548Y-49802395D01*
X174397724Y-49814282D01*
X174462130Y-49837506D01*
X174481387Y-49844848D01*
X174545680Y-49866791D01*
X174617996Y-49888736D01*
X174686044Y-49906876D01*
X174715241Y-49913715D01*
X174780267Y-49927608D01*
X174840933Y-49938994D01*
X174887134Y-49945910D01*
X174925562Y-49949714D01*
X174949728Y-49949361D01*
X174959913Y-49942880D01*
X174962000Y-49928937D01*
X174961376Y-49920774D01*
X174954540Y-49887776D01*
X174942593Y-49848487D01*
X174933943Y-49821050D01*
X174929386Y-49785442D01*
X174940189Y-49766304D01*
X174967202Y-49760600D01*
X174996371Y-49754405D01*
X175010105Y-49739314D01*
X175003394Y-49720713D01*
X174999268Y-49717832D01*
X174973805Y-49709327D01*
X174937536Y-49703535D01*
X174910296Y-49699008D01*
X174871768Y-49682118D01*
X174829891Y-49648799D01*
X174824750Y-49644105D01*
X174787528Y-49614877D01*
X174750806Y-49598728D01*
X174701646Y-49589698D01*
X174686159Y-49587606D01*
X174643951Y-49578127D01*
X174611922Y-49561045D01*
X174578222Y-49530694D01*
X174565396Y-49517985D01*
X174539542Y-49496025D01*
X174521031Y-49489293D01*
X174503373Y-49494663D01*
X174487027Y-49500376D01*
X174465096Y-49495627D01*
X174434099Y-49475061D01*
X174426340Y-49469355D01*
X174387929Y-49445224D01*
X174353508Y-49428883D01*
X174345451Y-49425644D01*
X174323251Y-49411189D01*
X174299334Y-49385856D01*
X174270393Y-49345745D01*
X174233120Y-49286958D01*
X174209607Y-49259053D01*
X174181954Y-49240281D01*
X174166115Y-49232120D01*
X174133492Y-49203425D01*
X174108423Y-49167200D01*
X174098400Y-49133063D01*
X174093324Y-49102893D01*
X174069476Y-49067996D01*
X174030567Y-49046815D01*
X173981568Y-49041631D01*
X173927453Y-49054721D01*
X173926655Y-49055054D01*
X173884002Y-49070751D01*
X173859039Y-49072813D01*
X173847319Y-49059969D01*
X173844400Y-49030947D01*
X173846606Y-48991219D01*
X173857290Y-48955956D01*
X173880641Y-48929526D01*
X173920783Y-48907570D01*
X173981842Y-48885730D01*
X173993867Y-48881173D01*
X174033610Y-48860422D01*
X174072570Y-48833841D01*
X174088809Y-48821712D01*
X174119112Y-48802838D01*
X174139127Y-48795400D01*
X174158587Y-48803162D01*
X174188573Y-48830078D01*
X174222521Y-48872269D01*
X174256674Y-48925575D01*
X174280533Y-48963274D01*
X174299485Y-48982676D01*
X174310645Y-48978323D01*
X174314300Y-48950340D01*
X174315369Y-48933030D01*
X174327427Y-48904104D01*
X174355956Y-48888787D01*
X174404766Y-48884300D01*
X174422060Y-48883560D01*
X174480555Y-48866918D01*
X174526981Y-48828131D01*
X174561775Y-48766872D01*
X174576718Y-48722024D01*
X174583135Y-48662702D01*
X174568357Y-48617153D01*
X174532217Y-48584989D01*
X174474545Y-48565823D01*
X174423229Y-48551992D01*
X174357782Y-48526604D01*
X174294899Y-48495606D01*
X174245806Y-48463997D01*
X174243328Y-48461982D01*
X174217703Y-48425074D01*
X174214197Y-48376817D01*
X174232920Y-48318478D01*
X174248541Y-48289302D01*
X174269338Y-48265182D01*
X174297917Y-48250254D01*
X174340150Y-48241674D01*
X174401904Y-48236600D01*
X174511150Y-48230250D01*
X174515120Y-48182149D01*
X174515171Y-48181528D01*
X174514441Y-48148180D01*
X174502650Y-48121288D01*
X174475115Y-48090074D01*
X174445236Y-48064777D01*
X174411768Y-48050095D01*
X174375350Y-48051046D01*
X174332541Y-48068504D01*
X174279901Y-48103345D01*
X174213993Y-48156443D01*
X174209048Y-48160616D01*
X174124006Y-48224494D01*
X174039754Y-48270886D01*
X173946870Y-48305033D01*
X173946081Y-48305266D01*
X173891035Y-48316738D01*
X173826011Y-48323368D01*
X173759692Y-48324945D01*
X173700761Y-48321256D01*
X173657902Y-48312090D01*
X173630846Y-48300167D01*
X173560761Y-48253710D01*
X173494688Y-48188896D01*
X173437235Y-48110731D01*
X173393008Y-48024222D01*
X173378417Y-47990237D01*
X173357190Y-47952660D01*
X173336852Y-47936831D01*
X173314209Y-47940922D01*
X173286062Y-47963107D01*
X173280353Y-47968705D01*
X173254404Y-48002333D01*
X173250310Y-48032259D01*
X173266954Y-48064402D01*
X173277181Y-48088046D01*
X173284110Y-48131017D01*
X173284978Y-48180051D01*
X173279717Y-48224937D01*
X173268257Y-48255463D01*
X173255012Y-48267417D01*
X173223917Y-48278480D01*
X173173007Y-48284817D01*
X173164153Y-48285494D01*
X173122693Y-48290621D01*
X173101225Y-48298439D01*
X173095100Y-48310478D01*
X173094161Y-48327234D01*
X173091145Y-48364812D01*
X173086543Y-48416471D01*
X173080867Y-48476276D01*
X173076112Y-48525899D01*
X173072959Y-48581531D01*
X173077657Y-48618453D01*
X173093714Y-48640498D01*
X173124639Y-48651498D01*
X173173942Y-48655288D01*
X173245131Y-48655700D01*
X173377607Y-48655700D01*
X173372284Y-48767048D01*
X173370177Y-48802345D01*
X173363825Y-48856285D01*
X173352962Y-48897677D01*
X173335749Y-48934976D01*
X173313981Y-48967575D01*
X173283764Y-48998691D01*
X173254683Y-49016329D01*
X173232317Y-49016114D01*
X173232057Y-49015924D01*
X173228202Y-49000033D01*
X173227550Y-48966267D01*
X173230256Y-48921639D01*
X173233057Y-48881832D01*
X173231988Y-48845540D01*
X173224914Y-48833500D01*
X173221199Y-48834307D01*
X173200752Y-48849218D01*
X173172729Y-48878749D01*
X173141630Y-48917414D01*
X173111958Y-48959723D01*
X173088211Y-49000190D01*
X173076522Y-49020982D01*
X173054109Y-49052552D01*
X173035365Y-49069584D01*
X173021226Y-49072669D01*
X172984389Y-49076710D01*
X172930530Y-49080672D01*
X172864288Y-49084227D01*
X172790300Y-49087044D01*
X172568050Y-49093850D01*
X172495326Y-49201800D01*
X172474016Y-49234046D01*
X172447424Y-49276365D01*
X172429161Y-49308115D01*
X172422301Y-49324143D01*
X172422584Y-49326859D01*
X172437921Y-49341033D01*
X172473744Y-49350475D01*
X172526026Y-49354026D01*
X172556690Y-49356775D01*
X172581004Y-49368080D01*
X172582984Y-49385129D01*
X172562871Y-49404659D01*
X172520905Y-49423405D01*
X172502671Y-49430477D01*
X172486036Y-49443920D01*
X172475139Y-49468155D01*
X172465393Y-49510369D01*
X172448195Y-49568512D01*
X172410948Y-49633450D01*
X172397774Y-49650524D01*
X172376210Y-49685774D01*
X172374415Y-49705686D01*
X171694207Y-49705686D01*
X171728195Y-49617448D01*
X171777002Y-49543072D01*
X171841024Y-49483283D01*
X171876781Y-49455140D01*
X171935621Y-49402185D01*
X171990112Y-49345540D01*
X172037130Y-49289081D01*
X172073548Y-49236683D01*
X172096241Y-49192223D01*
X172102084Y-49159575D01*
X172091411Y-49138129D01*
X172056866Y-49118605D01*
X172055069Y-49118016D01*
X172023002Y-49104870D01*
X172002210Y-49091889D01*
X171998955Y-49084511D01*
X171992343Y-49054746D01*
X171984792Y-49007094D01*
X171977003Y-48946181D01*
X171969674Y-48876633D01*
X171965270Y-48832867D01*
X171952104Y-48729114D01*
X171936851Y-48646132D01*
X171918933Y-48580553D01*
X171902797Y-48525320D01*
X171886176Y-48453588D01*
X171875094Y-48388567D01*
X171874600Y-48384668D01*
X171865731Y-48325631D01*
X171853493Y-48263470D01*
X171836817Y-48194039D01*
X171814636Y-48113190D01*
X171785883Y-48016775D01*
X171749490Y-47900647D01*
X171735946Y-47857722D01*
X171707027Y-47760588D01*
X171687580Y-47681874D01*
X171677861Y-47617761D01*
X171678125Y-47564426D01*
X171688626Y-47518049D01*
X171709621Y-47474808D01*
X171741365Y-47430883D01*
X171784113Y-47382453D01*
X171791004Y-47374949D01*
X171831584Y-47327388D01*
X171868741Y-47278895D01*
X171895183Y-47238895D01*
X171905266Y-47221239D01*
X171929066Y-47181489D01*
X171946316Y-47162198D01*
X171962030Y-47162434D01*
X171981220Y-47181266D01*
X172008900Y-47217761D01*
X172014922Y-47225797D01*
X172126474Y-47362704D01*
X172236723Y-47475275D01*
X172345324Y-47563190D01*
X172451932Y-47626132D01*
X172503080Y-47648833D01*
X172583723Y-47676616D01*
X172668753Y-47694990D01*
X172764977Y-47705274D01*
X172879200Y-47708783D01*
X172942266Y-47708827D01*
X172995372Y-47707718D01*
X173034235Y-47704584D01*
X173064796Y-47698605D01*
X173092994Y-47688960D01*
X173124766Y-47674828D01*
X173146966Y-47664056D01*
X173189555Y-47640623D01*
X173232488Y-47612384D01*
X173280192Y-47576075D01*
X173337094Y-47528428D01*
X173407620Y-47466178D01*
X173422135Y-47453032D01*
X173546672Y-47326232D01*
X173604602Y-47251196D01*
X174402541Y-47251196D01*
X174412561Y-47265140D01*
X174439388Y-47269167D01*
X174483584Y-47266136D01*
X174510335Y-47261262D01*
X174574355Y-47239203D01*
X174651290Y-47201673D01*
X174682450Y-47185201D01*
X174803255Y-47129639D01*
X174929287Y-47083269D01*
X175054399Y-47047902D01*
X175172440Y-47025348D01*
X175277261Y-47017416D01*
X175294015Y-47017708D01*
X175399582Y-47031515D01*
X175507515Y-47063902D01*
X175612328Y-47111973D01*
X175708535Y-47172832D01*
X175790649Y-47243585D01*
X175853183Y-47321336D01*
X175865562Y-47342601D01*
X175882470Y-47379501D01*
X175889100Y-47406314D01*
X175883967Y-47425799D01*
X175861364Y-47455040D01*
X175828571Y-47478003D01*
X175794241Y-47487300D01*
X175780881Y-47484130D01*
X175747559Y-47469708D01*
X175702993Y-47446294D01*
X175653079Y-47416833D01*
X175607156Y-47388723D01*
X175512781Y-47335160D01*
X175430969Y-47296302D01*
X175357132Y-47270752D01*
X175286684Y-47257116D01*
X175215039Y-47253997D01*
X175137610Y-47260000D01*
X175123827Y-47261868D01*
X175063176Y-47273372D01*
X175000317Y-47289698D01*
X174939087Y-47309278D01*
X174883322Y-47330547D01*
X174836859Y-47351939D01*
X174803533Y-47371889D01*
X174787182Y-47388831D01*
X174791641Y-47401199D01*
X174794613Y-47401895D01*
X174817645Y-47399464D01*
X174856318Y-47390995D01*
X174904139Y-47377836D01*
X174907437Y-47376856D01*
X175040461Y-47350703D01*
X175176289Y-47349175D01*
X175312400Y-47372079D01*
X175446272Y-47419222D01*
X175446342Y-47419253D01*
X175489606Y-47442121D01*
X175529340Y-47469013D01*
X175560836Y-47495911D01*
X175579388Y-47518795D01*
X175580288Y-47533646D01*
X175573844Y-47534604D01*
X175547115Y-47530592D01*
X175505343Y-47520631D01*
X175454213Y-47505971D01*
X175453812Y-47505847D01*
X175389105Y-47487497D01*
X175334761Y-47476764D01*
X175278901Y-47471970D01*
X175209650Y-47471439D01*
X175194017Y-47471865D01*
X175142139Y-47475145D01*
X175079917Y-47480988D01*
X175012442Y-47488697D01*
X174944805Y-47497578D01*
X174882099Y-47506933D01*
X174829413Y-47516069D01*
X174791840Y-47524288D01*
X174774470Y-47530897D01*
X174772836Y-47534526D01*
X174784518Y-47544931D01*
X174816009Y-47555852D01*
X174863340Y-47566119D01*
X174922541Y-47574561D01*
X174976928Y-47581844D01*
X175014763Y-47590973D01*
X175043196Y-47604624D01*
X175070270Y-47625576D01*
X175084723Y-47637874D01*
X175110224Y-47657437D01*
X175124367Y-47665195D01*
X175139285Y-47666844D01*
X175172427Y-47671421D01*
X175216000Y-47677884D01*
X175259999Y-47684572D01*
X175313106Y-47692968D01*
X175347765Y-47699826D01*
X175368054Y-47706761D01*
X175378054Y-47715387D01*
X175381844Y-47727320D01*
X175383503Y-47744173D01*
X175387231Y-47765357D01*
X175400990Y-47784125D01*
X175431900Y-47795619D01*
X175458178Y-47804686D01*
X175495013Y-47823712D01*
X175526842Y-47846173D01*
X175547560Y-47867572D01*
X175551061Y-47883410D01*
X175542791Y-47888347D01*
X175517749Y-47891144D01*
X175474428Y-47889850D01*
X175410577Y-47884377D01*
X175323950Y-47874640D01*
X175273150Y-47868520D01*
X175336842Y-47899646D01*
X175337029Y-47899737D01*
X175399280Y-47923325D01*
X175481023Y-47942543D01*
X175583672Y-47957599D01*
X175708643Y-47968699D01*
X175857350Y-47976052D01*
X175921575Y-47978472D01*
X175993158Y-47981674D01*
X176054277Y-47984951D01*
X176099957Y-47988035D01*
X176125223Y-47990652D01*
X176149179Y-47992317D01*
X176172782Y-47982951D01*
X176198952Y-47956427D01*
X176235604Y-47906467D01*
X176274928Y-47833291D01*
X176301546Y-47758225D01*
X176313375Y-47687534D01*
X176308331Y-47627485D01*
X176305846Y-47619602D01*
X176281167Y-47575212D01*
X176242768Y-47531996D01*
X176198343Y-47497433D01*
X176155587Y-47479002D01*
X176136907Y-47474445D01*
X176115789Y-47463579D01*
X176101511Y-47443422D01*
X176090889Y-47408653D01*
X176080739Y-47353950D01*
X176074340Y-47321123D01*
X176035905Y-47206437D01*
X175974849Y-47099852D01*
X175892895Y-47003503D01*
X175791771Y-46919521D01*
X175673200Y-46850041D01*
X175593222Y-46811404D01*
X175501203Y-46767727D01*
X175427043Y-46733777D01*
X175368009Y-46708458D01*
X175321371Y-46690674D01*
X175284396Y-46679329D01*
X175254353Y-46673326D01*
X175228510Y-46671569D01*
X175185995Y-46676048D01*
X175109532Y-46699532D01*
X175018122Y-46743034D01*
X174912030Y-46806442D01*
X174873371Y-46831171D01*
X174816984Y-46865385D01*
X174769505Y-46890731D01*
X174723473Y-46911043D01*
X174671427Y-46930159D01*
X174660551Y-46934024D01*
X174616025Y-46953794D01*
X174577844Y-46979752D01*
X174541687Y-47016082D01*
X174503230Y-47066968D01*
X174458153Y-47136592D01*
X174430677Y-47182108D01*
X174408767Y-47224472D01*
X174402541Y-47251196D01*
X173604602Y-47251196D01*
X173651056Y-47191025D01*
X173738720Y-47042412D01*
X173813096Y-46875389D01*
X173860703Y-46752428D01*
X174073463Y-46656714D01*
X174218936Y-46592774D01*
X174367361Y-46531072D01*
X174515305Y-46473581D01*
X174666414Y-46419087D01*
X174824332Y-46366376D01*
X174992705Y-46314233D01*
X175175177Y-46261442D01*
X175375394Y-46206791D01*
X175597000Y-46149063D01*
X176053461Y-46025776D01*
X176530291Y-45883050D01*
X176669831Y-45839131D01*
X176748720Y-45922818D01*
X176755157Y-45929643D01*
X176790477Y-45966474D01*
X176813542Y-45987671D01*
X176828796Y-45995782D01*
X176840685Y-45993354D01*
X176853655Y-45982933D01*
X176871625Y-45962804D01*
X176877671Y-45939458D01*
X176867506Y-45909990D01*
X176840425Y-45868312D01*
X176827788Y-45850299D01*
X176812208Y-45823212D01*
X176809477Y-45803720D01*
X176817377Y-45783686D01*
X176817454Y-45783543D01*
X176831038Y-45749410D01*
X176840970Y-45709436D01*
X176846796Y-45686479D01*
X176864012Y-45664479D01*
X176890769Y-45665690D01*
X176927820Y-45689942D01*
X176934074Y-45695451D01*
X176972724Y-45741035D01*
X177003215Y-45795926D01*
X177021682Y-45851701D01*
X177024255Y-45899939D01*
X177022449Y-45927038D01*
X177029800Y-45967080D01*
X177050543Y-46018001D01*
X177054931Y-46027496D01*
X177072498Y-46077194D01*
X177072018Y-46111573D01*
X177052610Y-46133676D01*
X177013395Y-46146547D01*
X176988734Y-46153399D01*
X176970979Y-46168069D01*
X176977989Y-46186054D01*
X177009875Y-46205483D01*
X177012412Y-46206641D01*
X177050079Y-46235865D01*
X177083529Y-46287150D01*
X177094265Y-46306847D01*
X177116742Y-46337576D01*
X177134329Y-46345442D01*
X177146638Y-46342119D01*
X177199550Y-46333707D01*
X177241593Y-46340562D01*
X177281419Y-46363761D01*
X177309643Y-46390511D01*
X177350601Y-46453124D01*
X177385060Y-46539403D01*
X177413255Y-46649852D01*
X177419265Y-46681437D01*
X177429824Y-46749470D01*
X177438334Y-46820797D01*
X177444493Y-46890686D01*
X177447998Y-46954403D01*
X177448546Y-47007216D01*
X177445836Y-47044390D01*
X177439563Y-47061193D01*
X177435027Y-47063457D01*
X177413204Y-47059759D01*
X177393071Y-47033236D01*
X177376418Y-46986019D01*
X177365403Y-46950082D01*
X177349947Y-46921736D01*
X177335441Y-46916958D01*
X177323292Y-46934713D01*
X177314907Y-46973963D01*
X177311695Y-47033673D01*
X177311264Y-47064265D01*
X177308333Y-47099550D01*
X177301457Y-47118465D01*
X177289275Y-47126664D01*
X177277686Y-47130466D01*
X177251201Y-47142495D01*
X177230462Y-47160060D01*
X177213405Y-47187052D01*
X177197968Y-47227360D01*
X177182088Y-47284875D01*
X177163704Y-47363486D01*
X177151162Y-47415027D01*
X177136121Y-47467813D01*
X177122283Y-47507697D01*
X177111541Y-47528677D01*
X177103305Y-47537326D01*
X177088220Y-47544047D01*
X177069627Y-47531231D01*
X177063257Y-47524838D01*
X177053449Y-47511541D01*
X177042980Y-47491729D01*
X177030734Y-47462437D01*
X177015594Y-47420698D01*
X176996445Y-47363545D01*
X176972171Y-47288014D01*
X176941655Y-47191137D01*
X176921695Y-47126676D01*
X176903293Y-47064298D01*
X176891858Y-47020274D01*
X176886695Y-46991430D01*
X176887109Y-46974596D01*
X176892402Y-46966599D01*
X176899229Y-46963245D01*
X176927243Y-46965876D01*
X176957595Y-46993571D01*
X176990411Y-47046431D01*
X177000393Y-47064772D01*
X177017875Y-47090546D01*
X177027540Y-47094218D01*
X177029410Y-47077222D01*
X177023506Y-47040994D01*
X177009850Y-46986968D01*
X176988462Y-46916578D01*
X176987800Y-46914526D01*
X176960071Y-46818641D01*
X176945620Y-46744280D01*
X176944445Y-46691319D01*
X176956543Y-46659634D01*
X176981910Y-46649100D01*
X177003550Y-46645109D01*
X177012014Y-46628532D01*
X176998539Y-46599568D01*
X176967646Y-46569082D01*
X176923621Y-46555575D01*
X176872330Y-46566157D01*
X176837911Y-46587232D01*
X176812260Y-46623730D01*
X176800156Y-46676550D01*
X176800299Y-46748991D01*
X176800776Y-46755910D01*
X176802607Y-46800134D01*
X176799127Y-46829700D01*
X176787964Y-46854048D01*
X176766749Y-46882621D01*
X176752953Y-46900182D01*
X176734522Y-46924935D01*
X176727300Y-46936653D01*
X176727101Y-46940055D01*
X176721461Y-46968596D01*
X176709421Y-47013889D01*
X176692821Y-47070066D01*
X176673500Y-47131262D01*
X176653300Y-47191611D01*
X176634059Y-47245248D01*
X176617618Y-47286306D01*
X176572313Y-47389349D01*
X176580789Y-47536749D01*
X176583827Y-47598042D01*
X176584485Y-47648813D01*
X176581731Y-47687534D01*
X176581731Y-47687542D01*
X176575024Y-47721225D01*
X176563827Y-47756854D01*
X176554204Y-47786188D01*
X176546567Y-47822665D01*
X176548078Y-47856683D01*
X176559504Y-47896618D01*
X176581613Y-47950850D01*
X176582400Y-47952691D01*
X176590214Y-47974602D01*
X176595525Y-47999993D01*
X176598572Y-48033241D01*
X176599594Y-48078723D01*
X176598829Y-48140817D01*
X176596518Y-48223900D01*
X176594313Y-48285580D01*
X176589078Y-48385884D01*
X176582081Y-48465341D01*
X176572811Y-48526931D01*
X176560760Y-48573631D01*
X176545417Y-48608420D01*
X176526273Y-48634277D01*
X176524753Y-48635833D01*
X176499408Y-48657566D01*
X176458517Y-48688642D01*
X176407397Y-48725141D01*
X176351364Y-48763148D01*
X176326968Y-48779577D01*
X176254494Y-48832390D01*
X176193410Y-48883020D01*
X176149378Y-48926876D01*
X176142486Y-48934731D01*
X176088829Y-48985805D01*
X176037466Y-49014821D01*
X175984633Y-49024000D01*
X175965096Y-49027490D01*
X175923449Y-49047268D01*
X175875334Y-49081012D01*
X175826189Y-49124700D01*
X175781449Y-49174310D01*
X175767308Y-49192902D01*
X175731079Y-49246601D01*
X175695017Y-49307261D01*
X175661985Y-49369317D01*
X175634847Y-49427203D01*
X175616464Y-49475353D01*
X175609700Y-49508202D01*
X175609827Y-49514452D01*
X175616819Y-49554567D01*
X175631970Y-49584039D01*
X175651733Y-49595500D01*
X175652751Y-49595353D01*
X175670348Y-49585744D01*
X175702604Y-49563293D01*
X175745286Y-49531072D01*
X175794161Y-49492153D01*
X175817047Y-49473564D01*
X175924811Y-49388538D01*
X176017059Y-49320238D01*
X176093404Y-49268889D01*
X176153458Y-49234717D01*
X176196834Y-49217947D01*
X176223144Y-49218806D01*
X176232000Y-49237517D01*
X176230674Y-49250655D01*
X176220686Y-49291689D01*
X176202502Y-49348038D01*
X176178024Y-49414652D01*
X176149152Y-49486483D01*
X176117789Y-49558482D01*
X176085835Y-49625601D01*
X176085651Y-49625968D01*
X176058638Y-49681592D01*
X176036524Y-49730511D01*
X176032964Y-49739314D01*
X176021586Y-49767451D01*
X176016100Y-49787136D01*
G36*
X177212257Y-48808105D02*
G01*
X177216915Y-48814510D01*
X177235844Y-48857278D01*
X177250995Y-48919086D01*
X177261800Y-48994885D01*
X177267694Y-49079625D01*
X177268110Y-49168255D01*
X177262481Y-49255726D01*
X177258365Y-49291554D01*
X177247518Y-49355760D01*
X177231976Y-49409158D01*
X177209155Y-49461739D01*
X177194046Y-49489363D01*
X177150476Y-49551663D01*
X177097905Y-49610550D01*
X177042650Y-49659370D01*
X176991027Y-49691473D01*
X176981914Y-49695143D01*
X176936563Y-49704648D01*
X176888494Y-49704267D01*
X176846694Y-49694766D01*
X176820148Y-49676911D01*
X176814447Y-49667782D01*
X176802879Y-49622898D01*
X176806917Y-49560645D01*
X176826677Y-49480224D01*
X176862273Y-49380834D01*
X176875547Y-49347967D01*
X176926238Y-49229603D01*
X176975616Y-49125224D01*
X177021945Y-49038351D01*
X177063491Y-48972506D01*
X177078107Y-48950542D01*
X177103411Y-48905944D01*
X177120169Y-48867770D01*
X177122133Y-48862245D01*
X177140875Y-48826407D01*
X177163247Y-48801398D01*
X177177636Y-48792120D01*
X177194335Y-48790437D01*
X177212257Y-48808105D01*
G37*
X177212257Y-48808105D02*
X177216915Y-48814510D01*
X177235844Y-48857278D01*
X177250995Y-48919086D01*
X177261800Y-48994885D01*
X177267694Y-49079625D01*
X177268110Y-49168255D01*
X177262481Y-49255726D01*
X177258365Y-49291554D01*
X177247518Y-49355760D01*
X177231976Y-49409158D01*
X177209155Y-49461739D01*
X177194046Y-49489363D01*
X177150476Y-49551663D01*
X177097905Y-49610550D01*
X177042650Y-49659370D01*
X176991027Y-49691473D01*
X176981914Y-49695143D01*
X176936563Y-49704648D01*
X176888494Y-49704267D01*
X176846694Y-49694766D01*
X176820148Y-49676911D01*
X176814447Y-49667782D01*
X176802879Y-49622898D01*
X176806917Y-49560645D01*
X176826677Y-49480224D01*
X176862273Y-49380834D01*
X176875547Y-49347967D01*
X176926238Y-49229603D01*
X176975616Y-49125224D01*
X177021945Y-49038351D01*
X177063491Y-48972506D01*
X177078107Y-48950542D01*
X177103411Y-48905944D01*
X177120169Y-48867770D01*
X177122133Y-48862245D01*
X177140875Y-48826407D01*
X177163247Y-48801398D01*
X177177636Y-48792120D01*
X177194335Y-48790437D01*
X177212257Y-48808105D01*
G36*
X177324385Y-48306265D02*
G01*
X177361259Y-48328860D01*
X177389276Y-48361192D01*
X177400400Y-48395952D01*
X177392121Y-48420992D01*
X177364119Y-48454363D01*
X177320856Y-48488029D01*
X177267050Y-48517684D01*
X177219824Y-48535439D01*
X177174514Y-48539861D01*
X177140220Y-48524410D01*
X177113531Y-48488435D01*
X177110793Y-48483066D01*
X177101624Y-48458721D01*
X177104791Y-48437437D01*
X177121456Y-48407312D01*
X177152019Y-48370947D01*
X177198307Y-48335326D01*
X177248997Y-48309841D01*
X177295009Y-48300100D01*
X177324385Y-48306265D01*
G37*
X177324385Y-48306265D02*
X177361259Y-48328860D01*
X177389276Y-48361192D01*
X177400400Y-48395952D01*
X177392121Y-48420992D01*
X177364119Y-48454363D01*
X177320856Y-48488029D01*
X177267050Y-48517684D01*
X177219824Y-48535439D01*
X177174514Y-48539861D01*
X177140220Y-48524410D01*
X177113531Y-48488435D01*
X177110793Y-48483066D01*
X177101624Y-48458721D01*
X177104791Y-48437437D01*
X177121456Y-48407312D01*
X177152019Y-48370947D01*
X177198307Y-48335326D01*
X177248997Y-48309841D01*
X177295009Y-48300100D01*
X177324385Y-48306265D01*
G36*
X171306612Y-47047543D02*
G01*
X171360610Y-47063494D01*
X171380731Y-47069166D01*
X171447606Y-47077518D01*
X171521348Y-47075046D01*
X171590150Y-47061835D01*
X171611354Y-47061187D01*
X171640950Y-47072930D01*
X171651450Y-47082509D01*
X171660583Y-47100888D01*
X171664558Y-47131128D01*
X171664878Y-47179954D01*
X171660915Y-47232791D01*
X171649241Y-47301941D01*
X171632014Y-47370359D01*
X171611356Y-47429825D01*
X171589390Y-47472123D01*
X171582660Y-47480797D01*
X171561480Y-47495623D01*
X171538894Y-47490090D01*
X171512640Y-47462969D01*
X171480456Y-47413033D01*
X171453281Y-47368056D01*
X171419880Y-47321115D01*
X171387623Y-47289285D01*
X171351299Y-47267754D01*
X171305695Y-47251710D01*
X171290706Y-47247283D01*
X171230075Y-47224838D01*
X171193095Y-47200337D01*
X171178322Y-47171351D01*
X171184308Y-47135448D01*
X171209608Y-47090198D01*
X171216812Y-47080020D01*
X171241078Y-47054680D01*
X171268889Y-47044230D01*
X171306612Y-47047543D01*
G37*
X171306612Y-47047543D02*
X171360610Y-47063494D01*
X171380731Y-47069166D01*
X171447606Y-47077518D01*
X171521348Y-47075046D01*
X171590150Y-47061835D01*
X171611354Y-47061187D01*
X171640950Y-47072930D01*
X171651450Y-47082509D01*
X171660583Y-47100888D01*
X171664558Y-47131128D01*
X171664878Y-47179954D01*
X171660915Y-47232791D01*
X171649241Y-47301941D01*
X171632014Y-47370359D01*
X171611356Y-47429825D01*
X171589390Y-47472123D01*
X171582660Y-47480797D01*
X171561480Y-47495623D01*
X171538894Y-47490090D01*
X171512640Y-47462969D01*
X171480456Y-47413033D01*
X171453281Y-47368056D01*
X171419880Y-47321115D01*
X171387623Y-47289285D01*
X171351299Y-47267754D01*
X171305695Y-47251710D01*
X171290706Y-47247283D01*
X171230075Y-47224838D01*
X171193095Y-47200337D01*
X171178322Y-47171351D01*
X171184308Y-47135448D01*
X171209608Y-47090198D01*
X171216812Y-47080020D01*
X171241078Y-47054680D01*
X171268889Y-47044230D01*
X171306612Y-47047543D01*
G36*
X171105889Y-47324469D02*
G01*
X171132541Y-47343020D01*
X171161477Y-47374576D01*
X171186895Y-47412247D01*
X171202994Y-47449144D01*
X171206974Y-47465567D01*
X171214579Y-47543030D01*
X171208258Y-47626248D01*
X171188686Y-47703200D01*
X171137795Y-47860084D01*
X171096471Y-48051299D01*
X171079289Y-48238084D01*
X171086419Y-48419262D01*
X171092518Y-48468805D01*
X171104422Y-48534183D01*
X171119208Y-48578559D01*
X171137930Y-48604685D01*
X171161644Y-48615308D01*
X171173553Y-48615511D01*
X171186664Y-48606172D01*
X171189465Y-48582004D01*
X171182014Y-48540186D01*
X171164366Y-48477900D01*
X171161545Y-48468611D01*
X171134414Y-48341625D01*
X171130973Y-48220713D01*
X171151131Y-48103239D01*
X171167900Y-48048489D01*
X171195961Y-47973112D01*
X171228525Y-47898829D01*
X171263487Y-47829467D01*
X171298739Y-47768855D01*
X171332177Y-47720821D01*
X171361694Y-47689193D01*
X171385184Y-47677800D01*
X171400489Y-47688162D01*
X171422075Y-47716333D01*
X171446171Y-47756443D01*
X171469255Y-47802615D01*
X171487802Y-47848971D01*
X171490042Y-47855944D01*
X171503377Y-47923968D01*
X171508539Y-48007289D01*
X171506006Y-48098287D01*
X171496255Y-48189341D01*
X171479761Y-48272831D01*
X171457002Y-48341135D01*
X171452493Y-48352208D01*
X171437701Y-48396406D01*
X171421831Y-48452706D01*
X171407623Y-48511648D01*
X171403300Y-48530429D01*
X171386533Y-48592046D01*
X171367548Y-48649420D01*
X171349678Y-48692167D01*
X171338025Y-48715941D01*
X171322226Y-48756062D01*
X171317270Y-48790857D01*
X171324575Y-48824987D01*
X171345561Y-48863114D01*
X171381647Y-48909900D01*
X171434251Y-48970008D01*
X171440105Y-48976595D01*
X171465748Y-49009329D01*
X171476166Y-49034250D01*
X171474802Y-49058908D01*
X171463593Y-49088568D01*
X171439108Y-49133229D01*
X171407534Y-49181064D01*
X171374378Y-49223820D01*
X171345148Y-49253243D01*
X171316876Y-49270472D01*
X171291216Y-49278000D01*
X171276062Y-49274965D01*
X171240517Y-49253029D01*
X171198937Y-49212746D01*
X171153758Y-49157494D01*
X171107415Y-49090651D01*
X171062345Y-49015594D01*
X171020981Y-48935703D01*
X170985761Y-48854354D01*
X170938572Y-48717377D01*
X170889460Y-48519150D01*
X170861252Y-48318985D01*
X170854215Y-48120553D01*
X170868617Y-47927521D01*
X170904726Y-47743559D01*
X170909245Y-47726768D01*
X170935175Y-47640096D01*
X170963967Y-47557309D01*
X170994055Y-47481853D01*
X171023877Y-47417170D01*
X171051868Y-47366704D01*
X171076465Y-47333900D01*
X171096102Y-47322200D01*
X171105889Y-47324469D01*
G37*
X171105889Y-47324469D02*
X171132541Y-47343020D01*
X171161477Y-47374576D01*
X171186895Y-47412247D01*
X171202994Y-47449144D01*
X171206974Y-47465567D01*
X171214579Y-47543030D01*
X171208258Y-47626248D01*
X171188686Y-47703200D01*
X171137795Y-47860084D01*
X171096471Y-48051299D01*
X171079289Y-48238084D01*
X171086419Y-48419262D01*
X171092518Y-48468805D01*
X171104422Y-48534183D01*
X171119208Y-48578559D01*
X171137930Y-48604685D01*
X171161644Y-48615308D01*
X171173553Y-48615511D01*
X171186664Y-48606172D01*
X171189465Y-48582004D01*
X171182014Y-48540186D01*
X171164366Y-48477900D01*
X171161545Y-48468611D01*
X171134414Y-48341625D01*
X171130973Y-48220713D01*
X171151131Y-48103239D01*
X171167900Y-48048489D01*
X171195961Y-47973112D01*
X171228525Y-47898829D01*
X171263487Y-47829467D01*
X171298739Y-47768855D01*
X171332177Y-47720821D01*
X171361694Y-47689193D01*
X171385184Y-47677800D01*
X171400489Y-47688162D01*
X171422075Y-47716333D01*
X171446171Y-47756443D01*
X171469255Y-47802615D01*
X171487802Y-47848971D01*
X171490042Y-47855944D01*
X171503377Y-47923968D01*
X171508539Y-48007289D01*
X171506006Y-48098287D01*
X171496255Y-48189341D01*
X171479761Y-48272831D01*
X171457002Y-48341135D01*
X171452493Y-48352208D01*
X171437701Y-48396406D01*
X171421831Y-48452706D01*
X171407623Y-48511648D01*
X171403300Y-48530429D01*
X171386533Y-48592046D01*
X171367548Y-48649420D01*
X171349678Y-48692167D01*
X171338025Y-48715941D01*
X171322226Y-48756062D01*
X171317270Y-48790857D01*
X171324575Y-48824987D01*
X171345561Y-48863114D01*
X171381647Y-48909900D01*
X171434251Y-48970008D01*
X171440105Y-48976595D01*
X171465748Y-49009329D01*
X171476166Y-49034250D01*
X171474802Y-49058908D01*
X171463593Y-49088568D01*
X171439108Y-49133229D01*
X171407534Y-49181064D01*
X171374378Y-49223820D01*
X171345148Y-49253243D01*
X171316876Y-49270472D01*
X171291216Y-49278000D01*
X171276062Y-49274965D01*
X171240517Y-49253029D01*
X171198937Y-49212746D01*
X171153758Y-49157494D01*
X171107415Y-49090651D01*
X171062345Y-49015594D01*
X171020981Y-48935703D01*
X170985761Y-48854354D01*
X170938572Y-48717377D01*
X170889460Y-48519150D01*
X170861252Y-48318985D01*
X170854215Y-48120553D01*
X170868617Y-47927521D01*
X170904726Y-47743559D01*
X170909245Y-47726768D01*
X170935175Y-47640096D01*
X170963967Y-47557309D01*
X170994055Y-47481853D01*
X171023877Y-47417170D01*
X171051868Y-47366704D01*
X171076465Y-47333900D01*
X171096102Y-47322200D01*
X171105889Y-47324469D01*
G36*
X173639531Y-44343917D02*
G01*
X173667985Y-44362356D01*
X173679300Y-44387490D01*
X173675841Y-44397792D01*
X173656698Y-44424647D01*
X173624933Y-44459682D01*
X173585277Y-44498373D01*
X173542459Y-44536198D01*
X173501212Y-44568634D01*
X173466265Y-44591158D01*
X173449898Y-44599363D01*
X173411171Y-44612024D01*
X173387425Y-44606079D01*
X173376696Y-44581312D01*
X173376507Y-44574510D01*
X173387472Y-44541107D01*
X173413439Y-44499389D01*
X173449784Y-44454258D01*
X173491881Y-44410620D01*
X173535105Y-44373378D01*
X173574832Y-44347436D01*
X173606437Y-44337700D01*
X173639531Y-44343917D01*
G37*
X173639531Y-44343917D02*
X173667985Y-44362356D01*
X173679300Y-44387490D01*
X173675841Y-44397792D01*
X173656698Y-44424647D01*
X173624933Y-44459682D01*
X173585277Y-44498373D01*
X173542459Y-44536198D01*
X173501212Y-44568634D01*
X173466265Y-44591158D01*
X173449898Y-44599363D01*
X173411171Y-44612024D01*
X173387425Y-44606079D01*
X173376696Y-44581312D01*
X173376507Y-44574510D01*
X173387472Y-44541107D01*
X173413439Y-44499389D01*
X173449784Y-44454258D01*
X173491881Y-44410620D01*
X173535105Y-44373378D01*
X173574832Y-44347436D01*
X173606437Y-44337700D01*
X173639531Y-44343917D01*
%TD*%
D11*
%TO.P,REF\u002A\u002A826,*%
%TO.N,*%
X163090000Y-90820000D03*
%TD*%
%TO.P,REF\u002A\u002A406,*%
%TO.N,*%
X163090000Y-60340000D03*
%TD*%
%TO.P,REF\u002A\u002A332,*%
%TO.N,*%
X152930000Y-55260000D03*
%TD*%
%TO.P,REF\u002A\u002A1250,*%
%TO.N,*%
X173250000Y-121300000D03*
%TD*%
%TO.P,REF\u002A\u002A1059,*%
%TO.N,*%
X132610000Y-108600000D03*
%TD*%
%TO.P,REF\u002A\u002A640,*%
%TO.N,*%
X135150000Y-78120000D03*
%TD*%
%TO.P,REF\u002A\u002A1349,*%
%TO.N,*%
X155390000Y-128920000D03*
%TD*%
%TO.P,REF\u002A\u002A1180,*%
%TO.N,*%
X173250000Y-116220000D03*
%TD*%
%TO.P,REF\u002A\u002A1093,*%
%TO.N,*%
X130070000Y-111140000D03*
%TD*%
%TO.P,REF\u002A\u002A1155,*%
%TO.N,*%
X109750000Y-116220000D03*
%TD*%
%TO.P,REF\u002A\u002A1261,*%
%TO.N,*%
X112290000Y-123840000D03*
%TD*%
%TO.P,REF\u002A\u002A1143,*%
%TO.N,*%
X168170000Y-113680000D03*
%TD*%
%TO.P,REF\u002A\u002A342,*%
%TO.N,*%
X178330000Y-55260000D03*
%TD*%
%TO.P,REF\u002A\u002A935,*%
%TO.N,*%
X173250000Y-98440000D03*
%TD*%
%TO.P,REF\u002A\u002A564,*%
%TO.N,*%
X119910000Y-73040000D03*
%TD*%
%TO.P,REF\u002A\u002A459,*%
%TO.N,*%
X119910000Y-65420000D03*
%TD*%
%TO.P,REF\u002A\u002A901,*%
%TO.N,*%
X175790000Y-95900000D03*
%TD*%
%TO.P,REF\u002A\u002A618,*%
%TO.N,*%
X168170000Y-75580000D03*
%TD*%
%TO.P,REF\u002A\u002A494,*%
%TO.N,*%
X119910000Y-67960000D03*
%TD*%
%TO.P,REF\u002A\u002A793,*%
%TO.N,*%
X168170000Y-88280000D03*
%TD*%
%TO.P,REF\u002A\u002A85,*%
%TO.N,*%
X147850000Y-37480000D03*
%TD*%
%TO.P,REF\u002A\u002A223,*%
%TO.N,*%
X142770000Y-47640000D03*
%TD*%
%TO.P,REF\u002A\u002A389,*%
%TO.N,*%
X119910000Y-60340000D03*
%TD*%
%TO.P,REF\u002A\u002A461,*%
%TO.N,*%
X124990000Y-65420000D03*
%TD*%
%TO.P,REF\u002A\u002A1009,*%
%TO.N,*%
X183410000Y-103520000D03*
%TD*%
%TO.P,REF\u002A\u002A160,*%
%TO.N,*%
X160550000Y-42560000D03*
%TD*%
%TO.P,REF\u002A\u002A434,*%
%TO.N,*%
X145310000Y-62880000D03*
%TD*%
%TO.P,REF\u002A\u002A969,*%
%TO.N,*%
X170710000Y-100980000D03*
%TD*%
%TO.P,REF\u002A\u002A635,*%
%TO.N,*%
X122450000Y-78120000D03*
%TD*%
%TO.P,REF\u002A\u002A470,*%
%TO.N,*%
X147850000Y-65420000D03*
%TD*%
%TO.P,REF\u002A\u002A688,*%
%TO.N,*%
X168170000Y-80660000D03*
%TD*%
%TO.P,REF\u002A\u002A570,*%
%TO.N,*%
X135150000Y-73040000D03*
%TD*%
%TO.P,REF\u002A\u002A250,*%
%TO.N,*%
X122450000Y-50180000D03*
%TD*%
%TO.P,REF\u002A\u002A290,*%
%TO.N,*%
X135150000Y-52720000D03*
%TD*%
%TO.P,REF\u002A\u002A1198,*%
%TO.N,*%
X130070000Y-118760000D03*
%TD*%
%TO.P,REF\u002A\u002A130,*%
%TO.N,*%
X173250000Y-40020000D03*
%TD*%
%TO.P,REF\u002A\u002A73,*%
%TO.N,*%
X117370000Y-37480000D03*
%TD*%
%TO.P,REF\u002A\u002A1215,*%
%TO.N,*%
X173250000Y-118760000D03*
%TD*%
%TO.P,REF\u002A\u002A651,*%
%TO.N,*%
X163090000Y-78120000D03*
%TD*%
%TO.P,REF\u002A\u002A707,*%
%TO.N,*%
X127530000Y-83200000D03*
%TD*%
%TO.P,REF\u002A\u002A603,*%
%TO.N,*%
X130070000Y-75580000D03*
%TD*%
%TO.P,REF\u002A\u002A955,*%
%TO.N,*%
X135150000Y-100980000D03*
%TD*%
%TO.P,REF\u002A\u002A1299,*%
%TO.N,*%
X119910000Y-126380000D03*
%TD*%
%TO.P,REF\u002A\u002A619,*%
%TO.N,*%
X170710000Y-75580000D03*
%TD*%
%TO.P,REF\u002A\u002A1131,*%
%TO.N,*%
X137690000Y-113680000D03*
%TD*%
%TO.P,REF\u002A\u002A499,*%
%TO.N,*%
X132610000Y-67960000D03*
%TD*%
%TO.P,REF\u002A\u002A477,*%
%TO.N,*%
X165630000Y-65420000D03*
%TD*%
%TO.P,REF\u002A\u002A1021,*%
%TO.N,*%
X124990000Y-106060000D03*
%TD*%
%TO.P,REF\u002A\u002A1060,*%
%TO.N,*%
X135150000Y-108600000D03*
%TD*%
%TO.P,REF\u002A\u002A536,*%
%TO.N,*%
X137690000Y-70500000D03*
%TD*%
%TO.P,REF\u002A\u002A583,*%
%TO.N,*%
X168170000Y-73040000D03*
%TD*%
%TO.P,REF\u002A\u002A473,*%
%TO.N,*%
X155470000Y-65420000D03*
%TD*%
%TO.P,REF\u002A\u002A159,*%
%TO.N,*%
X158010000Y-42560000D03*
%TD*%
%TO.P,REF\u002A\u002A672,*%
%TO.N,*%
X127530000Y-80660000D03*
%TD*%
%TO.P,REF\u002A\u002A755,*%
%TO.N,*%
X160550000Y-85740000D03*
%TD*%
%TO.P,REF\u002A\u002A428,*%
%TO.N,*%
X130070000Y-62880000D03*
%TD*%
%TO.P,REF\u002A\u002A1022,*%
%TO.N,*%
X127530000Y-106060000D03*
%TD*%
%TO.P,REF\u002A\u002A1141,*%
%TO.N,*%
X163090000Y-113680000D03*
%TD*%
%TO.P,REF\u002A\u002A777,*%
%TO.N,*%
X127530000Y-88280000D03*
%TD*%
%TO.P,REF\u002A\u002A115,*%
%TO.N,*%
X135150000Y-40020000D03*
%TD*%
%TO.P,REF\u002A\u002A307,*%
%TO.N,*%
X178330000Y-52720000D03*
%TD*%
%TO.P,REF\u002A\u002A396,*%
%TO.N,*%
X137690000Y-60340000D03*
%TD*%
%TO.P,REF\u002A\u002A617,*%
%TO.N,*%
X165630000Y-75580000D03*
%TD*%
%TO.P,REF\u002A\u002A152,*%
%TO.N,*%
X140230000Y-42560000D03*
%TD*%
%TO.P,REF\u002A\u002A326,*%
%TO.N,*%
X137690000Y-55260000D03*
%TD*%
%TO.P,REF\u002A\u002A388,*%
%TO.N,*%
X117370000Y-60340000D03*
%TD*%
%TO.P,REF\u002A\u002A155,*%
%TO.N,*%
X147850000Y-42560000D03*
%TD*%
%TO.P,REF\u002A\u002A658,*%
%TO.N,*%
X180870000Y-78120000D03*
%TD*%
%TO.P,REF\u002A\u002A774,*%
%TO.N,*%
X119910000Y-88280000D03*
%TD*%
%TO.P,REF\u002A\u002A516,*%
%TO.N,*%
X175790000Y-67960000D03*
%TD*%
%TO.P,REF\u002A\u002A356,*%
%TO.N,*%
X124990000Y-57800000D03*
%TD*%
%TO.P,REF\u002A\u002A582,*%
%TO.N,*%
X165630000Y-73040000D03*
%TD*%
%TO.P,REF\u002A\u002A863,*%
%TO.N,*%
X168170000Y-93360000D03*
%TD*%
%TO.P,REF\u002A\u002A229,*%
%TO.N,*%
X158010000Y-47640000D03*
%TD*%
%TO.P,REF\u002A\u002A87,*%
%TO.N,*%
X152930000Y-37480000D03*
%TD*%
%TO.P,REF\u002A\u002A530,*%
%TO.N,*%
X122450000Y-70500000D03*
%TD*%
%TO.P,REF\u002A\u002A190,*%
%TO.N,*%
X147850000Y-45100000D03*
%TD*%
%TO.P,REF\u002A\u002A53,*%
%TO.N,*%
X155470000Y-34940000D03*
%TD*%
%TO.P,REF\u002A\u002A1321,*%
%TO.N,*%
X175790000Y-126380000D03*
%TD*%
%TO.P,REF\u002A\u002A261,*%
%TO.N,*%
X150390000Y-50180000D03*
%TD*%
%TO.P,REF\u002A\u002A1035,*%
%TO.N,*%
X160550000Y-106060000D03*
%TD*%
%TO.P,REF\u002A\u002A989,*%
%TO.N,*%
X132610000Y-103520000D03*
%TD*%
%TO.P,REF\u002A\u002A1159,*%
%TO.N,*%
X119910000Y-116220000D03*
%TD*%
%TO.P,REF\u002A\u002A1284,*%
%TO.N,*%
X170710000Y-123840000D03*
%TD*%
%TO.P,REF\u002A\u002A513,*%
%TO.N,*%
X168170000Y-67960000D03*
%TD*%
%TO.P,REF\u002A\u002A518,*%
%TO.N,*%
X180870000Y-67960000D03*
%TD*%
%TO.P,REF\u002A\u002A423,*%
%TO.N,*%
X117370000Y-62880000D03*
%TD*%
%TO.P,REF\u002A\u002A9,*%
%TO.N,*%
X132610000Y-32400000D03*
%TD*%
%TO.P,REF\u002A\u002A722,*%
%TO.N,*%
X165630000Y-83200000D03*
%TD*%
%TO.P,REF\u002A\u002A185,*%
%TO.N,*%
X135150000Y-45100000D03*
%TD*%
%TO.P,REF\u002A\u002A230,*%
%TO.N,*%
X160550000Y-47640000D03*
%TD*%
%TO.P,REF\u002A\u002A1106,*%
%TO.N,*%
X163090000Y-111140000D03*
%TD*%
%TO.P,REF\u002A\u002A1089,*%
%TO.N,*%
X119910000Y-111140000D03*
%TD*%
%TO.P,REF\u002A\u002A675,*%
%TO.N,*%
X135150000Y-80660000D03*
%TD*%
%TO.P,REF\u002A\u002A920,*%
%TO.N,*%
X135150000Y-98440000D03*
%TD*%
%TO.P,REF\u002A\u002A1225,*%
%TO.N,*%
X109750000Y-121300000D03*
%TD*%
%TO.P,REF\u002A\u002A1095,*%
%TO.N,*%
X135150000Y-111140000D03*
%TD*%
%TO.P,REF\u002A\u002A391,*%
%TO.N,*%
X124990000Y-60340000D03*
%TD*%
%TO.P,REF\u002A\u002A78,*%
%TO.N,*%
X130070000Y-37480000D03*
%TD*%
%TO.P,REF\u002A\u002A790,*%
%TO.N,*%
X160550000Y-88280000D03*
%TD*%
%TO.P,REF\u002A\u002A1295,*%
%TO.N,*%
X109750000Y-126380000D03*
%TD*%
%TO.P,REF\u002A\u002A634,*%
%TO.N,*%
X119910000Y-78120000D03*
%TD*%
%TO.P,REF\u002A\u002A373,*%
%TO.N,*%
X168170000Y-57800000D03*
%TD*%
%TO.P,REF\u002A\u002A124,*%
%TO.N,*%
X158010000Y-40020000D03*
%TD*%
%TO.P,REF\u002A\u002A598,*%
%TO.N,*%
X117370000Y-75580000D03*
%TD*%
%TO.P,REF\u002A\u002A885,*%
%TO.N,*%
X135150000Y-95900000D03*
%TD*%
%TO.P,REF\u002A\u002A1124,*%
%TO.N,*%
X119910000Y-113680000D03*
%TD*%
%TO.P,REF\u002A\u002A458,*%
%TO.N,*%
X117370000Y-65420000D03*
%TD*%
%TO.P,REF\u002A\u002A1228,*%
%TO.N,*%
X117370000Y-121300000D03*
%TD*%
%TO.P,REF\u002A\u002A1349,*%
%TO.N,*%
X158010000Y-128920000D03*
%TD*%
%TO.P,REF\u002A\u002A531,*%
%TO.N,*%
X124990000Y-70500000D03*
%TD*%
%TO.P,REF\u002A\u002A1037,*%
%TO.N,*%
X165630000Y-106060000D03*
%TD*%
%TO.P,REF\u002A\u002A397,*%
%TO.N,*%
X140230000Y-60340000D03*
%TD*%
%TO.P,REF\u002A\u002A1108,*%
%TO.N,*%
X168170000Y-111140000D03*
%TD*%
%TO.P,REF\u002A\u002A215,*%
%TO.N,*%
X122450000Y-47640000D03*
%TD*%
%TO.P,REF\u002A\u002A432,*%
%TO.N,*%
X140230000Y-62880000D03*
%TD*%
%TO.P,REF\u002A\u002A571,*%
%TO.N,*%
X137690000Y-73040000D03*
%TD*%
%TO.P,REF\u002A\u002A424,*%
%TO.N,*%
X119910000Y-62880000D03*
%TD*%
%TO.P,REF\u002A\u002A813,*%
%TO.N,*%
X130070000Y-90820000D03*
%TD*%
%TO.P,REF\u002A\u002A123,*%
%TO.N,*%
X155470000Y-40020000D03*
%TD*%
%TO.P,REF\u002A\u002A1212,*%
%TO.N,*%
X165630000Y-118760000D03*
%TD*%
%TO.P,REF\u002A\u002A548,*%
%TO.N,*%
X168170000Y-70500000D03*
%TD*%
%TO.P,REF\u002A\u002A639,*%
%TO.N,*%
X132610000Y-78120000D03*
%TD*%
%TO.P,REF\u002A\u002A568,*%
%TO.N,*%
X130070000Y-73040000D03*
%TD*%
%TO.P,REF\u002A\u002A916,*%
%TO.N,*%
X124990000Y-98440000D03*
%TD*%
%TO.P,REF\u002A\u002A1245,*%
%TO.N,*%
X160550000Y-121300000D03*
%TD*%
%TO.P,REF\u002A\u002A1252,*%
%TO.N,*%
X178330000Y-121300000D03*
%TD*%
%TO.P,REF\u002A\u002A932,*%
%TO.N,*%
X165630000Y-98440000D03*
%TD*%
%TO.P,REF\u002A\u002A283,*%
%TO.N,*%
X117370000Y-52720000D03*
%TD*%
%TO.P,REF\u002A\u002A126,*%
%TO.N,*%
X163090000Y-40020000D03*
%TD*%
%TO.P,REF\u002A\u002A812,*%
%TO.N,*%
X127530000Y-90820000D03*
%TD*%
%TO.P,REF\u002A\u002A493,*%
%TO.N,*%
X117370000Y-67960000D03*
%TD*%
%TO.P,REF\u002A\u002A158,*%
%TO.N,*%
X155470000Y-42560000D03*
%TD*%
%TO.P,REF\u002A\u002A180,*%
%TO.N,*%
X122450000Y-45100000D03*
%TD*%
%TO.P,REF\u002A\u002A256,*%
%TO.N,*%
X137690000Y-50180000D03*
%TD*%
%TO.P,REF\u002A\u002A302,*%
%TO.N,*%
X165630000Y-52720000D03*
%TD*%
%TO.P,REF\u002A\u002A303,*%
%TO.N,*%
X168170000Y-52720000D03*
%TD*%
%TO.P,REF\u002A\u002A258,*%
%TO.N,*%
X142770000Y-50180000D03*
%TD*%
%TO.P,REF\u002A\u002A284,*%
%TO.N,*%
X119910000Y-52720000D03*
%TD*%
%TO.P,REF\u002A\u002A914,*%
%TO.N,*%
X119910000Y-98440000D03*
%TD*%
%TO.P,REF\u002A\u002A149,*%
%TO.N,*%
X132610000Y-42560000D03*
%TD*%
%TO.P,REF\u002A\u002A1076,*%
%TO.N,*%
X175790000Y-108600000D03*
%TD*%
%TO.P,REF\u002A\u002A145,*%
%TO.N,*%
X122450000Y-42560000D03*
%TD*%
%TO.P,REF\u002A\u002A179,*%
%TO.N,*%
X119910000Y-45100000D03*
%TD*%
%TO.P,REF\u002A\u002A721,*%
%TO.N,*%
X163090000Y-83200000D03*
%TD*%
%TO.P,REF\u002A\u002A763,*%
%TO.N,*%
X180870000Y-85740000D03*
%TD*%
%TO.P,REF\u002A\u002A119,*%
%TO.N,*%
X145310000Y-40020000D03*
%TD*%
%TO.P,REF\u002A\u002A227,*%
%TO.N,*%
X152930000Y-47640000D03*
%TD*%
%TO.P,REF\u002A\u002A1325,*%
%TO.N,*%
X185950000Y-126380000D03*
%TD*%
%TO.P,REF\u002A\u002A616,*%
%TO.N,*%
X163090000Y-75580000D03*
%TD*%
%TO.P,REF\u002A\u002A1109,*%
%TO.N,*%
X170710000Y-111140000D03*
%TD*%
%TO.P,REF\u002A\u002A182,*%
%TO.N,*%
X127530000Y-45100000D03*
%TD*%
%TO.P,REF\u002A\u002A188,*%
%TO.N,*%
X142770000Y-45100000D03*
%TD*%
%TO.P,REF\u002A\u002A143,*%
%TO.N,*%
X117370000Y-42560000D03*
%TD*%
%TO.P,REF\u002A\u002A57,*%
%TO.N,*%
X165630000Y-34940000D03*
%TD*%
%TO.P,REF\u002A\u002A259,*%
%TO.N,*%
X145310000Y-50180000D03*
%TD*%
%TO.P,REF\u002A\u002A650,*%
%TO.N,*%
X160550000Y-78120000D03*
%TD*%
%TO.P,REF\u002A\u002A498,*%
%TO.N,*%
X130070000Y-67960000D03*
%TD*%
%TO.P,REF\u002A\u002A919,*%
%TO.N,*%
X132610000Y-98440000D03*
%TD*%
%TO.P,REF\u002A\u002A304,*%
%TO.N,*%
X170710000Y-52720000D03*
%TD*%
%TO.P,REF\u002A\u002A390,*%
%TO.N,*%
X122450000Y-60340000D03*
%TD*%
%TO.P,REF\u002A\u002A292,*%
%TO.N,*%
X140230000Y-52720000D03*
%TD*%
%TO.P,REF\u002A\u002A676,*%
%TO.N,*%
X137690000Y-80660000D03*
%TD*%
%TO.P,REF\u002A\u002A1071,*%
%TO.N,*%
X163090000Y-108600000D03*
%TD*%
%TO.P,REF\u002A\u002A938,*%
%TO.N,*%
X180870000Y-98440000D03*
%TD*%
%TO.P,REF\u002A\u002A264,*%
%TO.N,*%
X158010000Y-50180000D03*
%TD*%
%TO.P,REF\u002A\u002A1286,*%
%TO.N,*%
X175790000Y-123840000D03*
%TD*%
%TO.P,REF\u002A\u002A1183,*%
%TO.N,*%
X180870000Y-116220000D03*
%TD*%
%TO.P,REF\u002A\u002A983,*%
%TO.N,*%
X117370000Y-103520000D03*
%TD*%
%TO.P,REF\u002A\u002A1262,*%
%TO.N,*%
X114830000Y-123840000D03*
%TD*%
%TO.P,REF\u002A\u002A1041,*%
%TO.N,*%
X175790000Y-106060000D03*
%TD*%
%TO.P,REF\u002A\u002A295,*%
%TO.N,*%
X147850000Y-52720000D03*
%TD*%
%TO.P,REF\u002A\u002A1300,*%
%TO.N,*%
X122450000Y-126380000D03*
%TD*%
%TO.P,REF\u002A\u002A1263,*%
%TO.N,*%
X117370000Y-123840000D03*
%TD*%
%TO.P,REF\u002A\u002A741,*%
%TO.N,*%
X124990000Y-85740000D03*
%TD*%
%TO.P,REF\u002A\u002A1301,*%
%TO.N,*%
X124990000Y-126380000D03*
%TD*%
%TO.P,REF\u002A\u002A738,*%
%TO.N,*%
X117370000Y-85740000D03*
%TD*%
%TO.P,REF\u002A\u002A165,*%
%TO.N,*%
X173250000Y-42560000D03*
%TD*%
%TO.P,REF\u002A\u002A249,*%
%TO.N,*%
X119910000Y-50180000D03*
%TD*%
%TO.P,REF\u002A\u002A601,*%
%TO.N,*%
X124990000Y-75580000D03*
%TD*%
%TO.P,REF\u002A\u002A547,*%
%TO.N,*%
X165630000Y-70500000D03*
%TD*%
%TO.P,REF\u002A\u002A8,*%
%TO.N,*%
X130070000Y-32400000D03*
%TD*%
%TO.P,REF\u002A\u002A878,*%
%TO.N,*%
X117370000Y-95900000D03*
%TD*%
%TO.P,REF\u002A\u002A791,*%
%TO.N,*%
X163090000Y-88280000D03*
%TD*%
%TO.P,REF\u002A\u002A1247,*%
%TO.N,*%
X165630000Y-121300000D03*
%TD*%
%TO.P,REF\u002A\u002A1185,*%
%TO.N,*%
X185950000Y-116220000D03*
%TD*%
%TO.P,REF\u002A\u002A196,*%
%TO.N,*%
X163090000Y-45100000D03*
%TD*%
%TO.P,REF\u002A\u002A1179,*%
%TO.N,*%
X170710000Y-116220000D03*
%TD*%
%TO.P,REF\u002A\u002A407,*%
%TO.N,*%
X165630000Y-60340000D03*
%TD*%
%TO.P,REF\u002A\u002A778,*%
%TO.N,*%
X130070000Y-88280000D03*
%TD*%
%TO.P,REF\u002A\u002A655,*%
%TO.N,*%
X173250000Y-78120000D03*
%TD*%
%TO.P,REF\u002A\u002A939,*%
%TO.N,*%
X183410000Y-98440000D03*
%TD*%
%TO.P,REF\u002A\u002A1092,*%
%TO.N,*%
X127530000Y-111140000D03*
%TD*%
%TO.P,REF\u002A\u002A440,*%
%TO.N,*%
X160550000Y-62880000D03*
%TD*%
%TO.P,REF\u002A\u002A6,*%
%TO.N,*%
X124990000Y-32400000D03*
%TD*%
%TO.P,REF\u002A\u002A1023,*%
%TO.N,*%
X130070000Y-106060000D03*
%TD*%
%TO.P,REF\u002A\u002A291,*%
%TO.N,*%
X137690000Y-52720000D03*
%TD*%
%TO.P,REF\u002A\u002A84,*%
%TO.N,*%
X145310000Y-37480000D03*
%TD*%
%TO.P,REF\u002A\u002A495,*%
%TO.N,*%
X122450000Y-67960000D03*
%TD*%
%TO.P,REF\u002A\u002A195,*%
%TO.N,*%
X160550000Y-45100000D03*
%TD*%
%TO.P,REF\u002A\u002A1164,*%
%TO.N,*%
X132610000Y-116220000D03*
%TD*%
%TO.P,REF\u002A\u002A157,*%
%TO.N,*%
X152930000Y-42560000D03*
%TD*%
%TO.P,REF\u002A\u002A11,*%
%TO.N,*%
X137690000Y-32400000D03*
%TD*%
%TO.P,REF\u002A\u002A865,*%
%TO.N,GND*%
X173250000Y-93360000D03*
%TD*%
%TO.P,REF\u002A\u002A1216,*%
%TO.N,*%
X175790000Y-118760000D03*
%TD*%
%TO.P,REF\u002A\u002A1280,*%
%TO.N,*%
X160550000Y-123900000D03*
%TD*%
%TO.P,,*%
%TO.N,*%
X142700000Y-123900000D03*
%TD*%
%TO.P,REF\u002A\u002A128,*%
%TO.N,*%
X168170000Y-40020000D03*
%TD*%
%TO.P,REF\u002A\u002A950,*%
%TO.N,*%
X122450000Y-100980000D03*
%TD*%
%TO.P,REF\u002A\u002A966,*%
%TO.N,*%
X163090000Y-100980000D03*
%TD*%
%TO.P,REF\u002A\u002A260,*%
%TO.N,*%
X147850000Y-50180000D03*
%TD*%
%TO.P,REF\u002A\u002A114,*%
%TO.N,*%
X132610000Y-40020000D03*
%TD*%
%TO.P,REF\u002A\u002A248,*%
%TO.N,*%
X117370000Y-50180000D03*
%TD*%
%TO.P,REF\u002A\u002A81,*%
%TO.N,*%
X137690000Y-37480000D03*
%TD*%
%TO.P,REF\u002A\u002A464,*%
%TO.N,*%
X132610000Y-65420000D03*
%TD*%
%TO.P,REF\u002A\u002A1297,*%
%TO.N,*%
X114830000Y-126380000D03*
%TD*%
%TO.P,REF\u002A\u002A479,*%
%TO.N,*%
X170710000Y-65420000D03*
%TD*%
%TO.P,REF\u002A\u002A194,*%
%TO.N,*%
X158010000Y-45100000D03*
%TD*%
%TO.P,REF\u002A\u002A340,*%
%TO.N,*%
X173250000Y-55260000D03*
%TD*%
%TO.P,REF\u002A\u002A514,*%
%TO.N,*%
X170710000Y-67960000D03*
%TD*%
%TO.P,REF\u002A\u002A23,*%
%TO.N,*%
X168170000Y-32400000D03*
%TD*%
%TO.P,REF\u002A\u002A1281,*%
%TO.N,*%
X163090000Y-123840000D03*
%TD*%
%TO.P,REF\u002A\u002A895,*%
%TO.N,*%
X160550000Y-95900000D03*
%TD*%
%TO.P,REF\u002A\u002A228,*%
%TO.N,*%
X155470000Y-47640000D03*
%TD*%
%TO.P,REF\u002A\u002A600,*%
%TO.N,*%
X122450000Y-75580000D03*
%TD*%
%TO.P,REF\u002A\u002A869,*%
%TO.N,GND*%
X183410000Y-93360000D03*
%TD*%
%TO.P,REF\u002A\u002A1044,*%
%TO.N,*%
X183410000Y-106060000D03*
%TD*%
%TO.P,REF\u002A\u002A1039,*%
%TO.N,*%
X170710000Y-106060000D03*
%TD*%
%TO.P,REF\u002A\u002A1148,*%
%TO.N,*%
X180870000Y-113680000D03*
%TD*%
%TO.P,REF\u002A\u002A257,*%
%TO.N,*%
X140230000Y-50180000D03*
%TD*%
%TO.P,REF\u002A\u002A728,*%
%TO.N,*%
X180870000Y-83200000D03*
%TD*%
%TO.P,REF\u002A\u002A1359,*%
%TO.N,*%
X183410000Y-128920000D03*
%TD*%
%TO.P,REF\u002A\u002A1000,*%
%TO.N,*%
X160550000Y-103520000D03*
%TD*%
%TO.P,REF\u002A\u002A1265,*%
%TO.N,*%
X122450000Y-123840000D03*
%TD*%
%TO.P,REF\u002A\u002A623,*%
%TO.N,*%
X180870000Y-75580000D03*
%TD*%
%TO.P,REF\u002A\u002A1094,*%
%TO.N,*%
X132610000Y-111140000D03*
%TD*%
%TO.P,REF\u002A\u002A829,*%
%TO.N,*%
X170710000Y-90820000D03*
%TD*%
%TO.P,REF\u002A\u002A372,*%
%TO.N,*%
X165630000Y-57800000D03*
%TD*%
%TO.P,REF\u002A\u002A546,*%
%TO.N,*%
X163090000Y-70500000D03*
%TD*%
%TO.P,REF\u002A\u002A151,*%
%TO.N,*%
X137690000Y-42560000D03*
%TD*%
%TO.P,REF\u002A\u002A47,*%
%TO.N,*%
X140230000Y-34940000D03*
%TD*%
%TO.P,REF\u002A\u002A1008,*%
%TO.N,*%
X180870000Y-103520000D03*
%TD*%
%TO.P,REF\u002A\u002A233,*%
%TO.N,*%
X168170000Y-47640000D03*
%TD*%
%TO.P,REF\u002A\u002A810,*%
%TO.N,*%
X122450000Y-90820000D03*
%TD*%
%TO.P,REF\u002A\u002A899,*%
%TO.N,*%
X170710000Y-95900000D03*
%TD*%
%TO.P,REF\u002A\u002A851,*%
%TO.N,*%
X137690000Y-93360000D03*
%TD*%
%TO.P,REF\u002A\u002A467,*%
%TO.N,*%
X140230000Y-65420000D03*
%TD*%
%TO.P,REF\u002A\u002A265,*%
%TO.N,*%
X160550000Y-50180000D03*
%TD*%
%TO.P,REF\u002A\u002A1317,*%
%TO.N,*%
X165630000Y-126380000D03*
%TD*%
%TO.P,REF\u002A\u002A76,*%
%TO.N,*%
X124990000Y-37480000D03*
%TD*%
%TO.P,REF\u002A\u002A1266,*%
%TO.N,*%
X124990000Y-123840000D03*
%TD*%
%TO.P,REF\u002A\u002A285,*%
%TO.N,*%
X122450000Y-52720000D03*
%TD*%
%TO.P,REF\u002A\u002A331,*%
%TO.N,*%
X150390000Y-55260000D03*
%TD*%
%TO.P,REF\u002A\u002A113,*%
%TO.N,*%
X130070000Y-40020000D03*
%TD*%
%TO.P,REF\u002A\u002A336,*%
%TO.N,*%
X163090000Y-55260000D03*
%TD*%
%TO.P,REF\u002A\u002A20,*%
%TO.N,*%
X160550000Y-32400000D03*
%TD*%
%TO.P,REF\u002A\u002A1130,*%
%TO.N,*%
X135150000Y-113680000D03*
%TD*%
%TO.P,REF\u002A\u002A338,*%
%TO.N,*%
X168170000Y-55260000D03*
%TD*%
%TO.P,REF\u002A\u002A183,*%
%TO.N,*%
X130070000Y-45100000D03*
%TD*%
%TO.P,REF\u002A\u002A1260,*%
%TO.N,*%
X109750000Y-123840000D03*
%TD*%
%TO.P,REF\u002A\u002A1110,*%
%TO.N,*%
X173250000Y-111140000D03*
%TD*%
%TO.P,REF\u002A\u002A1331,*%
%TO.N,*%
X112290000Y-128920000D03*
%TD*%
%TO.P,REF\u002A\u002A669,*%
%TO.N,*%
X119910000Y-80660000D03*
%TD*%
%TO.P,REF\u002A\u002A1182,*%
%TO.N,*%
X178330000Y-116220000D03*
%TD*%
%TO.P,REF\u002A\u002A50,*%
%TO.N,*%
X147850000Y-34940000D03*
%TD*%
%TO.P,REF\u002A\u002A1285,*%
%TO.N,*%
X173250000Y-123840000D03*
%TD*%
%TO.P,REF\u002A\u002A1236,*%
%TO.N,*%
X137690000Y-121300000D03*
%TD*%
%TO.P,REF\u002A\u002A1358,*%
%TO.N,*%
X180870000Y-128920000D03*
%TD*%
%TO.P,REF\u002A\u002A148,*%
%TO.N,*%
X130070000Y-42560000D03*
%TD*%
%TO.P,REF\u002A\u002A357,*%
%TO.N,*%
X127530000Y-57800000D03*
%TD*%
%TO.P,REF\u002A\u002A1220,*%
%TO.N,*%
X185950000Y-118760000D03*
%TD*%
%TO.P,REF\u002A\u002A121,*%
%TO.N,*%
X150390000Y-40020000D03*
%TD*%
%TO.P,REF\u002A\u002A792,*%
%TO.N,*%
X165630000Y-88280000D03*
%TD*%
%TO.P,REF\u002A\u002A951,*%
%TO.N,*%
X124990000Y-100980000D03*
%TD*%
%TO.P,REF\u002A\u002A308,*%
%TO.N,*%
X180870000Y-52720000D03*
%TD*%
%TO.P,REF\u002A\u002A472,*%
%TO.N,*%
X152930000Y-65420000D03*
%TD*%
%TO.P,REF\u002A\u002A900,*%
%TO.N,*%
X173250000Y-95900000D03*
%TD*%
%TO.P,REF\u002A\u002A706,*%
%TO.N,*%
X124990000Y-83200000D03*
%TD*%
%TO.P,REF\u002A\u002A1040,*%
%TO.N,*%
X173250000Y-106060000D03*
%TD*%
%TO.P,REF\u002A\u002A448,*%
%TO.N,*%
X180870000Y-62880000D03*
%TD*%
%TO.P,REF\u002A\u002A426,*%
%TO.N,*%
X124990000Y-62880000D03*
%TD*%
%TO.P,REF\u002A\u002A918,*%
%TO.N,*%
X130070000Y-98440000D03*
%TD*%
%TO.P,REF\u002A\u002A49,*%
%TO.N,*%
X145310000Y-34940000D03*
%TD*%
%TO.P,REF\u002A\u002A184,*%
%TO.N,*%
X132610000Y-45100000D03*
%TD*%
%TO.P,REF\u002A\u002A971,*%
%TO.N,*%
X175790000Y-100980000D03*
%TD*%
%TO.P,REF\u002A\u002A478,*%
%TO.N,*%
X168170000Y-65420000D03*
%TD*%
%TO.P,REF\u002A\u002A1026,*%
%TO.N,*%
X137690000Y-106060000D03*
%TD*%
%TO.P,REF\u002A\u002A1160,*%
%TO.N,*%
X122450000Y-116220000D03*
%TD*%
%TO.P,REF\u002A\u002A881,*%
%TO.N,*%
X124990000Y-95900000D03*
%TD*%
%TO.P,REF\u002A\u002A46,*%
%TO.N,*%
X137690000Y-34940000D03*
%TD*%
%TO.P,REF\u002A\u002A404,*%
%TO.N,*%
X158010000Y-60340000D03*
%TD*%
%TO.P,REF\u002A\u002A795,*%
%TO.N,*%
X173250000Y-88280000D03*
%TD*%
%TO.P,REF\u002A\u002A429,*%
%TO.N,*%
X132610000Y-62880000D03*
%TD*%
%TO.P,REF\u002A\u002A156,*%
%TO.N,*%
X150390000Y-42560000D03*
%TD*%
%TO.P,REF\u002A\u002A15,*%
%TO.N,*%
X147850000Y-32400000D03*
%TD*%
%TO.P,REF\u002A\u002A1235,*%
%TO.N,*%
X135150000Y-121300000D03*
%TD*%
%TO.P,REF\u002A\u002A569,*%
%TO.N,*%
X132610000Y-73040000D03*
%TD*%
%TO.P,REF\u002A\u002A362,*%
%TO.N,*%
X140230000Y-57800000D03*
%TD*%
%TO.P,REF\u002A\u002A1091,*%
%TO.N,*%
X124990000Y-111140000D03*
%TD*%
%TO.P,REF\u002A\u002A131,*%
%TO.N,*%
X175790000Y-40020000D03*
%TD*%
%TO.P,REF\u002A\u002A550,*%
%TO.N,*%
X173250000Y-70500000D03*
%TD*%
%TO.P,REF\u002A\u002A374,*%
%TO.N,*%
X170710000Y-57800000D03*
%TD*%
%TO.P,REF\u002A\u002A435,*%
%TO.N,*%
X147850000Y-62880000D03*
%TD*%
%TO.P,REF\u002A\u002A584,*%
%TO.N,*%
X170710000Y-73040000D03*
%TD*%
%TO.P,REF\u002A\u002A80,*%
%TO.N,*%
X135150000Y-37480000D03*
%TD*%
%TO.P,REF\u002A\u002A224,*%
%TO.N,*%
X145310000Y-47640000D03*
%TD*%
%TO.P,REF\u002A\u002A368,*%
%TO.N,*%
X155470000Y-57800000D03*
%TD*%
%TO.P,REF\u002A\u002A1330,*%
%TO.N,*%
X109750000Y-128920000D03*
%TD*%
%TO.P,REF\u002A\u002A990,*%
%TO.N,*%
X135150000Y-103520000D03*
%TD*%
%TO.P,REF\u002A\u002A973,*%
%TO.N,*%
X180870000Y-100980000D03*
%TD*%
%TO.P,REF\u002A\u002A1181,*%
%TO.N,*%
X175790000Y-116220000D03*
%TD*%
%TO.P,REF\u002A\u002A1018,*%
%TO.N,*%
X117370000Y-106060000D03*
%TD*%
%TO.P,REF\u002A\u002A758,*%
%TO.N,*%
X168170000Y-85740000D03*
%TD*%
%TO.P,REF\u002A\u002A327,*%
%TO.N,*%
X140230000Y-55260000D03*
%TD*%
%TO.P,REF\u002A\u002A1088,*%
%TO.N,*%
X117370000Y-111140000D03*
%TD*%
%TO.P,REF\u002A\u002A438,*%
%TO.N,*%
X155470000Y-62880000D03*
%TD*%
%TO.P,REF\u002A\u002A430,*%
%TO.N,*%
X135150000Y-62880000D03*
%TD*%
%TO.P,REF\u002A\u002A703,*%
%TO.N,*%
X117370000Y-83200000D03*
%TD*%
%TO.P,REF\u002A\u002A411,*%
%TO.N,*%
X175790000Y-60340000D03*
%TD*%
%TO.P,REF\u002A\u002A263,*%
%TO.N,*%
X155470000Y-50180000D03*
%TD*%
%TO.P,REF\u002A\u002A38,*%
%TO.N,*%
X117370000Y-34940000D03*
%TD*%
%TO.P,REF\u002A\u002A988,*%
%TO.N,*%
X130070000Y-103520000D03*
%TD*%
%TO.P,REF\u002A\u002A1166,*%
%TO.N,*%
X137690000Y-116220000D03*
%TD*%
%TO.P,REF\u002A\u002A1123,*%
%TO.N,*%
X117370000Y-113680000D03*
%TD*%
%TO.P,REF\u002A\u002A1324,*%
%TO.N,*%
X183410000Y-126380000D03*
%TD*%
%TO.P,REF\u002A\u002A187,*%
%TO.N,*%
X140230000Y-45100000D03*
%TD*%
%TO.P,,*%
%TO.N,*%
X157830000Y-123900000D03*
%TD*%
%TO.P,REF\u002A\u002A1306,*%
%TO.N,*%
X137690000Y-126380000D03*
%TD*%
%TO.P,REF\u002A\u002A401,*%
%TO.N,*%
X150390000Y-60340000D03*
%TD*%
%TO.P,REF\u002A\u002A726,*%
%TO.N,*%
X175790000Y-83200000D03*
%TD*%
%TO.P,REF\u002A\u002A933,*%
%TO.N,*%
X168170000Y-98440000D03*
%TD*%
%TO.P,REF\u002A\u002A328,*%
%TO.N,*%
X142770000Y-55260000D03*
%TD*%
%TO.P,REF\u002A\u002A501,*%
%TO.N,*%
X137690000Y-67960000D03*
%TD*%
%TO.P,REF\u002A\u002A1043,*%
%TO.N,*%
X180870000Y-106060000D03*
%TD*%
%TO.P,REF\u002A\u002A1006,*%
%TO.N,*%
X175790000Y-103520000D03*
%TD*%
%TO.P,REF\u002A\u002A967,*%
%TO.N,*%
X165630000Y-100980000D03*
%TD*%
%TO.P,REF\u002A\u002A439,*%
%TO.N,*%
X158010000Y-62880000D03*
%TD*%
%TO.P,REF\u002A\u002A460,*%
%TO.N,*%
X122450000Y-65420000D03*
%TD*%
%TO.P,REF\u002A\u002A757,*%
%TO.N,*%
X165630000Y-85740000D03*
%TD*%
%TO.P,REF\u002A\u002A164,*%
%TO.N,*%
X170710000Y-42560000D03*
%TD*%
%TO.P,REF\u002A\u002A431,*%
%TO.N,*%
X137690000Y-62880000D03*
%TD*%
%TO.P,REF\u002A\u002A860,*%
%TO.N,*%
X160550000Y-93360000D03*
%TD*%
%TO.P,REF\u002A\u002A808,*%
%TO.N,*%
X117370000Y-90820000D03*
%TD*%
%TO.P,REF\u002A\u002A1144,*%
%TO.N,*%
X170710000Y-113680000D03*
%TD*%
%TO.P,REF\u002A\u002A395,*%
%TO.N,*%
X135150000Y-60340000D03*
%TD*%
%TO.P,REF\u002A\u002A225,*%
%TO.N,*%
X147850000Y-47640000D03*
%TD*%
%TO.P,REF\u002A\u002A3,*%
%TO.N,*%
X117370000Y-32400000D03*
%TD*%
%TO.P,REF\u002A\u002A394,*%
%TO.N,*%
X132610000Y-60340000D03*
%TD*%
%TO.P,REF\u002A\u002A1282,*%
%TO.N,*%
X165630000Y-123840000D03*
%TD*%
%TO.P,REF\u002A\u002A742,*%
%TO.N,*%
X127530000Y-85740000D03*
%TD*%
%TO.P,REF\u002A\u002A886,*%
%TO.N,*%
X137690000Y-95900000D03*
%TD*%
%TO.P,REF\u002A\u002A1322,*%
%TO.N,*%
X178330000Y-126380000D03*
%TD*%
%TO.P,REF\u002A\u002A1113,*%
%TO.N,*%
X180870000Y-111140000D03*
%TD*%
%TO.P,REF\u002A\u002A1354,*%
%TO.N,*%
X170710000Y-128920000D03*
%TD*%
%TO.P,REF\u002A\u002A91,*%
%TO.N,*%
X163090000Y-37480000D03*
%TD*%
%TO.P,REF\u002A\u002A48,*%
%TO.N,*%
X142770000Y-34940000D03*
%TD*%
%TO.P,REF\u002A\u002A83,*%
%TO.N,*%
X142770000Y-37480000D03*
%TD*%
%TO.P,REF\u002A\u002A1193,*%
%TO.N,*%
X117370000Y-118760000D03*
%TD*%
%TO.P,REF\u002A\u002A1036,*%
%TO.N,*%
X163090000Y-106060000D03*
%TD*%
%TO.P,REF\u002A\u002A481,*%
%TO.N,*%
X175790000Y-65420000D03*
%TD*%
%TO.P,REF\u002A\u002A533,*%
%TO.N,*%
X130070000Y-70500000D03*
%TD*%
%TO.P,REF\u002A\u002A221,*%
%TO.N,*%
X137690000Y-47640000D03*
%TD*%
%TO.P,REF\u002A\u002A1314,*%
%TO.N,*%
X158010000Y-126380000D03*
%TD*%
%TO.P,REF\u002A\u002A1307,*%
%TO.N,*%
X140230000Y-126380000D03*
%TD*%
%TO.P,REF\u002A\u002A198,*%
%TO.N,*%
X168170000Y-45100000D03*
%TD*%
%TO.P,REF\u002A\u002A13,*%
%TO.N,*%
X142770000Y-32400000D03*
%TD*%
%TO.P,REF\u002A\u002A952,*%
%TO.N,*%
X127530000Y-100980000D03*
%TD*%
%TO.P,REF\u002A\u002A150,*%
%TO.N,*%
X135150000Y-42560000D03*
%TD*%
%TO.P,REF\u002A\u002A153,*%
%TO.N,*%
X142770000Y-42560000D03*
%TD*%
%TO.P,REF\u002A\u002A1200,*%
%TO.N,*%
X135150000Y-118760000D03*
%TD*%
%TO.P,REF\u002A\u002A1288,*%
%TO.N,*%
X180870000Y-123840000D03*
%TD*%
%TO.P,REF\u002A\u002A798,*%
%TO.N,*%
X180870000Y-88280000D03*
%TD*%
%TO.P,REF\u002A\u002A266,*%
%TO.N,*%
X163090000Y-50180000D03*
%TD*%
%TO.P,REF\u002A\u002A864,*%
%TO.N,*%
X170710000Y-93360000D03*
%TD*%
%TO.P,REF\u002A\u002A710,*%
%TO.N,*%
X135150000Y-83200000D03*
%TD*%
%TO.P,REF\u002A\u002A581,*%
%TO.N,*%
X163090000Y-73040000D03*
%TD*%
%TO.P,REF\u002A\u002A1360,*%
%TO.N,*%
X185950000Y-128920000D03*
%TD*%
%TO.P,REF\u002A\u002A689,*%
%TO.N,*%
X170710000Y-80660000D03*
%TD*%
%TO.P,REF\u002A\u002A780,*%
%TO.N,*%
X135150000Y-88280000D03*
%TD*%
%TO.P,REF\u002A\u002A1007,*%
%TO.N,*%
X178330000Y-103520000D03*
%TD*%
%TO.P,REF\u002A\u002A392,*%
%TO.N,*%
X127530000Y-60340000D03*
%TD*%
%TO.P,REF\u002A\u002A563,*%
%TO.N,*%
X117370000Y-73040000D03*
%TD*%
%TO.P,REF\u002A\u002A371,*%
%TO.N,*%
X163090000Y-57800000D03*
%TD*%
%TO.P,REF\u002A\u002A1316,*%
%TO.N,*%
X163090000Y-126380000D03*
%TD*%
%TO.P,REF\u002A\u002A500,*%
%TO.N,*%
X135150000Y-67960000D03*
%TD*%
%TO.P,REF\u002A\u002A921,*%
%TO.N,*%
X137690000Y-98440000D03*
%TD*%
%TO.P,REF\u002A\u002A1231,*%
%TO.N,*%
X124990000Y-121300000D03*
%TD*%
%TO.P,REF\u002A\u002A760,*%
%TO.N,*%
X173250000Y-85740000D03*
%TD*%
%TO.P,REF\u002A\u002A690,*%
%TO.N,*%
X173250000Y-80660000D03*
%TD*%
%TO.P,REF\u002A\u002A849,*%
%TO.N,*%
X132610000Y-93360000D03*
%TD*%
%TO.P,,*%
%TO.N,*%
X140140000Y-123900000D03*
%TD*%
%TO.P,REF\u002A\u002A192,*%
%TO.N,*%
X152930000Y-45100000D03*
%TD*%
%TO.P,REF\u002A\u002A186,*%
%TO.N,*%
X137690000Y-45100000D03*
%TD*%
%TO.P,REF\u002A\u002A1248,*%
%TO.N,*%
X168170000Y-121300000D03*
%TD*%
%TO.P,REF\u002A\u002A1158,*%
%TO.N,*%
X117370000Y-116220000D03*
%TD*%
%TO.P,REF\u002A\u002A580,*%
%TO.N,*%
X160550000Y-73040000D03*
%TD*%
%TO.P,REF\u002A\u002A146,*%
%TO.N,*%
X124990000Y-42560000D03*
%TD*%
%TO.P,REF\u002A\u002A468,*%
%TO.N,*%
X142770000Y-65420000D03*
%TD*%
%TO.P,REF\u002A\u002A294,*%
%TO.N,*%
X145310000Y-52720000D03*
%TD*%
%TO.P,REF\u002A\u002A112,*%
%TO.N,*%
X127530000Y-40020000D03*
%TD*%
%TO.P,REF\u002A\u002A442,*%
%TO.N,*%
X165630000Y-62880000D03*
%TD*%
%TO.P,REF\u002A\u002A1162,*%
%TO.N,*%
X127530000Y-116220000D03*
%TD*%
%TO.P,REF\u002A\u002A232,*%
%TO.N,*%
X165630000Y-47640000D03*
%TD*%
%TO.P,REF\u002A\u002A197,*%
%TO.N,*%
X165630000Y-45100000D03*
%TD*%
%TO.P,REF\u002A\u002A953,*%
%TO.N,*%
X130070000Y-100980000D03*
%TD*%
%TO.P,REF\u002A\u002A108,*%
%TO.N,*%
X117370000Y-40020000D03*
%TD*%
%TO.P,REF\u002A\u002A1323,*%
%TO.N,*%
X180870000Y-126380000D03*
%TD*%
%TO.P,REF\u002A\u002A930,*%
%TO.N,*%
X160550000Y-98440000D03*
%TD*%
%TO.P,REF\u002A\u002A1114,*%
%TO.N,*%
X183410000Y-111140000D03*
%TD*%
%TO.P,REF\u002A\u002A89,*%
%TO.N,*%
X158010000Y-37480000D03*
%TD*%
%TO.P,REF\u002A\u002A605,*%
%TO.N,*%
X135150000Y-75580000D03*
%TD*%
%TO.P,REF\u002A\u002A1128,*%
%TO.N,*%
X130070000Y-113680000D03*
%TD*%
%TO.P,REF\u002A\u002A220,*%
%TO.N,*%
X135150000Y-47640000D03*
%TD*%
%TO.P,REF\u002A\u002A353,*%
%TO.N,*%
X117370000Y-57800000D03*
%TD*%
%TO.P,REF\u002A\u002A354,*%
%TO.N,*%
X119910000Y-57800000D03*
%TD*%
%TO.P,REF\u002A\u002A775,*%
%TO.N,*%
X122450000Y-88280000D03*
%TD*%
%TO.P,REF\u002A\u002A991,*%
%TO.N,*%
X137690000Y-103520000D03*
%TD*%
%TO.P,REF\u002A\u002A1264,*%
%TO.N,*%
X119910000Y-123840000D03*
%TD*%
%TO.P,REF\u002A\u002A762,*%
%TO.N,*%
X178330000Y-85740000D03*
%TD*%
%TO.P,REF\u002A\u002A949,*%
%TO.N,*%
X119910000Y-100980000D03*
%TD*%
%TO.P,REF\u002A\u002A144,*%
%TO.N,*%
X119910000Y-42560000D03*
%TD*%
%TO.P,REF\u002A\u002A904,*%
%TO.N,*%
X183410000Y-95900000D03*
%TD*%
%TO.P,REF\u002A\u002A970,*%
%TO.N,*%
X173250000Y-100980000D03*
%TD*%
%TO.P,REF\u002A\u002A652,*%
%TO.N,*%
X165630000Y-78120000D03*
%TD*%
%TO.P,REF\u002A\u002A111,*%
%TO.N,*%
X124990000Y-40020000D03*
%TD*%
%TO.P,REF\u002A\u002A43,*%
%TO.N,*%
X130070000Y-34940000D03*
%TD*%
%TO.P,REF\u002A\u002A1353,*%
%TO.N,*%
X168170000Y-128920000D03*
%TD*%
%TO.P,REF\u002A\u002A917,*%
%TO.N,*%
X127530000Y-98440000D03*
%TD*%
%TO.P,REF\u002A\u002A410,*%
%TO.N,*%
X173250000Y-60340000D03*
%TD*%
%TO.P,REF\u002A\u002A954,*%
%TO.N,*%
X132610000Y-100980000D03*
%TD*%
%TO.P,REF\u002A\u002A1249,*%
%TO.N,*%
X170710000Y-121300000D03*
%TD*%
%TO.P,REF\u002A\u002A1019,*%
%TO.N,*%
X119910000Y-106060000D03*
%TD*%
%TO.P,REF\u002A\u002A850,*%
%TO.N,*%
X135150000Y-93360000D03*
%TD*%
%TO.P,REF\u002A\u002A535,*%
%TO.N,*%
X135150000Y-70500000D03*
%TD*%
%TO.P,REF\u002A\u002A1356,*%
%TO.N,*%
X175790000Y-128920000D03*
%TD*%
%TO.P,REF\u002A\u002A882,*%
%TO.N,*%
X127530000Y-95900000D03*
%TD*%
%TO.P,REF\u002A\u002A833,*%
%TO.N,GND*%
X180870000Y-90820000D03*
%TD*%
%TO.P,REF\u002A\u002A931,*%
%TO.N,*%
X163090000Y-98440000D03*
%TD*%
%TO.P,REF\u002A\u002A725,*%
%TO.N,*%
X173250000Y-83200000D03*
%TD*%
%TO.P,REF\u002A\u002A7,*%
%TO.N,*%
X127530000Y-32400000D03*
%TD*%
%TO.P,REF\u002A\u002A776,*%
%TO.N,*%
X124990000Y-88280000D03*
%TD*%
%TO.P,REF\u002A\u002A1061,*%
%TO.N,*%
X137690000Y-108600000D03*
%TD*%
%TO.P,REF\u002A\u002A1332,*%
%TO.N,*%
X114830000Y-128920000D03*
%TD*%
%TO.P,REF\u002A\u002A471,*%
%TO.N,*%
X150390000Y-65420000D03*
%TD*%
%TO.P,REF\u002A\u002A1315,*%
%TO.N,*%
X160550000Y-126380000D03*
%TD*%
%TO.P,REF\u002A\u002A466,*%
%TO.N,*%
X137690000Y-65420000D03*
%TD*%
%TO.P,REF\u002A\u002A17,*%
%TO.N,*%
X152930000Y-32400000D03*
%TD*%
%TO.P,REF\u002A\u002A222,*%
%TO.N,*%
X140230000Y-47640000D03*
%TD*%
%TO.P,REF\u002A\u002A936,*%
%TO.N,*%
X175790000Y-98440000D03*
%TD*%
%TO.P,REF\u002A\u002A948,*%
%TO.N,*%
X117370000Y-100980000D03*
%TD*%
%TO.P,REF\u002A\u002A409,*%
%TO.N,*%
X170710000Y-60340000D03*
%TD*%
%TO.P,REF\u002A\u002A913,*%
%TO.N,*%
X117370000Y-98440000D03*
%TD*%
%TO.P,,*%
%TO.N,*%
X155390000Y-126380000D03*
%TD*%
%TO.P,REF\u002A\u002A987,*%
%TO.N,*%
X127530000Y-103520000D03*
%TD*%
%TO.P,REF\u002A\u002A1318,*%
%TO.N,*%
X168170000Y-126380000D03*
%TD*%
%TO.P,REF\u002A\u002A189,*%
%TO.N,*%
X145310000Y-45100000D03*
%TD*%
%TO.P,REF\u002A\u002A363,*%
%TO.N,*%
X142770000Y-57800000D03*
%TD*%
%TO.P,REF\u002A\u002A325,*%
%TO.N,*%
X135150000Y-55260000D03*
%TD*%
%TO.P,REF\u002A\u002A1005,*%
%TO.N,*%
X173250000Y-103520000D03*
%TD*%
%TO.P,REF\u002A\u002A602,*%
%TO.N,*%
X127530000Y-75580000D03*
%TD*%
%TO.P,REF\u002A\u002A343,*%
%TO.N,*%
X180870000Y-55260000D03*
%TD*%
%TO.P,REF\u002A\u002A1218,*%
%TO.N,*%
X180870000Y-118760000D03*
%TD*%
%TO.P,REF\u002A\u002A22,*%
%TO.N,*%
X165630000Y-32400000D03*
%TD*%
%TO.P,REF\u002A\u002A293,*%
%TO.N,*%
X142770000Y-52720000D03*
%TD*%
%TO.P,REF\u002A\u002A1178,*%
%TO.N,*%
X168170000Y-116220000D03*
%TD*%
%TO.P,REF\u002A\u002A1213,*%
%TO.N,*%
X168170000Y-118760000D03*
%TD*%
%TO.P,REF\u002A\u002A1201,*%
%TO.N,*%
X137690000Y-118760000D03*
%TD*%
%TO.P,REF\u002A\u002A517,*%
%TO.N,*%
X178330000Y-67960000D03*
%TD*%
%TO.P,REF\u002A\u002A1296,*%
%TO.N,*%
X112290000Y-126380000D03*
%TD*%
%TO.P,REF\u002A\u002A883,*%
%TO.N,*%
X130070000Y-95900000D03*
%TD*%
%TO.P,,*%
%TO.N,GND*%
X183480000Y-90880000D03*
%TD*%
%TO.P,REF\u002A\u002A14,*%
%TO.N,*%
X145310000Y-32400000D03*
%TD*%
%TO.P,REF\u002A\u002A985,*%
%TO.N,*%
X122450000Y-103520000D03*
%TD*%
%TO.P,REF\u002A\u002A427,*%
%TO.N,*%
X127530000Y-62880000D03*
%TD*%
%TO.P,REF\u002A\u002A673,*%
%TO.N,*%
X130070000Y-80660000D03*
%TD*%
%TO.P,REF\u002A\u002A515,*%
%TO.N,*%
X173250000Y-67960000D03*
%TD*%
%TO.P,REF\u002A\u002A511,*%
%TO.N,*%
X163090000Y-67960000D03*
%TD*%
%TO.P,REF\u002A\u002A268,*%
%TO.N,*%
X168170000Y-50180000D03*
%TD*%
%TO.P,REF\u002A\u002A897,*%
%TO.N,*%
X165630000Y-95900000D03*
%TD*%
%TO.P,REF\u002A\u002A1283,*%
%TO.N,*%
X168170000Y-123840000D03*
%TD*%
%TO.P,REF\u002A\u002A366,*%
%TO.N,*%
X150390000Y-57800000D03*
%TD*%
%TO.P,REF\u002A\u002A641,*%
%TO.N,*%
X137690000Y-78120000D03*
%TD*%
%TO.P,REF\u002A\u002A534,*%
%TO.N,*%
X132610000Y-70500000D03*
%TD*%
%TO.P,REF\u002A\u002A1111,*%
%TO.N,*%
X175790000Y-111140000D03*
%TD*%
%TO.P,REF\u002A\u002A496,*%
%TO.N,*%
X124990000Y-67960000D03*
%TD*%
%TO.P,REF\u002A\u002A1038,*%
%TO.N,*%
X168170000Y-106060000D03*
%TD*%
%TO.P,REF\u002A\u002A1056,*%
%TO.N,*%
X124990000Y-108600000D03*
%TD*%
%TO.P,REF\u002A\u002A773,*%
%TO.N,*%
X117370000Y-88280000D03*
%TD*%
%TO.P,REF\u002A\u002A828,*%
%TO.N,*%
X168170000Y-90820000D03*
%TD*%
%TO.P,REF\u002A\u002A92,*%
%TO.N,*%
X165630000Y-37480000D03*
%TD*%
%TO.P,REF\u002A\u002A551,*%
%TO.N,*%
X175790000Y-70500000D03*
%TD*%
%TO.P,REF\u002A\u002A636,*%
%TO.N,*%
X124990000Y-78120000D03*
%TD*%
%TO.P,REF\u002A\u002A1096,*%
%TO.N,*%
X137690000Y-111140000D03*
%TD*%
%TO.P,REF\u002A\u002A746,*%
%TO.N,*%
X137690000Y-85740000D03*
%TD*%
%TO.P,REF\u002A\u002A413,*%
%TO.N,*%
X180870000Y-60340000D03*
%TD*%
%TO.P,REF\u002A\u002A364,*%
%TO.N,*%
X145310000Y-57800000D03*
%TD*%
%TO.P,REF\u002A\u002A1127,*%
%TO.N,*%
X127530000Y-113680000D03*
%TD*%
%TO.P,REF\u002A\u002A181,*%
%TO.N,*%
X124990000Y-45100000D03*
%TD*%
%TO.P,REF\u002A\u002A1002,*%
%TO.N,*%
X165630000Y-103520000D03*
%TD*%
%TO.P,REF\u002A\u002A1287,*%
%TO.N,*%
X178330000Y-123840000D03*
%TD*%
%TO.P,REF\u002A\u002A400,*%
%TO.N,*%
X147850000Y-60340000D03*
%TD*%
%TO.P,REF\u002A\u002A761,*%
%TO.N,*%
X175790000Y-85740000D03*
%TD*%
%TO.P,REF\u002A\u002A846,*%
%TO.N,*%
X124990000Y-93360000D03*
%TD*%
%TO.P,REF\u002A\u002A1079,*%
%TO.N,*%
X183410000Y-108600000D03*
%TD*%
%TO.P,REF\u002A\u002A93,*%
%TO.N,*%
X168170000Y-37480000D03*
%TD*%
%TO.P,REF\u002A\u002A510,*%
%TO.N,*%
X160550000Y-67960000D03*
%TD*%
%TO.P,REF\u002A\u002A545,*%
%TO.N,*%
X160550000Y-70500000D03*
%TD*%
%TO.P,REF\u002A\u002A447,*%
%TO.N,*%
X178330000Y-62880000D03*
%TD*%
%TO.P,REF\u002A\u002A462,*%
%TO.N,*%
X127530000Y-65420000D03*
%TD*%
%TO.P,REF\u002A\u002A654,*%
%TO.N,*%
X170710000Y-78120000D03*
%TD*%
%TO.P,REF\u002A\u002A1320,*%
%TO.N,*%
X173250000Y-126380000D03*
%TD*%
%TO.P,REF\u002A\u002A1190,*%
%TO.N,*%
X109750000Y-118760000D03*
%TD*%
%TO.P,REF\u002A\u002A809,*%
%TO.N,*%
X119910000Y-90820000D03*
%TD*%
%TO.P,REF\u002A\u002A1253,*%
%TO.N,*%
X180870000Y-121300000D03*
%TD*%
%TO.P,REF\u002A\u002A704,*%
%TO.N,*%
X119910000Y-83200000D03*
%TD*%
%TO.P,REF\u002A\u002A1024,*%
%TO.N,*%
X132610000Y-106060000D03*
%TD*%
%TO.P,REF\u002A\u002A902,*%
%TO.N,*%
X178330000Y-95900000D03*
%TD*%
%TO.P,REF\u002A\u002A816,*%
%TO.N,*%
X137690000Y-90820000D03*
%TD*%
%TO.P,REF\u002A\u002A393,*%
%TO.N,*%
X130070000Y-60340000D03*
%TD*%
%TO.P,REF\u002A\u002A1350,*%
%TO.N,*%
X160550000Y-128920000D03*
%TD*%
%TO.P,REF\u002A\u002A116,*%
%TO.N,*%
X137690000Y-40020000D03*
%TD*%
%TO.P,REF\u002A\u002A723,*%
%TO.N,*%
X168170000Y-83200000D03*
%TD*%
%TO.P,REF\u002A\u002A255,*%
%TO.N,*%
X135150000Y-50180000D03*
%TD*%
%TO.P,REF\u002A\u002A129,*%
%TO.N,*%
X170710000Y-40020000D03*
%TD*%
%TO.P,REF\u002A\u002A1145,*%
%TO.N,*%
X173250000Y-113680000D03*
%TD*%
%TO.P,REF\u002A\u002A814,*%
%TO.N,*%
X132610000Y-90820000D03*
%TD*%
%TO.P,REF\u002A\u002A552,*%
%TO.N,*%
X178330000Y-70500000D03*
%TD*%
%TO.P,REF\u002A\u002A1229,*%
%TO.N,*%
X119910000Y-121300000D03*
%TD*%
%TO.P,REF\u002A\u002A1078,*%
%TO.N,*%
X180870000Y-108600000D03*
%TD*%
%TO.P,REF\u002A\u002A443,*%
%TO.N,*%
X168170000Y-62880000D03*
%TD*%
%TO.P,REF\u002A\u002A437,*%
%TO.N,*%
X152930000Y-62880000D03*
%TD*%
%TO.P,REF\u002A\u002A903,*%
%TO.N,*%
X180870000Y-95900000D03*
%TD*%
%TO.P,REF\u002A\u002A968,*%
%TO.N,*%
X168170000Y-100980000D03*
%TD*%
%TO.P,REF\u002A\u002A483,*%
%TO.N,*%
X180870000Y-65420000D03*
%TD*%
%TO.P,REF\u002A\u002A436,*%
%TO.N,*%
X150390000Y-62880000D03*
%TD*%
%TO.P,REF\u002A\u002A360,*%
%TO.N,*%
X135150000Y-57800000D03*
%TD*%
%TO.P,REF\u002A\u002A306,*%
%TO.N,*%
X175790000Y-52720000D03*
%TD*%
%TO.P,REF\u002A\u002A54,*%
%TO.N,*%
X158010000Y-34940000D03*
%TD*%
%TO.P,REF\u002A\u002A585,*%
%TO.N,*%
X173250000Y-73040000D03*
%TD*%
%TO.P,REF\u002A\u002A1073,*%
%TO.N,*%
X168170000Y-108600000D03*
%TD*%
%TO.P,REF\u002A\u002A162,*%
%TO.N,*%
X165630000Y-42560000D03*
%TD*%
%TO.P,REF\u002A\u002A299,*%
%TO.N,*%
X158010000Y-52720000D03*
%TD*%
%TO.P,REF\u002A\u002A880,*%
%TO.N,*%
X122450000Y-95900000D03*
%TD*%
%TO.P,REF\u002A\u002A319,*%
%TO.N,*%
X119910000Y-55260000D03*
%TD*%
%TO.P,REF\u002A\u002A412,*%
%TO.N,*%
X178330000Y-60340000D03*
%TD*%
%TO.P,REF\u002A\u002A1161,*%
%TO.N,*%
X124990000Y-116220000D03*
%TD*%
%TO.P,REF\u002A\u002A1058,*%
%TO.N,*%
X130070000Y-108600000D03*
%TD*%
%TO.P,REF\u002A\u002A359,*%
%TO.N,*%
X132610000Y-57800000D03*
%TD*%
%TO.P,REF\u002A\u002A884,*%
%TO.N,*%
X132610000Y-95900000D03*
%TD*%
%TO.P,REF\u002A\u002A120,*%
%TO.N,*%
X147850000Y-40020000D03*
%TD*%
%TO.P,REF\u002A\u002A724,*%
%TO.N,*%
X170710000Y-83200000D03*
%TD*%
%TO.P,REF\u002A\u002A463,*%
%TO.N,*%
X130070000Y-65420000D03*
%TD*%
%TO.P,REF\u002A\u002A532,*%
%TO.N,*%
X127530000Y-70500000D03*
%TD*%
%TO.P,REF\u002A\u002A1053,*%
%TO.N,*%
X117370000Y-108600000D03*
%TD*%
%TO.P,REF\u002A\u002A166,*%
%TO.N,*%
X175790000Y-42560000D03*
%TD*%
%TO.P,REF\u002A\u002A1234,*%
%TO.N,*%
X132610000Y-121300000D03*
%TD*%
%TO.P,REF\u002A\u002A743,*%
%TO.N,*%
X130070000Y-85740000D03*
%TD*%
%TO.P,REF\u002A\u002A12,*%
%TO.N,*%
X140230000Y-32400000D03*
%TD*%
%TO.P,REF\u002A\u002A779,*%
%TO.N,*%
X132610000Y-88280000D03*
%TD*%
%TO.P,REF\u002A\u002A402,*%
%TO.N,*%
X152930000Y-60340000D03*
%TD*%
%TO.P,REF\u002A\u002A127,*%
%TO.N,*%
X165630000Y-40020000D03*
%TD*%
%TO.P,REF\u002A\u002A1070,*%
%TO.N,*%
X160550000Y-108600000D03*
%TD*%
%TO.P,REF\u002A\u002A549,*%
%TO.N,*%
X170710000Y-70500000D03*
%TD*%
%TO.P,REF\u002A\u002A781,*%
%TO.N,*%
X137690000Y-88280000D03*
%TD*%
%TO.P,REF\u002A\u002A1074,*%
%TO.N,*%
X170710000Y-108600000D03*
%TD*%
%TO.P,REF\u002A\u002A213,*%
%TO.N,*%
X117370000Y-47640000D03*
%TD*%
%TO.P,REF\u002A\u002A965,*%
%TO.N,*%
X160550000Y-100980000D03*
%TD*%
%TO.P,REF\u002A\u002A21,*%
%TO.N,*%
X163090000Y-32400000D03*
%TD*%
%TO.P,REF\u002A\u002A425,*%
%TO.N,*%
X122450000Y-62880000D03*
%TD*%
%TO.P,REF\u002A\u002A720,*%
%TO.N,*%
X160550000Y-83200000D03*
%TD*%
%TO.P,REF\u002A\u002A1352,*%
%TO.N,*%
X165630000Y-128920000D03*
%TD*%
%TO.P,REF\u002A\u002A1199,*%
%TO.N,*%
X132610000Y-118760000D03*
%TD*%
%TO.P,REF\u002A\u002A1230,*%
%TO.N,*%
X122450000Y-121300000D03*
%TD*%
%TO.P,REF\u002A\u002A1077,*%
%TO.N,*%
X178330000Y-108600000D03*
%TD*%
%TO.P,REF\u002A\u002A355,*%
%TO.N,*%
X122450000Y-57800000D03*
%TD*%
%TO.P,REF\u002A\u002A815,*%
%TO.N,*%
X135150000Y-90820000D03*
%TD*%
%TO.P,REF\u002A\u002A1147,*%
%TO.N,*%
X178330000Y-113680000D03*
%TD*%
%TO.P,REF\u002A\u002A588,*%
%TO.N,*%
X180870000Y-73040000D03*
%TD*%
%TO.P,REF\u002A\u002A1357,*%
%TO.N,*%
X178330000Y-128920000D03*
%TD*%
%TO.P,REF\u002A\u002A45,*%
%TO.N,*%
X135150000Y-34940000D03*
%TD*%
%TO.P,REF\u002A\u002A226,*%
%TO.N,*%
X150390000Y-47640000D03*
%TD*%
%TO.P,REF\u002A\u002A408,*%
%TO.N,*%
X168170000Y-60340000D03*
%TD*%
%TO.P,REF\u002A\u002A830,*%
%TO.N,GND*%
X173250000Y-90820000D03*
%TD*%
%TO.P,REF\u002A\u002A1290,*%
%TO.N,*%
X185950000Y-123840000D03*
%TD*%
%TO.P,REF\u002A\u002A868,*%
%TO.N,GND*%
X180870000Y-93360000D03*
%TD*%
%TO.P,REF\u002A\u002A231,*%
%TO.N,*%
X163090000Y-47640000D03*
%TD*%
%TO.P,REF\u002A\u002A405,*%
%TO.N,*%
X160550000Y-60340000D03*
%TD*%
%TO.P,REF\u002A\u002A633,*%
%TO.N,*%
X117370000Y-78120000D03*
%TD*%
%TO.P,REF\u002A\u002A843,*%
%TO.N,*%
X117370000Y-93360000D03*
%TD*%
%TO.P,REF\u002A\u002A637,*%
%TO.N,*%
X127530000Y-78120000D03*
%TD*%
%TO.P,REF\u002A\u002A361,*%
%TO.N,*%
X137690000Y-57800000D03*
%TD*%
%TO.P,REF\u002A\u002A44,*%
%TO.N,*%
X132610000Y-34940000D03*
%TD*%
%TO.P,REF\u002A\u002A1214,*%
%TO.N,*%
X170710000Y-118760000D03*
%TD*%
%TO.P,REF\u002A\u002A118,*%
%TO.N,*%
X142770000Y-40020000D03*
%TD*%
%TO.P,REF\u002A\u002A1055,*%
%TO.N,*%
X122450000Y-108600000D03*
%TD*%
%TO.P,REF\u002A\u002A1233,*%
%TO.N,*%
X130070000Y-121300000D03*
%TD*%
%TO.P,REF\u002A\u002A297,*%
%TO.N,*%
X152930000Y-52720000D03*
%TD*%
%TO.P,REF\u002A\u002A214,*%
%TO.N,*%
X119910000Y-47640000D03*
%TD*%
%TO.P,REF\u002A\u002A1194,*%
%TO.N,*%
X119910000Y-118760000D03*
%TD*%
%TO.P,REF\u002A\u002A1004,*%
%TO.N,*%
X170710000Y-103520000D03*
%TD*%
%TO.P,REF\u002A\u002A1196,*%
%TO.N,*%
X124990000Y-118760000D03*
%TD*%
%TO.P,REF\u002A\u002A1163,*%
%TO.N,*%
X130070000Y-116220000D03*
%TD*%
%TO.P,REF\u002A\u002A41,*%
%TO.N,*%
X124990000Y-34940000D03*
%TD*%
%TO.P,REF\u002A\u002A653,*%
%TO.N,*%
X168170000Y-78120000D03*
%TD*%
%TO.P,REF\u002A\u002A1175,*%
%TO.N,*%
X160550000Y-116220000D03*
%TD*%
%TO.P,REF\u002A\u002A866,*%
%TO.N,GND*%
X175790000Y-93360000D03*
%TD*%
%TO.P,REF\u002A\u002A377,*%
%TO.N,*%
X178330000Y-57800000D03*
%TD*%
%TO.P,REF\u002A\u002A705,*%
%TO.N,*%
X122450000Y-83200000D03*
%TD*%
%TO.P,REF\u002A\u002A267,*%
%TO.N,*%
X165630000Y-50180000D03*
%TD*%
%TO.P,REF\u002A\u002A606,*%
%TO.N,*%
X137690000Y-75580000D03*
%TD*%
%TO.P,REF\u002A\u002A956,*%
%TO.N,*%
X137690000Y-100980000D03*
%TD*%
%TO.P,REF\u002A\u002A330,*%
%TO.N,*%
X147850000Y-55260000D03*
%TD*%
%TO.P,REF\u002A\u002A827,*%
%TO.N,*%
X165630000Y-90820000D03*
%TD*%
%TO.P,REF\u002A\u002A300,*%
%TO.N,*%
X160550000Y-52720000D03*
%TD*%
%TO.P,REF\u002A\u002A934,*%
%TO.N,*%
X170710000Y-98440000D03*
%TD*%
%TO.P,REF\u002A\u002A329,*%
%TO.N,*%
X145310000Y-55260000D03*
%TD*%
%TO.P,REF\u002A\u002A469,*%
%TO.N,*%
X145310000Y-65420000D03*
%TD*%
%TO.P,REF\u002A\u002A193,*%
%TO.N,*%
X155470000Y-45100000D03*
%TD*%
%TO.P,REF\u002A\u002A378,*%
%TO.N,*%
X180870000Y-57800000D03*
%TD*%
%TO.P,REF\u002A\u002A898,*%
%TO.N,*%
X168170000Y-95900000D03*
%TD*%
%TO.P,REF\u002A\u002A1112,*%
%TO.N,*%
X178330000Y-111140000D03*
%TD*%
%TO.P,,*%
%TO.N,*%
X142800000Y-126390000D03*
%TD*%
%TO.P,REF\u002A\u002A739,*%
%TO.N,*%
X119910000Y-85740000D03*
%TD*%
%TO.P,REF\u002A\u002A301,*%
%TO.N,*%
X163090000Y-52720000D03*
%TD*%
%TO.P,REF\u002A\u002A1195,*%
%TO.N,*%
X122450000Y-118760000D03*
%TD*%
%TO.P,REF\u002A\u002A745,*%
%TO.N,*%
X135150000Y-85740000D03*
%TD*%
%TO.P,REF\u002A\u002A52,*%
%TO.N,*%
X152930000Y-34940000D03*
%TD*%
%TO.P,REF\u002A\u002A984,*%
%TO.N,*%
X119910000Y-103520000D03*
%TD*%
%TO.P,REF\u002A\u002A480,*%
%TO.N,*%
X173250000Y-65420000D03*
%TD*%
%TO.P,REF\u002A\u002A1025,*%
%TO.N,*%
X135150000Y-106060000D03*
%TD*%
%TO.P,REF\u002A\u002A1126,*%
%TO.N,*%
X124990000Y-113680000D03*
%TD*%
%TO.P,REF\u002A\u002A896,*%
%TO.N,*%
X163090000Y-95900000D03*
%TD*%
%TO.P,REF\u002A\u002A528,*%
%TO.N,*%
X117370000Y-70500000D03*
%TD*%
%TO.P,REF\u002A\u002A1054,*%
%TO.N,*%
X119910000Y-108600000D03*
%TD*%
%TO.P,REF\u002A\u002A335,*%
%TO.N,*%
X160550000Y-55260000D03*
%TD*%
%TO.P,REF\u002A\u002A1020,*%
%TO.N,*%
X122450000Y-106060000D03*
%TD*%
%TO.P,REF\u002A\u002A88,*%
%TO.N,*%
X155470000Y-37480000D03*
%TD*%
%TO.P,REF\u002A\u002A1251,*%
%TO.N,*%
X175790000Y-121300000D03*
%TD*%
%TO.P,REF\u002A\u002A671,*%
%TO.N,*%
X124990000Y-80660000D03*
%TD*%
%TO.P,REF\u002A\u002A465,*%
%TO.N,*%
X135150000Y-65420000D03*
%TD*%
%TO.P,REF\u002A\u002A82,*%
%TO.N,*%
X140230000Y-37480000D03*
%TD*%
%TO.P,REF\u002A\u002A16,*%
%TO.N,*%
X150390000Y-32400000D03*
%TD*%
%TO.P,REF\u002A\u002A529,*%
%TO.N,*%
X119910000Y-70500000D03*
%TD*%
%TO.P,REF\u002A\u002A334,*%
%TO.N,*%
X158010000Y-55260000D03*
%TD*%
%TO.P,REF\u002A\u002A638,*%
%TO.N,*%
X130070000Y-78120000D03*
%TD*%
%TO.P,REF\u002A\u002A825,*%
%TO.N,*%
X160550000Y-90820000D03*
%TD*%
%TO.P,REF\u002A\u002A1351,*%
%TO.N,*%
X163090000Y-128920000D03*
%TD*%
%TO.P,REF\u002A\u002A727,*%
%TO.N,*%
X178330000Y-83200000D03*
%TD*%
%TO.P,REF\u002A\u002A446,*%
%TO.N,*%
X175790000Y-62880000D03*
%TD*%
%TO.P,REF\u002A\u002A1217,*%
%TO.N,*%
X178330000Y-118760000D03*
%TD*%
%TO.P,REF\u002A\u002A1197,*%
%TO.N,*%
X127530000Y-118760000D03*
%TD*%
%TO.P,REF\u002A\u002A986,*%
%TO.N,*%
X124990000Y-103520000D03*
%TD*%
%TO.P,REF\u002A\u002A848,*%
%TO.N,*%
X130070000Y-93360000D03*
%TD*%
%TO.P,REF\u002A\u002A51,*%
%TO.N,*%
X150390000Y-34940000D03*
%TD*%
%TO.P,REF\u002A\u002A709,*%
%TO.N,*%
X132610000Y-83200000D03*
%TD*%
%TO.P,REF\u002A\u002A369,*%
%TO.N,*%
X158010000Y-57800000D03*
%TD*%
%TO.P,REF\u002A\u002A56,*%
%TO.N,*%
X163090000Y-34940000D03*
%TD*%
%TO.P,REF\u002A\u002A1003,*%
%TO.N,*%
X168170000Y-103520000D03*
%TD*%
%TO.P,REF\u002A\u002A604,*%
%TO.N,*%
X132610000Y-75580000D03*
%TD*%
%TO.P,REF\u002A\u002A620,*%
%TO.N,*%
X173250000Y-75580000D03*
%TD*%
%TO.P,REF\u002A\u002A58,*%
%TO.N,*%
X168170000Y-34940000D03*
%TD*%
%TO.P,REF\u002A\u002A1271,*%
%TO.N,*%
X137690000Y-123900000D03*
%TD*%
%TO.P,REF\u002A\u002A1120,*%
%TO.N,*%
X109750000Y-113680000D03*
%TD*%
%TO.P,REF\u002A\u002A79,*%
%TO.N,*%
X132610000Y-37480000D03*
%TD*%
%TO.P,REF\u002A\u002A567,*%
%TO.N,*%
X127530000Y-73040000D03*
%TD*%
%TO.P,REF\u002A\u002A1075,*%
%TO.N,*%
X173250000Y-108600000D03*
%TD*%
%TO.P,REF\u002A\u002A19,*%
%TO.N,*%
X158010000Y-32400000D03*
%TD*%
%TO.P,REF\u002A\u002A711,*%
%TO.N,*%
X137690000Y-83200000D03*
%TD*%
%TO.P,REF\u002A\u002A862,*%
%TO.N,*%
X165630000Y-93360000D03*
%TD*%
%TO.P,REF\u002A\u002A1142,*%
%TO.N,*%
X165630000Y-113680000D03*
%TD*%
%TO.P,REF\u002A\u002A674,*%
%TO.N,*%
X132610000Y-80660000D03*
%TD*%
%TO.P,REF\u002A\u002A686,*%
%TO.N,*%
X163090000Y-80660000D03*
%TD*%
%TO.P,REF\u002A\u002A1107,*%
%TO.N,*%
X165630000Y-111140000D03*
%TD*%
%TO.P,REF\u002A\u002A178,*%
%TO.N,*%
X117370000Y-45100000D03*
%TD*%
%TO.P,REF\u002A\u002A475,*%
%TO.N,*%
X160550000Y-65420000D03*
%TD*%
%TO.P,REF\u002A\u002A497,*%
%TO.N,*%
X127530000Y-67960000D03*
%TD*%
%TO.P,REF\u002A\u002A1176,*%
%TO.N,*%
X163090000Y-116220000D03*
%TD*%
%TO.P,REF\u002A\u002A937,*%
%TO.N,*%
X178330000Y-98440000D03*
%TD*%
%TO.P,REF\u002A\u002A147,*%
%TO.N,*%
X127530000Y-42560000D03*
%TD*%
%TO.P,REF\u002A\u002A1129,*%
%TO.N,*%
X132610000Y-113680000D03*
%TD*%
%TO.P,REF\u002A\u002A1105,*%
%TO.N,*%
X160550000Y-111140000D03*
%TD*%
%TO.P,REF\u002A\u002A375,*%
%TO.N,*%
X173250000Y-57800000D03*
%TD*%
%TO.P,REF\u002A\u002A117,*%
%TO.N,*%
X140230000Y-40020000D03*
%TD*%
%TO.P,REF\u002A\u002A444,*%
%TO.N,*%
X170710000Y-62880000D03*
%TD*%
%TO.P,REF\u002A\u002A1319,*%
%TO.N,*%
X170710000Y-126380000D03*
%TD*%
%TO.P,REF\u002A\u002A740,*%
%TO.N,*%
X122450000Y-85740000D03*
%TD*%
%TO.P,REF\u002A\u002A668,*%
%TO.N,*%
X117370000Y-80660000D03*
%TD*%
%TO.P,REF\u002A\u002A1165,*%
%TO.N,*%
X135150000Y-116220000D03*
%TD*%
%TO.P,REF\u002A\u002A756,*%
%TO.N,*%
X163090000Y-85740000D03*
%TD*%
%TO.P,REF\u002A\u002A565,*%
%TO.N,*%
X122450000Y-73040000D03*
%TD*%
%TO.P,REF\u002A\u002A1001,*%
%TO.N,*%
X163090000Y-103520000D03*
%TD*%
%TO.P,REF\u002A\u002A845,*%
%TO.N,*%
X122450000Y-93360000D03*
%TD*%
%TO.P,REF\u002A\u002A915,*%
%TO.N,*%
X122450000Y-98440000D03*
%TD*%
%TO.P,REF\u002A\u002A161,*%
%TO.N,*%
X163090000Y-42560000D03*
%TD*%
%TO.P,REF\u002A\u002A367,*%
%TO.N,*%
X152930000Y-57800000D03*
%TD*%
%TO.P,REF\u002A\u002A318,*%
%TO.N,*%
X117370000Y-55260000D03*
%TD*%
%TO.P,REF\u002A\u002A122,*%
%TO.N,*%
X152930000Y-40020000D03*
%TD*%
%TO.P,REF\u002A\u002A333,*%
%TO.N,*%
X155470000Y-55260000D03*
%TD*%
%TO.P,REF\u002A\u002A687,*%
%TO.N,*%
X165630000Y-80660000D03*
%TD*%
%TO.P,REF\u002A\u002A296,*%
%TO.N,*%
X150390000Y-52720000D03*
%TD*%
%TO.P,REF\u002A\u002A599,*%
%TO.N,*%
X119910000Y-75580000D03*
%TD*%
%TO.P,REF\u002A\u002A403,*%
%TO.N,*%
X155470000Y-60340000D03*
%TD*%
%TO.P,REF\u002A\u002A974,*%
%TO.N,*%
X183410000Y-100980000D03*
%TD*%
%TO.P,REF\u002A\u002A879,*%
%TO.N,*%
X119910000Y-95900000D03*
%TD*%
%TO.P,REF\u002A\u002A615,*%
%TO.N,*%
X160550000Y-75580000D03*
%TD*%
%TO.P,REF\u002A\u002A1042,*%
%TO.N,*%
X178330000Y-106060000D03*
%TD*%
%TO.P,REF\u002A\u002A125,*%
%TO.N,*%
X160550000Y-40020000D03*
%TD*%
%TO.P,REF\u002A\u002A339,*%
%TO.N,*%
X170710000Y-55260000D03*
%TD*%
%TO.P,REF\u002A\u002A10,*%
%TO.N,*%
X135150000Y-32400000D03*
%TD*%
%TO.P,REF\u002A\u002A1298,*%
%TO.N,*%
X117370000Y-126380000D03*
%TD*%
%TO.P,REF\u002A\u002A77,*%
%TO.N,*%
X127530000Y-37480000D03*
%TD*%
%TO.P,REF\u002A\u002A512,*%
%TO.N,*%
X165630000Y-67960000D03*
%TD*%
%TO.P,REF\u002A\u002A476,*%
%TO.N,*%
X163090000Y-65420000D03*
%TD*%
%TO.P,REF\u002A\u002A482,*%
%TO.N,*%
X178330000Y-65420000D03*
%TD*%
%TO.P,REF\u002A\u002A163,*%
%TO.N,*%
X168170000Y-42560000D03*
%TD*%
%TO.P,REF\u002A\u002A55,*%
%TO.N,*%
X160550000Y-34940000D03*
%TD*%
%TO.P,REF\u002A\u002A1355,*%
%TO.N,*%
X173250000Y-128920000D03*
%TD*%
%TO.P,REF\u002A\u002A1232,*%
%TO.N,*%
X127530000Y-121300000D03*
%TD*%
%TO.P,REF\u002A\u002A1140,*%
%TO.N,*%
X160550000Y-113680000D03*
%TD*%
%TO.P,REF\u002A\u002A42,*%
%TO.N,*%
X127530000Y-34940000D03*
%TD*%
%TO.P,REF\u002A\u002A1255,*%
%TO.N,*%
X185950000Y-121300000D03*
%TD*%
%TO.P,REF\u002A\u002A847,*%
%TO.N,*%
X127530000Y-93360000D03*
%TD*%
%TO.P,REF\u002A\u002A1057,*%
%TO.N,*%
X127530000Y-108600000D03*
%TD*%
%TO.P,REF\u002A\u002A154,*%
%TO.N,*%
X145310000Y-42560000D03*
%TD*%
%TO.P,REF\u002A\u002A320,*%
%TO.N,*%
X122450000Y-55260000D03*
%TD*%
%TO.P,REF\u002A\u002A844,*%
%TO.N,*%
X119910000Y-93360000D03*
%TD*%
%TO.P,REF\u002A\u002A566,*%
%TO.N,*%
X124990000Y-73040000D03*
%TD*%
%TO.P,REF\u002A\u002A867,*%
%TO.N,GND*%
X178330000Y-93360000D03*
%TD*%
%TO.P,REF\u002A\u002A365,*%
%TO.N,*%
X147850000Y-57800000D03*
%TD*%
%TO.P,REF\u002A\u002A811,*%
%TO.N,*%
X124990000Y-90820000D03*
%TD*%
%TO.P,REF\u002A\u002A972,*%
%TO.N,*%
X178330000Y-100980000D03*
%TD*%
%TO.P,REF\u002A\u002A86,*%
%TO.N,*%
X150390000Y-37480000D03*
%TD*%
%TO.P,,*%
%TO.N,*%
X155320000Y-123900000D03*
%TD*%
%TO.P,REF\u002A\u002A474,*%
%TO.N,*%
X158010000Y-65420000D03*
%TD*%
%TO.P,REF\u002A\u002A337,*%
%TO.N,*%
X165630000Y-55260000D03*
%TD*%
%TO.P,REF\u002A\u002A341,*%
%TO.N,*%
X175790000Y-55260000D03*
%TD*%
%TO.P,REF\u002A\u002A18,*%
%TO.N,*%
X155470000Y-32400000D03*
%TD*%
%TO.P,REF\u002A\u002A358,*%
%TO.N,*%
X130070000Y-57800000D03*
%TD*%
%TO.P,REF\u002A\u002A441,*%
%TO.N,*%
X163090000Y-62880000D03*
%TD*%
%TO.P,REF\u002A\u002A298,*%
%TO.N,*%
X155470000Y-52720000D03*
%TD*%
%TO.P,REF\u002A\u002A693,*%
%TO.N,*%
X180870000Y-80660000D03*
%TD*%
%TO.P,REF\u002A\u002A398,*%
%TO.N,*%
X142770000Y-60340000D03*
%TD*%
%TO.P,REF\u002A\u002A708,*%
%TO.N,*%
X130070000Y-83200000D03*
%TD*%
%TO.P,REF\u002A\u002A90,*%
%TO.N,*%
X160550000Y-37480000D03*
%TD*%
%TO.P,REF\u002A\u002A370,*%
%TO.N,*%
X160550000Y-57800000D03*
%TD*%
%TO.P,REF\u002A\u002A191,*%
%TO.N,*%
X150390000Y-45100000D03*
%TD*%
%TO.P,REF\u002A\u002A861,*%
%TO.N,*%
X163090000Y-93360000D03*
%TD*%
%TO.P,REF\u002A\u002A744,*%
%TO.N,*%
X132610000Y-85740000D03*
%TD*%
%TO.P,REF\u002A\u002A685,*%
%TO.N,*%
X160550000Y-80660000D03*
%TD*%
%TO.P,REF\u002A\u002A376,*%
%TO.N,*%
X175790000Y-57800000D03*
%TD*%
%TO.P,REF\u002A\u002A1146,*%
%TO.N,*%
X175790000Y-113680000D03*
%TD*%
%TO.P,REF\u002A\u002A1072,*%
%TO.N,*%
X165630000Y-108600000D03*
%TD*%
%TO.P,REF\u002A\u002A262,*%
%TO.N,*%
X152930000Y-50180000D03*
%TD*%
%TO.P,REF\u002A\u002A670,*%
%TO.N,*%
X122450000Y-80660000D03*
%TD*%
%TO.P,REF\u002A\u002A433,*%
%TO.N,*%
X142770000Y-62880000D03*
%TD*%
%TO.P,REF\u002A\u002A305,*%
%TO.N,*%
X173250000Y-52720000D03*
%TD*%
%TO.P,REF\u002A\u002A1211,*%
%TO.N,*%
X163090000Y-118760000D03*
%TD*%
%TO.P,REF\u002A\u002A759,*%
%TO.N,*%
X170710000Y-85740000D03*
%TD*%
%TO.P,REF\u002A\u002A794,*%
%TO.N,*%
X170710000Y-88280000D03*
%TD*%
%TO.P,REF\u002A\u002A1246,*%
%TO.N,*%
X163090000Y-121300000D03*
%TD*%
%TO.P,REF\u002A\u002A445,*%
%TO.N,*%
X173250000Y-62880000D03*
%TD*%
%TO.P,REF\u002A\u002A1090,*%
%TO.N,*%
X122450000Y-111140000D03*
%TD*%
%TO.P,REF\u002A\u002A1210,*%
%TO.N,*%
X160550000Y-118760000D03*
%TD*%
%TO.P,REF\u002A\u002A1125,*%
%TO.N,*%
X122450000Y-113680000D03*
%TD*%
%TO.P,REF\u002A\u002A1177,*%
%TO.N,*%
X165630000Y-116220000D03*
%TD*%
%TO.P,REF\u002A\u002A399,*%
%TO.N,*%
X145310000Y-60340000D03*
%TD*%
%TO.P,REF\u002A\u002A553,*%
%TO.N,*%
X180870000Y-70500000D03*
%TD*%
M02*
